<svg width="1920" height="923" viewBox="0 0 1920 923" fill="none" xmlns="http://www.w3.org/2000/svg">
<g opacity="0.27">
<path d="M1597.16 684.942C1630.39 684.942 1657.32 658.008 1657.32 624.782C1657.32 591.557 1630.39 564.622 1597.16 564.622C1563.93 564.622 1537 591.557 1537 624.782C1537 658.008 1563.93 684.942 1597.16 684.942Z" fill="#B3E56A"/>
<g opacity="0.7">
<path opacity="0.3" d="M-33.4364 693.904C-50.8084 571.024 -54.2854 227.984 126.408 166.544C220.229 135.824 254.979 230.544 307.103 271.504C407.87 345.744 487.796 245.904 585.091 220.304C731.037 181.904 731.037 279.184 842.23 315.024C974.272 355.984 981.229 238.224 1033.35 184.464C1061.15 156.304 1102.84 128.144 1154.97 130.704C1220.99 135.824 1238.37 181.904 1266.17 217.744C1293.97 256.144 1328.72 297.104 1394.74 274.064C1439.91 256.144 1450.34 217.744 1478.14 189.584C1509.41 161.424 1571.96 128.144 1624.08 148.624C1676.2 169.104 1665.78 227.984 1707.48 253.584C1787.4 304.784 1863.85 151.184 1933.34 253.584C1971.57 312.464 1964.62 425.104 1968.09 491.664C1968.09 532.624 1961.15 573.584 1964.62 611.984C1968.09 658.064 1971.57 660.624 1905.55 673.424C1721.38 709.264 1526.79 688.784 1335.67 688.784C1123.7 688.784 908.259 691.344 692.82 691.344C449.582 691.344 209.815 696.464 -33.4264 693.904" fill="#B3E56A"/>
<path opacity="0.3" d="M-29.9596 921.744C-47.3346 798.864 -50.8086 455.824 129.884 394.384C223.705 363.664 258.452 458.384 310.576 499.344C411.348 573.584 491.268 473.744 588.564 448.144C734.51 409.744 734.51 507.024 845.706 542.864C977.751 583.824 984.706 466.064 1036.82 412.304C1064.62 384.144 1106.32 355.984 1158.44 358.544C1224.47 363.664 1241.84 409.744 1269.64 445.584C1297.44 483.984 1332.19 524.944 1398.21 501.904C1443.39 483.984 1453.81 445.584 1481.61 417.424C1512.88 389.264 1575.43 355.984 1627.55 376.464C1679.67 396.944 1669.25 455.824 1710.95 481.424C1790.87 532.624 1867.32 379.024 1936.82 481.424C1975.04 540.304 1968.09 652.944 1971.57 719.504C1971.57 760.464 1964.62 801.424 1968.09 839.824C1971.57 885.904 1975.04 888.464 1909.02 901.264C1724.85 937.104 1530.26 916.624 1339.14 916.624C1127.17 916.624 911.739 919.184 696.292 919.184C453.051 919.184 213.284 924.304 -29.9536 921.744" fill="#B3E56A"/>
</g>
<path d="M1270.1 247.631C1220.82 240.752 1193.32 264.821 1171.55 309.516C1148.62 357.649 1166.96 406.929 1163.52 457.356C1160.08 510.072 1121.12 554.767 1114.24 607.485C1106.22 669.373 1173.84 690.001 1223.12 693.439C1271.25 695.73 1337.72 673.955 1336.58 616.654C1335.43 563.936 1282.71 528.411 1287.3 474.546C1288.44 452.771 1295.32 443.603 1306.78 413.805C1314.77 393.036 1321.05 375.82 1323.97 354.211C1329.7 311.811 1326.26 256.798 1270.1 247.631" stroke="#547C0E" stroke-width="0.25" stroke-miterlimit="10"/>
<path d="M1234.58 248.393C1233.81 238.46 1227.7 228.146 1226.18 217.832C1225.41 214.775 1224.27 210.19 1226.56 207.897C1229.62 204.843 1240.7 206.374 1244.9 206.374C1255.21 205.606 1266.67 203.699 1276.99 204.843C1280.81 205.224 1281.19 204.08 1282.72 207.518C1283.86 210.19 1282.33 215.918 1282.33 218.595C1281.95 224.708 1281.95 230.438 1281.57 236.551C1281.19 241.134 1280.42 244.951 1280.42 249.156" stroke="#547C0E" stroke-width="0.25" stroke-miterlimit="10"/>
<path d="M1242.22 246.862C1242.22 239.226 1238.78 230.819 1236.87 223.562C1235.34 218.214 1234.58 210.957 1232.67 206.753" stroke="#547C0E" stroke-width="0.25" stroke-miterlimit="10"/>
<path d="M1253.3 246.099C1252.15 237.699 1249.48 228.527 1247.18 220.125C1246.04 215.54 1246.04 210.189 1244.51 205.989" stroke="#547C0E" stroke-width="0.25" stroke-miterlimit="10"/>
<path d="M1259.79 246.099C1260.17 239.225 1259.03 231.965 1258.26 225.089C1257.88 219.741 1257.88 210.571 1256.73 206.373" stroke="#547C0E" stroke-width="0.25" stroke-miterlimit="10"/>
<path d="M1268.58 246.1C1268.58 232.732 1269.72 218.214 1268.96 204.843" stroke="#547C0E" stroke-width="0.25" stroke-miterlimit="10"/>
<path d="M1275.07 248.393C1275.07 233.878 1275.45 218.976 1275.45 204.461" stroke="#547C0E" stroke-width="0.25" stroke-miterlimit="10"/>
<path d="M1183.01 686.944C1161.61 627.352 1166.96 569.284 1197.52 513.512C1215.86 479.894 1210.51 446.279 1204.4 409.602C1200.58 387.448 1197.52 360.709 1202.11 338.549C1205.93 320.212 1217.39 302.64 1225.03 285.831C1230.38 273.607 1239.54 262.149 1240.31 248.396" stroke="#547C0E" stroke-width="0.25" stroke-miterlimit="10"/>
<path d="M1286.91 682.362C1286.15 677.78 1282.33 677.014 1280.04 673.195C1270.87 660.971 1263.23 647.984 1257.88 633.466C1246.42 602.905 1244.89 570.815 1244.13 537.966C1243.37 505.117 1247.95 471.496 1258.64 440.934C1271.64 402.734 1291.5 361.477 1287.68 320.217C1285.39 296.529 1275.45 266.733 1264.76 248.399" stroke="#547C0E" stroke-width="0.25" stroke-miterlimit="10"/>
<path d="M1244.13 304.933C1228.08 333.966 1224.27 368.347 1224.27 400.433" stroke="#547C0E" stroke-width="0.25" stroke-miterlimit="10"/>
<path d="M1256.36 355.36C1256.36 372.932 1254.83 386.684 1247.96 403.493" stroke="#547C0E" stroke-width="0.25" stroke-miterlimit="10"/>
<path d="M1303.72 295.766C1307.54 327.856 1302.19 354.595 1289.97 383.628" stroke="#547C0E" stroke-width="0.25" stroke-miterlimit="10"/>
<path d="M1290.74 413.426C1291.5 426.413 1286.15 438.637 1280.04 450.098" stroke="#547C0E" stroke-width="0.25" stroke-miterlimit="10"/>
<path d="M1201.35 299.585C1189.12 331.674 1183.77 358.414 1183.77 392.794" stroke="#547C0E" stroke-width="0.25" stroke-miterlimit="10"/>
<path d="M1185.3 418.774C1184.53 428.704 1185.3 437.874 1185.3 447.804" stroke="#547C0E" stroke-width="0.25" stroke-miterlimit="10"/>
<path d="M1176.89 500.523C1176.13 516.569 1160.85 531.084 1156.27 546.365C1150.16 563.937 1144.81 583.805 1149.39 602.905" stroke="#547C0E" stroke-width="0.25" stroke-miterlimit="10"/>
<path d="M1218.15 520.391C1211.28 544.839 1203.63 566.23 1204.4 592.207C1205.16 616.657 1214.33 633.467 1222.74 656.386" stroke="#547C0E" stroke-width="0.25" stroke-miterlimit="10"/>
<path d="M1223.5 567.761C1224.27 577.691 1224.27 587.621 1225.03 596.789" stroke="#547C0E" stroke-width="0.25" stroke-miterlimit="10"/>
<path d="M1234.2 456.209C1233.55 463.137 1232.53 470.024 1231.14 476.84" stroke="#547C0E" stroke-width="0.25" stroke-miterlimit="10"/>
<path d="M1266.29 507.401C1264.76 537.201 1265.52 566.995 1279.27 593.734C1287.67 609.78 1301.43 633.465 1289.97 651.034" stroke="#547C0E" stroke-width="0.25" stroke-miterlimit="10"/>
<path d="M1288.44 561.648C1301.43 577.691 1303.72 590.681 1303.72 610.548" stroke="#547C0E" stroke-width="0.25" stroke-miterlimit="10"/>
<path d="M1134.11 620.476C1137.16 631.176 1139.46 641.87 1144.81 651.8" stroke="#547C0E" stroke-width="0.25" stroke-miterlimit="10"/>
<path d="M1244.13 651.801C1245.65 655.623 1246.42 659.443 1247.95 664.028" stroke="#547C0E" stroke-width="0.25" stroke-miterlimit="10"/>
<path d="M1192.93 645.69C1195.32 652.458 1197.36 659.345 1199.05 666.321" stroke="#547C0E" stroke-width="0.25" stroke-miterlimit="10"/>
<path d="M1240.31 414.952C1240.22 421.006 1238.92 426.982 1236.49 432.526" stroke="#547C0E" stroke-width="0.25" stroke-miterlimit="10"/>
<path d="M1262.47 292.709C1265.52 302.639 1267.81 314.866 1264.76 325.561" stroke="#547C0E" stroke-width="0.25" stroke-miterlimit="10"/>
<path d="M1286.91 259.854C1289.41 264.488 1291.46 269.349 1293.03 274.372" stroke="#547C0E" stroke-width="0.25" stroke-miterlimit="10"/>
<path d="M1256.35 262.914C1255.7 268.074 1254.68 273.18 1253.3 278.192" stroke="#547C0E" stroke-width="0.25" stroke-miterlimit="10"/>
<path d="M1218.92 272.081C1215.86 275.9 1213.57 278.957 1210.52 282.774" stroke="#547C0E" stroke-width="0.25" stroke-miterlimit="10"/>
<path d="M1179.19 324.033C1178.3 328.826 1177.79 333.68 1177.66 338.551" stroke="#547C0E" stroke-width="0.25" stroke-miterlimit="10"/>
<path d="M1273.16 470.727C1273.16 476.84 1274.69 482.188 1274.69 488.301" stroke="#547C0E" stroke-width="0.25" stroke-miterlimit="10"/>
<path d="M1320.53 610.544C1322.82 622.771 1321.29 630.41 1315.18 641.106" stroke="#547C0E" stroke-width="0.25" stroke-miterlimit="10"/>
<path d="M1193.7 558.591C1191.41 570.052 1188.36 580.748 1186.83 592.206" stroke="#547C0E" stroke-width="0.25" stroke-miterlimit="10"/>
<path d="M1286.15 527.264C1286.91 531.849 1288.44 536.431 1289.21 541.016" stroke="#547C0E" stroke-width="0.25" stroke-miterlimit="10"/>
<path d="M1195.23 463.851C1195.23 473.019 1195.23 482.188 1192.17 491.351" stroke="#547C0E" stroke-width="0.25" stroke-miterlimit="10"/>
<path d="M1153.21 525.739C1150.15 535.669 1147.09 544.839 1142.51 554.009" stroke="#547C0E" stroke-width="0.25" stroke-miterlimit="10"/>
<path d="M1236.49 596.789C1238.02 600.614 1239.54 603.668 1240.31 607.489" stroke="#547C0E" stroke-width="0.25" stroke-miterlimit="10"/>
<path d="M1446.49 657.707C1456.03 630.307 1460.91 606.23 1460.66 576.907C1461.28 531.034 1430.3 487.502 1421.51 442.233C1414.88 405.272 1407.54 369.275 1414.66 331.892C1419.91 299.119 1437.23 266.192 1451.7 237.159C1440.55 270.851 1427 305.787 1421.3 341.22C1415.47 375.813 1420.55 413.886 1429.31 447.928C1438.21 482.813 1457.8 514.304 1469.1 547.95C1474.13 563.576 1477.86 581.993 1475.17 597.96C1471.32 617.56 1465.91 638.27 1459.8 659.95" stroke="#547C0E" stroke-width="0.25" stroke-miterlimit="10"/>
<path d="M1466.15 534.596C1464.25 527.981 1465.86 521.686 1467.47 515.386C1469.79 508.118 1486.45 470.97 1495.01 470.499C1509.35 468.262 1498.27 535.631 1467.39 536.993" stroke="#547C0E" stroke-width="0.25" stroke-miterlimit="10"/>
<path d="M1466.28 535.438C1472.42 524.978 1480.38 515.099 1483.6 502.506" stroke="#547C0E" stroke-width="0.25" stroke-miterlimit="10"/>
<path d="M1452.92 538.382C1428.94 550.762 1359.61 499.396 1384.35 480.851C1399.05 469.922 1431.88 497.619 1438.91 509.477C1443.73 518.227 1444.55 534.506 1454.48 537.277" stroke="#547C0E" stroke-width="0.25" stroke-miterlimit="10"/>
<path d="M1451.82 536.83C1431.11 531.421 1417.38 515.43 1401.39 501.512" stroke="#547C0E" stroke-width="0.25" stroke-miterlimit="10"/>
<path d="M1454.75 511.328C1451.35 500.628 1446.98 489.22 1445.98 477.282C1444.72 463.663 1454.22 413.815 1475.9 419.933C1506.8 429.794 1466.27 496.574 1453.11 506.4" stroke="#547C0E" stroke-width="0.25" stroke-miterlimit="10"/>
<path d="M1452.85 504.713C1451.19 488.562 1458.81 470.964 1463.32 455.576" stroke="#547C0E" stroke-width="0.25" stroke-miterlimit="10"/>
<path d="M1433.99 483.473C1417.05 480.073 1341.13 441.822 1375.86 420.858C1411.43 399.764 1420.4 468.32 1432.04 482.05" stroke="#547C0E" stroke-width="0.25" stroke-miterlimit="10"/>
<path d="M1428.14 479.203C1416.05 468.136 1404.8 456.936 1393.43 444.894" stroke="#547C0E" stroke-width="0.25" stroke-miterlimit="10"/>
<path d="M1433.89 466.216C1432.05 454.416 1429.37 442.741 1429.21 430.673C1428.92 417.763 1443.22 365.439 1460.97 385.128C1475.67 401.828 1448.46 454.442 1436.29 464.977" stroke="#547C0E" stroke-width="0.25" stroke-miterlimit="10"/>
<path d="M1434.6 465.241C1432.76 453.434 1438.11 437.921 1442.57 427.724" stroke="#547C0E" stroke-width="0.25" stroke-miterlimit="10"/>
<path d="M1416.33 414.544C1402.05 411.59 1354.76 385.283 1367.18 365.21C1381.01 343.189 1412.46 395.285 1413.85 409.746" stroke="#547C0E" stroke-width="0.25" stroke-miterlimit="10"/>
<path d="M1413.41 412.41C1408.91 400.158 1396.68 388.246 1389.78 377.23" stroke="#547C0E" stroke-width="0.25" stroke-miterlimit="10"/>
<path d="M1421.7 410.252C1421.35 401.11 1422.25 391.962 1424.37 383.062C1427.01 372.287 1433.33 357.48 1441.69 350.133C1451.02 343.495 1457.9 343.285 1457.34 356.333C1455.75 373.854 1432.64 397.324 1421.7 410.257" stroke="#547C0E" stroke-width="0.25" stroke-miterlimit="10"/>
<path d="M1422.02 406.747C1426.21 394.866 1430.67 384.672 1437.65 374.079" stroke="#547C0E" stroke-width="0.25" stroke-miterlimit="10"/>
<path d="M1409.94 368.039C1399.22 360.211 1352.96 329.429 1371.67 310.964C1394.07 288.464 1408.23 357.08 1410.78 367.909" stroke="#547C0E" stroke-width="0.25" stroke-miterlimit="10"/>
<path d="M1409.41 364.671C1400.11 354.889 1389.44 341.871 1386.5 328.516" stroke="#547C0E" stroke-width="0.25" stroke-miterlimit="10"/>
<path d="M1419.08 365.751C1421.98 356.66 1422.35 347.967 1426.23 339.59C1429.97 330.369 1457.78 287.166 1468.53 306.221C1478.43 325.403 1433.07 355.795 1421.09 361.983" stroke="#547C0E" stroke-width="0.25" stroke-miterlimit="10"/>
<path d="M1420.95 361.141C1426.83 348.999 1436.22 337.169 1444.17 327.29" stroke="#547C0E" stroke-width="0.25" stroke-miterlimit="10"/>
<path d="M1415.75 322.226C1408.66 315.557 1370.39 258.479 1401.66 259.647C1426.9 260.894 1415.06 306.787 1416.32 320.409C1411.82 308.154 1407.19 295.06 1404.24 281.699" stroke="#547C0E" stroke-width="0.25" stroke-miterlimit="10"/>
<path d="M1427.28 318.699C1428.95 307.21 1436.25 293.117 1441.68 283.632C1445.82 276.943 1469.83 248.15 1475.96 265.332C1482.23 283.355 1441.02 307.058 1429.03 313.248" stroke="#547C0E" stroke-width="0.25" stroke-miterlimit="10"/>
<path d="M1427.73 316.036C1433.35 302.204 1444.55 290.958 1455.88 280.552" stroke="#547C0E" stroke-width="0.25" stroke-miterlimit="10"/>
<path d="M1434.52 270.931C1423.09 264.08 1395.27 213.141 1419.09 216.336C1437.59 218.636 1436.89 258.468 1434.52 270.931Z" stroke="#547C0E" stroke-width="0.25" stroke-miterlimit="10"/>
<path d="M1434.83 267.427C1429.04 257.968 1423.82 246.691 1422.11 235.727" stroke="#547C0E" stroke-width="0.25" stroke-miterlimit="10"/>
<path d="M1443.98 265.138C1447.85 256.759 1453.6 243.772 1462.35 238.952C1474.92 230.947 1480.45 238.719 1473.59 250.152C1467.19 258.925 1454.09 263.559 1444.11 265.983L1443.98 265.138ZM1443.98 265.138C1450.06 259.87 1456.86 253.628 1462.82 247.518" stroke="#547C0E" stroke-width="0.25" stroke-miterlimit="10"/>
<path d="M1444.98 249.435C1456.1 232.153 1431.59 174.66 1461.23 170.899C1489.18 167.399 1460.45 232.339 1448.85 241.056" stroke="#547C0E" stroke-width="0.25" stroke-miterlimit="10"/>
<path d="M1450.54 240.795C1451.94 227.619 1455.03 214.184 1457.14 200.037" stroke="#547C0E" stroke-width="0.25" stroke-miterlimit="10"/>
<path d="M1916.73 646.971C1897.96 646.971 1880.89 644.411 1862.12 641.851C1840.79 639.291 1809.21 635.026 1790.44 623.079C1757.16 600.892 1811.77 594.067 1796.41 577.851C1786.17 566.758 1746.07 568.466 1749.48 544.571C1752.04 526.651 1779.35 526.651 1789.59 517.271C1802.39 506.176 1781.91 478.871 1781.91 460.951C1781.91 444.736 1788.73 425.963 1806.65 437.051C1819.45 444.731 1833.11 469.478 1842.49 481.426C1850.17 468.626 1878.33 440.466 1886.87 466.066C1891.99 482.278 1879.19 509.586 1889.43 523.238C1903.93 515.558 1932.95 493.371 1933.8 523.238C1933.8 535.186 1929.53 545.426 1926.12 555.666C1925.27 559.931 1921.85 564.198 1923.56 568.466C1926.12 576.146 1926.97 569.318 1932.09 573.586C1941.48 580.411 1941.48 577.851 1938.07 590.651C1935.51 599.186 1932.09 606.866 1929.53 615.398C1925.27 625.638 1921.85 635.878 1918.44 646.118" stroke="#547C0E" stroke-width="0.25" stroke-miterlimit="10"/>
<path d="M1919.29 646.97C1898.81 625.637 1881.75 594.07 1866.39 568.47C1844.2 532.63 1825.43 494.23 1801.53 460.095C1799.83 457.535 1797.27 454.975 1795.56 452.415" stroke="#547C0E" stroke-width="0.25" stroke-miterlimit="10"/>
<path d="M1801.53 493.37C1808.36 496.785 1826.28 506.17 1834.81 512.997C1832.25 501.905 1831.4 489.957 1828.84 479.717" stroke="#547C0E" stroke-width="0.25" stroke-miterlimit="10"/>
<path d="M1789.59 532.625C1814.33 531.77 1834.81 541.157 1857 551.397C1859.56 534.33 1862.97 517.265 1865.53 501.05" stroke="#547C0E" stroke-width="0.25" stroke-miterlimit="10"/>
<path d="M1816.04 576.146C1836.52 575.291 1859.56 582.971 1879.18 589.798C1879.18 573.586 1886.01 555.666 1886.01 540.306" stroke="#547C0E" stroke-width="0.25" stroke-miterlimit="10"/>
<path d="M1839.08 609.426C1858.7 614.546 1880.04 617.106 1899.66 621.371C1902.22 606.011 1912.46 592.359 1914.16 576.998" stroke="#547C0E" stroke-width="0.25" stroke-miterlimit="10"/>
<path d="M1816.69 201.271C1807.56 201.353 1796.26 201.821 1787.62 198.465C1776.92 194.807 1780.56 193.931 1781.47 182.834C1783.5 149.441 1774.12 122.119 1742.82 105.653C1717.31 92.833 1674.96 99.33 1663.71 128.578C1658.08 143.206 1662.56 160.696 1641.93 162.621C1624.05 164.94 1610.23 148.904 1611.93 132.306C1615.53 102.651 1643.49 69.506 1672.29 59.643C1706.2 48.415 1747.13 61.361 1776.86 79.007C1817.57 103.148 1829.46 151.89 1816.69 201.273" stroke="#547C0E" stroke-width="0.25" stroke-miterlimit="10"/>
<path d="M1814.48 202.006C1816.19 213.833 1816.68 223.116 1811.88 234.526C1809.02 241.869 1805.1 248.75 1800.23 254.944C1796.02 260.387 1789.78 267.117 1787.05 273.297C1786.35 268.991 1783.75 265.187 1782.5 261.06C1781.42 257.36 1780.73 253.555 1780.46 249.709C1780 242.009 1779.75 234.609 1779.03 226.871C1778.2 218.071 1777.93 205.398 1780.27 196.522C1780.31 196.263 1780.61 196.043 1780.64 195.785" stroke="#547C0E" stroke-width="0.25" stroke-miterlimit="10"/>
<path d="M1785.87 199.702C1786.26 204.233 1785.26 209.351 1785.32 214.361C1785.12 221.176 1786.25 227.919 1786.86 234.585C1787.66 241.807 1788.68 249.323 1787.63 256.539C1787.13 260.19 1787.04 263.884 1787.35 267.555C1787.46 268.622 1787.57 269.69 1787.68 270.76" stroke="#547C0E" stroke-width="0.25" stroke-miterlimit="10"/>
<path d="M1797.39 201.899C1799.95 213.322 1796.97 228.418 1795.07 239.723C1793.32 249.996 1790.05 259.788 1788.6 269.842" stroke="#547C0E" stroke-width="0.25" stroke-miterlimit="10"/>
<path d="M1807.59 202.326C1810.11 214.005 1810.31 227.191 1804.76 238.226C1801.8 244.117 1797.92 249.081 1795.22 255.004C1793.37 258.683 1792.56 262.513 1791 265.974" stroke="#547C0E" stroke-width="0.25" stroke-miterlimit="10"/>
<path d="M1820.1 172.292C1810.97 168.076 1800.51 169.455 1791 171.498" stroke="#547C0E" stroke-width="0.25" stroke-miterlimit="10"/>
<path d="M1811.68 185.02C1806.16 181.326 1800.23 184.15 1793.89 184.283" stroke="#547C0E" stroke-width="0.25" stroke-miterlimit="10"/>
<path d="M1816.11 141.71C1805.4 141.21 1794.6 141.224 1785.46 148.059" stroke="#547C0E" stroke-width="0.25" stroke-miterlimit="10"/>
<path d="M1806.78 129.832C1800.6 130.706 1794.67 132.798 1789.31 135.986" stroke="#547C0E" stroke-width="0.25" stroke-miterlimit="10"/>
<path d="M1768.96 127.51C1774.32 117.759 1787.81 111.817 1798.42 111.252" stroke="#547C0E" stroke-width="0.25" stroke-miterlimit="10"/>
<path d="M1761.05 116.628C1764.57 108.717 1771.43 103.134 1779.51 100.09" stroke="#547C0E" stroke-width="0.25" stroke-miterlimit="10"/>
<path d="M1748.78 103.272C1750.01 94.7651 1755.74 87.9631 1761.83 82.2651" stroke="#547C0E" stroke-width="0.25" stroke-miterlimit="10"/>
<path d="M1740.03 92.7908C1740.42 86.5288 1743.11 82.4458 1747.43 78.0708" stroke="#547C0E" stroke-width="0.25" stroke-miterlimit="10"/>
<path d="M1717.6 95.0667C1712.76 83.0527 1716.57 74.9147 1722.78 64.7617" stroke="#547C0E" stroke-width="0.25" stroke-miterlimit="10"/>
<path d="M1702.03 89.9157C1697.96 81.6927 1698.15 76.7217 1701.7 68.5527" stroke="#547C0E" stroke-width="0.25" stroke-miterlimit="10"/>
<path d="M1691.54 102.345C1683.6 95.4048 1675.49 80.5448 1681.73 70.1348" stroke="#547C0E" stroke-width="0.25" stroke-miterlimit="10"/>
<path d="M1675.3 101.835C1670.97 95.4172 1664.09 90.2102 1665.32 81.7012" stroke="#547C0E" stroke-width="0.25" stroke-miterlimit="10"/>
<path d="M1669.19 116.74C1657.09 111.3 1644.24 103.651 1644.61 88.4399" stroke="#547C0E" stroke-width="0.25" stroke-miterlimit="10"/>
<path d="M1653.9 122.421C1645.4 119.347 1639.69 116.94 1635.65 108.461" stroke="#547C0E" stroke-width="0.25" stroke-miterlimit="10"/>
<path d="M1659.28 139.778C1648 139.461 1634.15 140.615 1625.48 131.463" stroke="#547C0E" stroke-width="0.25" stroke-miterlimit="10"/>
<path d="M1649.2 149.368C1643.57 148.893 1638.08 147.385 1633 144.919" stroke="#547C0E" stroke-width="0.25" stroke-miterlimit="10"/>
<path d="M-12.2314 238.01C-0.131445 224.375 8.00054 207.6 17.0115 192.166C28.4525 172.851 39.8905 153.53 51.6455 133.816C70.2085 101.437 85.6855 67.2593 105.046 35.5073C118.138 14.9193 130.741 -9.92968 150.166 -25.4927C162.28 -35.8927 177.957 -43.4637 192.695 -49.8457C193.01 -50.2457 194.428 -50.4067 195.452 -50.8877" stroke="#547C0E" stroke-width="0.25" stroke-miterlimit="10"/>
<path d="M58.7703 120.755C57.7613 90.2861 68.9773 56.5991 81.3263 29.6161C90.7033 8.01615 101.355 -11.9298 115.799 -30.1548C128.361 -45.9988 145.359 -57.6848 160.299 -71.6548C175.549 -86.0138 198.039 -106.255 202.36 -127.985" stroke="#547C0E" stroke-width="0.25" stroke-miterlimit="10"/>
<path d="M95.7217 51.3421C100.448 48.6361 114.072 42.0191 118.368 47.9991C124.01 56.3421 104.483 67.9591 100.399 73.1131L100.791 73.4251C109.316 72.4391 121.891 75.3041 122.098 86.4371C122.305 97.5701 108.507 102.762 100.398 107.299C88.1868 113.753 74.3138 118.238 60.2598 118.066" stroke="#547C0E" stroke-width="0.25" stroke-miterlimit="10"/>
<path d="M75.9195 38.8761C75.1795 32.4841 71.2095 26.1091 70.0695 19.3991C67.7325 8.51911 67.5195 -2.61693 67.3125 -13.7529" stroke="#547C0E" stroke-width="0.25" stroke-miterlimit="10"/>
<path d="M69.9445 8.98257C78.0265 -2.03043 88.8094 -27.0294 81.9614 -39.5544C77.8614 -37.6394 74.4114 -33.2854 71.9774 -29.4044C67.7044 -32.1464 67.1545 -49.3544 58.3305 -44.7334C52.8905 -41.9484 51.2305 -25.1984 51.8925 -19.5194C52.5635 -10.5974 57.5425 7.53758 68.8375 8.74758" stroke="#547C0E" stroke-width="0.25" stroke-miterlimit="10"/>
<path d="M50.3787 150.875C46.6517 146.63 41.6647 143.968 37.3047 140.512" stroke="#547C0E" stroke-width="0.25" stroke-miterlimit="10"/>
<path d="M450.28 179.767C460.52 168.247 470.76 147.767 468.2 131.977C466.068 120.887 448.572 111.927 444.308 126.007C442.173 132.832 449.853 152.032 434.493 147.767C419.993 144.352 417.428 121.737 418.281 110.217C419.133 96.9921 425.961 83.3371 434.493 73.5271C451.561 53.4721 482.281 50.0571 506.601 56.4571C533.053 63.7121 554.813 85.8971 556.093 114.057C556.52 126.432 551.828 142.217 542.868 150.327C535.613 156.727 521.533 160.992 520.253 147.767C519.508 142.527 534.761 128.992 518.973 123.447C514.273 121.798 509.161 131.977 508.308 136.672C506.219 147.781 505.787 159.137 507.028 170.372C508.308 181.892 505.32 187.872 492.948 188.292C484.413 188.722 475.028 187.012 466.493 184.882C461.373 183.602 455.401 181.467 450.708 180.187" stroke="#547C0E" stroke-width="0.25" stroke-miterlimit="10"/>
<path d="M459.24 181.897C472.892 172.512 476.308 153.312 478.012 137.952C478.867 128.992 478.012 119.177 470.76 112.777C466.92 109.367 449 105.527 455.828 100.407C462.228 95.7122 476.308 106.377 481.428 109.367C480.573 104.247 479.293 87.6072 488.253 88.4572C494.653 89.3122 496.361 102.112 498.068 106.377C499.348 103.392 505.32 91.4472 510.44 94.0072C515.56 96.1372 509.588 106.807 509.16 110.217C511.72 108.937 523.667 101.687 524.52 106.377C524.947 109.367 515.132 116.617 513 117.897C503.188 124.297 499.772 130.272 498.068 141.797C495.933 155.022 490.388 172.517 492.948 185.742C492.948 186.172 493.373 186.172 493.373 186.597" stroke="#547C0E" stroke-width="0.25" stroke-miterlimit="10"/>
<path d="M419.556 111.497C422.968 111.072 426.808 111.927 430.224 112.352" stroke="#547C0E" stroke-width="0.25" stroke-miterlimit="10"/>
<path d="M423.828 90.167C426.813 91.872 430.228 93.577 433.213 95.287" stroke="#547C0E" stroke-width="0.25" stroke-miterlimit="10"/>
<path d="M439.613 70.5391C441.748 73.5291 444.313 76.0891 446.441 79.0741" stroke="#547C0E" stroke-width="0.25" stroke-miterlimit="10"/>
<path d="M459.668 59.019C460.948 62.859 462.228 66.2741 462.653 70.1191" stroke="#547C0E" stroke-width="0.25" stroke-miterlimit="10"/>
<path d="M480.147 54.752C480.572 58.167 480.572 61.577 481 64.567" stroke="#547C0E" stroke-width="0.25" stroke-miterlimit="10"/>
<path d="M507.452 58.167C507.591 60.7564 507.303 63.351 506.6 65.847" stroke="#547C0E" stroke-width="0.25" stroke-miterlimit="10"/>
<path d="M535.187 72.2471C532.841 75.6675 530.121 78.8154 527.076 81.6321" stroke="#547C0E" stroke-width="0.25" stroke-miterlimit="10"/>
<path d="M549.693 94.8589C546.708 96.5689 543.293 97.4189 540.308 98.6989" stroke="#547C0E" stroke-width="0.25" stroke-miterlimit="10"/>
<path d="M554.388 122.592C551.987 122.945 549.559 123.088 547.133 123.017" stroke="#547C0E" stroke-width="0.25" stroke-miterlimit="10"/>
<path d="M540.732 133.687C543.72 135.817 546.28 139.232 549.692 140.512" stroke="#547C0E" stroke-width="0.25" stroke-miterlimit="10"/>
<path d="M1594.7 319.534C1593.32 306.67 1586.36 288.758 1575.11 281.444C1567.01 276.516 1551.58 282.335 1557.93 292.926C1560.96 298.102 1577.22 304.157 1565.91 311.296C1555.61 318.387 1540.11 307.223 1533.43 300.196C1525.69 292.209 1521.06 280.264 1519.77 269.427C1516.94 247.511 1532.14 226.496 1549.83 214.991C1569.26 202.642 1595.31 201.63 1613.54 216.716C1621.47 223.428 1628.64 235.245 1628.62 245.388C1628.51 253.508 1623.22 264.662 1614.28 257.999C1610.6 255.508 1610.79 238.399 1598.44 245.081C1594.77 247.065 1598.21 255.989 1600.64 259.166C1606.37 266.73 1613.18 273.402 1620.87 278.966C1628.75 284.666 1630.78 289.897 1624.07 297.823C1619.52 303.368 1613.17 308.237 1607.03 312.341C1603.35 314.801 1598.65 317.31 1595.21 319.504" stroke="#547C0E" stroke-width="0.25" stroke-miterlimit="10"/>
<path d="M1601.08 315.166C1602.95 301.385 1592.94 288.437 1584.35 278.712C1579.27 273.131 1572.69 268.126 1564.62 269.025C1560.33 269.489 1547.84 278.459 1548.51 271.325C1549.2 264.7 1563.77 261.963 1568.51 260.468C1564.85 258.113 1553.78 249.524 1559.37 244.435C1563.51 240.94 1572.43 247.095 1576.04 248.435C1574.91 245.957 1570.85 235.51 1575.33 233.774C1579.54 231.79 1582.8 241.518 1584.68 243.712C1585.33 241.395 1587.56 229.883 1590.96 231.995C1593.06 233.418 1592.03 243.607 1591.62 245.653C1590.06 255.363 1591.85 260.853 1598.05 268.409C1605.06 277.197 1612.81 290.509 1622.47 296.377C1622.74 296.62 1622.98 296.354 1623.24 296.595" stroke="#547C0E" stroke-width="0.25" stroke-miterlimit="10"/>
<path d="M1534.95 300.123C1536.61 297.76 1539.3 295.856 1541.49 293.974" stroke="#547C0E" stroke-width="0.25" stroke-miterlimit="10"/>
<path d="M1524.1 285.439C1526.84 284.546 1529.83 283.386 1532.57 282.495" stroke="#547C0E" stroke-width="0.25" stroke-miterlimit="10"/>
<path d="M1520.8 264.557C1523.86 264.921 1526.9 264.769 1529.96 265.13" stroke="#547C0E" stroke-width="0.25" stroke-miterlimit="10"/>
<path d="M1524.96 245.598C1527.97 246.754 1530.84 248.231 1533.54 250.004" stroke="#547C0E" stroke-width="0.25" stroke-miterlimit="10"/>
<path d="M1533.85 230.468C1536.21 232.129 1538.33 234.052 1540.43 235.468" stroke="#547C0E" stroke-width="0.25" stroke-miterlimit="10"/>
<path d="M1551.37 215.431C1553.06 216.805 1554.51 218.446 1555.67 220.29" stroke="#547C0E" stroke-width="0.25" stroke-miterlimit="10"/>
<path d="M1575.76 206.128C1576.57 209.514 1576.99 212.98 1577.03 216.46" stroke="#547C0E" stroke-width="0.25" stroke-miterlimit="10"/>
<path d="M1597.99 209.865C1597.37 212.683 1595.98 215.285 1595.09 217.865" stroke="#547C0E" stroke-width="0.25" stroke-miterlimit="10"/>
<path d="M1617.88 222.588C1616.75 224.279 1615.46 225.867 1614.05 227.334" stroke="#547C0E" stroke-width="0.25" stroke-miterlimit="10"/>
<path d="M1617.08 237.333C1620.09 236.683 1623.65 237.013 1626.37 235.618" stroke="#547C0E" stroke-width="0.25" stroke-miterlimit="10"/>
<path d="M1017.73 11.5091C1017.51 15.5281 1016.21 21.1191 1017.32 24.8931C1021.13 24.7371 1025.73 25.1261 1029.54 24.9671C1028.6 20.6151 1028.03 16.0531 1028.83 12.2001C1025.73 10.9891 1021.13 10.6051 1018.31 11.6751" stroke="#547C0E" stroke-width="0.25" stroke-miterlimit="10"/>
<path d="M1017.12 24.5212C1010.1 30.3452 1010.01 46.9623 1008.25 55.2443C1005.31 67.5883 1005.94 82.8443 1007.6 95.5673C1010.93 121.024 1032.29 143.831 1057.23 151.027C1072.67 155.169 1090.28 156.168 1103.86 147.21C1113.16 141.104 1118.24 130.01 1108.94 121.986C1098.44 112.678 1082.49 110.271 1071.65 102.12C1059.66 93.6342 1053.6 80.8952 1046.79 68.5692C1041.02 58.1112 1036.78 47.7793 1031.21 37.6953C1028.74 33.2103 1026.8 27.9442 1027.6 24.0952" stroke="#547C0E" stroke-width="0.25" stroke-miterlimit="10"/>
<path d="M1114.38 133.606C1118.5 126.942 1122.23 110.75 1121.34 102.958C1120.74 93.0513 1113.98 81.6793 1107.57 74.4913C1091.54 56.0493 1066.67 41.0223 1045.03 30.0673C1040.35 27.7733 1034.52 25.1473 1029.54 24.9673" stroke="#547C0E" stroke-width="0.25" stroke-miterlimit="10"/>
<path d="M1115.16 134.146C1115.56 153.415 1085.32 165.729 1069.49 166.182C1042.22 167.106 1009.7 161.175 992.858 136.844C980.473 118.827 981.096 87.2899 985.42 66.8719C987.015 59.1719 1003.74 19.7219 1015.62 25.3459" stroke="#547C0E" stroke-width="0.25" stroke-miterlimit="10"/>
<path d="M1110.92 137.948C1079.01 141.924 1032.05 128.371 1021.36 95.769" stroke="#547C0E" stroke-width="0.25" stroke-miterlimit="10"/>
<path d="M1023.99 24.6211C1021.6 36.1771 1024.97 48.4521 1026.76 59.6471C1028.34 70.4681 1031.67 81.7911 1036.83 91.1301C1042.75 102.043 1050.73 111.703 1060.33 119.577C1071.96 128.271 1080.78 129.246 1094.45 131.934C1100.42 133.027 1106.08 136.234 1112.38 136.168" stroke="#547C0E" stroke-width="0.25" stroke-miterlimit="10"/>
<path d="M1113.59 133.063C1113.16 122.577 1115.06 112.763 1111.02 102.806C1106.98 92.849 1100 85.495 1093.02 78.14C1083.49 68.8255 1073.44 60.0547 1062.92 51.869C1055.02 45.507 1044.34 41.169 1036.99 34.018C1033.59 30.529 1031.36 27.375 1027.06 24.876" stroke="#547C0E" stroke-width="0.25" stroke-miterlimit="10"/>
<path d="M1112.01 122.242C1106.61 111.577 1101.41 101.286 1092.31 93.642C1079.62 82.127 1067.3 70.407 1054.81 59.269" stroke="#547C0E" stroke-width="0.25" stroke-miterlimit="10"/>
<path d="M1113.53 140.894C1109.56 151.367 1092.93 155.676 1082.9 157.805C1069.46 160.836 1055.46 159.305 1042.25 153.924C1029.05 148.543 1015.81 142.209 1007.47 129.752C1000.16 119.164 998.212 104.157 995.424 92.052C990.757 71.239 998.954 42.831 1011.81 25.5" stroke="#547C0E" stroke-width="0.25" stroke-miterlimit="10"/>
<path d="M1785.93 305.643C1757.34 308.631 1720.22 326.123 1710.83 355.563C1718.94 358.551 1732.59 356.418 1741.13 354.71C1752.65 353.002 1763.31 347.883 1772.7 341.482C1784.22 333.382 1791.05 317.59 1797.02 305.642V305.217C1793.18 304.79 1789.77 305.642 1785.93 305.642" stroke="#547C0E" stroke-width="0.25" stroke-miterlimit="10"/>
<path d="M1794.04 307.348C1779.53 319.296 1763.74 329.108 1747.1 338.068C1737.29 343.615 1724.06 353.428 1712.54 355.135" stroke="#547C0E" stroke-width="0.25" stroke-miterlimit="10"/>
<path d="M1718.52 347.883C1731.32 336.363 1744.97 323.563 1761.18 316.31" stroke="#547C0E" stroke-width="0.25" stroke-miterlimit="10"/>
<path d="M1747.11 345.75C1756.92 341.482 1763.32 336.363 1771.85 329.538" stroke="#547C0E" stroke-width="0.25" stroke-miterlimit="10"/>
<path d="M1767.58 318.018C1771.42 316.31 1775.69 315.03 1779.53 312.898" stroke="#547C0E" stroke-width="0.25" stroke-miterlimit="10"/>
<path d="M1825.64 316.562C1801.47 332.119 1776.22 364.47 1781.12 394.98C1789.71 393.992 1800.93 385.93 1807.78 380.559C1817.29 373.839 1824.5 364.459 1829.99 354.514C1836.62 342.085 1835.59 324.914 1835.54 311.56L1835.35 311.178C1831.73 312.527 1829.07 314.829 1825.64 316.562" stroke="#547C0E" stroke-width="0.25" stroke-miterlimit="10"/>
<path d="M1833.64 314.429C1826.08 331.629 1816.41 347.509 1805.61 363.013C1799.35 372.388 1791.97 387.113 1782.46 393.83" stroke="#547C0E" stroke-width="0.25" stroke-miterlimit="10"/>
<path d="M1784.51 384.662C1790.74 368.608 1797.16 351.026 1808.36 337.241" stroke="#547C0E" stroke-width="0.25" stroke-miterlimit="10"/>
<path d="M1809.07 369.868C1815.9 361.632 1819.31 354.178 1823.85 344.235" stroke="#547C0E" stroke-width="0.25" stroke-miterlimit="10"/>
<path d="M1814.84 335.879C1817.5 332.623 1820.73 329.556 1823.2 325.921" stroke="#547C0E" stroke-width="0.25" stroke-miterlimit="10"/>
<path d="M767.522 691.816C775.102 663.303 778.545 620.945 779.382 591.616C778.934 569.994 772.05 539.382 786.573 521.295C800.635 504.189 839.985 501.445 859.51 492.879C848.01 494.553 796.852 507.146 791.289 493.808C783.176 473.308 827.289 445.488 841.143 441.356C888.931 428.356 916.607 465.256 980.151 424.056C924.451 434.411 899.941 431.456 858.167 428.026C879.123 418.941 890.935 409.085 901.674 393.96C911.492 380.784 930.111 351.56 938.955 337.922C955.733 312.586 965.355 289.802 984.94 261.04C968.789 270.026 949.858 307.422 940.091 323.002C927.046 342.98 917.282 358.555 903.266 378.07C895.801 388.799 853.052 436.297 835.066 426.582C822.906 419.624 830.397 363.721 827.238 350.33C826.728 348.899 827.297 330.144 826.168 345.067C821.102 355.744 823.644 385.487 821.179 405.729C820.406 414.871 826.479 429.642 822.797 437.412C818.143 444.712 801.019 453.238 793.91 458.191C780.634 443.568 776.254 417.71 768.187 399.618C769.498 439.472 778.233 443.618 780.109 464.727C782.403 482.457 769.672 494.259 769.099 513.008C767.199 537.077 765.538 573.155 762.663 596.764C760.249 619.402 754.863 660.841 751.939 682.045" stroke="#547C0E" stroke-width="0.25" stroke-miterlimit="10"/>
<path d="M762.058 590.531C750.917 586.437 737.428 584.794 736.673 571.354C736.322 554.54 750.273 555.208 735.052 539.667C728.667 533.072 713.697 529.537 714.882 517.019C716.067 504.501 734.307 503.643 736.458 491.583C738.609 479.523 720.727 474.608 716.188 464.127C708.073 443.627 728.819 447.527 731.894 433.527C734.508 420.496 714.632 412.253 714.844 399.279C713.933 378.633 734.878 392.134 740.354 378.085C744.399 364.545 723.554 355.844 745.481 347.221C757.39 342.17 772.051 353.882 779.468 340.747C784.073 331.042 772.684 314.94 785.005 306.512C795.893 298.596 807.74 313.731 818.218 309.192C832.992 303.117 822.063 286.039 829.072 276.283C839.351 262.136 851.147 274.865 863.617 273.646C880.892 272.325 873.027 263.839 881.875 250.201C893.024 231.701 899.605 247.907 913.975 245.209C925.47 243.527 930.951 229.478 944.798 225.346C968.204 218.616 956.446 230.873 970.544 238.746C981.734 245.246 992.524 232.523 1005.61 237.538C1026.91 245.272 1010.2 250.42 1012.38 263.348C1014.52 273.88 1028.06 277.925 1033.58 288.861C1044.09 309.31 1030.15 308.64 1022.27 322.74C1013.93 337.805 1026.04 342.362 1028.74 356.724C1032.97 375.379 1023 381.351 1013.19 394.53C1001.01 410.164 1013.02 409.913 1011.02 429.177C1010.4 445.53 1000.33 446.703 990.408 455.077C976.708 466.415 985.393 468.156 979.459 483.177C973.059 499.167 959.982 494.152 947.101 498.744C928.501 505.374 937.795 513.354 927.466 525.102C915.708 537.362 901.047 525.65 888.672 531.674C877.226 535.752 878.447 548.227 870.472 557.522C860.137 569.267 853.804 565.076 841.846 567.722C826.514 569.959 831.829 571.291 821.957 582.071C812.085 592.851 794.406 597.539 780.815 591.095" stroke="#547C0E" stroke-width="0.25" stroke-miterlimit="10"/>
<path d="M713.171 396.114C694.68 384.96 660.197 336.494 694.084 325.22C708.853 319.147 713.449 332.027 717.394 313.684C720.978 301.112 710.151 288.842 729.725 282.672C743.577 278.537 750.108 292.339 759.877 276.761C766.377 265.574 757.947 253.25 773.133 243.803C788.319 234.356 794.85 248.163 808.748 246.427C821.218 245.213 824.753 230.24 832.272 221.915C839.272 212.156 846.795 203.831 859.265 202.615C874.133 201.348 879.6 209.883 895.341 204.269C905.358 200.698 913.798 190.432 925.24 186.349C943.385 180.684 944.504 188.349 958.604 196.231C974.65 205.031 980.125 190.978 994.586 193.082C1008.59 196.151 1005.05 211.128 1013.89 220.072C1021.24 227.13 1032.23 224.017 1030.59 237.508C1030.23 243.283 1019.39 253.603 1013.66 255.643" stroke="#547C0E" stroke-width="0.25" stroke-miterlimit="10"/>
<path d="M1014.83 265.705C1023.42 262.646 1034.92 260.967 1046.06 265.06C1073.65 274.578 1054.63 284.582 1058.91 305.644C1061.61 320 1076.08 322.107 1067.33 340.552C1063.18 349.287 1047.49 357.302 1045.75 365.986C1044.05 377.076 1059.13 385.414 1061.78 397.372C1064.93 410.763 1057.42 419.091 1050.41 428.847C1037.79 445.447 1045.35 439.524 1048.15 458.689C1048.91 472.132 1039.45 479.535 1029.99 486.936C1020.54 494.337 1010.98 496.943 1004.94 507.163C999.826 515.434 1001.46 524.535 995.372 532.351C978.036 553.851 953.209 538.513 933.32 552.862C919.112 562.762 921.101 566.087 902.347 565.519C892.232 564.288 880.73 565.964 871.532 562.79L868.621 561.41" stroke="#547C0E" stroke-width="0.25" stroke-miterlimit="10"/>
<path d="M780.438 619.46C799.108 592.641 844.431 599.871 872.333 601.217C896.863 602.152 927.575 600.075 949.404 586.645C961.723 578.22 965.815 567.082 980.638 563.408C994.488 559.276 1007.52 561.892 1018.36 551.568C1031.55 538.807 1021.23 527.968 1029.62 515.295C1037.09 504.569 1052.42 502.326 1060.34 490.635C1072.42 470.193 1067.68 450.11 1046.32 439.983" stroke="#547C0E" stroke-width="0.25" stroke-miterlimit="10"/>
<path d="M760.515 608.821C737.782 601.602 701.415 562.951 692.744 538.621C673.862 485.67 714.471 427.637 679.849 380.3C666.98 362.3 637.56 334.077 653.878 309.713C662.723 296.076 679.127 299.097 689.503 289.753C700.854 280.867 695.803 268.953 698.414 255.925C707.226 217.297 734.454 232.593 762.158 224.325C788.429 216.578 776.594 178.86 813.637 180.971C823.757 182.205 833.513 189.209 843.537 185.641C855.956 182.019 857.597 168.527 872.007 168.225C889.794 168.338 902.207 187.307 903.933 201.208" stroke="#547C0E" stroke-width="0.25" stroke-miterlimit="10"/>
<path d="M838.117 426.841C852.873 412.441 861.743 392.071 866.117 371.154C871.961 343.8 864.002 315.454 870.492 288.404" stroke="#547C0E" stroke-width="0.25" stroke-miterlimit="10"/>
<path d="M867.008 367.613C873.423 352.413 883.684 337.469 893.673 324.769C905.232 310.43 923.19 295.961 927.288 277.296" stroke="#547C0E" stroke-width="0.25" stroke-miterlimit="10"/>
<path d="M887.127 333.555C898.919 330.429 917.179 330.368 925.599 319.301" stroke="#547C0E" stroke-width="0.25" stroke-miterlimit="10"/>
<path d="M864.312 376.638C856.622 361.096 844.503 348.217 839.332 330.701" stroke="#547C0E" stroke-width="0.25" stroke-miterlimit="10"/>
<path d="M862.139 426.342C884.214 424.924 913.759 412.779 933.42 403.08C949.914 395.047 974.22 377.242 981.548 360.11" stroke="#547C0E" stroke-width="0.25" stroke-miterlimit="10"/>
<path d="M927.05 404.81C939.056 381.176 946.322 360.842 967.728 342.456" stroke="#547C0E" stroke-width="0.25" stroke-miterlimit="10"/>
<path d="M955.944 392.358C963.778 399.242 979.517 401.158 989.06 397.758" stroke="#547C0E" stroke-width="0.25" stroke-miterlimit="10"/>
<path d="M1000.46 298.526C986.281 310.036 968.592 322.252 949.622 318.804" stroke="#547C0E" stroke-width="0.25" stroke-miterlimit="10"/>
<path d="M792.266 486.743C810.634 476.429 832.031 473.101 853.834 473.93C879.828 475.955 903.834 490.514 929.223 478.776" stroke="#547C0E" stroke-width="0.25" stroke-miterlimit="10"/>
<path d="M847.055 471.509C876.226 456.809 902.121 454.027 935.603 461.983" stroke="#547C0E" stroke-width="0.25" stroke-miterlimit="10"/>
<path d="M847.739 473.415C866.363 490.971 894.469 486.865 906.55 513.205" stroke="#547C0E" stroke-width="0.25" stroke-miterlimit="10"/>
<path d="M881.761 491.935C874.603 502.016 878.067 514.76 877.652 525.658" stroke="#547C0E" stroke-width="0.25" stroke-miterlimit="10"/>
<path d="M779.273 570.948C791.858 544.416 821.293 542.524 845.047 529.218" stroke="#547C0E" stroke-width="0.25" stroke-miterlimit="10"/>
<path d="M802.181 547.727C804.539 537.746 809.172 529.646 814.087 519.288" stroke="#547C0E" stroke-width="0.25" stroke-miterlimit="10"/>
<path d="M769.392 511.564C759.421 494.148 750.028 473.84 741.928 454.141" stroke="#547C0E" stroke-width="0.25" stroke-miterlimit="10"/>
<path d="M768.402 510.305C757.911 514.045 744.246 519.455 732.969 516.485" stroke="#547C0E" stroke-width="0.25" stroke-miterlimit="10"/>
<path d="M795.793 455.913C795.217 443.745 796.863 430.257 794.687 418.127C791.428 399.936 773.851 386.846 771.243 368.954" stroke="#547C0E" stroke-width="0.25" stroke-miterlimit="10"/>
<path d="M792.273 409.851C800.593 393.976 800.773 371.868 800.411 354.251" stroke="#547C0E" stroke-width="0.25" stroke-miterlimit="10"/>
<path d="M776.163 343.546C764.343 330.014 748.715 317.846 740.377 301.995" stroke="#547C0E" stroke-width="0.25" stroke-miterlimit="10"/>
<path d="M760.059 324.014C761.086 311.814 764.053 300.544 766.039 288.005" stroke="#547C0E" stroke-width="0.25" stroke-miterlimit="10"/>
<path d="M821.217 307.049C813.317 296.957 807.746 275.287 810.035 262.103" stroke="#547C0E" stroke-width="0.25" stroke-miterlimit="10"/>
<path d="M869.852 273.042C866.967 257.403 856.479 246.088 845.038 235.108" stroke="#547C0E" stroke-width="0.25" stroke-miterlimit="10"/>
<path d="M863.388 254.914C865.405 243.978 870.282 232.023 874.888 222.314" stroke="#547C0E" stroke-width="0.25" stroke-miterlimit="10"/>
<path d="M945.712 223.411C941.731 216.763 938.672 208.179 934.044 201.229" stroke="#547C0E" stroke-width="0.25" stroke-miterlimit="10"/>
<path d="M971.328 237.936C975.997 231.431 978.388 223.052 981.422 214.978" stroke="#547C0E" stroke-width="0.25" stroke-miterlimit="10"/>
<path d="M738.462 379.568C724.971 377.924 712.783 361.838 709.007 349.744" stroke="#547C0E" stroke-width="0.25" stroke-miterlimit="10"/>
<path d="M723.51 245.643C739.385 253.963 743.903 271.169 750.91 284.801" stroke="#547C0E" stroke-width="0.25" stroke-miterlimit="10"/>
<path d="M749.406 242.857C749.87 250.828 748.03 258.764 744.106 265.718" stroke="#547C0E" stroke-width="0.25" stroke-miterlimit="10"/>
<path d="M690.708 301.424C700.073 305.072 709.573 315.124 714.234 323.683" stroke="#547C0E" stroke-width="0.25" stroke-miterlimit="10"/>
<path d="M806.768 197.135C813.841 213.967 807.121 229.806 810.997 246.707" stroke="#547C0E" stroke-width="0.25" stroke-miterlimit="10"/>
<path d="M874.332 180.039C876.099 188.011 876.608 196.971 877.724 204.639" stroke="#547C0E" stroke-width="0.25" stroke-miterlimit="10"/>
<path d="M1051.82 318.925C1043.64 326.147 1032.56 332.785 1020.98 330.46" stroke="#547C0E" stroke-width="0.25" stroke-miterlimit="10"/>
<path d="M1045.81 276.441C1041.04 278.141 1035.66 281.133 1032.52 284.402" stroke="#547C0E" stroke-width="0.25" stroke-miterlimit="10"/>
<path d="M1037.81 400.274C1028.92 403.981 1019.03 406.428 1010.48 411.09" stroke="#547C0E" stroke-width="0.25" stroke-miterlimit="10"/>
<path d="M1024.19 454.059C1014.06 460.359 1010.04 467.171 1001.55 475.036C993.713 483.21 989.454 478.812 980.529 480.914" stroke="#547C0E" stroke-width="0.25" stroke-miterlimit="10"/>
<path d="M877.473 547.774C893.107 544.884 910.93 539.074 928.173 536.147C948.924 532.514 974.847 531.337 988.891 513.422" stroke="#547C0E" stroke-width="0.25" stroke-miterlimit="10"/>
<path d="M955.599 530.129C956.012 522.3 958.269 514.679 962.188 507.888" stroke="#547C0E" stroke-width="0.25" stroke-miterlimit="10"/>
<path d="M813.604 588.825C834.112 589.037 849.863 575.892 870.776 580.267C895.234 585.528 915.707 584.143 937.895 572.467" stroke="#547C0E" stroke-width="0.25" stroke-miterlimit="10"/>
<path d="M741.158 556.042C717.483 557.491 697.021 528.765 697.543 507.609C697.863 491.903 712.173 486.796 708.328 471.503C703.807 454.295 699.488 446.694 711.008 430.755" stroke="#547C0E" stroke-width="0.25" stroke-miterlimit="10"/>
<path d="M477.165 458.413C481.43 467.8 485.697 479.746 481.43 489.986C476.31 505.346 454.977 506.201 443.03 515.586C407.19 543.746 416.578 608.601 456.685 629.081C501.057 651.266 582.125 649.561 615.405 606.041C636.737 577.026 627.35 532.654 609.43 505.346C591.51 479.746 565.057 472.921 536.045 480.601C523.245 483.161 511.297 490.841 501.057 479.746C495.085 473.774 492.525 460.121 489.965 453.294C485.697 454.146 481.43 454.146 478.017 455.854" stroke="#547C0E" stroke-width="0.25" stroke-miterlimit="10"/>
<path d="M485.694 466.093C489.962 478.893 497.642 493.401 492.522 507.053C487.402 524.973 476.307 537.773 474.602 558.253C472.042 590.68 491.667 625.665 522.387 636.76" stroke="#547C0E" stroke-width="0.25" stroke-miterlimit="10"/>
<path d="M503.613 498.521C529.213 536.066 568.465 577.881 565.906 628.226" stroke="#547C0E" stroke-width="0.25" stroke-miterlimit="10"/>
<path d="M501.905 526.681C496.785 561.666 512.145 600.066 533.48 626.521" stroke="#547C0E" stroke-width="0.25" stroke-miterlimit="10"/>
<path d="M518.116 553.133C526.648 565.081 531.768 580.441 534.328 594.946" stroke="#547C0E" stroke-width="0.25" stroke-miterlimit="10"/>
<path d="M520.677 497.666C551.397 515.586 571.022 532.654 582.117 567.641C586.382 581.294 591.502 598.361 587.237 612.866" stroke="#547C0E" stroke-width="0.25" stroke-miterlimit="10"/>
<path d="M532.625 492.546C562.492 491.693 588.945 506.201 603.452 532.653C613.692 552.28 611.132 572.76 611.132 593.241" stroke="#547C0E" stroke-width="0.25" stroke-miterlimit="10"/>
<path d="M575.293 523.266C583.825 531.801 589.801 542.041 590.653 553.986" stroke="#547C0E" stroke-width="0.25" stroke-miterlimit="10"/>
<path d="M536.036 520.706C545.421 530.946 553.101 542.894 559.928 554.841" stroke="#547C0E" stroke-width="0.25" stroke-miterlimit="10"/>
<path d="M572.733 583.853C575.293 591.533 577.853 598.361 577.001 606.893" stroke="#547C0E" stroke-width="0.25" stroke-miterlimit="10"/>
<path d="M548.836 612.013C551.396 618.84 553.101 625.665 555.661 632.493" stroke="#547C0E" stroke-width="0.25" stroke-miterlimit="10"/>
<path d="M472.042 512.173C459.242 531.8 449.002 543.746 450.707 568.493C451.562 589.826 461.807 608.6 478.014 623.106" stroke="#547C0E" stroke-width="0.25" stroke-miterlimit="10"/>
<path d="M440.465 540.333C435.345 556.546 430.225 571.906 438.765 588.973" stroke="#547C0E" stroke-width="0.25" stroke-miterlimit="10"/>
<path d="M1635.66 407.582C1635.04 417.876 1633.22 430.43 1624.66 437.482C1612.95 448.662 1593.69 439.44 1578.74 442.146C1533.9 450.271 1511.86 511.985 1537.72 548.846C1566.57 589.21 1639.02 625.623 1688.79 602.724C1721.22 587.057 1733.67 543.447 1730.61 510.924C1726.74 479.914 1706.55 461.511 1677.32 454.724C1664.81 450.999 1650.66 452.2 1646.8 437.605C1644.31 429.531 1648.43 416.267 1649.36 409.035C1645.2 407.791 1641.42 405.796 1637.61 405.71" stroke="#547C0E" stroke-width="0.25" stroke-miterlimit="10"/>
<path d="M1639.61 418.362C1637.39 431.672 1637.39 448.089 1626.48 457.762C1613.58 471.205 1597.78 477.328 1586.69 494.631C1569.26 522.097 1570.24 562.2 1592.21 586.374" stroke="#547C0E" stroke-width="0.25" stroke-miterlimit="10"/>
<path d="M1640.28 455.406C1645.34 500.567 1660.48 555.886 1634.66 599.186" stroke="#547C0E" stroke-width="0.25" stroke-miterlimit="10"/>
<path d="M1625.59 479.498C1604.71 508.027 1600.32 549.151 1606.8 582.51" stroke="#547C0E" stroke-width="0.25" stroke-miterlimit="10"/>
<path d="M1627.56 510.464C1629.51 525.013 1626.86 540.987 1622.33 555.003" stroke="#547C0E" stroke-width="0.25" stroke-miterlimit="10"/>
<path d="M1655.77 462.635C1674.54 492.843 1683.9 517.107 1677.34 553.221C1674.72 567.283 1671.27 584.763 1660.71 595.589" stroke="#547C0E" stroke-width="0.25" stroke-miterlimit="10"/>
<path d="M1668.71 463.695C1695.51 476.912 1712.11 502.108 1712.55 532.275C1712.42 554.414 1700.58 571.315 1691 589.419" stroke="#547C0E" stroke-width="0.25" stroke-miterlimit="10"/>
<path d="M1692.06 510.806C1695.61 522.339 1696.1 534.184 1691.27 545.143" stroke="#547C0E" stroke-width="0.25" stroke-miterlimit="10"/>
<path d="M1658.56 490.183C1662.07 503.623 1663.26 517.775 1663.71 531.53" stroke="#547C0E" stroke-width="0.25" stroke-miterlimit="10"/>
<path d="M1661.46 563.161C1660.13 571.146 1659.19 578.378 1654.46 585.52" stroke="#547C0E" stroke-width="0.25" stroke-miterlimit="10"/>
<path d="M1627.17 576.872C1626.23 584.104 1624.55 590.934 1623.62 598.172" stroke="#547C0E" stroke-width="0.25" stroke-miterlimit="10"/>
<path d="M1605.98 452.705C1585.48 464.067 1570.85 469.837 1560.78 492.505C1551.56 511.761 1551.83 533.145 1559.37 553.548" stroke="#547C0E" stroke-width="0.25" stroke-miterlimit="10"/>
<path d="M1564.9 462.824C1552.8 474.761 1541.09 485.943 1540.65 505.024" stroke="#547C0E" stroke-width="0.25" stroke-miterlimit="10"/>
<path d="M21.792 608.236C43.127 567.276 68.727 526.316 91.767 486.208C117.367 441.835 147.232 396.608 161.74 347.968C165.152 336.02 166.007 323.22 170.272 312.128C177.952 314.688 185.632 319.808 194.172 321.515C194.172 340.287 179.665 367.595 173.692 385.515C164.304 412.815 152.357 435.86 137.852 459.755C107.132 509.247 77.264 560.447 40.572 606.527C35.452 612.499 31.185 620.18 24.357 609.939" stroke="#547C0E" stroke-width="0.25" stroke-miterlimit="10"/>
<path d="M171.127 312.982C170.272 299.33 174.54 284.822 180.512 272.882C188.192 281.415 184.78 308.722 184.78 318.107" stroke="#547C0E" stroke-width="0.25" stroke-miterlimit="10"/>
<path d="M184.78 318.102C188.192 306.157 197.58 286.529 208.672 282.262C211.232 291.65 203.657 320.022 194.272 323.435" stroke="#547C0E" stroke-width="0.25" stroke-miterlimit="10"/>
<path d="M184.78 278.853C188.192 272.88 197.58 254.96 203.552 262.64C206.112 266.053 202.7 280.56 202.7 285.68" stroke="#547C0E" stroke-width="0.25" stroke-miterlimit="10"/>
<path d="M181.367 272.022C181.367 261.782 188.192 249.837 195.02 243.01C199.287 246.422 200.14 251.542 200.14 257.518" stroke="#547C0E" stroke-width="0.25" stroke-miterlimit="10"/>
<path d="M200.992 260.077C205.26 254.102 210.38 248.129 216.352 243.862C218.912 254.102 216.352 273.729 209.527 281.41" stroke="#547C0E" stroke-width="0.25" stroke-miterlimit="10"/>
<path d="M198.432 243.862C202.697 237.037 206.967 231.062 213.792 227.649C213.782 234.555 212.923 241.433 211.232 248.129" stroke="#547C0E" stroke-width="0.25" stroke-miterlimit="10"/>
<path d="M170.272 314.689C165.152 303.596 168.572 249.837 179.66 274.582" stroke="#547C0E" stroke-width="0.25" stroke-miterlimit="10"/>
<path d="M195.02 323.222C208.672 318.957 223.18 301.037 223.18 285.677C218.115 284.687 212.978 284.115 207.82 283.969" stroke="#547C0E" stroke-width="0.25" stroke-miterlimit="10"/>
<path d="M178.807 272.877C175.392 254.957 183.927 209.73 198.432 243.862" stroke="#547C0E" stroke-width="0.25" stroke-miterlimit="10"/>
<path d="M211.232 283.969C223.18 276.289 230.007 260.077 234.272 247.277C228.3 247.277 222.327 248.977 217.207 250.689" stroke="#547C0E" stroke-width="0.25" stroke-miterlimit="10"/>
<path d="M197.58 240.449C195.872 221.676 221.472 193.517 213.792 229.356" stroke="#547C0E" stroke-width="0.25" stroke-miterlimit="10"/>
<path d="M212.94 229.357C218.06 225.942 222.328 221.677 228.3 219.117C229.152 228.502 226.912 240.234 224.352 247.917" stroke="#547C0E" stroke-width="0.25" stroke-miterlimit="10"/>
<path d="M213.792 210.582C216.352 206.317 218.912 202.05 222.327 198.637H224.027C224.882 204.609 224.882 214.85 224.882 219.117" stroke="#547C0E" stroke-width="0.25" stroke-miterlimit="10"/>
<path d="M166.432 331.115C169.632 332.715 173.472 333.995 175.712 336.235C171.872 338.475 167.392 341.355 163.552 343.915" stroke="#547C0E" stroke-width="0.25" stroke-miterlimit="10"/>
<path d="M176.992 373.355C175.712 370.475 170.592 363.435 172.832 360.875C174.112 359.275 181.792 360.235 183.712 360.235" stroke="#547C0E" stroke-width="0.25" stroke-miterlimit="10"/>
<path d="M143.071 395.755C146.911 397.675 152.671 397.355 156.831 396.715C155.871 392.875 151.711 388.395 150.431 385.195" stroke="#547C0E" stroke-width="0.25" stroke-miterlimit="10"/>
<path d="M159.068 419.435C155.548 412.395 153.628 407.275 163.228 407.595" stroke="#547C0E" stroke-width="0.25" stroke-miterlimit="10"/>
<path d="M120.352 439.275C124.496 441.125 128.941 442.209 133.472 442.475C134.432 438.635 129.312 430.635 127.072 427.115" stroke="#547C0E" stroke-width="0.25" stroke-miterlimit="10"/>
<path d="M131.872 467.431C130.912 464.871 127.072 458.151 128.672 455.591C130.272 453.351 137.632 453.991 139.872 454.631" stroke="#547C0E" stroke-width="0.25" stroke-miterlimit="10"/>
<path d="M91.5518 488.559C95.0718 490.479 103.392 491.759 104.032 487.599C104.352 484.719 100.192 479.279 99.2318 476.399" stroke="#547C0E" stroke-width="0.25" stroke-miterlimit="10"/>
<path d="M94.4323 528.874C92.5123 526.954 87.3922 519.274 89.3122 517.034C90.5922 515.754 98.9122 517.354 100.512 517.674" stroke="#547C0E" stroke-width="0.25" stroke-miterlimit="10"/>
<path d="M-56.7148 579.222C-35.3818 538.262 -9.78282 497.302 13.2582 457.195C38.8582 412.822 68.7262 367.595 83.2332 318.955C86.6452 307.007 87.4982 294.207 91.7662 283.115C99.4462 285.675 107.126 290.795 115.658 292.502C115.658 311.275 101.153 338.582 95.1782 356.502C85.7932 383.807 73.8452 406.847 59.3382 430.742C28.6182 480.235 -1.24683 531.435 -37.9418 577.514C-43.0618 583.487 -47.3268 591.167 -54.1548 580.927" stroke="#547C0E" stroke-width="0.25" stroke-miterlimit="10"/>
<path d="M92.6172 283.967C91.7652 270.314 96.0322 255.807 102.005 243.867C109.685 252.399 106.272 279.707 106.272 289.092" stroke="#547C0E" stroke-width="0.25" stroke-miterlimit="10"/>
<path d="M106.273 289.087C109.685 277.142 119.073 257.514 130.165 253.247C132.725 262.634 125.153 291.007 115.765 294.419" stroke="#547C0E" stroke-width="0.25" stroke-miterlimit="10"/>
<path d="M106.273 249.834C109.685 243.861 119.073 225.941 125.045 233.621C127.605 237.033 124.193 251.541 124.193 256.661" stroke="#547C0E" stroke-width="0.25" stroke-miterlimit="10"/>
<path d="M102.858 243.008C102.858 232.768 109.686 220.823 116.513 213.995C120.778 217.408 121.633 222.528 121.633 228.503" stroke="#547C0E" stroke-width="0.25" stroke-miterlimit="10"/>
<path d="M122.485 231.062C126.752 225.087 131.872 219.114 137.845 214.847C140.405 225.087 137.845 244.715 131.017 252.394" stroke="#547C0E" stroke-width="0.25" stroke-miterlimit="10"/>
<path d="M119.925 214.847C124.193 208.022 128.457 202.047 135.285 198.634C135.275 205.54 134.416 212.418 132.725 219.114" stroke="#547C0E" stroke-width="0.25" stroke-miterlimit="10"/>
<path d="M91.7653 285.674C86.6453 274.581 90.0573 220.821 101.152 245.566" stroke="#547C0E" stroke-width="0.25" stroke-miterlimit="10"/>
<path d="M116.513 294.207C130.165 289.942 144.673 272.022 144.673 256.662C139.608 255.671 134.471 255.1 129.313 254.954" stroke="#547C0E" stroke-width="0.25" stroke-miterlimit="10"/>
<path d="M100.298 243.862C96.8862 225.942 105.418 180.715 119.925 214.847" stroke="#547C0E" stroke-width="0.25" stroke-miterlimit="10"/>
<path d="M132.726 254.959C144.674 247.279 151.498 231.066 155.766 218.266C149.794 218.266 143.819 219.966 138.698 221.678" stroke="#547C0E" stroke-width="0.25" stroke-miterlimit="10"/>
<path d="M119.073 211.434C117.365 192.662 142.965 164.502 135.285 200.341" stroke="#547C0E" stroke-width="0.25" stroke-miterlimit="10"/>
<path d="M134.434 200.342C139.554 196.927 143.819 192.662 149.794 190.102C150.646 199.487 148.406 211.22 145.846 218.902" stroke="#547C0E" stroke-width="0.25" stroke-miterlimit="10"/>
<path d="M135.285 181.567C137.845 177.302 140.405 173.035 143.818 169.622H145.526C146.379 175.595 146.379 185.835 146.379 190.102" stroke="#547C0E" stroke-width="0.25" stroke-miterlimit="10"/>
<path d="M87.9249 302.1C91.1249 303.7 94.965 304.98 97.205 307.22C93.365 309.46 88.8849 312.34 85.0449 314.9" stroke="#547C0E" stroke-width="0.25" stroke-miterlimit="10"/>
<path d="M98.4855 344.34C97.2055 341.46 92.0855 334.42 94.3255 331.86C95.6055 330.26 103.285 331.22 105.205 331.22" stroke="#547C0E" stroke-width="0.25" stroke-miterlimit="10"/>
<path d="M64.5654 366.74C68.4054 368.66 74.1654 368.34 78.3254 367.7C77.3654 363.86 73.2054 359.38 71.9254 356.18" stroke="#547C0E" stroke-width="0.25" stroke-miterlimit="10"/>
<path d="M80.5651 390.419C77.0451 383.379 75.1252 378.259 84.7252 378.579" stroke="#547C0E" stroke-width="0.25" stroke-miterlimit="10"/>
<path d="M41.8447 410.259C45.989 412.109 50.4341 413.193 54.9647 413.459C55.9247 409.619 50.8048 401.619 48.5648 398.099" stroke="#547C0E" stroke-width="0.25" stroke-miterlimit="10"/>
<path d="M53.3655 438.42C52.4055 435.86 48.5655 429.14 50.1655 426.58C51.7655 424.34 59.1255 424.98 61.3655 425.62" stroke="#547C0E" stroke-width="0.25" stroke-miterlimit="10"/>
<path d="M13.0449 459.539C16.5649 461.459 24.885 462.739 25.525 458.579C25.845 455.699 21.6849 450.259 20.7249 447.379" stroke="#547C0E" stroke-width="0.25" stroke-miterlimit="10"/>
<path d="M15.9254 499.859C14.0054 497.939 8.8854 490.259 10.8054 488.019C12.0854 486.739 20.4054 488.339 22.0054 488.659" stroke="#547C0E" stroke-width="0.25" stroke-miterlimit="10"/>
<path d="M35.4248 641.572C62.5918 604.224 93.9768 567.509 122.708 531.259C154.598 491.169 190.837 450.865 212.392 404.91C217.538 393.6 220.277 381.071 226.139 370.732C233.356 374.4 240.191 380.603 248.378 383.558C245.598 402.121 227.204 426.978 218.641 443.818C205.311 469.428 190.084 490.443 172.197 511.927C134.481 556.327 97.3608 602.527 54.2448 642.664C48.2958 647.812 42.9378 654.778 37.7018 643.637" stroke="#547C0E" stroke-width="0.25" stroke-miterlimit="10"/>
<path d="M226.856 371.704C228.036 358.075 234.408 344.361 242.083 333.432C248.411 343.009 240.992 369.507 239.602 378.79" stroke="#547C0E" stroke-width="0.25" stroke-miterlimit="10"/>
<path d="M239.603 378.79C244.749 367.483 256.937 349.463 268.544 346.885C269.683 356.549 257.989 383.485 248.2 385.472" stroke="#547C0E" stroke-width="0.25" stroke-miterlimit="10"/>
<path d="M245.417 339.97C249.677 334.57 261.617 318.238 266.389 326.717C268.414 330.473 262.889 344.317 262.129 349.378" stroke="#547C0E" stroke-width="0.25" stroke-miterlimit="10"/>
<path d="M243.054 332.713C244.572 322.586 253.092 311.785 260.854 306.043C264.564 310.052 264.654 315.243 263.765 321.152" stroke="#547C0E" stroke-width="0.25" stroke-miterlimit="10"/>
<path d="M264.232 323.809C269.332 318.53 275.286 313.382 281.827 310.049C282.843 320.549 277.403 339.586 269.513 346.171" stroke="#547C0E" stroke-width="0.25" stroke-miterlimit="10"/>
<path d="M264.102 307.391C269.335 301.273 274.439 295.991 281.697 293.633C280.664 300.461 278.795 307.136 276.131 313.506" stroke="#547C0E" stroke-width="0.25" stroke-miterlimit="10"/>
<path d="M225.761 373.266C222.343 361.539 233.682 308.877 240.988 334.994" stroke="#547C0E" stroke-width="0.25" stroke-miterlimit="10"/>
<path d="M248.973 385.372C263.107 383.172 280.108 367.603 282.384 352.414C277.522 350.683 272.526 349.357 267.446 348.448" stroke="#547C0E" stroke-width="0.25" stroke-miterlimit="10"/>
<path d="M240.397 333.179C239.675 314.952 254.815 271.488 264.103 307.395" stroke="#547C0E" stroke-width="0.25" stroke-miterlimit="10"/>
<path d="M270.817 348.954C283.771 343.13 292.925 328.105 299.041 316.081C293.135 315.195 286.973 315.997 281.656 316.926" stroke="#547C0E" stroke-width="0.25" stroke-miterlimit="10"/>
<path d="M263.767 303.89C264.86 285.074 294.351 261.018 281.444 295.324" stroke="#547C0E" stroke-width="0.25" stroke-miterlimit="10"/>
<path d="M280.604 295.198C286.169 292.576 291.023 288.993 297.304 287.346C296.759 296.752 292.804 308.026 289.135 315.24" stroke="#547C0E" stroke-width="0.25" stroke-miterlimit="10"/>
<path d="M284.229 276.756C287.388 272.919 290.551 269.076 294.435 266.209L295.281 266.334L296.122 266.459C296.081 272.493 294.565 282.62 293.933 286.839" stroke="#547C0E" stroke-width="0.25" stroke-miterlimit="10"/>
<path d="M219.527 388.94C222.458 390.998 226.065 392.831 227.947 395.378C223.818 397.024 218.961 399.21 214.786 401.171" stroke="#547C0E" stroke-width="0.25" stroke-miterlimit="10"/>
<path d="M223.713 432.279C222.876 429.24 218.854 421.522 221.448 419.32C222.953 417.927 230.405 420.02 232.302 420.3" stroke="#547C0E" stroke-width="0.25" stroke-miterlimit="10"/>
<path d="M186.85 449.406C190.362 451.874 196.107 452.411 200.313 452.394C199.934 448.454 196.483 443.408 195.692 440.055" stroke="#547C0E" stroke-width="0.25" stroke-miterlimit="10"/>
<path d="M199.164 475.195C196.727 467.712 195.588 462.364 205.031 464.102" stroke="#547C0E" stroke-width="0.25" stroke-miterlimit="10"/>
<path d="M157.934 489.077C161.757 491.522 165.992 493.254 170.434 494.187C171.955 490.534 168.076 481.863 166.382 478.049" stroke="#547C0E" stroke-width="0.25" stroke-miterlimit="10"/>
<path d="M165.149 518.636C164.578 515.961 161.778 508.747 163.738 506.45C165.653 504.474 172.838 506.199 174.958 507.162" stroke="#547C0E" stroke-width="0.25" stroke-miterlimit="10"/>
<path d="M122.147 533.552C125.347 535.974 133.383 538.472 134.632 534.452C135.377 531.652 132.067 525.652 131.545 522.663" stroke="#547C0E" stroke-width="0.25" stroke-miterlimit="10"/>
<path d="M119.022 573.852C117.409 571.666 113.482 563.312 115.712 561.38C117.169 560.307 125.161 563.121 126.695 563.674" stroke="#547C0E" stroke-width="0.25" stroke-miterlimit="10"/>
<path d="M585.317 382.041C576.997 385.881 567.397 395.481 563.557 403.801C557.797 414.681 562.277 426.841 576.357 421.081C585.957 417.241 603.237 389.081 586.597 382.681" stroke="#547C0E" stroke-width="0.25" stroke-miterlimit="10"/>
<path d="M587.24 383.321C585.32 390.361 580.84 397.401 577 403.801" stroke="#547C0E" stroke-width="0.25" stroke-miterlimit="10"/>
<path d="M608.359 392.921C609.639 402.521 616.679 452.441 632.679 426.841C640.999 413.401 624.999 389.081 609.639 392.281" stroke="#547C0E" stroke-width="0.25" stroke-miterlimit="10"/>
<path d="M610.92 392.921C614.76 398.681 617.32 405.081 620.52 411.481" stroke="#547C0E" stroke-width="0.25" stroke-miterlimit="10"/>
<path d="M592.999 425.561C588.519 431.321 584.039 437.721 582.119 444.761C579.559 454.361 583.399 472.921 594.919 462.041C603.879 453.081 600.039 433.881 593.639 426.201" stroke="#547C0E" stroke-width="0.25" stroke-miterlimit="10"/>
<path d="M592.999 427.481C592.999 433.241 592.359 439.001 592.359 445.401" stroke="#547C0E" stroke-width="0.25" stroke-miterlimit="10"/>
<path d="M270.847 122.245C279.847 123.97 293.239 121.756 301.206 117.227C312.224 111.736 315.665 99.2428 300.863 95.7268C290.823 93.2588 260.377 106.09 270.176 120.981" stroke="#547C0E" stroke-width="0.25" stroke-miterlimit="10"/>
<path d="M270.031 120.09C275.691 115.485 283.431 112.369 290.281 109.402" stroke="#547C0E" stroke-width="0.25" stroke-miterlimit="10"/>
<path d="M258.45 99.9861C263.002 91.4361 286.35 46.7531 258.432 58.2481C243.843 64.3281 242.688 93.4201 257.032 99.7611" stroke="#547C0E" stroke-width="0.25" stroke-miterlimit="10"/>
<path d="M256.371 98.4959C256.604 91.5759 258.248 84.8839 259.371 77.8159" stroke="#547C0E" stroke-width="0.25" stroke-miterlimit="10"/>
<path d="M289.946 82.4C296.94 80.324 304.31 77.7311 309.97 73.1251C317.642 66.8121 325.327 49.4861 309.627 51.6251C297.127 53.6941 289.068 71.5391 289.797 81.5081" stroke="#547C0E" stroke-width="0.25" stroke-miterlimit="10"/>
<path d="M291.064 80.8342C294.418 76.1492 298.293 71.8413 302.018 66.6343" stroke="#547C0E" stroke-width="0.25" stroke-miterlimit="10"/>
<path d="M1571.22 57.8582C1573.8 49.0642 1572.89 35.5222 1569.16 27.1582C1564.76 15.6582 1552.66 11.0282 1547.72 25.4202C1544.3 35.1762 1554.12 66.7201 1569.89 58.4061" stroke="#547C0E" stroke-width="0.25" stroke-miterlimit="10"/>
<path d="M1568.99 58.4619C1564.95 52.3819 1562.6 44.3739 1560.31 37.2729" stroke="#547C0E" stroke-width="0.25" stroke-miterlimit="10"/>
<path d="M1547.86 68.0422C1539.79 62.6892 1497.58 35.1312 1506.32 64.0262C1510.96 79.1352 1539.8 83.0982 1547.5 69.4262" stroke="#547C0E" stroke-width="0.25" stroke-miterlimit="10"/>
<path d="M1546.18 69.969C1539.31 69.069 1532.81 66.784 1525.89 64.98" stroke="#547C0E" stroke-width="0.25" stroke-miterlimit="10"/>
<path d="M1533.4 34.9951C1532.01 27.8321 1530.14 20.2471 1526.11 14.1691C1520.57 5.92109 1504.07 -3.40487 1504.67 12.4281C1505.52 25.0721 1522.5 34.8181 1532.49 35.0561" stroke="#547C0E" stroke-width="0.25" stroke-miterlimit="10"/>
<path d="M1531.96 33.7301C1527.62 29.9411 1523.71 25.6661 1518.89 21.4551" stroke="#547C0E" stroke-width="0.25" stroke-miterlimit="10"/>
<path d="M1928.68 198.971C1928.68 148.623 1919.29 102.544 1885.16 64.1432C1843.35 15.5032 1783.61 -10.0968 1740.09 -56.1768C1732.41 -63.8568 1719.61 -77.5098 1718.76 -87.7498C1726.44 -86.0418 1731.56 -74.9498 1736.68 -68.9778C1744.36 -59.5898 1753.75 -51.0578 1763.98 -42.5248C1778.49 -31.4248 1808.36 -8.38977 1827.13 -6.68477C1829.69 -34.8448 1821.16 -117.617 1833.1 -107.378C1839.93 -106.523 1832.25 -56.1778 1835.66 -5.83076C1845.05 8.67624 1868.09 26.5942 1881.74 38.5412C1902.22 56.4612 1915.88 75.2342 1926.97 99.9812C1941.48 132.408 1941.48 162.273 1945.74 196.408C1940.62 198.108 1933.8 198.968 1929.53 197.26" stroke="#547C0E" stroke-width="0.25" stroke-miterlimit="10"/>
<path d="M254.896 604.846C292.451 580.395 322.265 551.014 334.333 506.903C350.307 452.088 340.395 395.098 353.633 340.255C355.633 330.796 359.6 314.619 366.822 309.008C369.28 315.567 363.491 324.775 361.522 331.495C358.248 341.784 356.44 352.927 355.05 364.708C353.816 380.918 351.136 414.387 358.982 429.218C381.228 417.455 438.831 370.888 436.993 384.774C439.671 390.283 398.386 409.002 362.493 436C356.229 450.047 354.05 475.936 351.769 491.926C348.349 515.903 340.979 535.208 327.905 555.501C310.761 582.069 288.484 596.576 265.09 616.334C261.332 613.344 257.379 608.667 256.583 604.655" stroke="#547C0E" stroke-width="0.25" stroke-miterlimit="10"/>
<path d="M372.987 420.1C361.475 394.062 384.051 352.173 411.275 348.044C420.985 346.255 431.048 350.579 440.566 347.099C448.4 343.812 455.844 337.153 462.846 332.592C483.216 319.331 512.451 323.865 518.682 351.531C524.114 375.188 504.602 386.982 487.445 395.431C465.196 407.197 474.668 427.316 455.763 441.437C441.314 452.655 417.463 456.4 400.49 448.421C390.012 443.462 385.481 433.721 377.55 427.101" stroke="#547C0E" stroke-width="0.25" stroke-miterlimit="10"/>
<path d="M388.043 411.204C386.315 396.018 396.619 378.433 403.705 365.656" stroke="#547C0E" stroke-width="0.25" stroke-miterlimit="10"/>
<path d="M396.231 414.035C411.131 418.835 431.741 422.635 444.5 411.611" stroke="#547C0E" stroke-width="0.25" stroke-miterlimit="10"/>
<path d="M436.171 383.497C454.437 369.797 479.555 365.219 495.752 348.333" stroke="#547C0E" stroke-width="0.25" stroke-miterlimit="10"/>
<path d="M438.687 384.58C456.003 380.556 475.915 390.253 491.029 375.88" stroke="#547C0E" stroke-width="0.25" stroke-miterlimit="10"/>
<path d="M436.2 380.761C434.244 366.625 447.835 356.871 458.019 350.24" stroke="#547C0E" stroke-width="0.25" stroke-miterlimit="10"/>
<path d="M423.959 363.35C420.078 371.314 419.576 378.894 418.212 387.936" stroke="#547C0E" stroke-width="0.25" stroke-miterlimit="10"/>
<path d="M422.295 399.779C430.895 403.245 441.851 403.366 451.118 403.679" stroke="#547C0E" stroke-width="0.25" stroke-miterlimit="10"/>
<path d="M398.745 415.115C399.708 423.558 409.018 439.245 419.112 440.83" stroke="#547C0E" stroke-width="0.25" stroke-miterlimit="10"/>
<path d="M425.021 420.669C427.478 427.225 432.448 434.869 439.807 436.418" stroke="#547C0E" stroke-width="0.25" stroke-miterlimit="10"/>
<path d="M345.678 393.471C334.978 389.562 325.254 373.232 320.943 362.441C317.054 352.288 312.393 335.382 314.612 324.873C317.5 311.21 324.445 312.127 334.818 307.183C356.847 296.467 338.835 267.408 358.181 251.183C376.254 235.793 406.354 238.86 418.974 259.645C432.844 282.337 397.731 295.229 414.53 319.645C421.575 330.466 432.086 332.686 418.882 345.816" stroke="#547C0E" stroke-width="0.25" stroke-miterlimit="10"/>
<path d="M387.3 266.672C398.178 293.124 387.059 327.557 361.019 339.072" stroke="#547C0E" stroke-width="0.25" stroke-miterlimit="10"/>
<path d="M371.445 271.556C372.04 284.211 370.476 296.875 366.822 309.006" stroke="#547C0E" stroke-width="0.25" stroke-miterlimit="10"/>
<path d="M341.068 313.995C340.341 322.627 346.114 334.275 352.168 339.395" stroke="#547C0E" stroke-width="0.25" stroke-miterlimit="10"/>
<path d="M325.288 331.517C328.096 344.192 336.104 363.451 348.049 369.267" stroke="#547C0E" stroke-width="0.25" stroke-miterlimit="10"/>
<path d="M402.378 332.991C394.621 348.917 373.616 362.591 357.821 362.001" stroke="#547C0E" stroke-width="0.25" stroke-miterlimit="10"/>
<path d="M383.784 337.842C379.934 343.067 379.24 348.96 378.541 354.851" stroke="#547C0E" stroke-width="0.25" stroke-miterlimit="10"/>
<path d="M379.229 291.865C381.687 298.426 383.507 305.395 386.599 311.541" stroke="#547C0E" stroke-width="0.25" stroke-miterlimit="10"/>
<path d="M357.218 281.725C360.948 287.454 365.093 293.825 368.825 299.55" stroke="#547C0E" stroke-width="0.25" stroke-miterlimit="10"/>
<path d="M689.83 12.1358C667.13 24.6138 642.104 47.6938 658.03 74.3698C671.23 96.9768 718.221 118.942 745.211 116.961C781.617 113.774 769.127 56.4708 762.534 33.7528C752.921 -1.09421 726.734 -4.3712 698.145 8.1248L689.73 11.4118" stroke="#547C0E" stroke-width="0.25" stroke-miterlimit="10"/>
<path d="M689.735 11.412C665.308 21.903 663.216 -11.7 652.853 -23.627C666.653 -13.61 686.599 -7.32698 689.01 11.507" stroke="#547C0E" stroke-width="0.25" stroke-miterlimit="10"/>
<path d="M689.455 9.23993C685.705 -2.80007 685.392 -16.7491 692.972 -26.5601C699.341 -17.0601 698.947 2.86494 690.456 11.3149" stroke="#547C0E" stroke-width="0.25" stroke-miterlimit="10"/>
<path d="M689.83 12.1358C675.376 25.7658 651.545 23.6658 639.175 7.57377C646.96 5.10577 657.996 -0.726258 664.975 2.06474" stroke="#547C0E" stroke-width="0.25" stroke-miterlimit="10"/>
<path d="M664.485 49.9878C665.485 52.0668 667.122 53.3288 669.572 55.2228" stroke="#547C0E" stroke-width="0.25" stroke-miterlimit="10"/>
<path d="M689.343 31.3438C691.793 33.2387 693.613 35.9488 695.433 38.6608" stroke="#547C0E" stroke-width="0.25" stroke-miterlimit="10"/>
<path d="M723.261 14.4829C725.69 15.7305 727.545 17.8656 728.442 20.4449" stroke="#547C0E" stroke-width="0.25" stroke-miterlimit="10"/>
<path d="M689.504 55.6167C691.229 57.6057 692.96 59.5947 695.315 60.7647" stroke="#547C0E" stroke-width="0.25" stroke-miterlimit="10"/>
<path d="M714.826 40.5947C716.676 42.1844 718.378 43.9375 719.913 45.8328" stroke="#547C0E" stroke-width="0.25" stroke-miterlimit="10"/>
<path d="M690.393 79.8018C693.662 82.3308 697.023 85.5827 700.293 88.1017" stroke="#547C0E" stroke-width="0.25" stroke-miterlimit="10"/>
<path d="M715.709 64.7798C717.345 66.0418 719.703 67.2138 721.338 68.4798" stroke="#547C0E" stroke-width="0.25" stroke-miterlimit="10"/>
<path d="M742.09 40.7871C743.91 43.5011 745.636 45.4871 747.55 48.9231" stroke="#547C0E" stroke-width="0.25" stroke-miterlimit="10"/>
<path d="M721.205 84.6909C723.655 86.5909 725.385 88.5769 727.835 90.4689" stroke="#547C0E" stroke-width="0.25" stroke-miterlimit="10"/>
<path d="M741.434 64.4321C743.162 66.4211 744.89 68.4101 747.434 71.0261" stroke="#547C0E" stroke-width="0.25" stroke-miterlimit="10"/>
<path d="M745.956 94.041C747.689 96.0277 749.416 98.015 751.137 100.003" stroke="#547C0E" stroke-width="0.25" stroke-miterlimit="10"/>
<path d="M731.046 104.048C733.404 105.22 735.129 107.207 736.86 109.199" stroke="#547C0E" stroke-width="0.25" stroke-miterlimit="10"/>
<path d="M757.313 73.4448C758.877 74.683 760.098 76.301 760.858 78.1448" stroke="#547C0E" stroke-width="0.25" stroke-miterlimit="10"/>
<path d="M742.745 17.1431C744.47 19.1301 746.293 21.8431 748.745 23.7381" stroke="#547C0E" stroke-width="0.25" stroke-miterlimit="10"/>
<path d="M669.721 73.6128C670.916 75.3441 672.354 76.8949 673.991 78.2178" stroke="#547C0E" stroke-width="0.25" stroke-miterlimit="10"/>
<path d="M686.745 11.0577C683.384 7.80374 679.206 3.92571 675.745 -0.050293" stroke="#547C0E" stroke-width="0.25" stroke-miterlimit="10"/>
<path d="M1302.34 179.376C1311.72 152.921 1321.96 120.496 1316.84 91.4814C1313.43 73.5614 1303.19 57.3484 1297.22 40.2814C1290.39 22.3614 1295.51 2.73437 1304.04 -14.3306C1304.05 -14.991 1304.21 -15.6403 1304.51 -16.2311C1304.8 -16.8219 1305.23 -17.3392 1305.75 -17.7456" stroke="#547C0E" stroke-width="0.25" stroke-miterlimit="10"/>
<path d="M1315.99 113.666C1298.92 134.146 1237.48 108.546 1256.26 87.2134C1266.5 75.2654 1270.76 96.5984 1279.3 100.865C1288.68 105.132 1300.63 99.1574 1298.07 87.2134C1295.51 70.9984 1262.23 70.9984 1250.28 63.3134C1244.31 59.0484 1240.11 50.9134 1241.75 39.4214C1243.46 27.4734 1255.4 51.3684 1264.79 53.0734C1280.15 55.6334 1277.59 41.9804 1272.47 34.3014C1267.35 27.4734 1253.7 20.6484 1261.38 8.70143C1271.62 -5.80557 1275.03 24.0614 1281.86 7.84938C1286.12 -1.53862 1275.88 -9.21862 1270.76 -15.1926C1262.23 -24.5776 1257.11 -32.2576 1261.38 -45.0576C1264.79 -53.5896 1278.44 -68.9526 1288.68 -62.1246C1297.21 -56.1526 1282.7 -35.6726 1298.06 -34.8176C1306.6 -34.8176 1310.86 -53.5906 1320.25 -57.0046C1333.05 -61.2726 1350.97 -54.4446 1349.26 -39.0846C1347.56 -24.5766 1331.34 -22.8716 1325.37 -11.7776C1308.3 23.2104 1365.47 -10.9246 1368.89 10.4104C1372.3 33.4504 1316.84 16.3834 1315.13 43.6904C1314.28 53.9304 1325.37 65.8754 1336.46 62.4624C1345 59.9024 1345.85 47.9554 1355.24 44.5424C1379.14 36.8624 1374.86 66.7304 1358.65 74.4094C1352.68 77.8214 1334.75 76.1094 1336.46 86.3544C1338.18 96.5994 1355.24 91.4744 1353.53 103.421C1351.82 116.221 1327.93 115.369 1320.25 113.661" stroke="#547C0E" stroke-width="0.25" stroke-miterlimit="10"/>
</g>
</svg>
