<svg width="1920" height="791" viewBox="0 0 1920 791" fill="none" xmlns="http://www.w3.org/2000/svg">
<path d="M1596.16 892.941C1629.39 892.941 1656.32 866.007 1656.32 832.781C1656.32 799.556 1629.39 772.621 1596.16 772.621C1562.93 772.621 1536 799.556 1536 832.781C1536 866.007 1562.93 892.941 1596.16 892.941Z" fill="#B3E56A"/>
<g opacity="0.7">
<path opacity="0.3" d="M-34.4364 901.901C-51.8084 779.021 -55.2854 435.981 125.408 374.541C219.229 343.821 253.979 438.541 306.103 479.501C406.87 553.741 486.796 453.901 584.091 428.301C730.037 389.901 730.037 487.181 841.23 523.021C973.272 563.981 980.229 446.221 1032.35 392.461C1060.15 364.301 1101.84 336.141 1153.97 338.701C1219.99 343.821 1237.37 389.901 1265.17 425.741C1292.97 464.141 1327.72 505.101 1393.74 482.061C1438.91 464.141 1449.34 425.741 1477.14 397.581C1508.41 369.421 1570.96 336.141 1623.08 356.621C1675.2 377.101 1664.78 435.981 1706.48 461.581C1786.4 512.781 1862.85 359.181 1932.34 461.581C1970.57 520.461 1963.62 633.101 1967.09 699.661C1967.09 740.621 1960.15 781.581 1963.62 819.981C1967.09 866.061 1970.57 868.621 1904.55 881.421C1720.38 917.261 1525.79 896.781 1334.67 896.781C1122.7 896.781 907.259 899.341 691.82 899.341C448.582 899.341 208.815 904.461 -34.4264 901.901" fill="#B3E56A"/>
<path opacity="0.3" d="M-30.9596 1129.74C-48.3346 1006.86 -51.8086 663.821 128.884 602.381C222.705 571.661 257.452 666.381 309.576 707.341C410.348 781.581 490.268 681.741 587.564 656.141C733.51 617.741 733.51 715.021 844.706 750.861C976.751 791.821 983.706 674.061 1035.82 620.301C1063.62 592.141 1105.32 563.981 1157.44 566.541C1223.47 571.661 1240.84 617.741 1268.64 653.581C1296.44 691.981 1331.19 732.941 1397.21 709.901C1442.39 691.981 1452.81 653.581 1480.61 625.421C1511.88 597.261 1574.43 563.981 1626.55 584.461C1678.67 604.941 1668.25 663.821 1709.95 689.421C1789.87 740.621 1866.32 587.021 1935.82 689.421C1974.04 748.301 1967.09 860.941 1970.57 927.501C1970.57 968.461 1963.62 1009.42 1967.09 1047.82C1970.57 1093.9 1974.04 1096.46 1908.02 1109.26C1723.85 1145.1 1529.26 1124.62 1338.14 1124.62C1126.17 1124.62 910.739 1127.18 695.292 1127.18C452.051 1127.18 212.284 1132.3 -30.9536 1129.74" fill="#B3E56A"/>
</g>
<path d="M1269.1 455.63C1219.82 448.751 1192.32 472.82 1170.55 517.515C1147.62 565.648 1165.96 614.928 1162.52 665.355C1159.08 718.071 1120.12 762.766 1113.24 815.484C1105.22 877.372 1172.84 898 1222.12 901.438C1270.25 903.729 1336.72 881.954 1335.58 824.653C1334.43 771.935 1281.71 736.41 1286.3 682.545C1287.44 660.77 1294.32 651.602 1305.78 621.804C1313.77 601.035 1320.05 583.819 1322.97 562.21C1328.7 519.81 1325.26 464.797 1269.1 455.63" stroke="#547C0E" stroke-width="0.25" stroke-miterlimit="10"/>
<path d="M1233.58 456.391C1232.81 446.458 1226.7 436.144 1225.18 425.83C1224.41 422.773 1223.27 418.188 1225.56 415.895C1228.62 412.841 1239.7 414.372 1243.9 414.372C1254.21 413.604 1265.67 411.697 1275.99 412.841C1279.81 413.222 1280.19 412.078 1281.72 415.516C1282.86 418.188 1281.33 423.916 1281.33 426.593C1280.95 432.706 1280.95 438.436 1280.57 444.549C1280.19 449.132 1279.42 452.949 1279.42 457.154" stroke="#547C0E" stroke-width="0.25" stroke-miterlimit="10"/>
<path d="M1241.22 454.863C1241.22 447.227 1237.78 438.82 1235.87 431.563C1234.34 426.215 1233.58 418.958 1231.67 414.754" stroke="#547C0E" stroke-width="0.25" stroke-miterlimit="10"/>
<path d="M1252.3 454.098C1251.15 445.698 1248.48 436.526 1246.18 428.124C1245.04 423.539 1245.04 418.188 1243.51 413.988" stroke="#547C0E" stroke-width="0.25" stroke-miterlimit="10"/>
<path d="M1258.79 454.097C1259.17 447.223 1258.03 439.963 1257.26 433.087C1256.88 427.739 1256.88 418.569 1255.73 414.371" stroke="#547C0E" stroke-width="0.25" stroke-miterlimit="10"/>
<path d="M1267.58 454.101C1267.58 440.733 1268.72 426.215 1267.96 412.844" stroke="#547C0E" stroke-width="0.25" stroke-miterlimit="10"/>
<path d="M1274.07 456.393C1274.07 441.878 1274.45 426.976 1274.45 412.461" stroke="#547C0E" stroke-width="0.25" stroke-miterlimit="10"/>
<path d="M1182.01 894.943C1160.61 835.351 1165.96 777.283 1196.52 721.511C1214.86 687.893 1209.51 654.278 1203.4 617.601C1199.58 595.447 1196.52 568.708 1201.11 546.548C1204.93 528.211 1216.39 510.639 1224.03 493.83C1229.38 481.606 1238.54 470.148 1239.31 456.395" stroke="#547C0E" stroke-width="0.25" stroke-miterlimit="10"/>
<path d="M1285.91 890.361C1285.15 885.779 1281.33 885.013 1279.04 881.194C1269.87 868.97 1262.23 855.983 1256.88 841.465C1245.42 810.904 1243.89 778.814 1243.13 745.965C1242.37 713.116 1246.95 679.495 1257.64 648.933C1270.64 610.733 1290.5 569.476 1286.68 528.216C1284.39 504.528 1274.45 474.732 1263.76 456.398" stroke="#547C0E" stroke-width="0.25" stroke-miterlimit="10"/>
<path d="M1243.13 512.934C1227.08 541.967 1223.27 576.348 1223.27 608.434" stroke="#547C0E" stroke-width="0.25" stroke-miterlimit="10"/>
<path d="M1255.36 563.359C1255.36 580.931 1253.83 594.683 1246.96 611.492" stroke="#547C0E" stroke-width="0.25" stroke-miterlimit="10"/>
<path d="M1302.72 503.766C1306.54 535.856 1301.19 562.595 1288.97 591.628" stroke="#547C0E" stroke-width="0.25" stroke-miterlimit="10"/>
<path d="M1289.74 621.426C1290.5 634.413 1285.15 646.637 1279.04 658.098" stroke="#547C0E" stroke-width="0.25" stroke-miterlimit="10"/>
<path d="M1200.35 507.586C1188.12 539.675 1182.77 566.415 1182.77 600.795" stroke="#547C0E" stroke-width="0.25" stroke-miterlimit="10"/>
<path d="M1184.3 626.773C1183.53 636.703 1184.3 645.873 1184.3 655.803" stroke="#547C0E" stroke-width="0.25" stroke-miterlimit="10"/>
<path d="M1175.89 708.523C1175.13 724.569 1159.85 739.084 1155.27 754.365C1149.16 771.937 1143.81 791.805 1148.39 810.905" stroke="#547C0E" stroke-width="0.25" stroke-miterlimit="10"/>
<path d="M1217.15 728.391C1210.28 752.839 1202.63 774.23 1203.4 800.207C1204.16 824.657 1213.33 841.467 1221.74 864.386" stroke="#547C0E" stroke-width="0.25" stroke-miterlimit="10"/>
<path d="M1222.5 775.762C1223.27 785.692 1223.27 795.622 1224.03 804.79" stroke="#547C0E" stroke-width="0.25" stroke-miterlimit="10"/>
<path d="M1233.2 664.207C1232.55 671.134 1231.53 678.022 1230.14 684.838" stroke="#547C0E" stroke-width="0.25" stroke-miterlimit="10"/>
<path d="M1265.29 715.402C1263.76 745.202 1264.52 774.996 1278.27 801.735C1286.67 817.781 1300.43 841.466 1288.97 859.035" stroke="#547C0E" stroke-width="0.25" stroke-miterlimit="10"/>
<path d="M1287.44 769.648C1300.43 785.691 1302.72 798.681 1302.72 818.548" stroke="#547C0E" stroke-width="0.25" stroke-miterlimit="10"/>
<path d="M1239.31 622.953C1239.22 629.007 1237.92 634.983 1235.49 640.527" stroke="#547C0E" stroke-width="0.25" stroke-miterlimit="10"/>
<path d="M1261.47 500.707C1264.52 510.637 1266.81 522.864 1263.76 533.559" stroke="#547C0E" stroke-width="0.25" stroke-miterlimit="10"/>
<path d="M1285.91 467.855C1288.41 472.489 1290.46 477.351 1292.03 482.373" stroke="#547C0E" stroke-width="0.25" stroke-miterlimit="10"/>
<path d="M1255.35 470.914C1254.7 476.074 1253.68 481.18 1252.3 486.192" stroke="#547C0E" stroke-width="0.25" stroke-miterlimit="10"/>
<path d="M1217.92 480.082C1214.86 483.901 1212.57 486.958 1209.52 490.775" stroke="#547C0E" stroke-width="0.25" stroke-miterlimit="10"/>
<path d="M1178.19 532.031C1177.3 536.824 1176.79 541.678 1176.66 546.549" stroke="#547C0E" stroke-width="0.25" stroke-miterlimit="10"/>
<path d="M1272.16 678.727C1272.16 684.84 1273.69 690.188 1273.69 696.301" stroke="#547C0E" stroke-width="0.25" stroke-miterlimit="10"/>
<path d="M1192.7 766.59C1190.41 778.051 1187.36 788.747 1185.83 800.205" stroke="#547C0E" stroke-width="0.25" stroke-miterlimit="10"/>
<path d="M1285.15 735.266C1285.91 739.851 1287.44 744.433 1288.21 749.018" stroke="#547C0E" stroke-width="0.25" stroke-miterlimit="10"/>
<path d="M1194.23 671.852C1194.23 681.02 1194.23 690.189 1191.17 699.352" stroke="#547C0E" stroke-width="0.25" stroke-miterlimit="10"/>
<path d="M1152.21 733.738C1149.15 743.668 1146.09 752.838 1141.51 762.008" stroke="#547C0E" stroke-width="0.25" stroke-miterlimit="10"/>
<path d="M1445.49 865.704C1455.03 838.304 1459.91 814.227 1459.66 784.904C1460.28 739.031 1429.3 695.499 1420.51 650.23C1413.88 613.269 1406.54 577.272 1413.66 539.889C1418.91 507.116 1436.23 474.189 1450.7 445.156C1439.55 478.848 1426 513.784 1420.3 549.217C1414.47 583.81 1419.55 621.883 1428.31 655.925C1437.21 690.81 1456.8 722.301 1468.1 755.947C1473.13 771.573 1476.86 789.99 1474.17 805.957C1470.32 825.557 1464.91 846.267 1458.8 867.947" stroke="#547C0E" stroke-width="0.25" stroke-miterlimit="10"/>
<path d="M1465.15 742.597C1463.25 735.982 1464.86 729.687 1466.47 723.387C1468.79 716.119 1485.45 678.971 1494.01 678.5C1508.35 676.263 1497.27 743.632 1466.39 744.994" stroke="#547C0E" stroke-width="0.25" stroke-miterlimit="10"/>
<path d="M1465.28 743.436C1471.42 732.976 1479.38 723.097 1482.6 710.504" stroke="#547C0E" stroke-width="0.25" stroke-miterlimit="10"/>
<path d="M1451.92 746.381C1427.94 758.761 1358.61 707.395 1383.35 688.85C1398.05 677.921 1430.88 705.618 1437.91 717.476C1442.73 726.226 1443.55 742.505 1453.48 745.276" stroke="#547C0E" stroke-width="0.25" stroke-miterlimit="10"/>
<path d="M1450.82 744.83C1430.11 739.421 1416.38 723.43 1400.39 709.512" stroke="#547C0E" stroke-width="0.25" stroke-miterlimit="10"/>
<path d="M1453.75 719.327C1450.35 708.627 1445.98 697.219 1444.98 685.281C1443.72 671.662 1453.22 621.814 1474.9 627.932C1505.8 637.793 1465.27 704.573 1452.11 714.399" stroke="#547C0E" stroke-width="0.25" stroke-miterlimit="10"/>
<path d="M1451.85 712.711C1450.19 696.56 1457.81 678.962 1462.32 663.574" stroke="#547C0E" stroke-width="0.25" stroke-miterlimit="10"/>
<path d="M1432.99 691.474C1416.05 688.074 1340.13 649.823 1374.86 628.859C1410.43 607.765 1419.4 676.321 1431.04 690.051" stroke="#547C0E" stroke-width="0.25" stroke-miterlimit="10"/>
<path d="M1427.14 687.204C1415.05 676.137 1403.8 664.937 1392.43 652.895" stroke="#547C0E" stroke-width="0.25" stroke-miterlimit="10"/>
<path d="M1432.89 674.214C1431.05 662.414 1428.37 650.739 1428.21 638.671C1427.92 625.761 1442.22 573.437 1459.97 593.126C1474.67 609.826 1447.46 662.44 1435.29 672.975" stroke="#547C0E" stroke-width="0.25" stroke-miterlimit="10"/>
<path d="M1433.6 673.24C1431.76 661.433 1437.11 645.92 1441.57 635.723" stroke="#547C0E" stroke-width="0.25" stroke-miterlimit="10"/>
<path d="M1415.33 622.543C1401.05 619.589 1353.76 593.282 1366.18 573.209C1380.01 551.188 1411.46 603.284 1412.85 617.745" stroke="#547C0E" stroke-width="0.25" stroke-miterlimit="10"/>
<path d="M1412.41 620.411C1407.91 608.159 1395.68 596.246 1388.78 585.23" stroke="#547C0E" stroke-width="0.25" stroke-miterlimit="10"/>
<path d="M1420.7 618.251C1420.35 609.109 1421.25 599.961 1423.37 591.061C1426.01 580.286 1432.33 565.479 1440.69 558.132C1450.02 551.494 1456.9 551.284 1456.34 564.332C1454.75 581.853 1431.64 605.323 1420.7 618.256" stroke="#547C0E" stroke-width="0.25" stroke-miterlimit="10"/>
<path d="M1421.02 614.746C1425.21 602.865 1429.67 592.671 1436.65 582.078" stroke="#547C0E" stroke-width="0.25" stroke-miterlimit="10"/>
<path d="M1408.94 576.037C1398.22 568.209 1351.96 537.427 1370.67 518.962C1393.07 496.462 1407.23 565.078 1409.78 575.907" stroke="#547C0E" stroke-width="0.25" stroke-miterlimit="10"/>
<path d="M1408.41 572.671C1399.11 562.889 1388.44 549.871 1385.5 536.516" stroke="#547C0E" stroke-width="0.25" stroke-miterlimit="10"/>
<path d="M1418.08 573.748C1420.98 564.657 1421.35 555.964 1425.23 547.587C1428.97 538.366 1456.78 495.163 1467.53 514.218C1477.43 533.4 1432.07 563.792 1420.09 569.98" stroke="#547C0E" stroke-width="0.25" stroke-miterlimit="10"/>
<path d="M1419.95 569.14C1425.83 556.998 1435.22 545.168 1443.17 535.289" stroke="#547C0E" stroke-width="0.25" stroke-miterlimit="10"/>
<path d="M1414.75 530.226C1407.66 523.557 1369.39 466.479 1400.66 467.647C1425.9 468.894 1414.06 514.787 1415.32 528.409C1410.82 516.154 1406.19 503.06 1403.24 489.699" stroke="#547C0E" stroke-width="0.25" stroke-miterlimit="10"/>
<path d="M1426.28 526.699C1427.95 515.21 1435.25 501.117 1440.68 491.632C1444.82 484.943 1468.83 456.15 1474.96 473.332C1481.23 491.355 1440.02 515.058 1428.03 521.248" stroke="#547C0E" stroke-width="0.25" stroke-miterlimit="10"/>
<path d="M1426.73 524.035C1432.35 510.203 1443.55 498.957 1454.88 488.551" stroke="#547C0E" stroke-width="0.25" stroke-miterlimit="10"/>
<path d="M1433.52 478.93C1422.09 472.079 1394.27 421.14 1418.09 424.335C1436.59 426.635 1435.89 466.467 1433.52 478.93Z" stroke="#547C0E" stroke-width="0.25" stroke-miterlimit="10"/>
<path d="M1433.83 475.427C1428.04 465.968 1422.82 454.691 1421.11 443.727" stroke="#547C0E" stroke-width="0.25" stroke-miterlimit="10"/>
<path d="M1442.98 473.138C1446.85 464.759 1452.6 451.772 1461.35 446.952C1473.92 438.947 1479.45 446.719 1472.59 458.152C1466.19 466.925 1453.09 471.559 1443.11 473.983L1442.98 473.138ZM1442.98 473.138C1449.06 467.87 1455.86 461.628 1461.82 455.518" stroke="#547C0E" stroke-width="0.25" stroke-miterlimit="10"/>
<path d="M1443.98 457.434C1455.1 440.152 1430.59 382.659 1460.23 378.898C1488.18 375.398 1459.45 440.338 1447.85 449.055" stroke="#547C0E" stroke-width="0.25" stroke-miterlimit="10"/>
<path d="M1449.54 448.793C1450.94 435.617 1454.03 422.182 1456.14 408.035" stroke="#547C0E" stroke-width="0.25" stroke-miterlimit="10"/>
<path d="M1915.73 854.97C1896.96 854.97 1879.89 852.41 1861.12 849.85C1839.79 847.29 1808.21 843.025 1789.44 831.078C1756.16 808.891 1810.77 802.066 1795.41 785.85C1785.17 774.757 1745.07 776.465 1748.48 752.57C1751.04 734.65 1778.35 734.65 1788.59 725.27C1801.39 714.175 1780.91 686.87 1780.91 668.95C1780.91 652.735 1787.73 633.962 1805.65 645.05C1818.45 652.73 1832.11 677.477 1841.49 689.425C1849.17 676.625 1877.33 648.465 1885.87 674.065C1890.99 690.277 1878.19 717.585 1888.43 731.237C1902.93 723.557 1931.95 701.37 1932.8 731.237C1932.8 743.185 1928.53 753.425 1925.12 763.665C1924.27 767.93 1920.85 772.197 1922.56 776.465C1925.12 784.145 1925.97 777.317 1931.09 781.585C1940.48 788.41 1940.48 785.85 1937.07 798.65C1934.51 807.185 1931.09 814.865 1928.53 823.397C1924.27 833.637 1920.85 843.877 1917.44 854.117" stroke="#547C0E" stroke-width="0.25" stroke-miterlimit="10"/>
<path d="M1918.29 854.969C1897.81 833.636 1880.75 802.069 1865.39 776.469C1843.2 740.629 1824.43 702.229 1800.53 668.094C1798.83 665.534 1796.27 662.974 1794.56 660.414" stroke="#547C0E" stroke-width="0.25" stroke-miterlimit="10"/>
<path d="M1800.53 701.368C1807.36 704.783 1825.28 714.168 1833.81 720.995C1831.25 709.903 1830.4 697.955 1827.84 687.715" stroke="#547C0E" stroke-width="0.25" stroke-miterlimit="10"/>
<path d="M1788.59 740.626C1813.33 739.771 1833.81 749.158 1856 759.398C1858.56 742.331 1861.97 725.266 1864.53 709.051" stroke="#547C0E" stroke-width="0.25" stroke-miterlimit="10"/>
<path d="M1815.04 784.145C1835.52 783.29 1858.56 790.97 1878.18 797.797C1878.18 781.585 1885.01 763.665 1885.01 748.305" stroke="#547C0E" stroke-width="0.25" stroke-miterlimit="10"/>
<path d="M1838.08 817.424C1857.7 822.544 1879.04 825.104 1898.66 829.369C1901.22 814.009 1911.46 800.357 1913.16 784.996" stroke="#547C0E" stroke-width="0.25" stroke-miterlimit="10"/>
<path d="M1815.69 409.271C1806.56 409.353 1795.26 409.821 1786.62 406.465C1775.92 402.807 1779.56 401.931 1780.47 390.834C1782.5 357.441 1773.12 330.119 1741.82 313.653C1716.31 300.833 1673.96 307.33 1662.71 336.578C1657.08 351.206 1661.56 368.696 1640.93 370.621C1623.05 372.94 1609.23 356.904 1610.93 340.306C1614.53 310.651 1642.49 277.506 1671.29 267.643C1705.2 256.415 1746.13 269.361 1775.86 287.007C1816.57 311.148 1828.46 359.89 1815.69 409.273" stroke="#547C0E" stroke-width="0.25" stroke-miterlimit="10"/>
<path d="M1813.48 410.006C1815.19 421.833 1815.68 431.116 1810.88 442.526C1808.02 449.869 1804.1 456.75 1799.23 462.944C1795.02 468.387 1788.78 475.117 1786.05 481.297C1785.35 476.991 1782.75 473.187 1781.5 469.06C1780.42 465.36 1779.73 461.555 1779.46 457.709C1779 450.009 1778.75 442.609 1778.03 434.871C1777.2 426.071 1776.93 413.398 1779.27 404.522C1779.31 404.263 1779.61 404.043 1779.64 403.785" stroke="#547C0E" stroke-width="0.25" stroke-miterlimit="10"/>
<path d="M1784.87 407.703C1785.26 412.234 1784.26 417.352 1784.32 422.362C1784.12 429.177 1785.25 435.92 1785.86 442.586C1786.66 449.808 1787.68 457.324 1786.63 464.54C1786.13 468.191 1786.04 471.885 1786.35 475.556C1786.46 476.623 1786.57 477.691 1786.68 478.761" stroke="#547C0E" stroke-width="0.25" stroke-miterlimit="10"/>
<path d="M1796.39 409.898C1798.95 421.321 1795.97 436.417 1794.07 447.722C1792.32 457.995 1789.05 467.787 1787.6 477.841" stroke="#547C0E" stroke-width="0.25" stroke-miterlimit="10"/>
<path d="M1806.59 410.324C1809.11 422.003 1809.31 435.189 1803.76 446.224C1800.8 452.115 1796.92 457.079 1794.22 463.002C1792.37 466.681 1791.56 470.511 1790 473.972" stroke="#547C0E" stroke-width="0.25" stroke-miterlimit="10"/>
<path d="M1819.1 380.292C1809.97 376.076 1799.51 377.455 1790 379.498" stroke="#547C0E" stroke-width="0.25" stroke-miterlimit="10"/>
<path d="M1810.68 393.019C1805.16 389.325 1799.23 392.149 1792.89 392.282" stroke="#547C0E" stroke-width="0.25" stroke-miterlimit="10"/>
<path d="M1815.11 349.708C1804.4 349.208 1793.6 349.222 1784.46 356.057" stroke="#547C0E" stroke-width="0.25" stroke-miterlimit="10"/>
<path d="M1805.78 337.832C1799.6 338.706 1793.67 340.798 1788.31 343.986" stroke="#547C0E" stroke-width="0.25" stroke-miterlimit="10"/>
<path d="M1767.96 335.512C1773.32 325.761 1786.81 319.819 1797.42 319.254" stroke="#547C0E" stroke-width="0.25" stroke-miterlimit="10"/>
<path d="M1760.05 324.628C1763.57 316.717 1770.43 311.134 1778.51 308.09" stroke="#547C0E" stroke-width="0.25" stroke-miterlimit="10"/>
<path d="M1747.78 311.273C1749.01 302.766 1754.74 295.964 1760.83 290.266" stroke="#547C0E" stroke-width="0.25" stroke-miterlimit="10"/>
<path d="M1739.03 300.79C1739.42 294.528 1742.11 290.445 1746.43 286.07" stroke="#547C0E" stroke-width="0.25" stroke-miterlimit="10"/>
<path d="M1716.6 303.067C1711.76 291.053 1715.57 282.915 1721.78 272.762" stroke="#547C0E" stroke-width="0.25" stroke-miterlimit="10"/>
<path d="M1701.03 297.918C1696.96 289.695 1697.15 284.724 1700.7 276.555" stroke="#547C0E" stroke-width="0.25" stroke-miterlimit="10"/>
<path d="M1690.54 310.347C1682.6 303.407 1674.49 288.547 1680.73 278.137" stroke="#547C0E" stroke-width="0.25" stroke-miterlimit="10"/>
<path d="M1674.3 309.833C1669.97 303.415 1663.09 298.208 1664.32 289.699" stroke="#547C0E" stroke-width="0.25" stroke-miterlimit="10"/>
<path d="M1668.19 324.741C1656.09 319.301 1643.24 311.652 1643.61 296.441" stroke="#547C0E" stroke-width="0.25" stroke-miterlimit="10"/>
<path d="M1652.9 330.421C1644.4 327.347 1638.69 324.94 1634.65 316.461" stroke="#547C0E" stroke-width="0.25" stroke-miterlimit="10"/>
<path d="M1658.28 347.78C1647 347.463 1633.15 348.617 1624.48 339.465" stroke="#547C0E" stroke-width="0.25" stroke-miterlimit="10"/>
<path d="M1648.2 357.367C1642.57 356.892 1637.08 355.384 1632 352.918" stroke="#547C0E" stroke-width="0.25" stroke-miterlimit="10"/>
<path d="M-13.2314 446.007C-1.13144 432.372 7.00054 415.597 16.0115 400.163C27.4525 380.848 38.8905 361.527 50.6455 341.813C69.2085 309.434 84.6855 275.256 104.046 243.504C117.138 222.916 129.741 198.067 149.166 182.504C161.28 172.104 176.957 164.533 191.695 158.151C192.01 157.751 193.428 157.59 194.452 157.109" stroke="#547C0E" stroke-width="0.25" stroke-miterlimit="10"/>
<path d="M57.7703 328.756C56.7613 298.287 67.9773 264.6 80.3263 237.617C89.7033 216.017 100.355 196.071 114.799 177.846C127.361 162.002 144.359 150.316 159.299 136.346C174.549 121.987 197.039 101.746 201.36 80.0156" stroke="#547C0E" stroke-width="0.25" stroke-miterlimit="10"/>
<path d="M200.586 82.6239C202.455 77.0119 208.202 55.1139 198.648 56.5779C192.573 56.9209 187.591 72.9719 185.556 77.1679C182.036 84.0519 178.119 90.6259 173.009 96.2529C167.067 91.5429 164.845 53.6529 150.962 73.6149C141.07 87.7149 143.556 112.258 132.402 124.705C125.011 132.395 124.312 117.005 121.041 110.543C117.695 103.375 113.551 95.5749 106.646 104.291C97.2247 116.177 102.399 142.212 103.251 155.791C103.691 165.816 107.365 175.826 108.12 185.456" stroke="#547C0E" stroke-width="0.25" stroke-miterlimit="10"/>
<path d="M195.474 156.635C207.519 148.763 229.929 146.526 243.919 149.226C257.825 151.218 254.07 159.207 243.033 163.365C232.314 167.123 221.084 163.388 210.595 166.038C214.407 170.994 249.366 183.866 237.731 195.286C229.631 203.063 203.01 181.313 193.691 181.669C195.373 186.869 203.176 201.448 197.591 206.05C192.32 210.259 184.136 198.608 180.882 195.39C175.082 188.859 169.528 181.223 162.076 175.97" stroke="#547C0E" stroke-width="0.25" stroke-miterlimit="10"/>
<path d="M94.7217 259.341C99.4477 256.635 113.072 250.018 117.368 255.998C123.01 264.341 103.483 275.958 99.3987 281.112L99.7908 281.424C108.316 280.438 120.891 283.303 121.098 294.436C121.305 305.569 107.507 310.761 99.3978 315.298C87.1868 321.752 73.3138 326.237 59.2598 326.065" stroke="#547C0E" stroke-width="0.25" stroke-miterlimit="10"/>
<path d="M74.9195 246.875C74.1795 240.483 70.2095 234.108 69.0695 227.398C66.7325 216.518 66.5195 205.382 66.3125 194.246" stroke="#547C0E" stroke-width="0.25" stroke-miterlimit="10"/>
<path d="M68.9445 216.98C77.0265 205.967 87.8094 180.968 80.9614 168.443C76.8614 170.358 73.4114 174.712 70.9774 178.593C66.7044 175.851 66.1545 158.643 57.3305 163.264C51.8905 166.049 50.2305 182.799 50.8925 188.478C51.5635 197.4 56.5425 215.535 67.8375 216.745" stroke="#547C0E" stroke-width="0.25" stroke-miterlimit="10"/>
<path d="M49.3787 358.875C45.6517 354.63 40.6647 351.968 36.3047 348.512" stroke="#547C0E" stroke-width="0.25" stroke-miterlimit="10"/>
<path d="M449.28 387.768C459.52 376.248 469.76 355.768 467.2 339.978C465.068 328.888 447.572 319.928 443.308 334.008C441.173 340.833 448.853 360.033 433.493 355.768C418.993 352.353 416.428 329.738 417.281 318.218C418.133 304.993 424.961 291.338 433.493 281.528C450.561 261.473 481.281 258.058 505.601 264.458C532.053 271.713 553.813 293.898 555.093 322.058C555.52 334.433 550.828 350.218 541.868 358.328C534.613 364.728 520.533 368.993 519.253 355.768C518.508 350.528 533.761 336.993 517.973 331.448C513.273 329.799 508.161 339.978 507.308 344.673C505.219 355.781 504.787 367.138 506.028 378.373C507.308 389.893 504.32 395.873 491.948 396.293C483.413 396.723 474.028 395.013 465.493 392.883C460.373 391.603 454.401 389.468 449.708 388.188" stroke="#547C0E" stroke-width="0.25" stroke-miterlimit="10"/>
<path d="M458.24 389.897C471.892 380.512 475.308 361.312 477.012 345.952C477.867 336.992 477.012 327.177 469.76 320.777C465.92 317.367 448 313.527 454.828 308.407C461.228 303.712 475.308 314.377 480.428 317.367C479.573 312.247 478.293 295.607 487.253 296.457C493.653 297.312 495.361 310.112 497.068 314.377C498.348 311.392 504.32 299.447 509.44 302.007C514.56 304.137 508.588 314.807 508.16 318.217C510.72 316.937 522.667 309.687 523.52 314.377C523.947 317.367 514.132 324.617 512 325.897C502.188 332.297 498.772 338.272 497.068 349.797C494.933 363.022 489.388 380.517 491.948 393.742C491.948 394.172 492.373 394.172 492.373 394.597" stroke="#547C0E" stroke-width="0.25" stroke-miterlimit="10"/>
<path d="M418.556 319.498C421.968 319.073 425.808 319.928 429.224 320.353" stroke="#547C0E" stroke-width="0.25" stroke-miterlimit="10"/>
<path d="M422.828 298.168C425.813 299.873 429.228 301.578 432.213 303.288" stroke="#547C0E" stroke-width="0.25" stroke-miterlimit="10"/>
<path d="M438.613 278.539C440.748 281.529 443.313 284.089 445.441 287.074" stroke="#547C0E" stroke-width="0.25" stroke-miterlimit="10"/>
<path d="M458.668 267.02C459.948 270.86 461.228 274.275 461.653 278.12" stroke="#547C0E" stroke-width="0.25" stroke-miterlimit="10"/>
<path d="M479.147 262.754C479.572 266.169 479.572 269.579 480 272.569" stroke="#547C0E" stroke-width="0.25" stroke-miterlimit="10"/>
<path d="M506.452 266.168C506.591 268.757 506.303 271.352 505.6 273.848" stroke="#547C0E" stroke-width="0.25" stroke-miterlimit="10"/>
<path d="M534.187 280.246C531.841 283.667 529.121 286.814 526.076 289.631" stroke="#547C0E" stroke-width="0.25" stroke-miterlimit="10"/>
<path d="M548.693 302.859C545.708 304.569 542.293 305.419 539.308 306.699" stroke="#547C0E" stroke-width="0.25" stroke-miterlimit="10"/>
<path d="M553.388 330.594C550.987 330.947 548.559 331.089 546.133 331.019" stroke="#547C0E" stroke-width="0.25" stroke-miterlimit="10"/>
<path d="M539.732 341.688C542.72 343.818 545.28 347.233 548.692 348.513" stroke="#547C0E" stroke-width="0.25" stroke-miterlimit="10"/>
<path d="M1593.7 527.533C1592.32 514.669 1585.36 496.757 1574.11 489.443C1566.01 484.515 1550.58 490.334 1556.93 500.925C1559.96 506.101 1576.22 512.156 1564.91 519.295C1554.61 526.386 1539.11 515.222 1532.43 508.195C1524.69 500.208 1520.06 488.263 1518.77 477.426C1515.94 455.51 1531.14 434.495 1548.83 422.99C1568.26 410.641 1594.31 409.629 1612.54 424.715C1620.47 431.427 1627.64 443.244 1627.62 453.387C1627.51 461.507 1622.22 472.661 1613.28 465.998C1609.6 463.507 1609.79 446.398 1597.44 453.08C1593.77 455.064 1597.21 463.988 1599.64 467.165C1605.37 474.728 1612.18 481.401 1619.87 486.965C1627.75 492.665 1629.78 497.896 1623.07 505.822C1618.52 511.367 1612.17 516.236 1606.03 520.34C1602.35 522.8 1597.65 525.309 1594.21 527.503" stroke="#547C0E" stroke-width="0.25" stroke-miterlimit="10"/>
<path d="M1600.08 523.167C1601.95 509.386 1591.94 496.438 1583.35 486.713C1578.27 481.132 1571.69 476.127 1563.62 477.026C1559.33 477.49 1546.84 486.46 1547.51 479.326C1548.2 472.701 1562.77 469.964 1567.51 468.469C1563.85 466.114 1552.78 457.525 1558.37 452.436C1562.51 448.941 1571.43 455.096 1575.04 456.436C1573.91 453.958 1569.85 443.511 1574.33 441.775C1578.54 439.791 1581.8 449.519 1583.68 451.713C1584.33 449.396 1586.56 437.884 1589.96 439.996C1592.06 441.419 1591.03 451.608 1590.62 453.654C1589.06 463.364 1590.85 468.854 1597.05 476.41C1604.06 485.198 1611.81 498.51 1621.47 504.378C1621.74 504.621 1621.98 504.355 1622.24 504.596" stroke="#547C0E" stroke-width="0.25" stroke-miterlimit="10"/>
<path d="M1533.95 508.122C1535.61 505.759 1538.3 503.855 1540.49 501.973" stroke="#547C0E" stroke-width="0.25" stroke-miterlimit="10"/>
<path d="M1523.1 493.436C1525.84 492.543 1528.83 491.383 1531.57 490.492" stroke="#547C0E" stroke-width="0.25" stroke-miterlimit="10"/>
<path d="M1519.8 472.555C1522.86 472.919 1525.9 472.767 1528.96 473.128" stroke="#547C0E" stroke-width="0.25" stroke-miterlimit="10"/>
<path d="M1523.96 453.598C1526.97 454.754 1529.84 456.231 1532.54 458.004" stroke="#547C0E" stroke-width="0.25" stroke-miterlimit="10"/>
<path d="M1532.85 438.469C1535.21 440.13 1537.33 442.053 1539.43 443.469" stroke="#547C0E" stroke-width="0.25" stroke-miterlimit="10"/>
<path d="M1550.37 423.43C1552.06 424.803 1553.51 426.445 1554.67 428.289" stroke="#547C0E" stroke-width="0.25" stroke-miterlimit="10"/>
<path d="M1574.76 414.125C1575.57 417.511 1575.99 420.977 1576.03 424.457" stroke="#547C0E" stroke-width="0.25" stroke-miterlimit="10"/>
<path d="M1596.99 417.863C1596.37 420.681 1594.98 423.283 1594.09 425.863" stroke="#547C0E" stroke-width="0.25" stroke-miterlimit="10"/>
<path d="M1616.88 430.586C1615.75 432.277 1614.46 433.865 1613.05 435.332" stroke="#547C0E" stroke-width="0.25" stroke-miterlimit="10"/>
<path d="M1616.08 445.332C1619.09 444.682 1622.65 445.012 1625.37 443.617" stroke="#547C0E" stroke-width="0.25" stroke-miterlimit="10"/>
<path d="M1016.73 219.507C1016.51 223.526 1015.21 229.117 1016.32 232.891C1020.13 232.735 1024.73 233.124 1028.54 232.965C1027.6 228.613 1027.03 224.051 1027.83 220.198C1024.73 218.987 1020.13 218.603 1017.31 219.673" stroke="#547C0E" stroke-width="0.25" stroke-miterlimit="10"/>
<path d="M1016.12 232.52C1009.1 238.344 1009.01 254.961 1007.25 263.243C1004.31 275.587 1004.94 290.843 1006.6 303.566C1009.93 329.023 1031.29 351.83 1056.23 359.026C1071.67 363.168 1089.28 364.167 1102.86 355.209C1112.16 349.103 1117.24 338.009 1107.94 329.985C1097.44 320.677 1081.49 318.27 1070.65 310.119C1058.66 301.633 1052.6 288.894 1045.79 276.568C1040.02 266.11 1035.78 255.778 1030.21 245.694C1027.74 241.209 1025.8 235.943 1026.6 232.094" stroke="#547C0E" stroke-width="0.25" stroke-miterlimit="10"/>
<path d="M1113.38 341.604C1117.5 334.94 1121.23 318.748 1120.34 310.956C1119.74 301.049 1112.98 289.677 1106.57 282.489C1090.54 264.047 1065.67 249.02 1044.03 238.065C1039.35 235.771 1033.52 233.145 1028.54 232.965" stroke="#547C0E" stroke-width="0.25" stroke-miterlimit="10"/>
<path d="M1114.16 342.143C1114.56 361.412 1084.32 373.726 1068.49 374.179C1041.22 375.103 1008.7 369.172 991.858 344.841C979.473 326.824 980.096 295.287 984.42 274.869C986.015 267.169 1002.74 227.719 1014.62 233.343" stroke="#547C0E" stroke-width="0.25" stroke-miterlimit="10"/>
<path d="M1109.92 345.945C1078.01 349.921 1031.05 336.368 1020.36 303.766" stroke="#547C0E" stroke-width="0.25" stroke-miterlimit="10"/>
<path d="M1022.99 232.617C1020.6 244.173 1023.97 256.448 1025.76 267.643C1027.34 278.464 1030.67 289.787 1035.83 299.126C1041.75 310.039 1049.73 319.699 1059.33 327.573C1070.96 336.267 1079.78 337.242 1093.45 339.93C1099.42 341.023 1105.08 344.23 1111.38 344.164" stroke="#547C0E" stroke-width="0.25" stroke-miterlimit="10"/>
<path d="M1112.59 341.062C1112.16 330.576 1114.06 320.762 1110.02 310.805C1105.98 300.848 1099 293.494 1092.02 286.139C1082.49 276.825 1072.44 268.054 1061.92 259.868C1054.02 253.506 1043.34 249.168 1035.99 242.017C1032.59 238.528 1030.36 235.374 1026.06 232.875" stroke="#547C0E" stroke-width="0.25" stroke-miterlimit="10"/>
<path d="M1111.01 330.239C1105.61 319.574 1100.41 309.283 1091.31 301.639C1078.62 290.124 1066.3 278.404 1053.81 267.266" stroke="#547C0E" stroke-width="0.25" stroke-miterlimit="10"/>
<path d="M1112.53 348.894C1108.56 359.367 1091.93 363.676 1081.9 365.805C1068.46 368.836 1054.46 367.305 1041.25 361.924C1028.05 356.543 1014.81 350.209 1006.47 337.752C999.16 327.164 997.212 312.157 994.424 300.052C989.757 279.239 997.954 250.831 1010.81 233.5" stroke="#547C0E" stroke-width="0.25" stroke-miterlimit="10"/>
<path d="M1784.93 513.643C1756.34 516.631 1719.22 534.123 1709.83 563.563C1717.94 566.551 1731.59 564.418 1740.13 562.71C1751.65 561.002 1762.31 555.883 1771.7 549.482C1783.22 541.382 1790.05 525.59 1796.02 513.642V513.217C1792.18 512.79 1788.77 513.642 1784.93 513.642" stroke="#547C0E" stroke-width="0.25" stroke-miterlimit="10"/>
<path d="M1793.04 515.348C1778.53 527.296 1762.74 537.108 1746.1 546.068C1736.29 551.615 1723.06 561.428 1711.54 563.135" stroke="#547C0E" stroke-width="0.25" stroke-miterlimit="10"/>
<path d="M1717.52 555.882C1730.32 544.362 1743.97 531.562 1760.18 524.309" stroke="#547C0E" stroke-width="0.25" stroke-miterlimit="10"/>
<path d="M1746.11 553.751C1755.92 549.483 1762.32 544.364 1770.85 537.539" stroke="#547C0E" stroke-width="0.25" stroke-miterlimit="10"/>
<path d="M1766.58 526.018C1770.42 524.31 1774.69 523.03 1778.53 520.898" stroke="#547C0E" stroke-width="0.25" stroke-miterlimit="10"/>
<path d="M1824.64 524.564C1800.47 540.121 1775.22 572.472 1780.12 602.982C1788.71 601.994 1799.93 593.932 1806.78 588.561C1816.29 581.841 1823.5 572.461 1828.99 562.516C1835.62 550.087 1834.59 532.916 1834.54 519.562L1834.35 519.18C1830.73 520.529 1828.07 522.831 1824.64 524.564" stroke="#547C0E" stroke-width="0.25" stroke-miterlimit="10"/>
<path d="M1832.64 522.43C1825.08 539.63 1815.41 555.51 1804.61 571.014C1798.35 580.389 1790.97 595.114 1781.46 601.831" stroke="#547C0E" stroke-width="0.25" stroke-miterlimit="10"/>
<path d="M1783.51 592.663C1789.74 576.609 1796.16 559.027 1807.36 545.242" stroke="#547C0E" stroke-width="0.25" stroke-miterlimit="10"/>
<path d="M1808.07 577.871C1814.9 569.635 1818.31 562.181 1822.85 552.238" stroke="#547C0E" stroke-width="0.25" stroke-miterlimit="10"/>
<path d="M1813.84 543.88C1816.5 540.624 1819.73 537.557 1822.2 533.922" stroke="#547C0E" stroke-width="0.25" stroke-miterlimit="10"/>
<path d="M766.522 899.815C774.102 871.302 777.545 828.944 778.382 799.615C777.934 777.993 771.05 747.381 785.573 729.294C799.635 712.188 838.985 709.444 858.51 700.878C847.01 702.552 795.852 715.145 790.289 701.807C782.176 681.307 826.289 653.487 840.143 649.355C887.931 636.355 915.607 673.255 979.151 632.055C923.451 642.41 898.941 639.455 857.167 636.025C878.123 626.94 889.935 617.084 900.674 601.959C910.492 588.783 929.111 559.559 937.955 545.921C954.733 520.585 964.355 497.801 983.94 469.039C967.789 478.025 948.858 515.421 939.091 531.001C926.046 550.979 916.282 566.554 902.266 586.069C894.801 596.798 852.052 644.296 834.066 634.581C821.906 627.623 829.397 571.72 826.238 558.329C825.728 556.898 826.297 538.143 825.168 553.066C820.102 563.743 822.644 593.486 820.179 613.728C819.406 622.87 825.479 637.641 821.797 645.411C817.143 652.711 800.019 661.237 792.91 666.19C779.634 651.567 775.254 625.709 767.187 607.617C768.498 647.471 777.233 651.617 779.109 672.726C781.403 690.456 768.672 702.258 768.099 721.007C766.199 745.076 764.538 781.154 761.663 804.763C759.249 827.401 753.863 868.84 750.939 890.044" stroke="#547C0E" stroke-width="0.25" stroke-miterlimit="10"/>
<path d="M761.058 798.53C749.917 794.436 736.428 792.793 735.673 779.353C735.322 762.539 749.273 763.207 734.052 747.666C727.667 741.071 712.697 737.536 713.882 725.018C715.067 712.5 733.307 711.642 735.458 699.582C737.609 687.522 719.727 682.607 715.188 672.126C707.073 651.626 727.819 655.526 730.894 641.526C733.508 628.495 713.632 620.252 713.844 607.278C712.933 586.632 733.878 600.133 739.354 586.084C743.399 572.544 722.554 563.843 744.481 555.22C756.39 550.169 771.051 561.881 778.468 548.746C783.073 539.041 771.684 522.939 784.005 514.511C794.893 506.595 806.74 521.73 817.218 517.191C831.992 511.116 821.063 494.038 828.072 484.282C838.351 470.135 850.147 482.864 862.617 481.645C879.892 480.324 872.027 471.838 880.875 458.2C892.024 439.7 898.605 455.906 912.975 453.208C924.47 451.526 929.951 437.477 943.798 433.345C967.204 426.615 955.446 438.872 969.544 446.745C980.734 453.245 991.524 440.522 1004.61 445.537C1025.91 453.271 1009.2 458.419 1011.38 471.347C1013.52 481.879 1027.06 485.924 1032.58 496.86C1043.09 517.309 1029.15 516.639 1021.27 530.739C1012.93 545.804 1025.04 550.361 1027.74 564.723C1031.97 583.378 1022 589.35 1012.19 602.529C1000.01 618.163 1012.02 617.912 1010.02 637.176C1009.4 653.529 999.331 654.702 989.408 663.076C975.708 674.414 984.393 676.155 978.459 691.176C972.059 707.166 958.982 702.151 946.101 706.743C927.501 713.373 936.795 721.353 926.466 733.101C914.708 745.361 900.047 733.649 887.672 739.673C876.226 743.751 877.447 756.226 869.472 765.521C859.137 777.266 852.804 773.075 840.846 775.721C825.514 777.958 830.829 779.29 820.957 790.07C811.085 800.85 793.406 805.538 779.815 799.094" stroke="#547C0E" stroke-width="0.25" stroke-miterlimit="10"/>
<path d="M712.171 604.112C693.68 592.958 659.197 544.492 693.084 533.218C707.853 527.145 712.449 540.025 716.394 521.682C719.978 509.11 709.151 496.84 728.725 490.67C742.577 486.535 749.108 500.337 758.877 484.759C765.377 473.572 756.947 461.248 772.133 451.801C787.319 442.354 793.85 456.161 807.748 454.425C820.218 453.211 823.753 438.238 831.272 429.913C838.272 420.154 845.795 411.829 858.265 410.613C873.133 409.346 878.6 417.881 894.341 412.267C904.358 408.696 912.798 398.43 924.24 394.347C942.385 388.682 943.504 396.347 957.604 404.229C973.65 413.029 979.125 398.976 993.586 401.08C1007.59 404.149 1004.05 419.126 1012.89 428.07C1020.24 435.128 1031.23 432.015 1029.59 445.506C1029.23 451.281 1018.39 461.601 1012.66 463.641" stroke="#547C0E" stroke-width="0.25" stroke-miterlimit="10"/>
<path d="M1013.83 473.702C1022.42 470.643 1033.92 468.964 1045.06 473.057C1072.65 482.575 1053.63 492.579 1057.91 513.641C1060.61 527.997 1075.08 530.104 1066.33 548.549C1062.18 557.284 1046.49 565.299 1044.75 573.983C1043.05 585.073 1058.13 593.411 1060.78 605.369C1063.93 618.76 1056.42 627.088 1049.41 636.844C1036.79 653.444 1044.35 647.521 1047.15 666.686C1047.91 680.129 1038.45 687.532 1028.99 694.933C1019.54 702.334 1009.98 704.94 1003.94 715.16C998.826 723.431 1000.46 732.532 994.372 740.348C977.036 761.848 952.209 746.51 932.32 760.859C918.112 770.759 920.101 774.084 901.347 773.516C891.232 772.285 879.73 773.961 870.532 770.787L867.621 769.407" stroke="#547C0E" stroke-width="0.25" stroke-miterlimit="10"/>
<path d="M779.438 827.457C798.108 800.638 843.431 807.868 871.333 809.214C895.863 810.149 926.575 808.072 948.404 794.642C960.723 786.217 964.815 775.079 979.638 771.405C993.488 767.273 1006.52 769.889 1017.36 759.565C1030.55 746.804 1020.23 735.965 1028.62 723.292C1036.09 712.566 1051.42 710.323 1059.34 698.632C1071.42 678.19 1066.68 658.107 1045.32 647.98" stroke="#547C0E" stroke-width="0.25" stroke-miterlimit="10"/>
<path d="M759.515 816.819C736.782 809.6 700.415 770.949 691.744 746.619C672.862 693.668 713.471 635.635 678.849 588.298C665.98 570.298 636.56 542.075 652.878 517.711C661.723 504.074 678.127 507.095 688.503 497.751C699.854 488.865 694.803 476.951 697.414 463.923C706.226 425.295 733.454 440.591 761.158 432.323C787.429 424.576 775.594 386.858 812.637 388.969C822.757 390.203 832.513 397.207 842.537 393.639C854.956 390.017 856.597 376.525 871.007 376.223C888.794 376.336 901.207 395.305 902.933 409.206" stroke="#547C0E" stroke-width="0.25" stroke-miterlimit="10"/>
<path d="M837.117 634.839C851.873 620.439 860.743 600.069 865.117 579.152C870.961 551.798 863.002 523.452 869.492 496.402" stroke="#547C0E" stroke-width="0.25" stroke-miterlimit="10"/>
<path d="M866.008 575.61C872.423 560.41 882.684 545.466 892.673 532.766C904.232 518.427 922.19 503.958 926.288 485.293" stroke="#547C0E" stroke-width="0.25" stroke-miterlimit="10"/>
<path d="M886.127 541.551C897.919 538.425 916.179 538.364 924.599 527.297" stroke="#547C0E" stroke-width="0.25" stroke-miterlimit="10"/>
<path d="M863.312 584.636C855.622 569.094 843.503 556.215 838.332 538.699" stroke="#547C0E" stroke-width="0.25" stroke-miterlimit="10"/>
<path d="M861.139 634.341C883.214 632.923 912.759 620.778 932.42 611.079C948.914 603.046 973.22 585.241 980.548 568.109" stroke="#547C0E" stroke-width="0.25" stroke-miterlimit="10"/>
<path d="M926.05 612.807C938.056 589.173 945.322 568.839 966.728 550.453" stroke="#547C0E" stroke-width="0.25" stroke-miterlimit="10"/>
<path d="M954.944 600.355C962.778 607.239 978.517 609.155 988.06 605.755" stroke="#547C0E" stroke-width="0.25" stroke-miterlimit="10"/>
<path d="M999.461 506.523C985.281 518.033 967.592 530.249 948.622 526.801" stroke="#547C0E" stroke-width="0.25" stroke-miterlimit="10"/>
<path d="M791.266 694.739C809.634 684.425 831.031 681.097 852.834 681.926C878.828 683.951 902.834 698.51 928.223 686.772" stroke="#547C0E" stroke-width="0.25" stroke-miterlimit="10"/>
<path d="M846.055 679.506C875.226 664.806 901.121 662.024 934.603 669.98" stroke="#547C0E" stroke-width="0.25" stroke-miterlimit="10"/>
<path d="M846.739 681.414C865.363 698.97 893.469 694.864 905.55 721.204" stroke="#547C0E" stroke-width="0.25" stroke-miterlimit="10"/>
<path d="M880.761 699.934C873.603 710.015 877.067 722.759 876.652 733.657" stroke="#547C0E" stroke-width="0.25" stroke-miterlimit="10"/>
<path d="M778.273 778.945C790.858 752.413 820.293 750.521 844.047 737.215" stroke="#547C0E" stroke-width="0.25" stroke-miterlimit="10"/>
<path d="M801.181 755.724C803.539 745.743 808.172 737.643 813.087 727.285" stroke="#547C0E" stroke-width="0.25" stroke-miterlimit="10"/>
<path d="M768.392 719.564C758.421 702.148 749.028 681.84 740.928 662.141" stroke="#547C0E" stroke-width="0.25" stroke-miterlimit="10"/>
<path d="M767.402 718.301C756.911 722.041 743.246 727.451 731.969 724.481" stroke="#547C0E" stroke-width="0.25" stroke-miterlimit="10"/>
<path d="M794.793 663.912C794.217 651.744 795.863 638.256 793.687 626.126C790.428 607.935 772.851 594.845 770.243 576.953" stroke="#547C0E" stroke-width="0.25" stroke-miterlimit="10"/>
<path d="M791.273 617.85C799.593 601.975 799.773 579.867 799.411 562.25" stroke="#547C0E" stroke-width="0.25" stroke-miterlimit="10"/>
<path d="M775.163 551.543C763.343 538.011 747.715 525.843 739.377 509.992" stroke="#547C0E" stroke-width="0.25" stroke-miterlimit="10"/>
<path d="M759.059 532.013C760.086 519.813 763.053 508.543 765.039 496.004" stroke="#547C0E" stroke-width="0.25" stroke-miterlimit="10"/>
<path d="M820.217 515.048C812.317 504.956 806.746 483.286 809.035 470.102" stroke="#547C0E" stroke-width="0.25" stroke-miterlimit="10"/>
<path d="M868.852 481.039C865.967 465.4 855.479 454.085 844.038 443.105" stroke="#547C0E" stroke-width="0.25" stroke-miterlimit="10"/>
<path d="M862.388 462.912C864.405 451.976 869.282 440.021 873.888 430.312" stroke="#547C0E" stroke-width="0.25" stroke-miterlimit="10"/>
<path d="M944.712 431.409C940.731 424.761 937.672 416.177 933.044 409.227" stroke="#547C0E" stroke-width="0.25" stroke-miterlimit="10"/>
<path d="M970.328 445.935C974.997 439.43 977.388 431.051 980.422 422.977" stroke="#547C0E" stroke-width="0.25" stroke-miterlimit="10"/>
<path d="M737.462 587.566C723.971 585.922 711.783 569.836 708.007 557.742" stroke="#547C0E" stroke-width="0.25" stroke-miterlimit="10"/>
<path d="M722.51 453.641C738.385 461.961 742.903 479.167 749.91 492.799" stroke="#547C0E" stroke-width="0.25" stroke-miterlimit="10"/>
<path d="M748.406 450.855C748.87 458.827 747.03 466.763 743.106 473.716" stroke="#547C0E" stroke-width="0.25" stroke-miterlimit="10"/>
<path d="M689.708 509.422C699.073 513.07 708.573 523.122 713.234 531.681" stroke="#547C0E" stroke-width="0.25" stroke-miterlimit="10"/>
<path d="M805.768 405.133C812.841 421.965 806.121 437.804 809.997 454.705" stroke="#547C0E" stroke-width="0.25" stroke-miterlimit="10"/>
<path d="M873.332 388.035C875.099 396.007 875.608 404.967 876.724 412.635" stroke="#547C0E" stroke-width="0.25" stroke-miterlimit="10"/>
<path d="M1050.82 526.922C1042.64 534.144 1031.56 540.782 1019.98 538.457" stroke="#547C0E" stroke-width="0.25" stroke-miterlimit="10"/>
<path d="M1044.81 484.438C1040.04 486.138 1034.66 489.129 1031.52 492.398" stroke="#547C0E" stroke-width="0.25" stroke-miterlimit="10"/>
<path d="M1036.81 608.273C1027.92 611.98 1018.03 614.427 1009.48 619.089" stroke="#547C0E" stroke-width="0.25" stroke-miterlimit="10"/>
<path d="M1023.19 662.059C1013.06 668.359 1009.04 675.171 1000.55 683.036C992.713 691.21 988.454 686.812 979.529 688.914" stroke="#547C0E" stroke-width="0.25" stroke-miterlimit="10"/>
<path d="M876.473 755.77C892.107 752.88 909.93 747.07 927.173 744.143C947.924 740.51 973.847 739.333 987.891 721.418" stroke="#547C0E" stroke-width="0.25" stroke-miterlimit="10"/>
<path d="M954.599 738.128C955.012 730.298 957.269 722.678 961.188 715.887" stroke="#547C0E" stroke-width="0.25" stroke-miterlimit="10"/>
<path d="M812.604 796.823C833.112 797.035 848.863 783.89 869.776 788.265C894.234 793.526 914.707 792.141 936.895 780.465" stroke="#547C0E" stroke-width="0.25" stroke-miterlimit="10"/>
<path d="M740.158 764.041C716.483 765.49 696.021 736.764 696.543 715.608C696.863 699.902 711.173 694.795 707.328 679.502C702.807 662.294 698.488 654.693 710.008 638.754" stroke="#547C0E" stroke-width="0.25" stroke-miterlimit="10"/>
<path d="M476.165 666.412C480.43 675.799 484.697 687.745 480.43 697.985C475.31 713.345 453.977 714.2 442.03 723.585C406.19 751.745 415.578 816.6 455.685 837.08C500.057 859.265 581.125 857.56 614.405 814.04C635.737 785.025 626.35 740.653 608.43 713.345C590.51 687.745 564.057 680.92 535.045 688.6C522.245 691.16 510.297 698.84 500.057 687.745C494.085 681.773 491.525 668.12 488.965 661.293C484.697 662.145 480.43 662.145 477.017 663.853" stroke="#547C0E" stroke-width="0.25" stroke-miterlimit="10"/>
<path d="M484.694 674.094C488.962 686.894 496.642 701.402 491.522 715.054C486.402 732.974 475.307 745.774 473.602 766.254C471.042 798.681 490.667 833.666 521.387 844.761" stroke="#547C0E" stroke-width="0.25" stroke-miterlimit="10"/>
<path d="M502.613 706.52C528.213 744.065 567.465 785.88 564.906 836.225" stroke="#547C0E" stroke-width="0.25" stroke-miterlimit="10"/>
<path d="M500.905 734.68C495.785 769.665 511.145 808.065 532.48 834.52" stroke="#547C0E" stroke-width="0.25" stroke-miterlimit="10"/>
<path d="M517.116 761.133C525.648 773.081 530.768 788.441 533.328 802.946" stroke="#547C0E" stroke-width="0.25" stroke-miterlimit="10"/>
<path d="M519.677 705.664C550.397 723.584 570.022 740.652 581.117 775.639C585.382 789.292 590.502 806.359 586.237 820.864" stroke="#547C0E" stroke-width="0.25" stroke-miterlimit="10"/>
<path d="M531.625 700.543C561.492 699.69 587.945 714.198 602.452 740.65C612.692 760.277 610.132 780.757 610.132 801.238" stroke="#547C0E" stroke-width="0.25" stroke-miterlimit="10"/>
<path d="M574.293 731.266C582.825 739.801 588.801 750.041 589.653 761.986" stroke="#547C0E" stroke-width="0.25" stroke-miterlimit="10"/>
<path d="M535.036 728.703C544.421 738.943 552.101 750.891 558.928 762.838" stroke="#547C0E" stroke-width="0.25" stroke-miterlimit="10"/>
<path d="M471.042 720.172C458.242 739.799 448.002 751.745 449.707 776.492C450.562 797.825 460.807 816.599 477.014 831.105" stroke="#547C0E" stroke-width="0.25" stroke-miterlimit="10"/>
<path d="M439.465 748.332C434.345 764.545 429.225 779.905 437.765 796.972" stroke="#547C0E" stroke-width="0.25" stroke-miterlimit="10"/>
<path d="M1634.66 615.583C1634.04 625.877 1632.22 638.431 1623.66 645.483C1611.95 656.663 1592.69 647.441 1577.74 650.147C1532.9 658.272 1510.86 719.986 1536.72 756.847C1565.57 797.211 1638.02 833.624 1687.79 810.725C1720.22 795.058 1732.67 751.448 1729.61 718.925C1725.74 687.915 1705.55 669.512 1676.32 662.725C1663.81 659 1649.66 660.201 1645.8 645.606C1643.31 637.532 1647.43 624.268 1648.36 617.036C1644.2 615.792 1640.42 613.797 1636.61 613.711" stroke="#547C0E" stroke-width="0.25" stroke-miterlimit="10"/>
<path d="M1638.61 626.363C1636.39 639.673 1636.39 656.09 1625.48 665.763C1612.58 679.206 1596.78 685.329 1585.69 702.632C1568.26 730.098 1569.24 770.201 1591.21 794.375" stroke="#547C0E" stroke-width="0.25" stroke-miterlimit="10"/>
<path d="M1639.28 663.406C1644.34 708.567 1659.48 763.886 1633.66 807.186" stroke="#547C0E" stroke-width="0.25" stroke-miterlimit="10"/>
<path d="M1624.59 687.5C1603.71 716.029 1599.32 757.153 1605.8 790.512" stroke="#547C0E" stroke-width="0.25" stroke-miterlimit="10"/>
<path d="M1626.56 718.465C1628.51 733.014 1625.86 748.988 1621.33 763.004" stroke="#547C0E" stroke-width="0.25" stroke-miterlimit="10"/>
<path d="M1654.77 670.637C1673.54 700.845 1682.9 725.109 1676.34 761.223C1673.72 775.285 1670.27 792.765 1659.71 803.591" stroke="#547C0E" stroke-width="0.25" stroke-miterlimit="10"/>
<path d="M1667.71 671.695C1694.51 684.912 1711.11 710.108 1711.55 740.275C1711.42 762.414 1699.58 779.315 1690 797.419" stroke="#547C0E" stroke-width="0.25" stroke-miterlimit="10"/>
<path d="M1691.06 718.809C1694.61 730.342 1695.1 742.187 1690.27 753.146" stroke="#547C0E" stroke-width="0.25" stroke-miterlimit="10"/>
<path d="M1657.56 698.184C1661.07 711.624 1662.26 725.776 1662.71 739.531" stroke="#547C0E" stroke-width="0.25" stroke-miterlimit="10"/>
<path d="M1660.46 771.16C1659.13 779.145 1658.19 786.377 1653.46 793.519" stroke="#547C0E" stroke-width="0.25" stroke-miterlimit="10"/>
<path d="M1626.17 784.871C1625.23 792.103 1623.55 798.933 1622.62 806.171" stroke="#547C0E" stroke-width="0.25" stroke-miterlimit="10"/>
<path d="M1604.98 660.707C1584.48 672.069 1569.85 677.839 1559.78 700.507C1550.56 719.763 1550.83 741.147 1558.37 761.55" stroke="#547C0E" stroke-width="0.25" stroke-miterlimit="10"/>
<path d="M1563.9 670.824C1551.8 682.761 1540.09 693.943 1539.65 713.024" stroke="#547C0E" stroke-width="0.25" stroke-miterlimit="10"/>
<path d="M20.792 816.237C42.127 775.277 67.727 734.317 90.767 694.209C116.367 649.836 146.232 604.609 160.74 555.969C164.152 544.021 165.007 531.221 169.272 520.129C176.952 522.689 184.632 527.809 193.172 529.516C193.172 548.288 178.665 575.596 172.692 593.516C163.304 620.816 151.357 643.861 136.852 667.756C106.132 717.248 76.264 768.448 39.572 814.528C34.452 820.5 30.185 828.181 23.357 817.94" stroke="#547C0E" stroke-width="0.25" stroke-miterlimit="10"/>
<path d="M170.127 520.983C169.272 507.331 173.54 492.823 179.512 480.883C187.192 489.416 183.78 516.723 183.78 526.108" stroke="#547C0E" stroke-width="0.25" stroke-miterlimit="10"/>
<path d="M183.78 526.102C187.192 514.157 196.58 494.529 207.672 490.262C210.232 499.65 202.657 528.022 193.272 531.435" stroke="#547C0E" stroke-width="0.25" stroke-miterlimit="10"/>
<path d="M183.78 486.853C187.192 480.88 196.58 462.96 202.552 470.64C205.112 474.053 201.7 488.56 201.7 493.68" stroke="#547C0E" stroke-width="0.25" stroke-miterlimit="10"/>
<path d="M180.367 480.02C180.367 469.78 187.192 457.835 194.02 451.008C198.287 454.42 199.14 459.54 199.14 465.516" stroke="#547C0E" stroke-width="0.25" stroke-miterlimit="10"/>
<path d="M199.992 468.078C204.26 462.103 209.38 456.13 215.352 451.863C217.912 462.103 215.352 481.73 208.527 489.411" stroke="#547C0E" stroke-width="0.25" stroke-miterlimit="10"/>
<path d="M197.432 451.861C201.697 445.036 205.967 439.061 212.792 435.648C212.782 442.554 211.923 449.433 210.232 456.128" stroke="#547C0E" stroke-width="0.25" stroke-miterlimit="10"/>
<path d="M169.272 522.688C164.152 511.595 167.572 457.836 178.66 482.581" stroke="#547C0E" stroke-width="0.25" stroke-miterlimit="10"/>
<path d="M194.02 531.222C207.672 526.957 222.18 509.037 222.18 493.677C217.115 492.686 211.978 492.115 206.82 491.969" stroke="#547C0E" stroke-width="0.25" stroke-miterlimit="10"/>
<path d="M177.807 480.876C174.392 462.956 182.927 417.729 197.432 451.861" stroke="#547C0E" stroke-width="0.25" stroke-miterlimit="10"/>
<path d="M210.232 491.969C222.18 484.289 229.007 468.077 233.272 455.277C227.3 455.277 221.327 456.977 216.207 458.689" stroke="#547C0E" stroke-width="0.25" stroke-miterlimit="10"/>
<path d="M196.58 448.449C194.872 429.676 220.472 401.517 212.792 437.356" stroke="#547C0E" stroke-width="0.25" stroke-miterlimit="10"/>
<path d="M211.94 437.357C217.06 433.942 221.328 429.677 227.3 427.117C228.152 436.502 225.912 448.234 223.352 455.917" stroke="#547C0E" stroke-width="0.25" stroke-miterlimit="10"/>
<path d="M212.792 418.582C215.352 414.317 217.912 410.05 221.327 406.637H223.027C223.882 412.609 223.882 422.85 223.882 427.117" stroke="#547C0E" stroke-width="0.25" stroke-miterlimit="10"/>
<path d="M165.432 539.113C168.632 540.713 172.472 541.993 174.712 544.233C170.872 546.473 166.392 549.353 162.552 551.913" stroke="#547C0E" stroke-width="0.25" stroke-miterlimit="10"/>
<path d="M175.992 581.355C174.712 578.475 169.592 571.435 171.832 568.875C173.112 567.275 180.792 568.235 182.712 568.235" stroke="#547C0E" stroke-width="0.25" stroke-miterlimit="10"/>
<path d="M142.071 603.755C145.911 605.675 151.671 605.355 155.831 604.715C154.871 600.875 150.711 596.395 149.431 593.195" stroke="#547C0E" stroke-width="0.25" stroke-miterlimit="10"/>
<path d="M158.068 627.436C154.548 620.396 152.628 615.276 162.228 615.596" stroke="#547C0E" stroke-width="0.25" stroke-miterlimit="10"/>
<path d="M119.352 647.273C123.496 649.123 127.941 650.207 132.472 650.473C133.432 646.633 128.312 638.633 126.072 635.113" stroke="#547C0E" stroke-width="0.25" stroke-miterlimit="10"/>
<path d="M130.872 675.431C129.912 672.871 126.072 666.151 127.672 663.591C129.272 661.351 136.632 661.991 138.872 662.631" stroke="#547C0E" stroke-width="0.25" stroke-miterlimit="10"/>
<path d="M90.5518 696.558C94.0718 698.478 102.392 699.758 103.032 695.598C103.352 692.718 99.1918 687.278 98.2318 684.398" stroke="#547C0E" stroke-width="0.25" stroke-miterlimit="10"/>
<path d="M93.4323 736.872C91.5123 734.952 86.3922 727.272 88.3122 725.032C89.5922 723.752 97.9122 725.352 99.5122 725.672" stroke="#547C0E" stroke-width="0.25" stroke-miterlimit="10"/>
<path d="M-57.7148 787.22C-36.3818 746.26 -10.7828 705.3 12.2582 665.193C37.8582 620.82 67.7262 575.593 82.2332 526.953C85.6452 515.005 86.4982 502.205 90.7662 491.113C98.4462 493.673 106.126 498.793 114.658 500.5C114.658 519.273 100.153 546.58 94.1782 564.5C84.7932 591.805 72.8452 614.845 58.3382 638.74C27.6182 688.233 -2.24683 739.433 -38.9418 785.512C-44.0618 791.485 -48.3268 799.165 -55.1548 788.925" stroke="#547C0E" stroke-width="0.25" stroke-miterlimit="10"/>
<path d="M91.6172 491.967C90.7652 478.314 95.0322 463.807 101.005 451.867C108.685 460.399 105.272 487.707 105.272 497.092" stroke="#547C0E" stroke-width="0.25" stroke-miterlimit="10"/>
<path d="M105.273 497.086C108.685 485.141 118.073 465.513 129.165 461.246C131.725 470.633 124.153 499.006 114.765 502.418" stroke="#547C0E" stroke-width="0.25" stroke-miterlimit="10"/>
<path d="M105.273 457.833C108.685 451.86 118.073 433.94 124.045 441.62C126.605 445.032 123.193 459.54 123.193 464.66" stroke="#547C0E" stroke-width="0.25" stroke-miterlimit="10"/>
<path d="M101.858 451.005C101.858 440.765 108.686 428.82 115.513 421.992C119.778 425.405 120.633 430.525 120.633 436.5" stroke="#547C0E" stroke-width="0.25" stroke-miterlimit="10"/>
<path d="M121.485 439.063C125.752 433.088 130.872 427.115 136.845 422.848C139.405 433.088 136.845 452.716 130.017 460.395" stroke="#547C0E" stroke-width="0.25" stroke-miterlimit="10"/>
<path d="M118.925 422.846C123.193 416.021 127.457 410.046 134.285 406.633C134.275 413.539 133.416 420.417 131.725 427.113" stroke="#547C0E" stroke-width="0.25" stroke-miterlimit="10"/>
<path d="M90.7653 493.674C85.6453 482.581 89.0573 428.821 100.152 453.566" stroke="#547C0E" stroke-width="0.25" stroke-miterlimit="10"/>
<path d="M115.513 502.206C129.165 497.941 143.673 480.021 143.673 464.661C138.608 463.67 133.471 463.099 128.313 462.953" stroke="#547C0E" stroke-width="0.25" stroke-miterlimit="10"/>
<path d="M99.2982 451.86C95.8862 433.94 104.418 388.713 118.925 422.845" stroke="#547C0E" stroke-width="0.25" stroke-miterlimit="10"/>
<path d="M131.726 462.959C143.674 455.279 150.498 439.066 154.766 426.266C148.794 426.266 142.819 427.966 137.698 429.678" stroke="#547C0E" stroke-width="0.25" stroke-miterlimit="10"/>
<path d="M118.073 419.433C116.365 400.661 141.965 372.501 134.285 408.34" stroke="#547C0E" stroke-width="0.25" stroke-miterlimit="10"/>
<path d="M133.434 408.342C138.554 404.927 142.819 400.662 148.794 398.102C149.646 407.487 147.406 419.22 144.846 426.902" stroke="#547C0E" stroke-width="0.25" stroke-miterlimit="10"/>
<path d="M134.285 389.566C136.845 385.301 139.405 381.034 142.818 377.621H144.526C145.379 383.594 145.379 393.834 145.379 398.101" stroke="#547C0E" stroke-width="0.25" stroke-miterlimit="10"/>
<path d="M86.9249 510.098C90.1249 511.698 93.965 512.978 96.205 515.218C92.365 517.458 87.8849 520.338 84.0449 522.898" stroke="#547C0E" stroke-width="0.25" stroke-miterlimit="10"/>
<path d="M97.4855 552.339C96.2055 549.459 91.0855 542.419 93.3255 539.859C94.6055 538.259 102.285 539.219 104.205 539.219" stroke="#547C0E" stroke-width="0.25" stroke-miterlimit="10"/>
<path d="M63.5654 574.74C67.4054 576.66 73.1654 576.34 77.3254 575.7C76.3654 571.86 72.2054 567.38 70.9254 564.18" stroke="#547C0E" stroke-width="0.25" stroke-miterlimit="10"/>
<path d="M79.5651 598.417C76.0451 591.377 74.1252 586.257 83.7252 586.577" stroke="#547C0E" stroke-width="0.25" stroke-miterlimit="10"/>
<path d="M40.8447 618.258C44.989 620.108 49.4341 621.192 53.9647 621.458C54.9247 617.618 49.8048 609.618 47.5648 606.098" stroke="#547C0E" stroke-width="0.25" stroke-miterlimit="10"/>
<path d="M52.3655 646.419C51.4055 643.859 47.5655 637.139 49.1655 634.579C50.7655 632.339 58.1255 632.979 60.3655 633.619" stroke="#547C0E" stroke-width="0.25" stroke-miterlimit="10"/>
<path d="M12.0449 667.539C15.5649 669.459 23.885 670.739 24.525 666.579C24.845 663.699 20.6849 658.259 19.7249 655.379" stroke="#547C0E" stroke-width="0.25" stroke-miterlimit="10"/>
<path d="M14.9254 707.857C13.0054 705.937 7.8854 698.257 9.8054 696.017C11.0854 694.737 19.4054 696.337 21.0054 696.657" stroke="#547C0E" stroke-width="0.25" stroke-miterlimit="10"/>
<path d="M34.4248 849.57C61.5918 812.222 92.9768 775.507 121.708 739.257C153.598 699.167 189.837 658.863 211.392 612.908C216.538 601.598 219.277 589.069 225.139 578.73C232.356 582.398 239.191 588.601 247.378 591.556C244.598 610.119 226.204 634.976 217.641 651.816C204.311 677.426 189.084 698.441 171.197 719.925C133.481 764.325 96.3608 810.525 53.2448 850.662C47.2958 855.81 41.9378 862.776 36.7018 851.635" stroke="#547C0E" stroke-width="0.25" stroke-miterlimit="10"/>
<path d="M225.856 579.702C227.036 566.073 233.408 552.359 241.083 541.43C247.411 551.007 239.992 577.505 238.602 586.788" stroke="#547C0E" stroke-width="0.25" stroke-miterlimit="10"/>
<path d="M238.603 586.788C243.749 575.481 255.937 557.461 267.544 554.883C268.683 564.547 256.989 591.483 247.2 593.47" stroke="#547C0E" stroke-width="0.25" stroke-miterlimit="10"/>
<path d="M244.417 547.969C248.677 542.569 260.617 526.237 265.389 534.716C267.414 538.472 261.889 552.316 261.129 557.377" stroke="#547C0E" stroke-width="0.25" stroke-miterlimit="10"/>
<path d="M242.054 540.713C243.572 530.586 252.092 519.785 259.854 514.043C263.564 518.052 263.654 523.243 262.765 529.152" stroke="#547C0E" stroke-width="0.25" stroke-miterlimit="10"/>
<path d="M263.232 531.807C268.332 526.528 274.286 521.38 280.827 518.047C281.843 528.547 276.403 547.584 268.513 554.169" stroke="#547C0E" stroke-width="0.25" stroke-miterlimit="10"/>
<path d="M263.102 515.391C268.335 509.273 273.439 503.991 280.697 501.633C279.664 508.461 277.795 515.135 275.131 521.506" stroke="#547C0E" stroke-width="0.25" stroke-miterlimit="10"/>
<path d="M224.761 581.264C221.343 569.537 232.682 516.875 239.988 542.992" stroke="#547C0E" stroke-width="0.25" stroke-miterlimit="10"/>
<path d="M247.973 593.369C262.107 591.169 279.108 575.6 281.384 560.411C276.522 558.68 271.526 557.354 266.446 556.445" stroke="#547C0E" stroke-width="0.25" stroke-miterlimit="10"/>
<path d="M239.397 541.177C238.675 522.95 253.815 479.486 263.103 515.393" stroke="#547C0E" stroke-width="0.25" stroke-miterlimit="10"/>
<path d="M269.817 556.952C282.771 551.128 291.925 536.103 298.041 524.079C292.135 523.193 285.973 523.995 280.656 524.924" stroke="#547C0E" stroke-width="0.25" stroke-miterlimit="10"/>
<path d="M262.767 511.887C263.86 493.071 293.351 469.015 280.444 503.321" stroke="#547C0E" stroke-width="0.25" stroke-miterlimit="10"/>
<path d="M279.604 503.196C285.169 500.574 290.023 496.991 296.304 495.344C295.759 504.75 291.804 516.024 288.135 523.238" stroke="#547C0E" stroke-width="0.25" stroke-miterlimit="10"/>
<path d="M283.229 484.754C286.388 480.917 289.551 477.074 293.435 474.207L294.281 474.332L295.122 474.457C295.081 480.491 293.565 490.618 292.933 494.837" stroke="#547C0E" stroke-width="0.25" stroke-miterlimit="10"/>
<path d="M218.527 596.938C221.458 598.996 225.065 600.828 226.947 603.375C222.818 605.021 217.961 607.208 213.786 609.169" stroke="#547C0E" stroke-width="0.25" stroke-miterlimit="10"/>
<path d="M222.713 640.277C221.876 637.238 217.854 629.52 220.448 627.318C221.953 625.925 229.405 628.018 231.302 628.298" stroke="#547C0E" stroke-width="0.25" stroke-miterlimit="10"/>
<path d="M185.85 657.406C189.362 659.874 195.107 660.411 199.313 660.394C198.934 656.454 195.483 651.408 194.692 648.055" stroke="#547C0E" stroke-width="0.25" stroke-miterlimit="10"/>
<path d="M198.164 683.192C195.727 675.709 194.588 670.361 204.031 672.099" stroke="#547C0E" stroke-width="0.25" stroke-miterlimit="10"/>
<path d="M156.934 697.075C160.757 699.52 164.992 701.251 169.434 702.185C170.955 698.532 167.076 689.861 165.382 686.047" stroke="#547C0E" stroke-width="0.25" stroke-miterlimit="10"/>
<path d="M164.149 726.633C163.578 723.958 160.778 716.744 162.738 714.447C164.653 712.471 171.838 714.196 173.958 715.159" stroke="#547C0E" stroke-width="0.25" stroke-miterlimit="10"/>
<path d="M121.147 741.549C124.347 743.971 132.383 746.469 133.632 742.449C134.377 739.649 131.067 733.649 130.545 730.66" stroke="#547C0E" stroke-width="0.25" stroke-miterlimit="10"/>
<path d="M118.022 781.85C116.409 779.664 112.482 771.31 114.712 769.378C116.169 768.305 124.161 771.119 125.695 771.672" stroke="#547C0E" stroke-width="0.25" stroke-miterlimit="10"/>
<path d="M584.317 590.039C575.997 593.879 566.397 603.479 562.557 611.799C556.797 622.679 561.277 634.839 575.357 629.079C584.957 625.239 602.237 597.079 585.597 590.679" stroke="#547C0E" stroke-width="0.25" stroke-miterlimit="10"/>
<path d="M586.24 591.32C584.32 598.36 579.84 605.4 576 611.8" stroke="#547C0E" stroke-width="0.25" stroke-miterlimit="10"/>
<path d="M607.359 600.919C608.639 610.519 615.679 660.439 631.679 634.839C639.999 621.399 623.999 597.079 608.639 600.279" stroke="#547C0E" stroke-width="0.25" stroke-miterlimit="10"/>
<path d="M609.92 600.918C613.76 606.678 616.32 613.078 619.52 619.478" stroke="#547C0E" stroke-width="0.25" stroke-miterlimit="10"/>
<path d="M591.999 633.559C587.519 639.319 583.039 645.719 581.119 652.759C578.559 662.359 582.399 680.919 593.919 670.039C602.879 661.079 599.039 641.879 592.639 634.199" stroke="#547C0E" stroke-width="0.25" stroke-miterlimit="10"/>
<path d="M591.999 635.48C591.999 641.24 591.359 647 591.359 653.4" stroke="#547C0E" stroke-width="0.25" stroke-miterlimit="10"/>
<path d="M269.847 330.242C278.847 331.967 292.239 329.753 300.206 325.224C311.224 319.733 314.665 307.24 299.863 303.724C289.823 301.256 259.377 314.087 269.176 328.978" stroke="#547C0E" stroke-width="0.25" stroke-miterlimit="10"/>
<path d="M269.031 328.086C274.691 323.481 282.431 320.365 289.281 317.398" stroke="#547C0E" stroke-width="0.25" stroke-miterlimit="10"/>
<path d="M257.45 307.983C262.002 299.433 285.35 254.75 257.432 266.245C242.843 272.325 241.688 301.417 256.032 307.758" stroke="#547C0E" stroke-width="0.25" stroke-miterlimit="10"/>
<path d="M255.371 306.492C255.604 299.572 257.248 292.88 258.371 285.812" stroke="#547C0E" stroke-width="0.25" stroke-miterlimit="10"/>
<path d="M288.946 290.398C295.94 288.322 303.31 285.729 308.97 281.123C316.642 274.81 324.327 257.484 308.627 259.623C296.127 261.692 288.068 279.537 288.797 289.506" stroke="#547C0E" stroke-width="0.25" stroke-miterlimit="10"/>
<path d="M290.064 288.833C293.418 284.148 297.293 279.84 301.018 274.633" stroke="#547C0E" stroke-width="0.25" stroke-miterlimit="10"/>
<path d="M1570.22 265.856C1572.8 257.062 1571.89 243.52 1568.16 235.156C1563.76 223.656 1551.66 219.026 1546.72 233.418C1543.3 243.174 1553.12 274.718 1568.89 266.404" stroke="#547C0E" stroke-width="0.25" stroke-miterlimit="10"/>
<path d="M1567.99 266.462C1563.95 260.382 1561.6 252.374 1559.31 245.273" stroke="#547C0E" stroke-width="0.25" stroke-miterlimit="10"/>
<path d="M1546.86 276.042C1538.79 270.689 1496.58 243.131 1505.32 272.026C1509.96 287.135 1538.8 291.098 1546.5 277.426" stroke="#547C0E" stroke-width="0.25" stroke-miterlimit="10"/>
<path d="M1545.18 277.969C1538.31 277.069 1531.81 274.784 1524.89 272.98" stroke="#547C0E" stroke-width="0.25" stroke-miterlimit="10"/>
<path d="M1532.4 242.994C1531.01 235.831 1529.14 228.246 1525.11 222.168C1519.57 213.92 1503.07 204.594 1503.67 220.427C1504.52 233.071 1521.5 242.817 1531.49 243.055" stroke="#547C0E" stroke-width="0.25" stroke-miterlimit="10"/>
<path d="M1530.96 241.728C1526.62 237.939 1522.71 233.664 1517.89 229.453" stroke="#547C0E" stroke-width="0.25" stroke-miterlimit="10"/>
<path d="M1927.68 406.971C1927.68 356.623 1918.29 310.544 1884.16 272.143C1842.35 223.503 1782.61 197.903 1739.09 151.823C1731.41 144.143 1718.61 130.49 1717.76 120.25C1725.44 121.958 1730.56 133.05 1735.68 139.022C1743.36 148.41 1752.75 156.942 1762.98 165.475C1777.49 176.575 1807.36 199.61 1826.13 201.315C1828.69 173.155 1820.16 90.3827 1832.1 100.622C1838.93 101.477 1831.25 151.822 1834.66 202.169C1844.05 216.676 1867.09 234.594 1880.74 246.541C1901.22 264.461 1914.88 283.234 1925.97 307.981C1940.48 340.408 1940.48 370.273 1944.74 404.408C1939.62 406.108 1932.8 406.968 1928.53 405.26" stroke="#547C0E" stroke-width="0.25" stroke-miterlimit="10"/>
<path d="M1826.13 182.542C1794.56 177.422 1768.96 130.49 1781.76 102.33C1786.03 92.0902 1796.26 85.2622 1798.83 74.1702C1800.53 64.7822 1798.83 53.6902 1798.83 44.3022C1798.83 17.0022 1821.01 -7.74983 1850.88 3.34217C1876.48 12.7292 1875.63 38.3302 1873.07 59.6622C1870.51 87.8222 1895.25 91.2372 1896.97 117.69C1898.67 138.17 1887.58 162.915 1869.66 174.01C1858.57 180.835 1846.62 179.13 1835.53 182.542" stroke="#547C0E" stroke-width="0.25" stroke-miterlimit="10"/>
<path d="M1826.99 162.915C1811.63 155.235 1801.39 134.758 1793.71 120.25" stroke="#547C0E" stroke-width="0.25" stroke-miterlimit="10"/>
<path d="M1834.67 156.944C1848.32 145.851 1864.53 128.784 1861.97 110.012" stroke="#547C0E" stroke-width="0.25" stroke-miterlimit="10"/>
<path d="M1830.4 100.621C1828.69 75.0208 1839.78 48.5688 1833.81 22.9688" stroke="#547C0E" stroke-width="0.25" stroke-miterlimit="10"/>
<path d="M1832.96 98.9158C1839.78 80.1408 1861.12 67.3408 1856.85 44.3008" stroke="#547C0E" stroke-width="0.25" stroke-miterlimit="10"/>
<path d="M1827.84 98.9191C1813.33 92.0911 1812.48 73.3191 1812.48 59.6641" stroke="#547C0E" stroke-width="0.25" stroke-miterlimit="10"/>
<path d="M1803.95 99.7695C1809.07 108.302 1815.89 113.422 1823.57 120.25" stroke="#547C0E" stroke-width="0.25" stroke-miterlimit="10"/>
<path d="M1837.23 123.663C1845.76 117.691 1852.59 107.451 1858.56 98.918" stroke="#547C0E" stroke-width="0.25" stroke-miterlimit="10"/>
<path d="M1837.23 155.232C1845.76 159.5 1866.24 160.352 1873.93 151.82" stroke="#547C0E" stroke-width="0.25" stroke-miterlimit="10"/>
<path d="M1858.56 133.902C1866.24 135.61 1876.48 135.61 1882.45 129.637" stroke="#547C0E" stroke-width="0.25" stroke-miterlimit="10"/>
<path d="M1784.32 191.93C1774.08 199.61 1752.75 198.755 1739.95 196.195C1728 193.635 1709.23 187.662 1700.69 179.13C1689.6 168.035 1694.72 162.062 1696.43 149.263C1699.84 121.958 1661.44 121.103 1658.03 92.9432C1654.61 66.4902 1675.95 40.0382 1703.25 40.8912C1733.12 41.7442 1723.73 82.7042 1757.01 81.8512C1771.52 81.8512 1780.05 73.3192 1784.32 93.7992" stroke="#547C0E" stroke-width="0.25" stroke-miterlimit="10"/>
<path d="M1690.45 75.0234C1722.03 80.9984 1747.63 112.57 1742.51 144.143" stroke="#547C0E" stroke-width="0.25" stroke-miterlimit="10"/>
<path d="M1685.33 92.9414C1697.61 100.139 1708.58 109.373 1717.76 120.248" stroke="#547C0E" stroke-width="0.25" stroke-miterlimit="10"/>
<path d="M1706.67 147.559C1714.35 153.532 1728.85 155.236 1737.39 152.679" stroke="#547C0E" stroke-width="0.25" stroke-miterlimit="10"/>
<path d="M1713.49 173.152C1727.15 178.272 1750.19 182.539 1762.99 174.86" stroke="#547C0E" stroke-width="0.25" stroke-miterlimit="10"/>
<path d="M1762.13 101.477C1772.37 118.542 1772.37 146.702 1762.13 161.209" stroke="#547C0E" stroke-width="0.25" stroke-miterlimit="10"/>
<path d="M1755.31 121.957C1757.87 128.782 1762.99 133.05 1768.11 137.317" stroke="#547C0E" stroke-width="0.25" stroke-miterlimit="10"/>
<path d="M1709.23 98.0625C1716.91 99.7705 1724.59 102.33 1732.27 103.182" stroke="#547C0E" stroke-width="0.25" stroke-miterlimit="10"/>
<path d="M1686.19 112.57H1710.09" stroke="#547C0E" stroke-width="0.25" stroke-miterlimit="10"/>
<path d="M253.896 812.846C291.451 788.395 321.265 759.014 333.333 714.903C349.307 660.088 339.395 603.098 352.633 548.255C354.633 538.796 358.6 522.619 365.822 517.008C368.28 523.567 362.491 532.775 360.522 539.495C357.248 549.784 355.44 560.927 354.05 572.708C352.816 588.918 350.136 622.387 357.982 637.218C380.228 625.455 437.831 578.888 435.993 592.774C438.671 598.283 397.386 617.002 361.493 644C355.229 658.047 353.05 683.936 350.769 699.926C347.349 723.903 339.979 743.208 326.905 763.501C309.761 790.069 287.484 804.576 264.09 824.334C260.332 821.344 256.379 816.667 255.583 812.655" stroke="#547C0E" stroke-width="0.25" stroke-miterlimit="10"/>
<path d="M371.987 628.098C360.475 602.06 383.051 560.171 410.275 556.042C419.985 554.253 430.048 558.577 439.566 555.097C447.4 551.81 454.844 545.151 461.846 540.59C482.216 527.329 511.451 531.863 517.682 559.529C523.114 583.186 503.602 594.98 486.445 603.429C464.196 615.195 473.668 635.314 454.763 649.435C440.314 660.653 416.463 664.398 399.49 656.419C389.012 651.46 384.481 641.719 376.55 635.099" stroke="#547C0E" stroke-width="0.25" stroke-miterlimit="10"/>
<path d="M387.043 619.204C385.315 604.018 395.619 586.433 402.705 573.656" stroke="#547C0E" stroke-width="0.25" stroke-miterlimit="10"/>
<path d="M395.231 622.033C410.131 626.833 430.741 630.633 443.5 619.609" stroke="#547C0E" stroke-width="0.25" stroke-miterlimit="10"/>
<path d="M435.171 591.496C453.437 577.796 478.555 573.218 494.752 556.332" stroke="#547C0E" stroke-width="0.25" stroke-miterlimit="10"/>
<path d="M437.687 592.579C455.003 588.555 474.915 598.252 490.029 583.879" stroke="#547C0E" stroke-width="0.25" stroke-miterlimit="10"/>
<path d="M435.2 588.759C433.244 574.623 446.835 564.869 457.019 558.238" stroke="#547C0E" stroke-width="0.25" stroke-miterlimit="10"/>
<path d="M422.959 571.348C419.078 579.312 418.576 586.892 417.212 595.934" stroke="#547C0E" stroke-width="0.25" stroke-miterlimit="10"/>
<path d="M421.295 607.777C429.895 611.243 440.851 611.364 450.118 611.677" stroke="#547C0E" stroke-width="0.25" stroke-miterlimit="10"/>
<path d="M397.745 623.113C398.708 631.556 408.018 647.243 418.112 648.828" stroke="#547C0E" stroke-width="0.25" stroke-miterlimit="10"/>
<path d="M424.021 628.668C426.478 635.224 431.448 642.868 438.807 644.417" stroke="#547C0E" stroke-width="0.25" stroke-miterlimit="10"/>
<path d="M344.678 601.471C333.978 597.562 324.254 581.232 319.943 570.441C316.054 560.288 311.393 543.382 313.612 532.873C316.5 519.21 323.445 520.127 333.818 515.183C355.847 504.467 337.835 475.408 357.181 459.183C375.254 443.793 405.354 446.86 417.974 467.645C431.844 490.337 396.731 503.229 413.53 527.645C420.575 538.466 431.086 540.686 417.882 553.816" stroke="#547C0E" stroke-width="0.25" stroke-miterlimit="10"/>
<path d="M386.3 474.672C397.178 501.124 386.059 535.557 360.019 547.072" stroke="#547C0E" stroke-width="0.25" stroke-miterlimit="10"/>
<path d="M370.445 479.555C371.04 492.21 369.476 504.874 365.822 517.005" stroke="#547C0E" stroke-width="0.25" stroke-miterlimit="10"/>
<path d="M340.068 521.996C339.341 530.628 345.114 542.276 351.168 547.396" stroke="#547C0E" stroke-width="0.25" stroke-miterlimit="10"/>
<path d="M324.288 539.516C327.096 552.191 335.104 571.45 347.049 577.266" stroke="#547C0E" stroke-width="0.25" stroke-miterlimit="10"/>
<path d="M401.378 540.992C393.621 556.918 372.616 570.592 356.821 570.002" stroke="#547C0E" stroke-width="0.25" stroke-miterlimit="10"/>
<path d="M382.784 545.84C378.934 551.065 378.24 556.958 377.541 562.849" stroke="#547C0E" stroke-width="0.25" stroke-miterlimit="10"/>
<path d="M378.229 499.863C380.687 506.424 382.507 513.393 385.599 519.539" stroke="#547C0E" stroke-width="0.25" stroke-miterlimit="10"/>
<path d="M356.218 489.727C359.948 495.456 364.093 501.827 367.825 507.552" stroke="#547C0E" stroke-width="0.25" stroke-miterlimit="10"/>
<path d="M688.83 220.135C666.13 232.613 641.104 255.693 657.03 282.369C670.23 304.976 717.221 326.941 744.211 324.96C780.617 321.773 768.127 264.47 761.534 241.752C751.921 206.905 725.734 203.628 697.145 216.124L688.73 219.411" stroke="#547C0E" stroke-width="0.25" stroke-miterlimit="10"/>
<path d="M688.735 219.41C664.308 229.901 662.216 196.298 651.853 184.371C665.653 194.388 685.599 200.671 688.01 219.505" stroke="#547C0E" stroke-width="0.25" stroke-miterlimit="10"/>
<path d="M688.455 217.237C684.705 205.197 684.392 191.248 691.972 181.438C698.341 190.938 697.947 210.863 689.456 219.312" stroke="#547C0E" stroke-width="0.25" stroke-miterlimit="10"/>
<path d="M688.83 220.135C674.376 233.765 650.545 231.665 638.175 215.573C645.96 213.105 656.996 207.273 663.975 210.064" stroke="#547C0E" stroke-width="0.25" stroke-miterlimit="10"/>
<path d="M663.485 257.984C664.485 260.063 666.122 261.325 668.572 263.219" stroke="#547C0E" stroke-width="0.25" stroke-miterlimit="10"/>
<path d="M688.343 239.34C690.793 241.235 692.613 243.945 694.433 246.657" stroke="#547C0E" stroke-width="0.25" stroke-miterlimit="10"/>
<path d="M722.261 222.48C724.69 223.728 726.545 225.863 727.442 228.442" stroke="#547C0E" stroke-width="0.25" stroke-miterlimit="10"/>
<path d="M688.504 263.613C690.229 265.602 691.96 267.591 694.315 268.761" stroke="#547C0E" stroke-width="0.25" stroke-miterlimit="10"/>
<path d="M713.826 248.594C715.676 250.183 717.378 251.937 718.913 253.832" stroke="#547C0E" stroke-width="0.25" stroke-miterlimit="10"/>
<path d="M689.393 287.801C692.662 290.33 696.023 293.582 699.293 296.101" stroke="#547C0E" stroke-width="0.25" stroke-miterlimit="10"/>
<path d="M714.709 272.777C716.345 274.039 718.703 275.211 720.338 276.477" stroke="#547C0E" stroke-width="0.25" stroke-miterlimit="10"/>
<path d="M741.09 248.785C742.91 251.499 744.636 253.485 746.55 256.921" stroke="#547C0E" stroke-width="0.25" stroke-miterlimit="10"/>
<path d="M720.205 292.688C722.655 294.587 724.385 296.573 726.835 298.465" stroke="#547C0E" stroke-width="0.25" stroke-miterlimit="10"/>
<path d="M740.434 272.43C742.162 274.419 743.89 276.408 746.434 279.024" stroke="#547C0E" stroke-width="0.25" stroke-miterlimit="10"/>
<path d="M744.956 302.039C746.689 304.026 748.416 306.013 750.137 308.001" stroke="#547C0E" stroke-width="0.25" stroke-miterlimit="10"/>
<path d="M730.046 312.047C732.404 313.219 734.129 315.206 735.86 317.198" stroke="#547C0E" stroke-width="0.25" stroke-miterlimit="10"/>
<path d="M756.313 281.441C757.877 282.68 759.098 284.298 759.858 286.141" stroke="#547C0E" stroke-width="0.25" stroke-miterlimit="10"/>
<path d="M741.745 225.141C743.47 227.128 745.293 229.841 747.745 231.736" stroke="#547C0E" stroke-width="0.25" stroke-miterlimit="10"/>
<path d="M668.721 281.609C669.916 283.341 671.354 284.891 672.991 286.214" stroke="#547C0E" stroke-width="0.25" stroke-miterlimit="10"/>
<path d="M685.745 219.057C682.384 215.803 678.206 211.925 674.745 207.949" stroke="#547C0E" stroke-width="0.25" stroke-miterlimit="10"/>
<path d="M1301.34 387.376C1310.72 360.921 1320.96 328.496 1315.84 299.481C1312.43 281.561 1302.19 265.348 1296.22 248.281C1289.39 230.361 1294.51 210.734 1303.04 193.669C1303.05 193.008 1303.21 192.359 1303.51 191.768C1303.8 191.178 1304.23 190.66 1304.75 190.254" stroke="#547C0E" stroke-width="0.25" stroke-miterlimit="10"/>
<path d="M1314.99 321.664C1297.92 342.144 1236.48 316.544 1255.26 295.211C1265.5 283.263 1269.76 304.596 1278.3 308.863C1287.68 313.13 1299.63 307.155 1297.07 295.211C1294.51 278.996 1261.23 278.996 1249.28 271.311C1243.31 267.046 1239.11 258.911 1240.75 247.419C1242.46 235.471 1254.4 259.366 1263.79 261.071C1279.15 263.631 1276.59 249.978 1271.47 242.299C1266.35 235.471 1252.7 228.646 1260.38 216.699C1270.62 202.192 1274.03 232.059 1280.86 215.847C1285.12 206.459 1274.88 198.779 1269.76 192.805C1261.23 183.42 1256.11 175.74 1260.38 162.94C1263.79 154.408 1277.44 139.045 1287.68 145.873C1296.21 151.845 1281.7 172.325 1297.06 173.18C1305.6 173.18 1309.86 154.407 1319.25 150.993C1332.05 146.725 1349.97 153.553 1348.26 168.913C1346.56 183.421 1330.34 185.126 1324.37 196.22C1307.3 231.208 1364.47 197.073 1367.89 218.408C1371.3 241.448 1315.84 224.381 1314.13 251.688C1313.28 261.928 1324.37 273.873 1335.46 270.46C1344 267.9 1344.85 255.953 1354.24 252.54C1378.14 244.86 1373.86 274.728 1357.65 282.407C1351.68 285.819 1333.75 284.107 1335.46 294.352C1337.18 304.597 1354.24 299.472 1352.53 311.419C1350.82 324.219 1326.93 323.367 1319.25 321.659" stroke="#547C0E" stroke-width="0.25" stroke-miterlimit="10"/>
</svg>
