<svg width="1920" height="793" viewBox="0 0 1920 793" fill="none" xmlns="http://www.w3.org/2000/svg">
<g opacity="0.7">
<path opacity="0.3" d="M-33.4372 563.904C-50.8092 441.024 -54.2861 97.9843 126.407 36.5443C220.228 5.82425 254.978 100.544 307.102 141.504C407.869 215.744 487.795 115.904 585.09 90.3043C731.036 51.9043 731.036 149.184 842.229 185.024C974.271 225.984 981.229 108.224 1033.35 54.4642C1061.15 26.3042 1102.84 -1.85571 1154.97 0.704287C1220.99 5.82429 1238.37 51.9043 1266.17 87.7443C1293.97 126.144 1328.71 167.104 1394.74 144.064C1439.91 126.144 1450.34 87.7443 1478.14 59.5843C1509.41 31.4243 1571.96 -1.85573 1624.08 18.6243C1676.2 39.1043 1665.78 97.9843 1707.48 123.584C1787.4 174.784 1863.85 21.1843 1933.34 123.584C1971.57 182.464 1964.62 295.104 1968.09 361.664C1968.09 402.624 1961.14 443.584 1964.62 481.984C1968.09 528.064 1971.57 530.624 1905.55 543.424C1721.38 579.264 1526.79 558.784 1335.67 558.784C1123.7 558.784 908.258 561.344 692.819 561.344C449.581 561.344 209.814 566.464 -33.4271 563.904" fill="#B3E56A"/>
<path opacity="0.3" d="M-29.9601 791.744C-47.3351 668.864 -50.8091 325.824 129.884 264.384C223.705 233.664 258.452 328.384 310.576 369.344C411.348 443.584 491.268 343.744 588.564 318.144C734.51 279.744 734.51 377.024 845.706 412.864C977.751 453.824 984.706 336.064 1036.82 282.304C1064.62 254.144 1106.32 225.984 1158.44 228.544C1224.47 233.664 1241.84 279.744 1269.64 315.584C1297.44 353.984 1332.19 394.944 1398.21 371.904C1443.39 353.984 1453.81 315.584 1481.61 287.424C1512.88 259.264 1575.43 225.984 1627.55 246.464C1679.67 266.944 1669.25 325.824 1710.95 351.424C1790.87 402.624 1867.32 249.024 1936.82 351.424C1975.04 410.304 1968.09 522.944 1971.57 589.504C1971.57 630.464 1964.62 671.424 1968.09 709.824C1971.57 755.904 1975.04 758.464 1909.01 771.264C1724.85 807.104 1530.26 786.624 1339.14 786.624C1127.17 786.624 911.739 789.184 696.292 789.184C453.051 789.184 213.284 794.304 -29.9541 791.744" fill="#B3E56A"/>
</g>
</svg>
