<svg width="1864" height="902" viewBox="0 0 1864 902" fill="none" xmlns="http://www.w3.org/2000/svg">
<g opacity="1">
<path d="M1187.82 455.631C1138.54 448.752 1111.03 472.821 1089.26 517.516C1066.34 565.649 1084.68 614.929 1081.24 665.356C1077.8 718.072 1038.84 762.767 1031.96 815.485C1023.94 877.373 1091.55 898.001 1140.83 901.439C1188.97 903.73 1255.44 881.955 1254.29 824.654C1253.15 771.936 1200.43 736.411 1205.01 682.546C1206.16 660.771 1213.03 651.603 1224.49 621.805C1232.48 601.036 1238.76 583.82 1241.68 562.211C1247.41 519.811 1243.98 464.798 1187.82 455.631" stroke="#547C0E" stroke-width="0.25" stroke-miterlimit="10"/>
<path d="M1152.29 456.393C1151.53 446.46 1145.42 436.146 1143.89 425.832C1143.13 422.775 1141.99 418.19 1144.28 415.897C1147.33 412.843 1158.41 414.374 1162.61 414.374C1172.93 413.606 1184.39 411.699 1194.7 412.843C1198.52 413.224 1198.9 412.08 1200.43 415.518C1201.58 418.19 1200.05 423.918 1200.05 426.595C1199.67 432.708 1199.67 438.438 1199.29 444.551C1198.9 449.134 1198.14 452.951 1198.14 457.156" stroke="#547C0E" stroke-width="0.25" stroke-miterlimit="10"/>
<path d="M1159.93 454.862C1159.93 447.226 1156.49 438.819 1154.59 431.562C1153.06 426.214 1152.29 418.957 1150.39 414.753" stroke="#547C0E" stroke-width="0.25" stroke-miterlimit="10"/>
<path d="M1171.01 454.099C1169.87 445.699 1167.19 436.527 1164.9 428.125C1163.75 423.54 1163.75 418.189 1162.22 413.989" stroke="#547C0E" stroke-width="0.25" stroke-miterlimit="10"/>
<path d="M1177.51 454.099C1177.89 447.225 1176.74 439.965 1175.98 433.089C1175.6 427.741 1175.6 418.571 1174.45 414.373" stroke="#547C0E" stroke-width="0.25" stroke-miterlimit="10"/>
<path d="M1186.29 454.1C1186.29 440.732 1187.44 426.214 1186.68 412.843" stroke="#547C0E" stroke-width="0.25" stroke-miterlimit="10"/>
<path d="M1192.79 456.393C1192.79 441.878 1193.17 426.976 1193.17 412.461" stroke="#547C0E" stroke-width="0.25" stroke-miterlimit="10"/>
<path d="M1100.72 894.944C1079.33 835.352 1084.68 777.284 1115.24 721.512C1133.58 687.894 1128.23 654.279 1122.11 617.602C1118.29 595.448 1115.24 568.709 1119.82 546.549C1123.64 528.212 1135.1 510.64 1142.75 493.831C1148.09 481.607 1157.26 470.149 1158.02 456.396" stroke="#547C0E" stroke-width="0.25" stroke-miterlimit="10"/>
<path d="M1204.63 890.362C1203.86 885.78 1200.05 885.014 1197.75 881.195C1188.59 868.971 1180.94 855.984 1175.6 841.466C1164.14 810.905 1162.61 778.815 1161.85 745.966C1161.09 713.117 1165.67 679.496 1176.36 648.934C1189.35 610.734 1209.21 569.477 1205.39 528.217C1203.1 504.529 1193.17 474.733 1182.47 456.399" stroke="#547C0E" stroke-width="0.25" stroke-miterlimit="10"/>
<path d="M1161.85 512.933C1145.8 541.966 1141.98 576.347 1141.98 608.433" stroke="#547C0E" stroke-width="0.25" stroke-miterlimit="10"/>
<path d="M1174.07 563.36C1174.07 580.932 1172.54 594.684 1165.67 611.493" stroke="#547C0E" stroke-width="0.25" stroke-miterlimit="10"/>
<path d="M1221.44 503.766C1225.26 535.856 1219.91 562.595 1207.69 591.628" stroke="#547C0E" stroke-width="0.25" stroke-miterlimit="10"/>
<path d="M1208.45 621.426C1209.21 634.413 1203.86 646.637 1197.75 658.098" stroke="#547C0E" stroke-width="0.25" stroke-miterlimit="10"/>
<path d="M1119.06 507.585C1106.84 539.674 1101.49 566.414 1101.49 600.794" stroke="#547C0E" stroke-width="0.25" stroke-miterlimit="10"/>
<path d="M1103.01 626.774C1102.25 636.704 1103.01 645.874 1103.01 655.804" stroke="#547C0E" stroke-width="0.25" stroke-miterlimit="10"/>
<path d="M1094.61 708.523C1093.84 724.569 1078.57 739.084 1073.98 754.365C1067.87 771.937 1062.52 791.805 1067.11 810.905" stroke="#547C0E" stroke-width="0.25" stroke-miterlimit="10"/>
<path d="M1135.87 728.391C1128.99 752.839 1121.35 774.23 1122.11 800.207C1122.88 824.657 1132.05 841.467 1140.45 864.386" stroke="#547C0E" stroke-width="0.25" stroke-miterlimit="10"/>
<path d="M1141.21 775.761C1141.98 785.691 1141.98 795.621 1142.75 804.789" stroke="#547C0E" stroke-width="0.25" stroke-miterlimit="10"/>
<path d="M1151.91 664.209C1151.27 671.137 1150.25 678.024 1148.85 684.84" stroke="#547C0E" stroke-width="0.25" stroke-miterlimit="10"/>
<path d="M1184 715.401C1182.47 745.201 1183.24 774.995 1196.99 801.734C1205.39 817.78 1219.15 841.465 1207.69 859.034" stroke="#547C0E" stroke-width="0.25" stroke-miterlimit="10"/>
<path d="M1206.16 769.648C1219.15 785.691 1221.44 798.681 1221.44 818.548" stroke="#547C0E" stroke-width="0.25" stroke-miterlimit="10"/>
<path d="M1051.82 828.476C1054.88 839.176 1057.17 849.87 1062.52 859.8" stroke="#547C0E" stroke-width="0.25" stroke-miterlimit="10"/>
<path d="M1161.84 859.801C1163.37 863.623 1164.13 867.443 1165.66 872.028" stroke="#547C0E" stroke-width="0.25" stroke-miterlimit="10"/>
<path d="M1110.65 853.69C1113.04 860.458 1115.08 867.344 1116.76 874.321" stroke="#547C0E" stroke-width="0.25" stroke-miterlimit="10"/>
<path d="M1158.02 622.952C1157.94 629.006 1156.64 634.982 1154.2 640.526" stroke="#547C0E" stroke-width="0.25" stroke-miterlimit="10"/>
<path d="M1180.18 500.709C1183.24 510.639 1185.53 522.866 1182.47 533.561" stroke="#547C0E" stroke-width="0.25" stroke-miterlimit="10"/>
<path d="M1204.63 467.854C1207.12 472.488 1209.17 477.349 1210.74 482.372" stroke="#547C0E" stroke-width="0.25" stroke-miterlimit="10"/>
<path d="M1174.07 470.914C1173.42 476.074 1172.4 481.18 1171.01 486.192" stroke="#547C0E" stroke-width="0.25" stroke-miterlimit="10"/>
<path d="M1136.63 480.081C1133.58 483.9 1131.28 486.957 1128.23 490.774" stroke="#547C0E" stroke-width="0.25" stroke-miterlimit="10"/>
<path d="M1096.9 532.033C1096.02 536.825 1095.51 541.68 1095.38 546.551" stroke="#547C0E" stroke-width="0.25" stroke-miterlimit="10"/>
<path d="M1190.88 678.727C1190.88 684.84 1192.4 690.188 1192.4 696.301" stroke="#547C0E" stroke-width="0.25" stroke-miterlimit="10"/>
<path d="M1238.24 818.544C1240.53 830.771 1239.01 838.41 1232.89 849.106" stroke="#547C0E" stroke-width="0.25" stroke-miterlimit="10"/>
<path d="M1111.42 766.591C1109.13 778.052 1106.07 788.748 1104.54 800.206" stroke="#547C0E" stroke-width="0.25" stroke-miterlimit="10"/>
<path d="M1203.87 735.264C1204.63 739.849 1206.16 744.431 1206.92 749.016" stroke="#547C0E" stroke-width="0.25" stroke-miterlimit="10"/>
<path d="M1112.95 671.851C1112.95 681.019 1112.95 690.188 1109.89 699.351" stroke="#547C0E" stroke-width="0.25" stroke-miterlimit="10"/>
<path d="M1070.92 733.739C1067.87 743.669 1064.81 752.839 1060.22 762.009" stroke="#547C0E" stroke-width="0.25" stroke-miterlimit="10"/>
<path d="M1154.2 804.789C1155.73 808.614 1157.26 811.668 1158.02 815.489" stroke="#547C0E" stroke-width="0.25" stroke-miterlimit="10"/>
<path d="M1364.2 865.707C1373.75 838.307 1378.63 814.23 1378.37 784.907C1378.99 739.034 1348.01 695.502 1339.23 650.233C1332.6 613.272 1325.25 577.275 1332.38 539.892C1337.63 507.119 1354.94 474.192 1369.42 445.159C1358.26 478.851 1344.72 513.787 1339.02 549.22C1333.18 583.813 1338.26 621.886 1347.03 655.928C1355.93 690.813 1375.52 722.304 1386.81 755.95C1391.84 771.576 1395.58 789.993 1392.89 805.96C1389.04 825.56 1383.63 846.27 1377.51 867.95" stroke="#547C0E" stroke-width="0.25" stroke-miterlimit="10"/>
<path d="M1383.86 742.596C1381.97 735.981 1383.58 729.686 1385.19 723.386C1387.5 716.118 1404.17 678.97 1412.73 678.499C1427.06 676.262 1415.98 743.631 1385.1 744.993" stroke="#547C0E" stroke-width="0.25" stroke-miterlimit="10"/>
<path d="M1384 743.438C1390.13 732.978 1398.1 723.099 1401.31 710.506" stroke="#547C0E" stroke-width="0.25" stroke-miterlimit="10"/>
<path d="M1370.64 746.382C1346.66 758.762 1277.32 707.396 1302.07 688.851C1316.77 677.922 1349.59 705.619 1356.63 717.477C1361.45 726.227 1362.26 742.506 1372.19 745.277" stroke="#547C0E" stroke-width="0.25" stroke-miterlimit="10"/>
<path d="M1369.53 744.83C1348.82 739.421 1335.1 723.43 1319.11 709.512" stroke="#547C0E" stroke-width="0.25" stroke-miterlimit="10"/>
<path d="M1372.46 719.328C1369.07 708.628 1364.7 697.22 1363.69 685.282C1362.44 671.663 1371.93 621.815 1393.61 627.933C1424.51 637.794 1383.98 704.574 1370.83 714.4" stroke="#547C0E" stroke-width="0.25" stroke-miterlimit="10"/>
<path d="M1370.56 712.713C1368.91 696.562 1376.53 678.964 1381.04 663.576" stroke="#547C0E" stroke-width="0.25" stroke-miterlimit="10"/>
<path d="M1351.71 691.473C1334.77 688.073 1258.84 649.822 1293.57 628.858C1329.15 607.764 1338.12 676.32 1349.76 690.05" stroke="#547C0E" stroke-width="0.25" stroke-miterlimit="10"/>
<path d="M1345.85 687.203C1333.77 676.136 1322.52 664.936 1311.14 652.894" stroke="#547C0E" stroke-width="0.25" stroke-miterlimit="10"/>
<path d="M1351.61 674.216C1349.77 662.416 1347.08 650.741 1346.92 638.673C1346.64 625.763 1360.93 573.439 1378.68 593.128C1393.38 609.828 1366.18 662.442 1354 672.977" stroke="#547C0E" stroke-width="0.25" stroke-miterlimit="10"/>
<path d="M1352.31 673.241C1350.47 661.434 1355.83 645.921 1360.28 635.724" stroke="#547C0E" stroke-width="0.25" stroke-miterlimit="10"/>
<path d="M1334.04 622.544C1319.76 619.59 1272.48 593.283 1284.89 573.21C1298.73 551.189 1330.17 603.285 1331.57 617.746" stroke="#547C0E" stroke-width="0.25" stroke-miterlimit="10"/>
<path d="M1331.12 620.41C1326.62 608.158 1314.39 596.246 1307.49 585.23" stroke="#547C0E" stroke-width="0.25" stroke-miterlimit="10"/>
<path d="M1339.42 618.252C1339.07 609.11 1339.97 599.962 1342.09 591.062C1344.72 580.287 1351.05 565.48 1359.4 558.133C1368.73 551.495 1375.61 551.285 1375.05 564.333C1373.47 581.854 1350.35 605.324 1339.42 618.257" stroke="#547C0E" stroke-width="0.25" stroke-miterlimit="10"/>
<path d="M1339.74 614.747C1343.92 602.866 1348.38 592.672 1355.37 582.079" stroke="#547C0E" stroke-width="0.25" stroke-miterlimit="10"/>
<path d="M1327.66 576.039C1316.93 568.211 1270.68 537.429 1289.39 518.964C1311.79 496.464 1325.94 565.08 1328.5 575.909" stroke="#547C0E" stroke-width="0.25" stroke-miterlimit="10"/>
<path d="M1327.13 572.671C1317.83 562.889 1307.16 549.871 1304.21 536.516" stroke="#547C0E" stroke-width="0.25" stroke-miterlimit="10"/>
<path d="M1336.79 573.751C1339.69 564.66 1340.07 555.967 1343.94 547.59C1347.68 538.369 1375.49 495.166 1386.24 514.221C1396.14 533.403 1350.79 563.795 1338.8 569.983" stroke="#547C0E" stroke-width="0.25" stroke-miterlimit="10"/>
<path d="M1338.67 569.141C1344.55 556.999 1353.93 545.169 1361.89 535.29" stroke="#547C0E" stroke-width="0.25" stroke-miterlimit="10"/>
<path d="M1333.46 530.226C1326.37 523.557 1288.11 466.479 1319.38 467.647C1344.62 468.894 1332.78 514.787 1334.04 528.409C1329.54 516.154 1324.9 503.06 1321.95 489.699" stroke="#547C0E" stroke-width="0.25" stroke-miterlimit="10"/>
<path d="M1345 526.699C1346.67 515.21 1353.96 501.117 1359.4 491.632C1363.54 484.943 1387.55 456.15 1393.68 473.332C1399.95 491.355 1358.74 515.058 1346.74 521.248" stroke="#547C0E" stroke-width="0.25" stroke-miterlimit="10"/>
<path d="M1345.45 524.036C1351.07 510.204 1362.27 498.958 1373.6 488.552" stroke="#547C0E" stroke-width="0.25" stroke-miterlimit="10"/>
<path d="M1352.23 478.931C1340.8 472.08 1312.99 421.141 1336.8 424.336C1355.3 426.636 1354.6 466.468 1352.23 478.931Z" stroke="#547C0E" stroke-width="0.25" stroke-miterlimit="10"/>
<path d="M1352.55 475.427C1346.75 465.968 1341.54 454.691 1339.83 443.727" stroke="#547C0E" stroke-width="0.25" stroke-miterlimit="10"/>
<path d="M1361.69 473.138C1365.57 464.759 1371.31 451.772 1380.06 446.952C1392.63 438.947 1398.16 446.719 1391.31 458.152C1384.91 466.925 1371.81 471.559 1361.82 473.983L1361.69 473.138ZM1361.69 473.138C1367.78 467.87 1374.58 461.628 1380.53 455.518" stroke="#547C0E" stroke-width="0.25" stroke-miterlimit="10"/>
<path d="M1362.69 457.435C1373.82 440.153 1349.3 382.66 1378.94 378.899C1406.9 375.399 1378.16 440.339 1366.57 449.056" stroke="#547C0E" stroke-width="0.25" stroke-miterlimit="10"/>
<path d="M1368.26 448.795C1369.66 435.619 1372.74 422.184 1374.86 408.037" stroke="#547C0E" stroke-width="0.25" stroke-miterlimit="10"/>
<path d="M1834.45 854.971C1815.67 854.971 1798.61 852.411 1779.83 849.851C1758.5 847.291 1726.93 843.026 1708.15 831.079C1674.87 808.892 1729.49 802.067 1714.13 785.851C1703.89 774.758 1663.78 776.466 1667.19 752.571C1669.75 734.651 1697.06 734.651 1707.3 725.271C1720.1 714.176 1699.62 686.871 1699.62 668.951C1699.62 652.736 1706.45 633.963 1724.37 645.051C1737.17 652.731 1750.82 677.478 1760.21 689.426C1767.89 676.626 1796.05 648.466 1804.58 674.066C1809.7 690.278 1796.9 717.586 1807.14 731.238C1821.64 723.558 1850.66 701.371 1851.51 731.238C1851.51 743.186 1847.25 753.426 1843.83 763.666C1842.98 767.931 1839.57 772.198 1841.27 776.466C1843.83 784.146 1844.69 777.318 1849.81 781.586C1859.19 788.411 1859.19 785.851 1855.78 798.651C1853.22 807.186 1849.81 814.866 1847.25 823.398C1842.98 833.638 1839.57 843.878 1836.15 854.118" stroke="#547C0E" stroke-width="0.25" stroke-miterlimit="10"/>
<path d="M1837.01 854.97C1816.53 833.637 1799.46 802.07 1784.1 776.47C1761.91 740.63 1743.14 702.23 1719.25 668.095C1717.54 665.535 1714.98 662.975 1713.27 660.415" stroke="#547C0E" stroke-width="0.25" stroke-miterlimit="10"/>
<path d="M1719.25 701.37C1726.08 704.785 1744 714.17 1752.53 720.997C1749.97 709.905 1749.12 697.957 1746.56 687.717" stroke="#547C0E" stroke-width="0.25" stroke-miterlimit="10"/>
<path d="M1707.3 740.625C1732.05 739.77 1752.53 749.157 1774.72 759.397C1777.28 742.33 1780.69 725.265 1783.25 709.05" stroke="#547C0E" stroke-width="0.25" stroke-miterlimit="10"/>
<path d="M1733.75 784.146C1754.23 783.291 1777.27 790.971 1796.9 797.798C1796.9 781.586 1803.72 763.666 1803.72 748.306" stroke="#547C0E" stroke-width="0.25" stroke-miterlimit="10"/>
<path d="M1756.79 817.426C1776.42 822.546 1797.75 825.106 1817.38 829.371C1819.94 814.011 1830.18 800.359 1831.88 784.998" stroke="#547C0E" stroke-width="0.25" stroke-miterlimit="10"/>
<path d="M1734.41 409.271C1725.27 409.353 1713.98 409.821 1705.34 406.465C1694.64 402.807 1698.28 401.931 1699.18 390.834C1701.21 357.441 1691.84 330.119 1660.54 313.653C1635.02 300.833 1592.67 307.33 1581.42 336.578C1575.79 351.206 1580.28 368.696 1559.65 370.621C1541.76 372.94 1527.95 356.904 1529.65 340.306C1533.25 310.651 1561.21 277.506 1590.01 267.643C1623.92 256.415 1664.85 269.361 1694.58 287.007C1735.29 311.148 1747.18 359.89 1734.41 409.273" stroke="#547C0E" stroke-width="0.25" stroke-miterlimit="10"/>
<path d="M1732.2 410.006C1733.9 421.833 1734.4 431.116 1729.59 442.526C1726.74 449.869 1722.81 456.75 1717.95 462.944C1713.74 468.387 1707.5 475.117 1704.76 481.297C1704.07 476.991 1701.46 473.187 1700.22 469.06C1699.13 465.36 1698.45 461.555 1698.18 457.709C1697.71 450.009 1697.47 442.609 1696.75 434.871C1695.92 426.071 1695.65 413.398 1697.99 404.522C1698.03 404.263 1698.32 404.043 1698.36 403.785" stroke="#547C0E" stroke-width="0.25" stroke-miterlimit="10"/>
<path d="M1703.58 407.702C1703.98 412.233 1702.97 417.351 1703.04 422.361C1702.84 429.176 1703.96 435.919 1704.58 442.585C1705.38 449.807 1706.39 457.323 1705.34 464.539C1704.85 468.19 1704.76 471.884 1705.07 475.555C1705.18 476.622 1705.28 477.69 1705.39 478.76" stroke="#547C0E" stroke-width="0.25" stroke-miterlimit="10"/>
<path d="M1715.11 409.899C1717.66 421.322 1714.69 436.418 1712.78 447.723C1711.03 457.996 1707.77 467.788 1706.31 477.842" stroke="#547C0E" stroke-width="0.25" stroke-miterlimit="10"/>
<path d="M1725.31 410.326C1727.82 422.005 1728.02 435.191 1722.48 446.226C1719.51 452.117 1715.64 457.081 1712.94 463.004C1711.09 466.683 1710.27 470.513 1708.72 473.974" stroke="#547C0E" stroke-width="0.25" stroke-miterlimit="10"/>
<path d="M1737.82 380.292C1728.69 376.076 1718.23 377.455 1708.72 379.498" stroke="#547C0E" stroke-width="0.25" stroke-miterlimit="10"/>
<path d="M1729.39 393.02C1723.88 389.326 1717.94 392.15 1711.61 392.283" stroke="#547C0E" stroke-width="0.25" stroke-miterlimit="10"/>
<path d="M1733.83 349.71C1723.11 349.21 1712.32 349.224 1703.17 356.059" stroke="#547C0E" stroke-width="0.25" stroke-miterlimit="10"/>
<path d="M1724.49 337.832C1718.32 338.706 1712.38 340.798 1707.02 343.986" stroke="#547C0E" stroke-width="0.25" stroke-miterlimit="10"/>
<path d="M1686.67 335.51C1692.03 325.759 1705.52 319.817 1716.13 319.252" stroke="#547C0E" stroke-width="0.25" stroke-miterlimit="10"/>
<path d="M1678.77 324.628C1682.29 316.717 1689.15 311.134 1697.22 308.09" stroke="#547C0E" stroke-width="0.25" stroke-miterlimit="10"/>
<path d="M1666.49 311.272C1667.73 302.765 1673.45 295.963 1679.54 290.265" stroke="#547C0E" stroke-width="0.25" stroke-miterlimit="10"/>
<path d="M1657.75 300.791C1658.13 294.529 1660.83 290.446 1665.15 286.071" stroke="#547C0E" stroke-width="0.25" stroke-miterlimit="10"/>
<path d="M1635.31 303.067C1630.48 291.053 1634.28 282.915 1640.49 272.762" stroke="#547C0E" stroke-width="0.25" stroke-miterlimit="10"/>
<path d="M1619.74 297.916C1615.67 289.693 1615.87 284.722 1619.42 276.553" stroke="#547C0E" stroke-width="0.25" stroke-miterlimit="10"/>
<path d="M1609.26 310.345C1601.32 303.405 1593.21 288.545 1599.45 278.135" stroke="#547C0E" stroke-width="0.25" stroke-miterlimit="10"/>
<path d="M1593.01 309.835C1588.68 303.417 1581.8 298.21 1583.04 289.701" stroke="#547C0E" stroke-width="0.25" stroke-miterlimit="10"/>
<path d="M1586.91 324.74C1574.8 319.3 1561.96 311.651 1562.32 296.44" stroke="#547C0E" stroke-width="0.25" stroke-miterlimit="10"/>
<path d="M1571.61 330.421C1563.11 327.347 1557.4 324.94 1553.37 316.461" stroke="#547C0E" stroke-width="0.25" stroke-miterlimit="10"/>
<path d="M1576.99 347.778C1565.72 347.461 1551.87 348.615 1543.19 339.463" stroke="#547C0E" stroke-width="0.25" stroke-miterlimit="10"/>
<path d="M1566.91 357.368C1561.29 356.893 1555.79 355.385 1550.71 352.919" stroke="#547C0E" stroke-width="0.25" stroke-miterlimit="10"/>
<path d="M-94.5166 446.01C-82.4166 432.375 -74.2846 415.6 -65.2736 400.166C-53.8326 380.851 -42.3946 361.53 -30.6396 341.816C-12.0766 309.437 3.40038 275.259 22.7604 243.507C35.8524 222.919 48.4554 198.07 67.8804 182.507C79.9944 172.107 95.6714 164.536 110.409 158.154C110.724 157.754 112.142 157.593 113.166 157.112" stroke="#547C0E" stroke-width="0.25" stroke-miterlimit="10"/>
<path d="M-23.5149 328.755C-24.5239 298.286 -13.3079 264.599 -0.958895 237.616C8.41811 216.016 19.0701 196.07 33.5141 177.845C46.0761 162.001 63.0741 150.315 78.0141 136.345C93.2641 121.986 115.754 101.745 120.075 80.0152" stroke="#547C0E" stroke-width="0.25" stroke-miterlimit="10"/>
<path d="M119.301 82.6252C121.17 77.0132 126.917 55.1152 117.363 56.5792C111.288 56.9222 106.306 72.9732 104.271 77.1692C100.751 84.0532 96.8336 90.6272 91.7236 96.2542C85.7816 91.5442 83.5596 53.6542 69.6766 73.6162C59.7846 87.7162 62.2706 112.259 51.1166 124.706C43.7256 132.396 43.0266 117.006 39.7556 110.544C36.4096 103.376 32.2656 95.5762 25.3606 104.292C15.9396 116.178 21.1136 142.213 21.9656 155.792C22.4056 165.817 26.0796 175.827 26.8346 185.457" stroke="#547C0E" stroke-width="0.25" stroke-miterlimit="10"/>
<path d="M114.189 156.635C126.234 148.763 148.644 146.526 162.634 149.226C176.54 151.218 172.785 159.207 161.748 163.365C151.029 167.123 139.799 163.388 129.31 166.038C133.122 170.994 168.081 183.866 156.446 195.286C148.346 203.063 121.725 181.313 112.406 181.669C114.088 186.869 121.891 201.448 116.306 206.05C111.035 210.259 102.851 198.608 99.597 195.39C93.797 188.859 88.243 181.223 80.791 175.97" stroke="#547C0E" stroke-width="0.25" stroke-miterlimit="10"/>
<path d="M13.4366 259.342C18.1626 256.636 31.7866 250.019 36.0826 255.999C41.7246 264.342 22.1976 275.959 18.1136 281.113L18.5056 281.425C27.0306 280.439 39.6056 283.304 39.8126 294.437C40.0196 305.57 26.2216 310.762 18.1126 315.299C5.90161 321.753 -7.97139 326.238 -22.0254 326.066" stroke="#547C0E" stroke-width="0.25" stroke-miterlimit="10"/>
<path d="M-12.3407 216.982C-4.25868 205.969 6.52429 180.97 -0.323713 168.445C-4.42371 170.36 -7.87372 174.714 -10.3077 178.595C-14.5807 175.853 -15.1307 158.645 -23.9547 163.266C-29.3947 166.051 -31.0547 182.801 -30.3927 188.48C-29.7217 197.402 -24.7427 215.537 -13.4477 216.747" stroke="#547C0E" stroke-width="0.25" stroke-miterlimit="10"/>
<path d="M367.995 387.767C378.235 376.247 388.475 355.767 385.915 339.977C383.783 328.887 366.287 319.927 362.023 334.007C359.888 340.832 367.568 360.032 352.208 355.767C337.708 352.352 335.143 329.737 335.996 318.217C336.848 304.992 343.676 291.337 352.208 281.527C369.276 261.472 399.996 258.057 424.316 264.457C450.768 271.712 472.528 293.897 473.808 322.057C474.235 334.432 469.543 350.217 460.583 358.327C453.328 364.727 439.248 368.992 437.968 355.767C437.223 350.527 452.476 336.992 436.688 331.447C431.988 329.798 426.876 339.977 426.023 344.672C423.933 355.781 423.502 367.137 424.743 378.372C426.023 389.892 423.035 395.872 410.663 396.292C402.128 396.722 392.743 395.012 384.208 392.882C379.088 391.602 373.116 389.467 368.423 388.187" stroke="#547C0E" stroke-width="0.25" stroke-miterlimit="10"/>
<path d="M376.955 389.897C390.607 380.512 394.023 361.312 395.727 345.952C396.582 336.992 395.727 327.177 388.475 320.777C384.635 317.367 366.715 313.527 373.543 308.407C379.943 303.712 394.023 314.377 399.143 317.367C398.288 312.247 397.008 295.607 405.968 296.457C412.368 297.312 414.076 310.112 415.783 314.377C417.063 311.392 423.035 299.447 428.155 302.007C433.275 304.137 427.303 314.807 426.875 318.217C429.435 316.937 441.382 309.687 442.235 314.377C442.662 317.367 432.847 324.617 430.715 325.897C420.903 332.297 417.487 338.272 415.783 349.797C413.648 363.022 408.103 380.517 410.663 393.742C410.663 394.172 411.088 394.172 411.088 394.597" stroke="#547C0E" stroke-width="0.25" stroke-miterlimit="10"/>
<path d="M337.271 319.497C340.683 319.072 344.523 319.927 347.939 320.352" stroke="#547C0E" stroke-width="0.25" stroke-miterlimit="10"/>
<path d="M341.543 298.167C344.528 299.872 347.943 301.577 350.928 303.287" stroke="#547C0E" stroke-width="0.25" stroke-miterlimit="10"/>
<path d="M357.328 278.539C359.463 281.529 362.028 284.089 364.156 287.074" stroke="#547C0E" stroke-width="0.25" stroke-miterlimit="10"/>
<path d="M377.383 267.019C378.663 270.859 379.943 274.274 380.368 278.119" stroke="#547C0E" stroke-width="0.25" stroke-miterlimit="10"/>
<path d="M397.862 262.752C398.287 266.167 398.287 269.577 398.715 272.567" stroke="#547C0E" stroke-width="0.25" stroke-miterlimit="10"/>
<path d="M425.166 266.167C425.305 268.757 425.018 271.351 424.314 273.847" stroke="#547C0E" stroke-width="0.25" stroke-miterlimit="10"/>
<path d="M452.902 280.247C450.556 283.668 447.836 286.815 444.791 289.632" stroke="#547C0E" stroke-width="0.25" stroke-miterlimit="10"/>
<path d="M467.407 302.859C464.422 304.569 461.007 305.419 458.022 306.699" stroke="#547C0E" stroke-width="0.25" stroke-miterlimit="10"/>
<path d="M472.103 330.592C469.701 330.945 467.274 331.087 464.848 331.017" stroke="#547C0E" stroke-width="0.25" stroke-miterlimit="10"/>
<path d="M458.447 341.687C461.435 343.817 463.995 347.232 467.407 348.512" stroke="#547C0E" stroke-width="0.25" stroke-miterlimit="10"/>
<path d="M1512.42 527.534C1511.03 514.67 1504.08 496.758 1492.82 489.444C1484.72 484.516 1469.29 490.335 1475.64 500.926C1478.68 506.102 1494.94 512.157 1483.63 519.296C1473.33 526.387 1457.83 515.223 1451.15 508.196C1443.41 500.209 1438.77 488.264 1437.49 477.427C1434.65 455.511 1449.85 434.496 1467.55 422.991C1486.97 410.642 1513.03 409.63 1531.25 424.716C1539.18 431.428 1546.35 443.245 1546.33 453.388C1546.22 461.508 1540.93 472.662 1531.99 465.999C1528.31 463.508 1528.51 446.399 1516.15 453.081C1512.48 455.065 1515.92 463.989 1518.35 467.166C1524.08 474.73 1530.9 481.402 1538.58 486.966C1546.46 492.666 1548.49 497.897 1541.78 505.823C1537.23 511.368 1530.88 516.237 1524.74 520.341C1521.06 522.801 1516.36 525.31 1512.92 527.504" stroke="#547C0E" stroke-width="0.25" stroke-miterlimit="10"/>
<path d="M1518.79 523.166C1520.66 509.385 1510.65 496.437 1502.07 486.712C1496.99 481.131 1490.4 476.126 1482.33 477.025C1478.05 477.489 1465.56 486.459 1466.23 479.325C1466.92 472.7 1481.49 469.963 1486.23 468.468C1482.56 466.113 1471.5 457.524 1477.08 452.435C1481.22 448.94 1490.14 455.095 1493.75 456.435C1492.62 453.957 1488.57 443.51 1493.05 441.774C1497.26 439.79 1500.52 449.518 1502.4 451.712C1503.05 449.395 1505.28 437.883 1508.67 439.995C1510.77 441.418 1509.74 451.607 1509.33 453.653C1507.78 463.363 1509.57 468.853 1515.76 476.409C1522.78 485.197 1530.52 498.509 1540.19 504.377C1540.45 504.62 1540.69 504.354 1540.96 504.595" stroke="#547C0E" stroke-width="0.25" stroke-miterlimit="10"/>
<path d="M1452.66 508.123C1454.32 505.76 1457.02 503.856 1459.21 501.974" stroke="#547C0E" stroke-width="0.25" stroke-miterlimit="10"/>
<path d="M1441.82 493.439C1444.56 492.546 1447.54 491.386 1450.29 490.495" stroke="#547C0E" stroke-width="0.25" stroke-miterlimit="10"/>
<path d="M1438.52 472.557C1441.58 472.921 1444.62 472.769 1447.67 473.13" stroke="#547C0E" stroke-width="0.25" stroke-miterlimit="10"/>
<path d="M1442.67 453.598C1445.68 454.754 1448.56 456.231 1451.25 458.004" stroke="#547C0E" stroke-width="0.25" stroke-miterlimit="10"/>
<path d="M1451.57 438.468C1453.93 440.129 1456.05 442.052 1458.15 443.468" stroke="#547C0E" stroke-width="0.25" stroke-miterlimit="10"/>
<path d="M1469.09 423.431C1470.78 424.805 1472.23 426.446 1473.38 428.29" stroke="#547C0E" stroke-width="0.25" stroke-miterlimit="10"/>
<path d="M1493.48 414.128C1494.28 417.514 1494.71 420.98 1494.74 424.46" stroke="#547C0E" stroke-width="0.25" stroke-miterlimit="10"/>
<path d="M1515.71 417.865C1515.09 420.683 1513.69 423.285 1512.8 425.865" stroke="#547C0E" stroke-width="0.25" stroke-miterlimit="10"/>
<path d="M1535.59 430.588C1534.46 432.279 1533.18 433.867 1531.77 435.334" stroke="#547C0E" stroke-width="0.25" stroke-miterlimit="10"/>
<path d="M1534.79 445.333C1537.8 444.683 1541.37 445.013 1544.08 443.618" stroke="#547C0E" stroke-width="0.25" stroke-miterlimit="10"/>
<path d="M935.442 219.509C935.224 223.528 933.924 229.119 935.035 232.893C938.847 232.737 943.447 233.126 947.259 232.967C946.317 228.615 945.749 224.053 946.547 220.2C943.447 218.989 938.847 218.605 936.023 219.675" stroke="#547C0E" stroke-width="0.25" stroke-miterlimit="10"/>
<path d="M934.831 232.521C927.811 238.345 927.724 254.962 925.96 263.244C923.026 275.588 923.651 290.844 925.315 303.567C928.646 329.024 950.009 351.831 974.94 359.027C990.385 363.169 1007.99 364.168 1021.57 355.21C1030.87 349.104 1035.95 338.01 1026.65 329.986C1016.15 320.678 1000.2 318.271 989.366 310.12C977.372 301.634 971.313 288.895 964.508 276.569C958.735 266.111 954.491 255.779 948.925 245.695C946.45 241.21 944.517 235.944 945.313 232.095" stroke="#547C0E" stroke-width="0.25" stroke-miterlimit="10"/>
<path d="M1032.09 341.606C1036.21 334.942 1039.94 318.75 1039.06 310.958C1038.46 301.051 1031.69 289.679 1025.29 282.491C1009.26 264.049 984.388 249.022 962.747 238.067C958.07 235.773 952.233 233.147 947.259 232.967" stroke="#547C0E" stroke-width="0.25" stroke-miterlimit="10"/>
<path d="M1032.88 342.146C1033.28 361.415 1003.03 373.729 987.204 374.182C959.93 375.106 927.415 369.175 910.573 344.844C898.188 326.827 898.81 295.29 903.134 274.872C904.729 267.172 921.451 227.722 933.334 233.346" stroke="#547C0E" stroke-width="0.25" stroke-miterlimit="10"/>
<path d="M1028.64 345.948C996.723 349.924 949.763 336.371 939.075 303.769" stroke="#547C0E" stroke-width="0.25" stroke-miterlimit="10"/>
<path d="M941.708 232.621C939.317 244.177 942.681 256.452 944.473 267.647C946.06 278.468 949.388 289.791 954.544 299.13C960.467 310.043 968.449 319.703 978.05 327.577C989.672 336.271 998.497 337.246 1012.16 339.934C1018.13 341.027 1023.8 344.234 1030.1 344.168" stroke="#547C0E" stroke-width="0.25" stroke-miterlimit="10"/>
<path d="M1031.31 341.063C1030.88 330.577 1032.77 320.763 1028.73 310.806C1024.7 300.849 1017.72 293.495 1010.73 286.14C1001.2 276.826 991.151 268.055 980.633 259.869C972.733 253.507 962.055 249.169 954.7 242.018C951.308 238.529 949.078 235.375 944.777 232.876" stroke="#547C0E" stroke-width="0.25" stroke-miterlimit="10"/>
<path d="M1029.72 330.242C1024.32 319.577 1019.13 309.286 1010.03 301.642C997.338 290.127 985.017 278.407 972.528 267.269" stroke="#547C0E" stroke-width="0.25" stroke-miterlimit="10"/>
<path d="M1031.25 348.894C1027.28 359.367 1010.65 363.676 1000.61 365.805C987.179 368.836 973.176 367.305 959.969 361.924C946.762 356.543 933.522 350.209 925.181 337.752C917.875 327.164 915.927 312.157 913.139 300.052C908.472 279.239 916.669 250.831 929.523 233.5" stroke="#547C0E" stroke-width="0.25" stroke-miterlimit="10"/>
<path d="M1703.64 513.643C1675.05 516.631 1637.93 534.123 1628.55 563.563C1636.65 566.551 1650.31 564.418 1658.84 562.71C1670.36 561.002 1681.03 555.883 1690.42 549.482C1701.94 541.382 1708.76 525.59 1714.74 513.642V513.217C1710.9 512.79 1707.48 513.642 1703.64 513.642" stroke="#547C0E" stroke-width="0.25" stroke-miterlimit="10"/>
<path d="M1711.75 515.348C1697.25 527.296 1681.46 537.108 1664.82 546.068C1655.01 551.615 1641.78 561.428 1630.26 563.135" stroke="#547C0E" stroke-width="0.25" stroke-miterlimit="10"/>
<path d="M1636.23 555.883C1649.03 544.363 1662.69 531.563 1678.9 524.31" stroke="#547C0E" stroke-width="0.25" stroke-miterlimit="10"/>
<path d="M1664.82 553.75C1674.63 549.482 1681.03 544.363 1689.57 537.538" stroke="#547C0E" stroke-width="0.25" stroke-miterlimit="10"/>
<path d="M1685.3 526.018C1689.14 524.31 1693.41 523.03 1697.25 520.898" stroke="#547C0E" stroke-width="0.25" stroke-miterlimit="10"/>
<path d="M1743.35 524.562C1719.18 540.119 1693.94 572.47 1698.84 602.98C1707.42 601.992 1718.65 593.93 1725.49 588.559C1735 581.839 1742.22 572.459 1747.71 562.514C1754.34 550.085 1753.31 532.914 1753.25 519.56L1753.06 519.178C1749.44 520.527 1746.78 522.829 1743.35 524.562" stroke="#547C0E" stroke-width="0.25" stroke-miterlimit="10"/>
<path d="M1751.35 522.429C1743.8 539.629 1734.13 555.509 1723.32 571.013C1717.06 580.388 1709.68 595.113 1700.17 601.83" stroke="#547C0E" stroke-width="0.25" stroke-miterlimit="10"/>
<path d="M1702.23 592.662C1708.46 576.608 1714.88 559.026 1726.08 545.241" stroke="#547C0E" stroke-width="0.25" stroke-miterlimit="10"/>
<path d="M1726.78 577.868C1733.62 569.632 1737.02 562.178 1741.56 552.235" stroke="#547C0E" stroke-width="0.25" stroke-miterlimit="10"/>
<path d="M1732.56 543.879C1735.21 540.623 1738.45 537.556 1740.91 533.921" stroke="#547C0E" stroke-width="0.25" stroke-miterlimit="10"/>
<path d="M685.237 899.816C692.817 871.303 696.26 828.945 697.097 799.616C696.649 777.994 689.765 747.382 704.288 729.295C718.35 712.189 757.7 709.445 777.225 700.879C765.725 702.553 714.567 715.146 709.004 701.808C700.891 681.308 745.004 653.488 758.858 649.356C806.646 636.356 834.322 673.256 897.866 632.056C842.166 642.411 817.656 639.456 775.882 636.026C796.838 626.941 808.65 617.085 819.389 601.96C829.207 588.784 847.826 559.56 856.67 545.922C873.448 520.586 883.07 497.802 902.655 469.04C886.504 478.026 867.573 515.422 857.806 531.002C844.761 550.98 834.997 566.555 820.981 586.07C813.516 596.799 770.767 644.297 752.781 634.582C740.621 627.624 748.112 571.721 744.953 558.33C744.443 556.899 745.012 538.144 743.883 553.067C738.817 563.744 741.359 593.487 738.894 613.729C738.121 622.871 744.194 637.642 740.512 645.412C735.858 652.712 718.734 661.238 711.625 666.191C698.349 651.568 693.969 625.71 685.902 607.618C687.213 647.472 695.948 651.618 697.824 672.727C700.118 690.457 687.387 702.259 686.814 721.008C684.914 745.077 683.253 781.155 680.378 804.764C677.964 827.402 672.578 868.841 669.654 890.045" stroke="#547C0E" stroke-width="0.25" stroke-miterlimit="10"/>
<path d="M679.773 798.531C668.632 794.437 655.143 792.794 654.388 779.354C654.037 762.54 667.988 763.208 652.767 747.667C646.382 741.072 631.412 737.537 632.597 725.019C633.782 712.501 652.022 711.643 654.173 699.583C656.324 687.523 638.442 682.608 633.903 672.127C625.788 651.627 646.534 655.527 649.609 641.527C652.223 628.496 632.347 620.253 632.559 607.279C631.648 586.633 652.593 600.134 658.069 586.085C662.114 572.545 641.269 563.844 663.196 555.221C675.105 550.17 689.766 561.882 697.183 548.747C701.788 539.042 690.399 522.94 702.72 514.512C713.608 506.596 725.455 521.731 735.933 517.192C750.707 511.117 739.778 494.039 746.787 484.283C757.066 470.136 768.862 482.865 781.332 481.646C798.607 480.325 790.742 471.839 799.59 458.201C810.739 439.701 817.32 455.907 831.69 453.209C843.185 451.527 848.666 437.478 862.513 433.346C885.919 426.616 874.161 438.873 888.259 446.746C899.449 453.246 910.239 440.523 923.321 445.538C944.621 453.272 927.911 458.42 930.1 471.348C932.24 481.88 945.78 485.925 951.294 496.861C961.81 517.31 947.861 516.64 939.982 530.74C931.644 545.805 943.753 550.362 946.456 564.724C950.685 583.379 940.716 589.351 930.902 602.53C918.729 618.164 930.735 617.913 928.734 637.177C928.112 653.53 918.046 654.703 908.123 663.077C894.423 674.415 903.108 676.156 897.174 691.177C890.774 707.167 877.697 702.152 864.816 706.744C846.216 713.374 855.51 721.354 845.181 733.102C833.423 745.362 818.762 733.65 806.387 739.674C794.941 743.752 796.162 756.227 788.187 765.522C777.852 777.267 771.519 773.076 759.561 775.722C744.229 777.959 749.544 779.291 739.672 790.071C729.8 800.851 712.121 805.539 698.53 799.095" stroke="#547C0E" stroke-width="0.25" stroke-miterlimit="10"/>
<path d="M630.886 604.114C612.395 592.96 577.912 544.494 611.799 533.22C626.568 527.147 631.163 540.027 635.108 521.684C638.692 509.112 627.866 496.842 647.44 490.672C661.292 486.537 667.823 500.339 677.592 484.761C684.092 473.574 675.662 461.25 690.848 451.803C706.034 442.356 712.565 456.163 726.463 454.427C738.933 453.213 742.468 438.24 749.987 429.915C756.987 420.156 764.51 411.831 776.98 410.615C791.848 409.348 797.314 417.883 813.055 412.269C823.072 408.698 831.513 398.432 842.955 394.349C861.1 388.684 862.219 396.349 876.319 404.231C892.365 413.031 897.839 398.978 912.3 401.082C926.3 404.151 922.765 419.128 931.6 428.072C938.955 435.13 949.945 432.017 948.3 445.508C947.942 451.283 937.1 461.603 931.376 463.643" stroke="#547C0E" stroke-width="0.25" stroke-miterlimit="10"/>
<path d="M932.547 473.705C941.139 470.646 952.635 468.967 963.771 473.06C991.363 482.578 972.347 492.582 976.627 513.644C979.327 528 993.792 530.107 985.042 548.552C980.897 557.287 965.202 565.302 963.461 573.986C961.769 585.076 976.842 593.414 979.492 605.372C982.648 618.763 975.138 627.091 968.128 636.847C955.5 653.447 963.062 647.524 965.862 666.689C966.622 680.132 957.162 687.535 947.706 694.936C938.25 702.337 928.69 704.943 922.656 715.163C917.541 723.434 919.172 732.535 913.087 740.351C895.751 761.851 870.924 746.513 851.035 760.862C836.827 770.762 838.816 774.087 820.062 773.519C809.947 772.288 798.445 773.964 789.247 770.79L786.336 769.41" stroke="#547C0E" stroke-width="0.25" stroke-miterlimit="10"/>
<path d="M698.153 827.46C716.823 800.641 762.145 807.871 790.047 809.217C814.577 810.152 845.289 808.075 867.118 794.645C879.437 786.22 883.53 775.082 898.353 771.408C912.203 767.276 925.233 769.892 936.072 759.568C949.266 746.807 938.944 735.968 947.333 723.295C954.803 712.569 970.133 710.326 978.058 698.635C990.131 678.193 985.39 658.11 964.034 647.983" stroke="#547C0E" stroke-width="0.25" stroke-miterlimit="10"/>
<path d="M678.23 816.821C655.497 809.602 619.13 770.951 610.459 746.621C591.577 693.67 632.186 635.637 597.564 588.3C584.695 570.3 555.275 542.077 571.593 517.713C580.438 504.076 596.842 507.097 607.218 497.753C618.569 488.867 613.518 476.953 616.129 463.925C624.941 425.297 652.169 440.593 679.873 432.325C706.144 424.578 694.309 386.86 731.352 388.971C741.472 390.205 751.228 397.209 761.252 393.641C773.671 390.019 775.312 376.527 789.722 376.225C807.509 376.338 819.922 395.307 821.648 409.208" stroke="#547C0E" stroke-width="0.25" stroke-miterlimit="10"/>
<path d="M755.832 634.841C770.588 620.441 779.458 600.071 783.832 579.154C789.676 551.8 781.717 523.454 788.207 496.404" stroke="#547C0E" stroke-width="0.25" stroke-miterlimit="10"/>
<path d="M784.723 575.613C791.138 560.413 801.399 545.469 811.388 532.769C822.947 518.43 840.905 503.961 845.003 485.296" stroke="#547C0E" stroke-width="0.25" stroke-miterlimit="10"/>
<path d="M804.842 541.555C816.634 538.429 834.894 538.368 843.314 527.301" stroke="#547C0E" stroke-width="0.25" stroke-miterlimit="10"/>
<path d="M782.027 584.638C774.337 569.096 762.218 556.217 757.047 538.701" stroke="#547C0E" stroke-width="0.25" stroke-miterlimit="10"/>
<path d="M779.854 634.342C801.929 632.924 831.474 620.779 851.135 611.08C867.629 603.047 891.935 585.242 899.263 568.11" stroke="#547C0E" stroke-width="0.25" stroke-miterlimit="10"/>
<path d="M844.765 612.81C856.771 589.176 864.037 568.842 885.443 550.456" stroke="#547C0E" stroke-width="0.25" stroke-miterlimit="10"/>
<path d="M873.659 600.358C881.493 607.242 897.232 609.158 906.775 605.758" stroke="#547C0E" stroke-width="0.25" stroke-miterlimit="10"/>
<path d="M918.176 506.526C903.996 518.036 886.307 530.252 867.337 526.804" stroke="#547C0E" stroke-width="0.25" stroke-miterlimit="10"/>
<path d="M709.98 694.743C728.348 684.429 749.745 681.101 771.548 681.93C797.542 683.955 821.548 698.514 846.937 686.776" stroke="#547C0E" stroke-width="0.25" stroke-miterlimit="10"/>
<path d="M764.77 679.509C793.941 664.809 819.836 662.027 853.318 669.983" stroke="#547C0E" stroke-width="0.25" stroke-miterlimit="10"/>
<path d="M765.454 681.415C784.078 698.971 812.184 694.865 824.265 721.205" stroke="#547C0E" stroke-width="0.25" stroke-miterlimit="10"/>
<path d="M799.476 699.935C792.318 710.016 795.782 722.76 795.367 733.658" stroke="#547C0E" stroke-width="0.25" stroke-miterlimit="10"/>
<path d="M696.988 778.948C709.573 752.416 739.008 750.524 762.762 737.218" stroke="#547C0E" stroke-width="0.25" stroke-miterlimit="10"/>
<path d="M719.896 755.727C722.254 745.746 726.886 737.646 731.801 727.288" stroke="#547C0E" stroke-width="0.25" stroke-miterlimit="10"/>
<path d="M687.107 719.564C677.136 702.148 667.743 681.84 659.643 662.141" stroke="#547C0E" stroke-width="0.25" stroke-miterlimit="10"/>
<path d="M686.117 718.305C675.626 722.045 661.961 727.455 650.684 724.485" stroke="#547C0E" stroke-width="0.25" stroke-miterlimit="10"/>
<path d="M713.508 663.913C712.932 651.745 714.578 638.257 712.402 626.127C709.143 607.936 691.566 594.846 688.958 576.954" stroke="#547C0E" stroke-width="0.25" stroke-miterlimit="10"/>
<path d="M709.988 617.851C718.308 601.976 718.488 579.868 718.126 562.251" stroke="#547C0E" stroke-width="0.25" stroke-miterlimit="10"/>
<path d="M693.878 551.546C682.058 538.014 666.43 525.846 658.092 509.995" stroke="#547C0E" stroke-width="0.25" stroke-miterlimit="10"/>
<path d="M677.773 532.014C678.8 519.814 681.767 508.544 683.753 496.005" stroke="#547C0E" stroke-width="0.25" stroke-miterlimit="10"/>
<path d="M738.932 515.049C731.032 504.957 725.461 483.287 727.75 470.103" stroke="#547C0E" stroke-width="0.25" stroke-miterlimit="10"/>
<path d="M787.567 481.042C784.682 465.403 774.194 454.088 762.753 443.108" stroke="#547C0E" stroke-width="0.25" stroke-miterlimit="10"/>
<path d="M781.103 462.914C783.12 451.978 787.997 440.023 792.603 430.314" stroke="#547C0E" stroke-width="0.25" stroke-miterlimit="10"/>
<path d="M863.427 431.411C859.446 424.763 856.387 416.179 851.759 409.229" stroke="#547C0E" stroke-width="0.25" stroke-miterlimit="10"/>
<path d="M889.043 445.936C893.712 439.431 896.103 431.052 899.137 422.978" stroke="#547C0E" stroke-width="0.25" stroke-miterlimit="10"/>
<path d="M656.177 587.568C642.686 585.924 630.498 569.838 626.722 557.744" stroke="#547C0E" stroke-width="0.25" stroke-miterlimit="10"/>
<path d="M641.225 453.643C657.1 461.963 661.618 479.169 668.625 492.801" stroke="#547C0E" stroke-width="0.25" stroke-miterlimit="10"/>
<path d="M667.121 450.857C667.585 458.828 665.745 466.764 661.821 473.718" stroke="#547C0E" stroke-width="0.25" stroke-miterlimit="10"/>
<path d="M608.423 509.424C617.788 513.072 627.288 523.124 631.949 531.683" stroke="#547C0E" stroke-width="0.25" stroke-miterlimit="10"/>
<path d="M724.482 405.135C731.555 421.967 724.835 437.806 728.711 454.707" stroke="#547C0E" stroke-width="0.25" stroke-miterlimit="10"/>
<path d="M792.047 388.039C793.814 396.011 794.323 404.971 795.439 412.639" stroke="#547C0E" stroke-width="0.25" stroke-miterlimit="10"/>
<path d="M969.536 526.925C961.352 534.147 950.277 540.785 938.698 538.46" stroke="#547C0E" stroke-width="0.25" stroke-miterlimit="10"/>
<path d="M963.527 484.441C958.755 486.141 953.374 489.133 950.235 492.402" stroke="#547C0E" stroke-width="0.25" stroke-miterlimit="10"/>
<path d="M955.522 608.274C946.631 611.981 936.747 614.428 928.191 619.09" stroke="#547C0E" stroke-width="0.25" stroke-miterlimit="10"/>
<path d="M941.9 662.059C931.778 668.359 927.756 675.171 919.269 683.036C911.428 691.21 907.169 686.812 898.244 688.914" stroke="#547C0E" stroke-width="0.25" stroke-miterlimit="10"/>
<path d="M795.188 755.774C810.821 752.884 828.645 747.074 845.888 744.147C866.639 740.514 892.561 739.337 906.605 721.422" stroke="#547C0E" stroke-width="0.25" stroke-miterlimit="10"/>
<path d="M873.313 738.129C873.726 730.3 875.984 722.679 879.902 715.888" stroke="#547C0E" stroke-width="0.25" stroke-miterlimit="10"/>
<path d="M731.318 796.825C751.826 797.037 767.578 783.892 788.491 788.267C812.949 793.528 833.421 792.143 855.609 780.467" stroke="#547C0E" stroke-width="0.25" stroke-miterlimit="10"/>
<path d="M658.873 764.042C635.198 765.491 614.736 736.765 615.258 715.609C615.578 699.903 629.888 694.796 626.043 679.503C621.522 662.295 617.203 654.694 628.723 638.755" stroke="#547C0E" stroke-width="0.25" stroke-miterlimit="10"/>
<path d="M394.88 666.413C399.145 675.8 403.412 687.746 399.145 697.986C394.025 713.346 372.692 714.201 360.745 723.586C324.905 751.746 334.293 816.601 374.4 837.081C418.772 859.266 499.84 857.561 533.12 814.041C554.452 785.026 545.065 740.654 527.145 713.346C509.225 687.746 482.772 680.921 453.76 688.601C440.96 691.161 429.012 698.841 418.772 687.746C412.8 681.774 410.24 668.121 407.68 661.294C403.412 662.146 399.145 662.146 395.732 663.854" stroke="#547C0E" stroke-width="0.25" stroke-miterlimit="10"/>
<path d="M403.408 674.093C407.676 686.893 415.356 701.401 410.236 715.053C405.116 732.973 394.022 745.773 392.317 766.253C389.757 798.68 409.382 833.665 440.102 844.76" stroke="#547C0E" stroke-width="0.25" stroke-miterlimit="10"/>
<path d="M421.328 706.521C446.928 744.066 486.18 785.881 483.621 836.226" stroke="#547C0E" stroke-width="0.25" stroke-miterlimit="10"/>
<path d="M419.62 734.681C414.5 769.666 429.86 808.066 451.195 834.521" stroke="#547C0E" stroke-width="0.25" stroke-miterlimit="10"/>
<path d="M435.831 761.133C444.363 773.081 449.483 788.441 452.043 802.946" stroke="#547C0E" stroke-width="0.25" stroke-miterlimit="10"/>
<path d="M438.392 705.666C469.112 723.586 488.737 740.654 499.832 775.641C504.097 789.294 509.217 806.361 504.952 820.866" stroke="#547C0E" stroke-width="0.25" stroke-miterlimit="10"/>
<path d="M450.34 700.546C480.207 699.693 506.66 714.201 521.167 740.653C531.407 760.28 528.847 780.76 528.847 801.241" stroke="#547C0E" stroke-width="0.25" stroke-miterlimit="10"/>
<path d="M493.008 731.266C501.54 739.801 507.516 750.041 508.368 761.986" stroke="#547C0E" stroke-width="0.25" stroke-miterlimit="10"/>
<path d="M453.751 728.706C463.136 738.946 470.816 750.894 477.643 762.841" stroke="#547C0E" stroke-width="0.25" stroke-miterlimit="10"/>
<path d="M490.448 791.853C493.008 799.533 495.568 806.361 494.716 814.893" stroke="#547C0E" stroke-width="0.25" stroke-miterlimit="10"/>
<path d="M466.551 820.013C469.111 826.84 470.816 833.665 473.376 840.493" stroke="#547C0E" stroke-width="0.25" stroke-miterlimit="10"/>
<path d="M389.756 720.173C376.956 739.8 366.716 751.746 368.421 776.493C369.276 797.826 379.521 816.6 395.728 831.106" stroke="#547C0E" stroke-width="0.25" stroke-miterlimit="10"/>
<path d="M358.18 748.333C353.06 764.546 347.94 779.906 356.48 796.973" stroke="#547C0E" stroke-width="0.25" stroke-miterlimit="10"/>
<path d="M1553.37 615.582C1552.75 625.876 1550.93 638.43 1542.37 645.482C1530.66 656.662 1511.41 647.44 1496.46 650.146C1451.61 658.271 1429.57 719.985 1455.44 756.846C1484.28 797.21 1556.73 833.623 1606.51 810.724C1638.93 795.057 1651.39 751.447 1648.32 718.924C1644.46 687.914 1624.27 669.511 1595.03 662.724C1582.53 658.999 1568.37 660.2 1564.51 645.605C1562.02 637.531 1566.15 624.267 1567.08 617.035C1562.91 615.791 1559.14 613.796 1555.32 613.71" stroke="#547C0E" stroke-width="0.25" stroke-miterlimit="10"/>
<path d="M1557.32 626.362C1555.11 639.672 1555.11 656.089 1544.2 665.762C1531.29 679.205 1515.5 685.328 1504.41 702.631C1486.98 730.097 1487.96 770.2 1509.92 794.374" stroke="#547C0E" stroke-width="0.25" stroke-miterlimit="10"/>
<path d="M1557.99 663.406C1563.06 708.567 1578.19 763.886 1552.38 807.186" stroke="#547C0E" stroke-width="0.25" stroke-miterlimit="10"/>
<path d="M1543.31 687.498C1522.42 716.027 1518.03 757.151 1524.52 790.51" stroke="#547C0E" stroke-width="0.25" stroke-miterlimit="10"/>
<path d="M1545.27 718.464C1547.22 733.013 1544.57 748.987 1540.04 763.003" stroke="#547C0E" stroke-width="0.25" stroke-miterlimit="10"/>
<path d="M1573.48 670.635C1592.25 700.843 1601.61 725.107 1595.05 761.221C1592.44 775.283 1588.98 792.763 1578.43 803.589" stroke="#547C0E" stroke-width="0.25" stroke-miterlimit="10"/>
<path d="M1586.43 671.695C1613.23 684.912 1629.82 710.108 1630.27 740.275C1630.14 762.414 1618.3 779.315 1608.72 797.419" stroke="#547C0E" stroke-width="0.25" stroke-miterlimit="10"/>
<path d="M1609.77 718.806C1613.32 730.339 1613.81 742.184 1608.98 753.143" stroke="#547C0E" stroke-width="0.25" stroke-miterlimit="10"/>
<path d="M1576.27 698.183C1579.78 711.623 1580.98 725.775 1581.43 739.53" stroke="#547C0E" stroke-width="0.25" stroke-miterlimit="10"/>
<path d="M1579.17 771.161C1577.84 779.146 1576.91 786.378 1572.17 793.52" stroke="#547C0E" stroke-width="0.25" stroke-miterlimit="10"/>
<path d="M1544.88 784.872C1543.95 792.104 1542.26 798.934 1541.33 806.172" stroke="#547C0E" stroke-width="0.25" stroke-miterlimit="10"/>
<path d="M1523.7 660.705C1503.2 672.067 1488.56 677.837 1478.5 700.505C1469.27 719.761 1469.54 741.145 1477.09 761.548" stroke="#547C0E" stroke-width="0.25" stroke-miterlimit="10"/>
<path d="M1482.62 670.824C1470.51 682.761 1458.8 693.943 1458.36 713.024" stroke="#547C0E" stroke-width="0.25" stroke-miterlimit="10"/>
<path d="M-60.4932 816.236C-39.1582 775.276 -13.5581 734.316 9.48187 694.208C35.0819 649.835 64.9468 604.608 79.4548 555.968C82.8668 544.02 83.7219 531.22 87.9869 520.128C95.6669 522.688 103.347 527.808 111.887 529.515C111.887 548.287 97.3799 575.595 91.4069 593.515C82.0189 620.815 70.0718 643.86 55.5668 667.755C24.8468 717.247 -5.02113 768.447 -41.7131 814.527C-46.8331 820.499 -51.1002 828.18 -57.9282 817.939" stroke="#547C0E" stroke-width="0.25" stroke-miterlimit="10"/>
<path d="M88.8415 520.982C87.9865 507.33 92.2545 492.822 98.2265 480.882C105.907 489.415 102.495 516.722 102.495 526.107" stroke="#547C0E" stroke-width="0.25" stroke-miterlimit="10"/>
<path d="M102.495 526.102C105.907 514.157 115.295 494.529 126.387 490.262C128.947 499.65 121.372 528.022 111.987 531.435" stroke="#547C0E" stroke-width="0.25" stroke-miterlimit="10"/>
<path d="M102.495 486.853C105.907 480.88 115.295 462.96 121.267 470.64C123.827 474.053 120.415 488.56 120.415 493.68" stroke="#547C0E" stroke-width="0.25" stroke-miterlimit="10"/>
<path d="M99.082 480.022C99.082 469.782 105.907 457.837 112.735 451.01C117.002 454.422 117.855 459.542 117.855 465.518" stroke="#547C0E" stroke-width="0.25" stroke-miterlimit="10"/>
<path d="M118.707 468.077C122.975 462.102 128.095 456.129 134.067 451.862C136.627 462.102 134.067 481.729 127.242 489.41" stroke="#547C0E" stroke-width="0.25" stroke-miterlimit="10"/>
<path d="M116.146 451.862C120.411 445.037 124.682 439.062 131.507 435.649C131.497 442.555 130.637 449.433 128.947 456.129" stroke="#547C0E" stroke-width="0.25" stroke-miterlimit="10"/>
<path d="M87.9864 522.689C82.8664 511.596 86.2864 457.837 97.3744 482.582" stroke="#547C0E" stroke-width="0.25" stroke-miterlimit="10"/>
<path d="M112.734 531.222C126.386 526.957 140.894 509.037 140.894 493.677C135.83 492.687 130.693 492.115 125.534 491.969" stroke="#547C0E" stroke-width="0.25" stroke-miterlimit="10"/>
<path d="M96.5219 480.877C93.1069 462.957 101.642 417.73 116.147 451.862" stroke="#547C0E" stroke-width="0.25" stroke-miterlimit="10"/>
<path d="M128.947 491.969C140.895 484.289 147.722 468.077 151.987 455.277C146.015 455.277 140.042 456.977 134.922 458.689" stroke="#547C0E" stroke-width="0.25" stroke-miterlimit="10"/>
<path d="M115.295 448.449C113.587 429.676 139.187 401.517 131.507 437.356" stroke="#547C0E" stroke-width="0.25" stroke-miterlimit="10"/>
<path d="M130.655 437.357C135.775 433.942 140.043 429.677 146.015 427.117C146.867 436.502 144.627 448.234 142.067 455.917" stroke="#547C0E" stroke-width="0.25" stroke-miterlimit="10"/>
<path d="M131.507 418.582C134.067 414.317 136.627 410.05 140.042 406.637H141.742C142.597 412.609 142.597 422.85 142.597 427.117" stroke="#547C0E" stroke-width="0.25" stroke-miterlimit="10"/>
<path d="M84.1466 539.115C87.3466 540.715 91.1866 541.995 93.4266 544.235C89.5866 546.475 85.1066 549.355 81.2666 551.915" stroke="#547C0E" stroke-width="0.25" stroke-miterlimit="10"/>
<path d="M94.7072 581.355C93.4272 578.475 88.3071 571.435 90.5471 568.875C91.8271 567.275 99.5071 568.235 101.427 568.235" stroke="#547C0E" stroke-width="0.25" stroke-miterlimit="10"/>
<path d="M60.7861 603.755C64.6261 605.675 70.3861 605.355 74.5461 604.715C73.5861 600.875 69.4261 596.395 68.1461 593.195" stroke="#547C0E" stroke-width="0.25" stroke-miterlimit="10"/>
<path d="M76.7829 627.435C73.2629 620.395 71.3429 615.275 80.9429 615.595" stroke="#547C0E" stroke-width="0.25" stroke-miterlimit="10"/>
<path d="M38.0664 647.275C42.2107 649.125 46.6558 650.209 51.1864 650.475C52.1464 646.635 47.0264 638.635 44.7864 635.115" stroke="#547C0E" stroke-width="0.25" stroke-miterlimit="10"/>
<path d="M49.5872 675.431C48.6272 672.871 44.7872 666.151 46.3872 663.591C47.9872 661.351 55.3472 661.991 57.5872 662.631" stroke="#547C0E" stroke-width="0.25" stroke-miterlimit="10"/>
<path d="M9.2666 696.559C12.7866 698.479 21.1066 699.759 21.7466 695.599C22.0666 692.719 17.9067 687.279 16.9467 684.399" stroke="#547C0E" stroke-width="0.25" stroke-miterlimit="10"/>
<path d="M12.1471 736.874C10.2271 734.954 5.10707 727.274 7.02707 725.034C8.30707 723.754 16.6271 725.354 18.2271 725.674" stroke="#547C0E" stroke-width="0.25" stroke-miterlimit="10"/>
<path d="M-139 787.222C-117.667 746.262 -92.068 705.302 -69.027 665.195C-43.427 620.822 -13.559 575.595 0.947998 526.955C4.36 515.007 5.21302 502.207 9.48102 491.115C17.161 493.675 24.841 498.795 33.373 500.502C33.373 519.275 18.868 546.582 12.893 564.502C3.50801 591.807 -8.43996 614.847 -22.947 638.742C-53.667 688.235 -83.532 739.435 -120.227 785.514C-125.347 791.487 -129.612 799.167 -136.44 788.927" stroke="#547C0E" stroke-width="0.25" stroke-miterlimit="10"/>
<path d="M10.332 491.967C9.48004 478.314 13.747 463.807 19.72 451.867C27.4 460.399 23.9871 487.707 23.9871 497.092" stroke="#547C0E" stroke-width="0.25" stroke-miterlimit="10"/>
<path d="M23.9883 497.087C27.4003 485.142 36.7883 465.514 47.8803 461.247C50.4403 470.634 42.8683 499.007 33.4803 502.419" stroke="#547C0E" stroke-width="0.25" stroke-miterlimit="10"/>
<path d="M23.9883 457.834C27.4003 451.861 36.7883 433.941 42.7603 441.621C45.3203 445.033 41.9083 459.541 41.9083 464.661" stroke="#547C0E" stroke-width="0.25" stroke-miterlimit="10"/>
<path d="M20.5732 451.008C20.5732 440.768 27.4013 428.823 34.2283 421.995C38.4933 425.408 39.3483 430.528 39.3483 436.503" stroke="#547C0E" stroke-width="0.25" stroke-miterlimit="10"/>
<path d="M40.2002 439.062C44.4672 433.087 49.5872 427.114 55.5602 422.847C58.1202 433.087 55.5602 452.715 48.7322 460.394" stroke="#547C0E" stroke-width="0.25" stroke-miterlimit="10"/>
<path d="M37.6396 422.847C41.9076 416.022 46.1716 410.047 52.9996 406.634C52.9902 413.54 52.1304 420.418 50.4396 427.114" stroke="#547C0E" stroke-width="0.25" stroke-miterlimit="10"/>
<path d="M9.48018 493.674C4.36018 482.581 7.77214 428.821 18.8671 453.566" stroke="#547C0E" stroke-width="0.25" stroke-miterlimit="10"/>
<path d="M34.2275 502.207C47.8795 497.942 62.3876 480.022 62.3876 464.662C57.3232 463.671 52.1858 463.1 47.0276 462.954" stroke="#547C0E" stroke-width="0.25" stroke-miterlimit="10"/>
<path d="M18.0131 451.862C14.6011 433.942 23.133 388.715 37.64 422.847" stroke="#547C0E" stroke-width="0.25" stroke-miterlimit="10"/>
<path d="M50.4404 462.959C62.3884 455.279 69.2125 439.066 73.4805 426.266C67.5085 426.266 61.5335 427.966 56.4125 429.678" stroke="#547C0E" stroke-width="0.25" stroke-miterlimit="10"/>
<path d="M36.7881 419.434C35.0801 400.662 60.6801 372.502 53.0001 408.341" stroke="#547C0E" stroke-width="0.25" stroke-miterlimit="10"/>
<path d="M52.1484 408.342C57.2684 404.927 61.5335 400.662 67.5085 398.102C68.3605 407.487 66.1205 419.22 63.5605 426.902" stroke="#547C0E" stroke-width="0.25" stroke-miterlimit="10"/>
<path d="M53 389.567C55.56 385.302 58.12 381.035 61.533 377.622H63.241C64.094 383.595 64.094 393.835 64.094 398.102" stroke="#547C0E" stroke-width="0.25" stroke-miterlimit="10"/>
<path d="M5.63977 510.1C8.83977 511.7 12.6798 512.98 14.9198 515.22C11.0798 517.46 6.59977 520.34 2.75977 522.9" stroke="#547C0E" stroke-width="0.25" stroke-miterlimit="10"/>
<path d="M16.2003 552.34C14.9203 549.46 9.8003 542.42 12.0403 539.86C13.3203 538.26 21.0003 539.22 22.9203 539.22" stroke="#547C0E" stroke-width="0.25" stroke-miterlimit="10"/>
<path d="M-1.72003 598.419C-5.24003 591.379 -7.16 586.259 2.44 586.579" stroke="#547C0E" stroke-width="0.25" stroke-miterlimit="10"/>
<path d="M-46.8604 849.572C-19.6934 812.224 11.6917 775.509 40.4227 739.259C72.3127 699.169 108.552 658.865 130.107 612.91C135.253 601.6 137.992 589.071 143.854 578.732C151.071 582.4 157.906 588.603 166.093 591.558C163.313 610.121 144.919 634.978 136.356 651.818C123.026 677.428 107.799 698.443 89.9117 719.927C52.1957 764.327 15.0757 810.527 -28.0403 850.664C-33.9893 855.812 -39.3473 862.778 -44.5833 851.637" stroke="#547C0E" stroke-width="0.25" stroke-miterlimit="10"/>
<path d="M144.571 579.704C145.751 566.075 152.123 552.361 159.798 541.432C166.126 551.009 158.707 577.507 157.317 586.79" stroke="#547C0E" stroke-width="0.25" stroke-miterlimit="10"/>
<path d="M157.317 586.79C162.463 575.483 174.651 557.463 186.258 554.885C187.397 564.549 175.703 591.485 165.914 593.472" stroke="#547C0E" stroke-width="0.25" stroke-miterlimit="10"/>
<path d="M163.132 547.97C167.392 542.57 179.332 526.238 184.104 534.717C186.129 538.473 180.604 552.317 179.844 557.378" stroke="#547C0E" stroke-width="0.25" stroke-miterlimit="10"/>
<path d="M160.769 540.713C162.287 530.586 170.807 519.785 178.569 514.043C182.279 518.052 182.369 523.243 181.48 529.152" stroke="#547C0E" stroke-width="0.25" stroke-miterlimit="10"/>
<path d="M181.947 531.809C187.047 526.53 193.001 521.382 199.542 518.049C200.558 528.549 195.118 547.586 187.228 554.171" stroke="#547C0E" stroke-width="0.25" stroke-miterlimit="10"/>
<path d="M181.816 515.391C187.049 509.273 192.153 503.991 199.411 501.633C198.379 508.461 196.51 515.135 193.845 521.506" stroke="#547C0E" stroke-width="0.25" stroke-miterlimit="10"/>
<path d="M143.475 581.266C140.057 569.539 151.396 516.877 158.702 542.994" stroke="#547C0E" stroke-width="0.25" stroke-miterlimit="10"/>
<path d="M166.688 593.372C180.821 591.172 197.823 575.603 200.099 560.414C195.237 558.683 190.241 557.356 185.161 556.448" stroke="#547C0E" stroke-width="0.25" stroke-miterlimit="10"/>
<path d="M158.112 541.179C157.39 522.952 172.53 479.488 181.818 515.395" stroke="#547C0E" stroke-width="0.25" stroke-miterlimit="10"/>
<path d="M188.532 556.954C201.486 551.13 210.64 536.105 216.756 524.081C210.85 523.195 204.688 523.997 199.371 524.926" stroke="#547C0E" stroke-width="0.25" stroke-miterlimit="10"/>
<path d="M181.481 511.89C182.574 493.074 212.065 469.018 199.158 503.324" stroke="#547C0E" stroke-width="0.25" stroke-miterlimit="10"/>
<path d="M198.318 503.198C203.883 500.576 208.737 496.993 215.018 495.346C214.473 504.752 210.518 516.026 206.849 523.24" stroke="#547C0E" stroke-width="0.25" stroke-miterlimit="10"/>
<path d="M201.943 484.756C205.102 480.919 208.266 477.076 212.15 474.209L212.995 474.334L213.837 474.459C213.796 480.493 212.28 490.62 211.648 494.839" stroke="#547C0E" stroke-width="0.25" stroke-miterlimit="10"/>
<path d="M137.242 596.94C140.173 598.998 143.78 600.831 145.662 603.378C141.533 605.024 136.676 607.21 132.501 609.171" stroke="#547C0E" stroke-width="0.25" stroke-miterlimit="10"/>
<path d="M141.428 640.279C140.591 637.24 136.569 629.522 139.163 627.32C140.668 625.927 148.12 628.02 150.017 628.3" stroke="#547C0E" stroke-width="0.25" stroke-miterlimit="10"/>
<path d="M104.564 657.406C108.076 659.874 113.821 660.411 118.027 660.394C117.648 656.454 114.197 651.408 113.406 648.055" stroke="#547C0E" stroke-width="0.25" stroke-miterlimit="10"/>
<path d="M116.879 683.195C114.442 675.712 113.303 670.364 122.746 672.102" stroke="#547C0E" stroke-width="0.25" stroke-miterlimit="10"/>
<path d="M75.6484 697.077C79.4719 699.522 83.7071 701.253 88.1484 702.187C89.6694 698.534 85.7904 689.863 84.0964 686.049" stroke="#547C0E" stroke-width="0.25" stroke-miterlimit="10"/>
<path d="M82.8634 726.636C82.2924 723.961 79.4924 716.747 81.4524 714.45C83.3674 712.474 90.5524 714.199 92.6724 715.162" stroke="#547C0E" stroke-width="0.25" stroke-miterlimit="10"/>
<path d="M39.8623 741.552C43.0623 743.974 51.0983 746.472 52.3473 742.452C53.0923 739.652 49.7823 733.652 49.2603 730.663" stroke="#547C0E" stroke-width="0.25" stroke-miterlimit="10"/>
<path d="M36.7366 781.852C35.1236 779.666 31.1966 771.312 33.4266 769.38C34.8836 768.307 42.8756 771.121 44.4096 771.674" stroke="#547C0E" stroke-width="0.25" stroke-miterlimit="10"/>
<path d="M503.032 590.041C494.712 593.881 485.112 603.481 481.272 611.801C475.512 622.681 479.992 634.841 494.072 629.081C503.672 625.241 520.952 597.081 504.312 590.681" stroke="#547C0E" stroke-width="0.25" stroke-miterlimit="10"/>
<path d="M504.955 591.321C503.035 598.361 498.555 605.401 494.715 611.801" stroke="#547C0E" stroke-width="0.25" stroke-miterlimit="10"/>
<path d="M526.074 600.921C527.354 610.521 534.394 660.441 550.394 634.841C558.714 621.401 542.714 597.081 527.354 600.281" stroke="#547C0E" stroke-width="0.25" stroke-miterlimit="10"/>
<path d="M528.635 600.921C532.475 606.681 535.035 613.081 538.235 619.481" stroke="#547C0E" stroke-width="0.25" stroke-miterlimit="10"/>
<path d="M510.714 633.561C506.234 639.321 501.754 645.721 499.834 652.761C497.274 662.361 501.114 680.921 512.634 670.041C521.594 661.081 517.754 641.881 511.354 634.201" stroke="#547C0E" stroke-width="0.25" stroke-miterlimit="10"/>
<path d="M510.714 635.481C510.714 641.241 510.074 647.001 510.074 653.401" stroke="#547C0E" stroke-width="0.25" stroke-miterlimit="10"/>
<path d="M188.562 330.245C197.562 331.97 210.954 329.756 218.921 325.227C229.939 319.736 233.38 307.243 218.578 303.727C208.538 301.259 178.092 314.09 187.891 328.981" stroke="#547C0E" stroke-width="0.25" stroke-miterlimit="10"/>
<path d="M187.746 328.09C193.406 323.485 201.146 320.369 207.996 317.402" stroke="#547C0E" stroke-width="0.25" stroke-miterlimit="10"/>
<path d="M176.165 307.986C180.717 299.436 204.065 254.753 176.147 266.248C161.558 272.328 160.403 301.42 174.747 307.761" stroke="#547C0E" stroke-width="0.25" stroke-miterlimit="10"/>
<path d="M174.086 306.496C174.319 299.576 175.963 292.884 177.086 285.816" stroke="#547C0E" stroke-width="0.25" stroke-miterlimit="10"/>
<path d="M207.661 290.4C214.655 288.324 222.025 285.731 227.685 281.125C235.357 274.812 243.042 257.486 227.342 259.625C214.842 261.694 206.782 279.539 207.511 289.508" stroke="#547C0E" stroke-width="0.25" stroke-miterlimit="10"/>
<path d="M208.779 288.834C212.133 284.149 216.008 279.841 219.733 274.634" stroke="#547C0E" stroke-width="0.25" stroke-miterlimit="10"/>
<path d="M1488.93 265.858C1491.52 257.064 1490.61 243.522 1486.87 235.158C1482.47 223.658 1470.37 219.028 1465.44 233.42C1462.01 243.176 1471.84 274.72 1487.61 266.406" stroke="#547C0E" stroke-width="0.25" stroke-miterlimit="10"/>
<path d="M1486.7 266.462C1482.67 260.382 1480.32 252.374 1478.03 245.273" stroke="#547C0E" stroke-width="0.25" stroke-miterlimit="10"/>
<path d="M1465.58 276.042C1457.51 270.689 1415.29 243.131 1424.03 272.026C1428.68 287.135 1457.52 291.098 1465.22 277.426" stroke="#547C0E" stroke-width="0.25" stroke-miterlimit="10"/>
<path d="M1463.89 277.969C1457.03 277.069 1450.53 274.784 1443.6 272.98" stroke="#547C0E" stroke-width="0.25" stroke-miterlimit="10"/>
<path d="M1451.12 242.995C1449.73 235.832 1447.86 228.247 1443.82 222.169C1438.28 213.921 1421.78 204.595 1422.39 220.428C1423.24 233.072 1440.22 242.818 1450.21 243.056" stroke="#547C0E" stroke-width="0.25" stroke-miterlimit="10"/>
<path d="M1449.67 241.73C1445.34 237.941 1441.42 233.666 1436.6 229.455" stroke="#547C0E" stroke-width="0.25" stroke-miterlimit="10"/>
<path d="M1846.4 406.971C1846.4 356.623 1837.01 310.544 1802.88 272.143C1761.06 223.503 1701.33 197.903 1657.81 151.823C1650.13 144.143 1637.33 130.49 1636.48 120.25C1644.16 121.958 1649.28 133.05 1654.4 139.022C1662.08 148.41 1671.46 156.942 1681.7 165.475C1696.2 176.575 1726.07 199.61 1744.84 201.315C1747.4 173.155 1738.87 90.3832 1750.82 100.622C1757.64 101.477 1749.96 151.822 1753.38 202.169C1762.76 216.676 1785.8 234.594 1799.46 246.541C1819.94 264.461 1833.59 283.234 1844.68 307.981C1859.19 340.408 1859.19 370.273 1863.46 404.408C1858.34 406.108 1851.51 406.968 1847.24 405.26" stroke="#547C0E" stroke-width="0.25" stroke-miterlimit="10"/>
<path d="M1744.85 182.543C1713.28 177.423 1687.68 130.491 1700.48 102.331C1704.74 92.0912 1714.98 85.2632 1717.54 74.1712C1719.25 64.7832 1717.54 53.6912 1717.54 44.3032C1717.54 17.0032 1739.73 -7.74885 1769.6 3.34315C1795.2 12.7301 1794.34 38.3312 1791.78 59.6632C1789.22 87.8232 1813.97 91.2382 1815.68 117.691C1817.39 138.171 1806.29 162.916 1788.37 174.011C1777.28 180.836 1765.33 179.131 1754.24 182.543" stroke="#547C0E" stroke-width="0.25" stroke-miterlimit="10"/>
<path d="M1745.7 162.915C1730.34 155.235 1720.1 134.758 1712.42 120.25" stroke="#547C0E" stroke-width="0.25" stroke-miterlimit="10"/>
<path d="M1753.38 156.943C1767.03 145.85 1783.25 128.783 1780.69 110.011" stroke="#547C0E" stroke-width="0.25" stroke-miterlimit="10"/>
<path d="M1749.11 100.622C1747.41 75.0222 1758.5 48.5701 1752.53 22.9701" stroke="#547C0E" stroke-width="0.25" stroke-miterlimit="10"/>
<path d="M1751.67 98.9181C1758.5 80.1431 1779.83 67.3431 1775.56 44.3031" stroke="#547C0E" stroke-width="0.25" stroke-miterlimit="10"/>
<path d="M1746.56 98.9182C1732.05 92.0902 1731.2 73.3181 1731.2 59.6631" stroke="#547C0E" stroke-width="0.25" stroke-miterlimit="10"/>
<path d="M1722.66 99.7701C1727.78 108.302 1734.61 113.422 1742.29 120.25" stroke="#547C0E" stroke-width="0.25" stroke-miterlimit="10"/>
<path d="M1755.94 123.663C1764.48 117.691 1771.3 107.451 1777.28 98.9181" stroke="#547C0E" stroke-width="0.25" stroke-miterlimit="10"/>
<path d="M1755.94 155.235C1764.48 159.503 1784.96 160.355 1792.64 151.823" stroke="#547C0E" stroke-width="0.25" stroke-miterlimit="10"/>
<path d="M1777.27 133.904C1784.95 135.612 1795.19 135.612 1801.16 129.639" stroke="#547C0E" stroke-width="0.25" stroke-miterlimit="10"/>
<path d="M1703.04 191.93C1692.8 199.61 1671.46 198.755 1658.66 196.195C1646.72 193.635 1627.94 187.662 1619.41 179.13C1608.31 168.035 1613.44 162.062 1615.14 149.263C1618.56 121.958 1580.16 121.103 1576.74 92.9432C1573.33 66.4902 1594.66 40.0382 1621.97 40.8912C1651.84 41.7442 1642.45 82.7042 1675.73 81.8512C1690.24 81.8512 1698.77 73.3192 1703.04 93.7992" stroke="#547C0E" stroke-width="0.25" stroke-miterlimit="10"/>
<path d="M1609.17 75.0231C1640.74 80.9981 1666.34 112.57 1661.22 144.143" stroke="#547C0E" stroke-width="0.25" stroke-miterlimit="10"/>
<path d="M1604.05 92.9431C1616.33 100.141 1627.29 109.375 1636.47 120.25" stroke="#547C0E" stroke-width="0.25" stroke-miterlimit="10"/>
<path d="M1625.38 147.558C1633.06 153.531 1647.57 155.235 1656.1 152.678" stroke="#547C0E" stroke-width="0.25" stroke-miterlimit="10"/>
<path d="M1632.21 173.155C1645.86 178.275 1668.9 182.542 1681.7 174.863" stroke="#547C0E" stroke-width="0.25" stroke-miterlimit="10"/>
<path d="M1680.85 101.478C1691.09 118.543 1691.09 146.703 1680.85 161.21" stroke="#547C0E" stroke-width="0.25" stroke-miterlimit="10"/>
<path d="M1674.02 121.958C1676.58 128.783 1681.7 133.051 1686.82 137.318" stroke="#547C0E" stroke-width="0.25" stroke-miterlimit="10"/>
<path d="M1627.94 98.0631C1635.62 99.7711 1643.3 102.331 1650.98 103.183" stroke="#547C0E" stroke-width="0.25" stroke-miterlimit="10"/>
<path d="M1604.9 112.57H1628.8" stroke="#547C0E" stroke-width="0.25" stroke-miterlimit="10"/>
<path d="M172.611 812.846C210.166 788.395 239.98 759.014 252.048 714.903C268.022 660.088 258.11 603.098 271.348 548.255C273.348 538.796 277.315 522.619 284.537 517.008C286.995 523.567 281.206 532.775 279.237 539.495C275.963 549.784 274.155 560.927 272.765 572.708C271.531 588.918 268.851 622.387 276.697 637.218C298.943 625.455 356.546 578.888 354.708 592.774C357.386 598.283 316.101 617.002 280.208 644C273.944 658.047 271.765 683.936 269.484 699.926C266.064 723.903 258.694 743.208 245.62 763.501C228.476 790.069 206.199 804.576 182.805 824.334C179.047 821.344 175.094 816.667 174.298 812.655" stroke="#547C0E" stroke-width="0.25" stroke-miterlimit="10"/>
<path d="M290.702 628.1C279.19 602.062 301.766 560.173 328.99 556.044C338.7 554.255 348.763 558.579 358.281 555.099C366.115 551.812 373.559 545.153 380.561 540.592C400.931 527.331 430.166 531.865 436.397 559.531C441.829 583.188 422.317 594.982 405.16 603.431C382.911 615.197 392.383 635.316 373.478 649.437C359.029 660.655 335.178 664.4 318.205 656.421C307.727 651.462 303.196 641.721 295.265 635.101" stroke="#547C0E" stroke-width="0.25" stroke-miterlimit="10"/>
<path d="M305.758 619.204C304.03 604.018 314.334 586.433 321.42 573.656" stroke="#547C0E" stroke-width="0.25" stroke-miterlimit="10"/>
<path d="M313.946 622.035C328.846 626.835 349.456 630.635 362.215 619.611" stroke="#547C0E" stroke-width="0.25" stroke-miterlimit="10"/>
<path d="M353.886 591.497C372.152 577.797 397.27 573.219 413.467 556.333" stroke="#547C0E" stroke-width="0.25" stroke-miterlimit="10"/>
<path d="M356.401 592.58C373.717 588.556 393.629 598.253 408.743 583.88" stroke="#547C0E" stroke-width="0.25" stroke-miterlimit="10"/>
<path d="M353.915 588.761C351.959 574.625 365.55 564.871 375.734 558.24" stroke="#547C0E" stroke-width="0.25" stroke-miterlimit="10"/>
<path d="M341.674 571.35C337.793 579.314 337.291 586.894 335.927 595.936" stroke="#547C0E" stroke-width="0.25" stroke-miterlimit="10"/>
<path d="M340.01 607.779C348.61 611.245 359.566 611.366 368.833 611.679" stroke="#547C0E" stroke-width="0.25" stroke-miterlimit="10"/>
<path d="M316.46 623.115C317.423 631.558 326.733 647.245 336.827 648.83" stroke="#547C0E" stroke-width="0.25" stroke-miterlimit="10"/>
<path d="M342.736 628.669C345.193 635.225 350.163 642.869 357.522 644.418" stroke="#547C0E" stroke-width="0.25" stroke-miterlimit="10"/>
<path d="M263.393 601.471C252.693 597.562 242.969 581.232 238.658 570.441C234.769 560.288 230.108 543.382 232.327 532.873C235.215 519.21 242.16 520.127 252.533 515.183C274.562 504.467 256.55 475.408 275.896 459.183C293.969 443.793 324.069 446.86 336.689 467.645C350.559 490.337 315.446 503.229 332.245 527.645C339.29 538.466 349.801 540.686 336.597 553.816" stroke="#547C0E" stroke-width="0.25" stroke-miterlimit="10"/>
<path d="M305.014 474.672C315.892 501.124 304.773 535.557 278.733 547.072" stroke="#547C0E" stroke-width="0.25" stroke-miterlimit="10"/>
<path d="M289.16 479.556C289.755 492.211 288.191 504.875 284.537 517.006" stroke="#547C0E" stroke-width="0.25" stroke-miterlimit="10"/>
<path d="M258.783 521.995C258.056 530.627 263.829 542.275 269.883 547.395" stroke="#547C0E" stroke-width="0.25" stroke-miterlimit="10"/>
<path d="M243.003 539.517C245.811 552.192 253.819 571.451 265.764 577.267" stroke="#547C0E" stroke-width="0.25" stroke-miterlimit="10"/>
<path d="M320.093 540.991C312.336 556.917 291.331 570.591 275.536 570.001" stroke="#547C0E" stroke-width="0.25" stroke-miterlimit="10"/>
<path d="M301.499 545.842C297.649 551.067 296.955 556.96 296.256 562.851" stroke="#547C0E" stroke-width="0.25" stroke-miterlimit="10"/>
<path d="M296.943 499.865C299.401 506.426 301.221 513.395 304.313 519.541" stroke="#547C0E" stroke-width="0.25" stroke-miterlimit="10"/>
<path d="M274.933 489.725C278.663 495.454 282.808 501.825 286.54 507.55" stroke="#547C0E" stroke-width="0.25" stroke-miterlimit="10"/>
<path d="M607.545 220.136C584.845 232.614 559.818 255.694 575.744 282.37C588.944 304.977 635.936 326.942 662.926 324.961C699.332 321.774 686.842 264.471 680.249 241.753C670.636 206.906 644.448 203.629 615.859 216.125L607.445 219.412" stroke="#547C0E" stroke-width="0.25" stroke-miterlimit="10"/>
<path d="M607.449 219.412C583.022 229.903 580.93 196.3 570.567 184.373C584.367 194.39 604.313 200.673 606.724 219.507" stroke="#547C0E" stroke-width="0.25" stroke-miterlimit="10"/>
<path d="M607.17 217.24C603.42 205.2 603.107 191.251 610.687 181.44C617.056 190.94 616.662 210.865 608.171 219.315" stroke="#547C0E" stroke-width="0.25" stroke-miterlimit="10"/>
<path d="M607.545 220.136C593.091 233.766 569.26 231.666 556.89 215.574C564.675 213.106 575.711 207.274 582.69 210.065" stroke="#547C0E" stroke-width="0.25" stroke-miterlimit="10"/>
<path d="M582.2 257.988C583.2 260.067 584.837 261.329 587.287 263.223" stroke="#547C0E" stroke-width="0.25" stroke-miterlimit="10"/>
<path d="M607.058 239.344C609.508 241.239 611.328 243.949 613.148 246.661" stroke="#547C0E" stroke-width="0.25" stroke-miterlimit="10"/>
<path d="M640.976 222.483C643.405 223.731 645.26 225.866 646.157 228.445" stroke="#547C0E" stroke-width="0.25" stroke-miterlimit="10"/>
<path d="M607.219 263.617C608.944 265.606 610.675 267.595 613.03 268.765" stroke="#547C0E" stroke-width="0.25" stroke-miterlimit="10"/>
<path d="M632.541 248.595C634.391 250.185 636.093 251.938 637.628 253.833" stroke="#547C0E" stroke-width="0.25" stroke-miterlimit="10"/>
<path d="M608.107 287.802C611.376 290.331 614.737 293.583 618.007 296.102" stroke="#547C0E" stroke-width="0.25" stroke-miterlimit="10"/>
<path d="M633.424 272.78C635.06 274.042 637.418 275.214 639.053 276.48" stroke="#547C0E" stroke-width="0.25" stroke-miterlimit="10"/>
<path d="M659.805 248.787C661.625 251.501 663.351 253.487 665.265 256.923" stroke="#547C0E" stroke-width="0.25" stroke-miterlimit="10"/>
<path d="M638.92 292.691C641.37 294.591 643.1 296.577 645.55 298.469" stroke="#547C0E" stroke-width="0.25" stroke-miterlimit="10"/>
<path d="M659.148 272.432C660.876 274.421 662.604 276.41 665.148 279.026" stroke="#547C0E" stroke-width="0.25" stroke-miterlimit="10"/>
<path d="M663.671 302.041C665.404 304.028 667.131 306.015 668.852 308.003" stroke="#547C0E" stroke-width="0.25" stroke-miterlimit="10"/>
<path d="M648.761 312.048C651.119 313.22 652.844 315.207 654.575 317.199" stroke="#547C0E" stroke-width="0.25" stroke-miterlimit="10"/>
<path d="M675.028 281.445C676.592 282.683 677.812 284.301 678.573 286.145" stroke="#547C0E" stroke-width="0.25" stroke-miterlimit="10"/>
<path d="M660.46 225.143C662.185 227.13 664.008 229.843 666.46 231.738" stroke="#547C0E" stroke-width="0.25" stroke-miterlimit="10"/>
<path d="M587.436 281.613C588.631 283.344 590.069 284.895 591.706 286.218" stroke="#547C0E" stroke-width="0.25" stroke-miterlimit="10"/>
<path d="M604.46 219.058C601.099 215.804 596.921 211.926 593.46 207.95" stroke="#547C0E" stroke-width="0.25" stroke-miterlimit="10"/>
<path d="M1220.05 387.376C1229.44 360.921 1239.68 328.496 1234.56 299.481C1231.14 281.561 1220.9 265.348 1214.93 248.281C1208.1 230.361 1213.22 210.734 1221.75 193.669C1221.77 193.009 1221.93 192.359 1222.22 191.769C1222.52 191.178 1222.94 190.661 1223.46 190.254" stroke="#547C0E" stroke-width="0.25" stroke-miterlimit="10"/>
<path d="M1233.7 321.666C1216.64 342.146 1155.2 316.546 1173.97 295.213C1184.21 283.265 1188.47 304.598 1197.01 308.865C1206.4 313.132 1218.34 307.157 1215.78 295.213C1213.22 278.998 1179.94 278.998 1168 271.313C1162.02 267.048 1157.82 258.913 1159.46 247.421C1161.17 235.473 1173.12 259.368 1182.5 261.073C1197.86 263.633 1195.3 249.98 1190.18 242.301C1185.06 235.473 1171.41 228.648 1179.09 216.701C1189.33 202.194 1192.74 232.061 1199.57 215.849C1203.84 206.461 1193.6 198.781 1188.48 192.807C1179.94 183.422 1174.82 175.742 1179.09 162.942C1182.5 154.41 1196.16 139.047 1206.39 145.875C1214.93 151.847 1200.42 172.327 1215.78 173.182C1224.31 173.182 1228.58 154.409 1237.97 150.995C1250.77 146.727 1268.69 153.555 1266.98 168.915C1265.27 183.423 1249.06 185.128 1243.09 196.222C1226.02 231.21 1283.19 197.075 1286.61 218.41C1290.02 241.45 1234.55 224.383 1232.85 251.69C1231.99 261.93 1243.09 273.875 1254.18 270.462C1262.71 267.902 1263.57 255.955 1272.95 252.542C1296.85 244.862 1292.58 274.73 1276.37 282.409C1270.39 285.821 1252.47 284.109 1254.18 294.354C1255.89 304.599 1272.95 299.474 1271.25 311.421C1269.54 324.221 1245.65 323.369 1237.97 321.661" stroke="#547C0E" stroke-width="0.25" stroke-miterlimit="10"/>
</g>
</svg>
