<svg width="35" height="47" viewBox="0 0 35 47" fill="none" xmlns="http://www.w3.org/2000/svg">
<path d="M18.0564 0.423899C15.8197 0.345406 13.5895 0.708227 11.4931 1.49164C9.39662 2.27506 7.475 3.46373 5.83794 4.98979C4.20088 6.51584 2.88042 8.3494 1.95197 10.3858C1.02351 12.4221 0.50525 14.6214 0.426758 16.8581C0.287108 20.8441 1.52599 23.9672 4.46893 28.7274C7.41186 33.4875 16.4397 46.5687 16.4397 46.5687C16.4397 46.5687 26.3648 34.1545 29.6247 29.6087C32.8847 25.0629 34.348 22.0374 34.4877 18.0514C34.6459 13.5351 33.0037 9.14077 29.9223 5.83506C26.841 2.52934 22.5727 0.582924 18.0564 0.423899ZM17.2341 23.8934C15.9607 23.8488 14.7291 23.4276 13.6951 22.683C12.661 21.9384 11.871 20.9039 11.4249 19.7104C10.9788 18.5168 10.8967 17.2178 11.1889 15.9775C11.4811 14.7373 12.1345 13.6115 13.0665 12.7426C13.9985 11.8737 15.1672 11.3007 16.4249 11.096C17.6825 10.8913 18.9726 11.0642 20.132 11.5927C21.2915 12.1213 22.2681 12.9817 22.9385 14.0653C23.6089 15.1489 23.9429 16.407 23.8983 17.6804C23.8384 19.388 23.1027 21.0019 21.8529 22.1671C20.6032 23.3323 18.9417 23.9532 17.2341 23.8934Z" fill="#06913D"/>
</svg>
