<svg width="162" height="166" viewBox="0 0 162 166" fill="none" xmlns="http://www.w3.org/2000/svg">
<path d="M103.926 74.1561C111.165 74.1561 118.241 72.0095 124.26 67.9879C130.279 63.9662 134.97 58.2501 137.74 51.5623C140.51 44.8745 141.235 37.5155 139.823 30.4158C138.411 23.3161 134.925 16.7946 129.806 11.676C124.688 6.55736 118.166 3.07155 111.066 1.65933C103.967 0.247111 96.6077 0.971913 89.92 3.74208C83.2322 6.51225 77.516 11.2034 73.4944 17.2222C69.4727 23.241 67.3262 30.3173 67.3262 37.5561C67.3301 47.2618 71.1875 56.5688 78.0504 63.4318C84.9134 70.2948 94.2204 74.1521 103.926 74.1561Z" fill="#06913D"/>
<path d="M37.6388 104.711C38.8935 98.0709 42.0754 91.9469 46.7878 87.1032C47.0844 86.7731 47.2882 86.3704 47.3785 85.936C47.4689 85.5016 47.4426 85.051 47.3023 84.63C47.162 84.2091 46.9127 83.8328 46.5797 83.5395C46.2468 83.2462 45.8421 83.0463 45.4068 82.9602H45.2348C43.7615 82.6967 42.2434 82.8663 40.8645 83.4485C39.4857 84.0307 38.3054 85.0005 37.4668 86.2402C33.6668 91.5912 32.9788 99.3592 32.9788 104.54C27.7998 101.951 15.7168 97.4622 6.39583 108.34C-5.51517 122.15 3.46183 151.151 11.2288 160.3C17.4428 167.55 29.5288 164.616 33.8418 163.234C34.8486 162.889 35.942 162.889 36.9488 163.234C41.2628 164.616 53.3488 167.551 59.5608 160.301C67.3288 151.152 76.3048 122.151 64.3938 108.341C54.9008 97.4652 42.4718 102.127 37.6378 104.715L37.6388 104.711ZM25.5538 151.319C24.9087 151.803 24.1153 152.047 23.3098 152.009C22.7725 152.017 22.2411 151.896 21.7604 151.655C21.2798 151.415 20.8639 151.063 20.5478 150.628C15.3698 144.068 10.5368 124.389 16.5788 117.139C16.8847 116.788 17.2569 116.5 17.6741 116.292C18.0912 116.084 18.5452 115.961 19.0101 115.929C19.475 115.897 19.9417 115.957 20.3835 116.105C20.8253 116.253 21.2335 116.487 21.5848 116.793C22.2586 117.469 22.6649 118.366 22.7286 119.318C22.7922 120.27 22.5088 121.213 21.9308 121.972C18.8238 125.598 21.9308 141.133 26.0738 146.312C26.3536 146.677 26.5585 147.094 26.6769 147.538C26.7953 147.982 26.8249 148.445 26.7638 148.901C26.6874 149.833 26.2543 150.699 25.5548 151.319H25.5538Z" fill="#06913D"/>
<path d="M26.4184 98.4961C26.7853 98.5757 27.1652 98.5737 27.5312 98.4904C27.8973 98.4071 28.2406 98.2444 28.5369 98.0139C28.8332 97.7834 29.0753 97.4907 29.2461 97.1563C29.4169 96.822 29.5123 96.4543 29.5254 96.0791C29.3534 93.3171 28.8354 89.1791 26.2454 85.8951C23.6554 82.6111 19.6854 81.2341 16.9244 80.5441C16.5575 80.4645 16.1776 80.4665 15.8116 80.5498C15.4455 80.6331 15.1022 80.7958 14.8059 81.0263C14.5096 81.2568 14.2675 81.5496 14.0966 81.8839C13.9258 82.2182 13.8305 82.5859 13.8174 82.9611C13.9894 85.7231 14.5074 89.8611 17.0974 93.1451C19.6113 95.8057 22.8532 97.6668 26.4184 98.4961Z" fill="#06913D"/>
<path d="M129.992 74.8472C122.396 80.1417 113.357 82.9739 104.098 82.9602C94.8317 83.0259 85.7772 80.1889 78.2051 74.8472C68.8319 78.4053 60.8049 84.8035 55.2461 93.1472C61.4815 94.3727 67.0962 97.7296 71.1271 102.642C82.0031 115.242 80.2761 135.613 74.7531 150.631H152.953C155.196 150.627 157.346 149.734 158.931 148.147C160.517 146.561 161.408 144.41 161.41 142.167V120.767C161.399 110.842 158.395 101.15 152.79 92.9582C147.185 84.7664 139.24 78.4554 129.993 74.8492L129.992 74.8472ZM140.522 121.455C140.526 121.615 140.497 121.774 140.438 121.922C140.378 122.071 140.29 122.206 140.177 122.319C140.064 122.432 139.929 122.521 139.78 122.58C139.632 122.639 139.473 122.668 139.313 122.664H130.336V131.641C130.34 131.801 130.311 131.96 130.252 132.108C130.192 132.257 130.104 132.392 129.991 132.505C129.878 132.618 129.743 132.707 129.594 132.766C129.446 132.825 129.287 132.854 129.127 132.85H121.186C121.026 132.854 120.867 132.825 120.719 132.766C120.571 132.707 120.436 132.618 120.323 132.505C120.21 132.392 120.121 132.257 120.061 132.108C120.002 131.96 119.973 131.801 119.977 131.641V122.667H111C110.84 122.671 110.681 122.642 110.533 122.583C110.385 122.524 110.25 122.435 110.137 122.322C110.024 122.209 109.935 122.074 109.875 121.925C109.816 121.777 109.787 121.618 109.791 121.458V113.517C109.787 113.357 109.816 113.198 109.875 113.05C109.935 112.902 110.024 112.767 110.137 112.654C110.25 112.541 110.385 112.452 110.533 112.392C110.681 112.333 110.84 112.304 111 112.308H119.977V103.331C119.973 103.171 120.002 103.012 120.061 102.864C120.121 102.716 120.21 102.581 120.323 102.468C120.436 102.355 120.571 102.266 120.719 102.206C120.867 102.147 121.026 102.118 121.186 102.122H129.302C129.462 102.118 129.621 102.147 129.769 102.206C129.918 102.266 130.052 102.355 130.166 102.468C130.279 102.581 130.367 102.716 130.427 102.864C130.486 103.012 130.515 103.171 130.511 103.331V112.306H139.486C139.646 112.302 139.805 112.331 139.953 112.39C140.102 112.45 140.236 112.539 140.35 112.652C140.463 112.765 140.551 112.9 140.611 113.048C140.67 113.196 140.699 113.355 140.695 113.515V121.455H140.522Z" fill="#06913D"/>
</svg>
