<svg width="60" height="60" viewBox="0 0 60 60" fill="none" xmlns="http://www.w3.org/2000/svg">
<path fill-rule="evenodd" clip-rule="evenodd" d="M21.1216 0.935005C20.8341 0.982791 20.57 1.12325 20.3696 1.335C17.7266 3.79666 16.1399 7.18652 15.9426 10.793C15.8896 14.156 17.4026 17.501 20.3896 20.418C20.5313 20.5574 20.7023 20.6635 20.8902 20.7285C21.0781 20.7936 21.278 20.8159 21.4756 20.794L28.9756 19.959C29.177 19.9329 29.3699 19.8614 29.5396 19.75L33.0466 17.474C35.1866 24.049 37.4716 31.753 40.4166 37.914C38.6086 36.8728 36.6401 36.1392 34.5916 35.743C32.0186 35.343 29.5436 36.016 26.7616 37.789C23.9616 32.701 19.9296 30.021 15.5916 29.312C10.8716 28.541 5.90463 29.957 1.45563 32.381C1.24678 32.4965 1.07271 32.6658 0.951529 32.8714C0.830352 33.077 0.766504 33.3114 0.76663 33.55L0.68363 53.572C0.682239 53.7602 0.720632 53.9466 0.796286 54.1189C0.87194 54.2912 0.98315 54.4456 1.12263 54.572C7.11363 59.842 14.4466 59.694 21.8346 57.077C34.9536 62.117 47.4346 60.558 58.6646 52.233C58.9216 52.0377 59.0992 51.7561 59.1646 51.44C61.1226 42.51 58.0546 30.34 51.3976 20.08C44.7406 9.82001 34.3366 1.47301 21.3976 0.934005C21.3072 0.924667 21.2161 0.924667 21.1256 0.934005L21.1216 0.935005ZM12.4986 35.323C14.7697 35.3881 16.9967 35.9662 19.0126 37.014C19.3312 37.1641 19.578 37.4334 19.6996 37.7639C19.8213 38.0944 19.8081 38.4594 19.6628 38.7802C19.5176 39.101 19.252 39.3518 18.9234 39.4785C18.5948 39.6051 18.2296 39.5974 17.9066 39.457C13.5546 37.474 12.4646 37.435 8.44863 38.893C8.28259 38.9541 8.10613 38.9819 7.92934 38.9746C7.75256 38.9674 7.57894 38.9254 7.41846 38.8509C7.25797 38.7764 7.11377 38.6709 6.99412 38.5406C6.87448 38.4102 6.78176 38.2575 6.72127 38.0913C6.66077 37.925 6.6337 37.7484 6.64162 37.5717C6.64953 37.3949 6.69227 37.2215 6.76737 37.0613C6.84248 36.9011 6.94847 36.7573 7.07928 36.6381C7.21008 36.519 7.36313 36.4269 7.52963 36.367C9.1135 35.7355 10.7945 35.3823 12.4986 35.323Z" fill="#06913D"/>
</svg>
