<svg width="30" height="45" viewBox="0 0 30 45" fill="none" xmlns="http://www.w3.org/2000/svg">
<path d="M14.8255 0.958008C14.8255 0.958008 0.146484 21.579 0.146484 29.781C0.146484 33.7205 1.71145 37.4987 4.49712 40.2844C7.28278 43.07 11.0609 44.635 15.0005 44.635C18.94 44.635 22.7182 43.07 25.5038 40.2844C28.2895 37.4987 29.8545 33.7205 29.8545 29.781C29.8545 21.581 14.8245 0.958008 14.8245 0.958008H14.8255ZM9.66447 40.469C9.59482 40.5621 9.50752 40.6405 9.40755 40.6998C9.30758 40.7591 9.1969 40.7981 9.08185 40.8147C8.96679 40.8312 8.84961 40.8249 8.73698 40.7961C8.62436 40.7674 8.51851 40.7167 8.42548 40.647C4.68648 37.847 3.06148 32.696 2.99448 32.478C2.92499 32.2536 2.94749 32.0108 3.05701 31.8031C3.16653 31.5953 3.3541 31.4395 3.57848 31.37C3.80285 31.3005 4.04564 31.323 4.25343 31.4325C4.46122 31.5421 4.61699 31.7296 4.68648 31.954C4.70148 32.003 6.21548 36.778 9.48648 39.23C9.57946 39.2997 9.65778 39.3871 9.717 39.4871C9.77621 39.5871 9.81515 39.6978 9.83159 39.8129C9.84802 39.9279 9.84163 40.0451 9.81279 40.1576C9.78395 40.2702 9.73321 40.376 9.66348 40.469H9.66447ZM13.0305 42.398H12.9695C12.2869 42.35 11.6132 42.2156 10.9645 41.998C10.8542 41.9611 10.7523 41.9029 10.6646 41.8266C10.5769 41.7503 10.505 41.6575 10.4532 41.5534C10.4013 41.4494 10.3704 41.3361 10.3624 41.2202C10.3543 41.1042 10.3691 40.9878 10.406 40.8775C10.4429 40.7673 10.5011 40.6654 10.5774 40.5776C10.6537 40.4899 10.7465 40.4181 10.8506 40.3662C10.9546 40.3143 11.0678 40.2835 11.1838 40.2754C11.2998 40.2673 11.4162 40.2821 11.5265 40.319C12.0326 40.4882 12.5581 40.5923 13.0905 40.629C13.3196 40.6444 13.5337 40.7483 13.6877 40.9187C13.8416 41.089 13.9233 41.3125 13.9155 41.542C13.9077 41.7715 13.811 41.989 13.6459 42.1485C13.4808 42.308 13.2601 42.3971 13.0305 42.397V42.398Z" fill="black"/>
</svg>
