<svg width="115" height="115" viewBox="0 0 115 115" fill="none" xmlns="http://www.w3.org/2000/svg">
<path d="M57.5617 0.511794C46.3364 0.511794 35.3632 3.84047 26.0297 10.0769C16.6963 16.3133 9.42171 25.1774 5.12598 35.5482C0.830251 45.919 -0.293701 57.3308 1.89624 68.3403C4.08618 79.3499 9.49167 89.4629 17.4291 97.4003C25.3666 105.338 35.4796 110.743 46.4891 112.933C57.4987 115.123 68.9105 113.999 79.2813 109.704C89.6521 105.408 98.5161 98.1332 104.753 88.7997C110.989 79.4663 114.318 68.4931 114.318 57.2678C114.33 49.8111 112.87 42.4253 110.022 35.5339C107.174 28.6425 102.994 22.3809 97.7213 17.1082C92.4486 11.8355 86.187 7.65537 79.2956 4.80741C72.4042 1.95945 65.0184 0.499677 57.5617 0.511794ZM82.8997 81.9968L79.8597 84.0238C79.0142 84.6322 78.0454 85.0473 77.0217 85.2398C76.0077 85.4398 74.7917 85.4398 73.7787 85.6448C70.6793 85.777 67.5859 85.2694 64.6914 84.1535C61.7968 83.0376 59.1632 81.3373 56.9547 79.1588L35.8737 57.8758C33.6569 55.6951 31.9315 53.0661 30.8129 50.1646C29.6943 47.2631 29.2084 44.1562 29.3877 41.0518C29.4226 39.9606 29.5582 38.875 29.7927 37.8088C30.0232 36.7971 30.4352 35.8355 31.0087 34.9708L33.0357 31.9308C33.6239 31.059 34.3984 30.3287 35.3031 29.7924C36.2078 29.2562 37.2203 28.9275 38.2675 28.83C39.3146 28.7326 40.3704 28.8687 41.3585 29.2287C42.3467 29.5887 43.2426 30.1636 43.9817 30.9118L47.4277 34.3578C48.4788 35.436 49.1774 36.8081 49.4308 38.2924C49.6842 39.7767 49.4805 41.3029 48.8467 42.6688C48.1641 44.0239 47.9336 45.5621 48.189 47.0577C48.4443 48.5534 49.1722 49.9279 50.2657 50.9798L64.4547 65.1688C65.5328 66.2199 66.905 66.9185 68.3893 67.1719C69.8736 67.4254 71.3998 67.2216 72.7657 66.5878C74.1208 65.9052 75.659 65.6747 77.1546 65.9301C78.6503 66.1855 80.0248 66.9133 81.0767 68.0068L84.5227 71.4528C85.1306 72.2432 85.572 73.1487 85.8201 74.1145C86.0682 75.0803 86.1179 76.0863 85.9662 77.0719C85.8145 78.0575 85.4646 79.002 84.9375 79.8485C84.4104 80.695 83.7172 81.4258 82.8997 81.9968Z" fill="black"/>
</svg>
