<svg width="27" height="26" viewBox="0 0 27 26" fill="none" xmlns="http://www.w3.org/2000/svg">
<path d="M24.0109 0.408035L13.4429 10.976L2.87094 0.408035C2.60984 0.14693 2.2557 0.000244141 1.88644 0.000244141C1.51718 0.000244141 1.16305 0.14693 0.901947 0.408035C0.640841 0.669141 0.494141 1.02327 0.494141 1.39253C0.494141 1.76179 0.640841 2.11592 0.901947 2.37703L11.4709 12.945L0.902939 23.506C0.645834 23.7678 0.502506 24.1206 0.50412 24.4875C0.505734 24.8544 0.652162 25.2059 0.91156 25.4654C1.17096 25.725 1.52233 25.8716 1.88927 25.8734C2.2562 25.8752 2.60901 25.732 2.87094 25.475L13.4389 14.907L24.0069 25.475C24.1362 25.6043 24.2897 25.7069 24.4586 25.7768C24.6276 25.8468 24.8086 25.8828 24.9914 25.8828C25.1743 25.8828 25.3553 25.8468 25.5242 25.7768C25.6932 25.7069 25.8467 25.6043 25.9759 25.475C26.1052 25.3458 26.2078 25.1923 26.2778 25.0233C26.3477 24.8544 26.3837 24.6734 26.3837 24.4905C26.3837 24.3077 26.3477 24.1266 26.2778 23.9577C26.2078 23.7888 26.1052 23.6353 25.9759 23.506L15.4079 12.945L25.9759 2.37703C26.1052 2.24774 26.2078 2.09426 26.2778 1.92534C26.3477 1.75642 26.3837 1.57537 26.3837 1.39253C26.3837 1.20969 26.3477 1.02865 26.2778 0.859726C26.2078 0.690805 26.1052 0.537322 25.9759 0.408035C25.8467 0.278749 25.6932 0.176186 25.5242 0.106216C25.3553 0.0362471 25.1743 0.000244135 24.9914 0.000244141C24.8086 0.000244146 24.6276 0.0362471 24.4586 0.106216C24.2897 0.176186 24.1362 0.278749 24.0069 0.408035H24.0109Z" fill="black"/>
</svg>
