<svg width="112" height="144" viewBox="0 0 112 144" fill="none" xmlns="http://www.w3.org/2000/svg">
<path d="M45.0929 17.5141C45.0938 17.0413 45.1302 16.5693 45.2019 16.1021V15.7021C45.2372 15.3438 45.3161 14.9912 45.4369 14.6521V14.4351L43.4269 14.6351L41.6149 14.8161L38.4099 15.2331L37.0699 15.4331C35.5489 15.6681 34.0449 15.9221 32.5239 16.2111L31.5829 16.4111L28.3379 17.0991V23.8521C34.0167 22.5726 39.7776 21.6891 45.5789 21.2081C45.1974 20.0156 45.0317 18.7647 45.0899 17.5141H45.0929Z" fill="#06913D"/>
<path d="M55.9599 37.8179C66.8279 37.8179 79.0339 39.2299 82.9599 43.0339C83.2052 41.6098 83.3323 40.1679 83.3399 38.7229V25.7059L80.6779 25.1449L79.0289 24.8009C77.6889 24.5469 76.3669 24.3119 75.0289 24.1119L74.3399 24.0019C72.7819 23.7669 71.2249 23.5499 69.6489 23.3869L68.2179 23.2419C67.2399 23.1329 66.2429 23.0419 65.2649 22.9699L65.0109 23.3499C64.8875 23.5499 64.754 23.7435 64.6109 23.9299L64.1589 24.5099C63.9959 24.6909 63.8509 24.8729 63.6879 25.0359L63.1449 25.5429L62.6189 26.0139L62.0189 26.4489C61.8189 26.5749 61.6559 26.7029 61.4579 26.8119C61.2383 26.951 61.0079 27.0724 60.7689 27.1749L60.1889 27.4639L59.3889 27.7529L58.8279 27.9339C58.5244 28.0195 58.2158 28.0863 57.9039 28.1339L57.4149 28.2249C56.9294 28.2985 56.439 28.3349 55.9479 28.3339C54.0581 28.3262 52.2038 27.8199 50.5724 26.8659C48.941 25.9119 47.5903 24.5442 46.6569 22.9009C40.5601 23.3719 34.5063 24.292 28.5449 25.6539V38.6769C28.5513 40.122 28.6784 41.564 28.9249 42.9879C32.8729 39.2399 45.0799 37.8259 55.9469 37.8259L55.9599 37.8179Z" fill="#06913D"/>
<path d="M82.4023 45.7319C82.4023 44.0829 79.5233 42.4899 74.5243 41.3489C68.4148 40.1193 62.1918 39.5424 55.9603 39.6279C41.0903 39.6279 29.4453 42.3089 29.4453 45.7279C30.9865 51.5656 34.4161 56.7292 39.1994 60.4135C43.9826 64.0979 49.8506 66.0958 55.8883 66.0958C61.926 66.0958 67.794 64.0979 72.5773 60.4135C77.3605 56.7292 80.7901 51.5656 82.3313 45.7279L82.4023 45.7319Z" fill="#06913D"/>
<path d="M46.6673 12.081C46.7833 11.8689 46.9101 11.663 47.0473 11.464C47.1923 11.247 47.3553 11.047 47.5183 10.83C47.6596 10.6408 47.8112 10.4596 47.9723 10.287C48.1353 10.087 48.3353 9.907 48.5153 9.726L49.0413 9.255C49.2413 9.074 49.4583 8.929 49.6753 8.766L50.2363 8.366C50.4713 8.221 50.7253 8.094 50.9793 7.966C51.1585 7.85458 51.346 7.75729 51.5403 7.675C51.8123 7.549 52.1013 7.458 52.3923 7.349L52.9533 7.149L53.9313 6.932L54.4383 6.823C54.942 6.75009 55.4503 6.71366 55.9593 6.714C56.4745 6.71428 56.9891 6.7507 57.4993 6.823L58.9663 7.149L59.5273 7.349C59.8169 7.44245 60.1013 7.55127 60.3793 7.675C60.5678 7.7574 60.7493 7.85471 60.9223 7.966C61.1838 8.0839 61.4379 8.21747 61.6833 8.366L62.2093 8.746C62.4443 8.909 62.6803 9.072 62.8983 9.253C63.0635 9.39522 63.2204 9.5468 63.3683 9.707C63.5683 9.888 63.7853 10.087 63.9683 10.287C64.1164 10.454 64.2552 10.6289 64.3843 10.811C64.5653 11.028 64.7283 11.246 64.8913 11.481C65.0543 11.716 65.1263 11.861 65.2543 12.061C65.3574 12.2105 65.4483 12.368 65.5263 12.532C66.7403 12.623 67.9353 12.749 69.1483 12.876H69.8913C71.4493 13.057 73.0243 13.276 74.5823 13.51L75.9053 13.727L79.2553 14.327L81.0673 14.69L83.3853 15.161V12.117C83.3856 8.90623 82.1114 5.82665 79.8426 3.5547C77.5739 1.28275 74.4961 0.00424002 71.2853 0H40.6713C37.4605 0.00424002 34.3827 1.28275 32.114 3.5547C29.8452 5.82665 28.571 8.90623 28.5713 12.117V15.232C34.4408 13.9124 40.3964 13.0102 46.3933 12.532C46.4732 12.3751 46.5641 12.2241 46.6653 12.08L46.6673 12.081Z" fill="#06913D"/>
<path d="M66.5347 19.616C66.4375 20.1082 66.3038 20.5926 66.1347 21.065C66.1322 21.107 66.1322 21.149 66.1347 21.191C71.9363 21.6721 77.6975 22.5556 83.3767 23.835V17.098C77.7644 15.8119 72.0698 14.9161 66.3337 14.417V14.671C66.3776 15.0219 66.4564 15.3676 66.5687 15.703V16.103C66.641 16.5702 66.6775 17.0422 66.6777 17.515C66.6762 18.0734 66.6276 18.6307 66.5327 19.181C66.5694 19.3237 66.5694 19.4733 66.5327 19.616H66.5347Z" fill="#06913D"/>
<path d="M91.6598 33.361V28.217C91.6598 27.9385 91.5491 27.6714 91.3522 27.4745C91.1553 27.2776 90.8882 27.167 90.6098 27.167H85.1758V40.696C86.9637 40.471 88.6084 39.6021 89.8018 38.252C90.9953 36.9019 91.6559 35.163 91.6598 33.361Z" fill="#06913D"/>
<path d="M26.7656 40.6961V27.1692H21.3356C21.1961 27.1664 21.0573 27.1915 20.9276 27.243C20.7979 27.2945 20.6798 27.3715 20.5802 27.4693C20.4807 27.5671 20.4016 27.6838 20.3478 27.8126C20.2939 27.9413 20.2663 28.0796 20.2666 28.2192V33.3632C20.2704 35.1678 20.9329 36.909 22.1298 38.2596C23.3267 39.6102 24.9755 40.4774 26.7666 40.6981L26.7656 40.6961Z" fill="#06913D"/>
<path d="M41.6866 66.1011H40.4727L55.9567 97.1261L71.4417 66.1371H70.2287C65.8905 68.6499 60.9648 69.9703 55.9514 69.9641C50.9381 69.958 46.0156 68.6255 41.6837 66.1021L41.6866 66.1011Z" fill="#06913D"/>
<path d="M73.4185 66.2471L56.7695 99.6081C56.687 99.7511 56.5682 99.87 56.4251 99.9526C56.282 100.035 56.1197 100.079 55.9545 100.079C55.7893 100.079 55.627 100.035 55.484 99.9526C55.3409 99.87 55.2221 99.7511 55.1395 99.6081L38.4985 66.2471C28.0798 67.1074 18.3653 71.8536 11.2835 79.5438C4.20165 87.234 0.270212 97.3058 0.269531 107.76V132.497C35.9549 147.139 75.9712 147.139 111.657 132.497V107.76C111.656 97.3052 107.724 87.2328 100.641 79.5426C93.5584 71.8523 83.843 67.1064 73.4235 66.2471H73.4185ZM102.144 120.22C102.114 123.443 100.813 126.525 98.5239 128.794C96.2344 131.063 93.1414 132.336 89.918 132.336C86.6946 132.336 83.6017 131.063 81.3121 128.794C79.0226 126.525 77.7217 123.443 77.6925 120.22V104.861C77.6925 104.621 77.788 104.39 77.9579 104.22C78.1278 104.051 78.3582 103.955 78.5985 103.955H101.239C101.479 103.955 101.709 104.051 101.879 104.22C102.049 104.39 102.145 104.621 102.145 104.861L102.144 120.22Z" fill="#06913D"/>
<path d="M89.9189 130.633C92.6794 130.628 95.3255 129.53 97.2775 127.578C99.2294 125.626 100.328 122.979 100.333 120.219V105.73H79.5039V120.22C79.5087 122.981 80.6074 125.627 82.5594 127.579C84.5113 129.531 87.1574 130.629 89.9179 130.634L89.9189 130.633Z" fill="#06913D"/>
<path d="M57.2621 8.62107C56.8292 8.59343 56.3949 8.59343 55.9621 8.62107C54.2425 8.62051 52.5592 9.1156 51.1138 10.0471C49.6683 10.9785 48.522 12.3069 47.8121 13.8731C47.2397 15.0962 46.9551 16.4341 46.98 17.7843C47.005 19.1345 47.3389 20.461 47.9561 21.6621C48.7006 23.1448 49.8427 24.3913 51.2548 25.2624C52.6669 26.1335 54.2934 26.5948 55.9526 26.5948C57.6117 26.5948 59.2382 26.1335 60.6503 25.2624C62.0624 24.3913 63.2045 23.1448 63.9491 21.6621C64.6551 20.3939 65.0232 18.9655 65.0181 17.5141C65.0219 16.2255 64.7437 14.9517 64.203 13.7821C63.5687 12.4117 62.6017 11.2217 61.3902 10.3203C60.1786 9.41897 58.7609 8.83483 57.2661 8.62107H57.2621Z" fill="#06913D"/>
</svg>
