<svg width="148" height="166" viewBox="0 0 148 166" fill="none" xmlns="http://www.w3.org/2000/svg">
<path d="M73.5152 116.128C72.9267 116.128 72.3499 115.964 71.8492 115.655C71.3485 115.345 70.9438 114.903 70.6801 114.377L61.1201 95.2978C60.8779 94.8142 60.7633 94.2767 60.7873 93.7364C60.8112 93.196 60.9729 92.6708 61.257 92.2105C61.541 91.7502 61.938 91.3702 62.4102 91.1065C62.8825 90.8428 63.4143 90.7042 63.9552 90.7038H82.9181C83.4574 90.7039 83.9878 90.8414 84.4591 91.1035C84.9305 91.3655 85.3272 91.7434 85.6119 92.2014C85.8965 92.6595 86.0597 93.1825 86.086 93.7212C86.1123 94.2598 86.0008 94.7963 85.7621 95.2798L76.3622 114.359C76.1013 114.889 75.6977 115.335 75.1968 115.648C74.6959 115.96 74.1176 116.127 73.5272 116.129H73.5152V116.128ZM69.0912 97.0468L73.4911 105.825L77.8162 97.0468H69.0912Z" fill="#06913D"/>
<path d="M113.662 139.99C113.662 140.49 113.463 140.969 113.11 141.322C112.756 141.676 112.277 141.874 111.777 141.874C111.277 141.874 110.798 141.676 110.445 141.322C110.091 140.969 109.893 140.49 109.893 139.99C109.893 139.49 110.091 139.011 110.445 138.657C110.798 138.304 111.277 138.105 111.777 138.105C112.277 138.105 112.756 138.304 113.11 138.657C113.463 139.011 113.662 139.49 113.662 139.99Z" fill="#06913D"/>
<path d="M117.985 105.52C118.32 111.54 118.285 120.27 116.285 127.939C119.198 129.059 121.603 131.202 123.049 133.968C124.495 136.733 124.883 139.931 124.14 142.962C123.397 145.993 121.575 148.65 119.014 150.433C116.453 152.217 113.33 153.006 110.23 152.652C107.129 152.298 104.264 150.826 102.171 148.511C100.078 146.196 98.9005 143.198 98.8598 140.077C98.819 136.957 99.9175 133.928 101.949 131.56C103.981 129.191 106.807 127.645 109.897 127.21C112.604 117.896 111.754 105.81 111.266 101.103C105.943 97.9926 100.248 95.5645 94.3184 93.8758L74.0794 129.437L50.9064 94.7758C48.3055 95.6368 45.7545 96.642 43.2654 97.7868L43.3984 122.737C46.3306 123.172 49.0056 124.656 50.9274 126.913C54.0274 130.604 54.3944 135.483 54.2744 138.419C55.2997 139.358 55.9881 140.608 56.2339 141.977C56.4797 143.345 56.2693 144.757 55.6351 145.994C55.0008 147.231 53.9777 148.226 52.7231 148.826C51.4685 149.425 50.0517 149.596 48.6906 149.312C47.3294 149.028 46.0992 148.305 45.1889 147.254C44.2787 146.203 43.7388 144.882 43.6522 143.494C43.5656 142.106 43.9372 140.728 44.7097 139.572C45.4823 138.416 46.6131 137.546 47.9284 137.095C47.9777 134.908 47.321 132.763 46.0554 130.979C44.8224 129.525 42.9204 128.815 40.2404 128.815C37.5354 128.815 35.5934 129.536 34.3044 131.023C32.9995 132.791 32.2865 134.926 32.2674 137.123C33.5789 137.59 34.7006 138.475 35.46 139.642C36.2194 140.809 36.5746 142.193 36.4709 143.582C36.3672 144.97 35.8103 146.286 34.8859 147.327C33.9615 148.368 32.7208 149.077 31.3545 149.344C29.9881 149.611 28.5718 149.422 27.3232 148.806C26.0747 148.19 25.063 147.181 24.4437 145.934C23.8244 144.687 23.6318 143.272 23.8956 141.905C24.1593 140.538 24.8647 139.295 25.9034 138.368C25.8714 135.45 26.3514 130.537 29.4824 126.903C31.4324 124.662 34.1155 123.187 37.0524 122.742L36.9354 101.081C25.7425 107.58 16.4533 116.906 9.99762 128.124C3.54191 139.343 0.146186 152.06 0.150395 165.003H148C148.01 153.429 145.298 142.016 140.083 131.684C134.868 121.352 127.296 112.391 117.978 105.526L117.985 105.52Z" fill="#06913D"/>
<path d="M105.202 139.901C105.202 141.183 105.583 142.436 106.295 143.502C107.007 144.568 108.02 145.398 109.204 145.889C110.389 146.379 111.692 146.507 112.949 146.257C114.207 146.007 115.362 145.39 116.268 144.483C117.174 143.576 117.792 142.421 118.042 141.164C118.292 139.907 118.163 138.603 117.673 137.419C117.182 136.235 116.351 135.222 115.285 134.51C114.219 133.798 112.966 133.418 111.684 133.418C109.965 133.42 108.318 134.104 107.103 135.319C105.887 136.534 105.204 138.182 105.202 139.901ZM111.777 135.535C112.659 135.535 113.522 135.796 114.255 136.286C114.989 136.776 115.561 137.472 115.898 138.287C116.236 139.102 116.325 139.999 116.153 140.864C115.981 141.729 115.556 142.524 114.933 143.148C114.309 143.772 113.514 144.197 112.649 144.369C111.784 144.541 110.887 144.453 110.072 144.116C109.257 143.778 108.561 143.207 108.07 142.474C107.58 141.74 107.318 140.878 107.318 139.996C107.318 138.812 107.787 137.677 108.623 136.84C109.459 136.002 110.594 135.531 111.777 135.53V135.535Z" fill="#06913D"/>
<path d="M114.169 41.6058C114.169 49.6439 111.785 57.5014 107.319 64.1848C102.854 70.8681 96.5065 76.0772 89.0804 79.1532C81.6542 82.2292 73.4827 83.0341 65.5991 81.4659C57.7155 79.8978 50.474 76.0271 44.7902 70.3434C39.1065 64.6596 35.2358 57.4181 33.6676 49.5345C32.0995 41.6509 32.9043 33.4794 35.9804 26.0532C39.0564 18.627 44.2654 12.2798 50.9488 7.81408C57.6322 3.34839 65.4897 0.964844 73.5277 0.964844C84.3064 0.964844 94.6436 5.24665 102.265 12.8683C109.887 20.49 114.169 30.8272 114.169 41.6058Z" fill="#06913D"/>
</svg>
