<svg width="44" height="44" viewBox="0 0 44 44" fill="none" xmlns="http://www.w3.org/2000/svg">
<path d="M21.5003 43.4996C17.2488 43.4984 13.0931 42.2369 9.55844 39.8744C6.02382 37.5118 3.26897 34.1544 1.64215 30.2265C0.0153223 26.2986 -0.41044 21.9765 0.41868 17.8067C1.2478 13.6368 3.29458 9.80636 6.30028 6.79956C8.28215 4.74018 10.6547 3.09662 13.2793 1.96499C15.9038 0.833373 18.7277 0.236403 21.5857 0.208996C24.4436 0.18159 27.2784 0.724296 29.9242 1.80538C32.57 2.88646 34.9736 4.48422 36.9946 6.50521C39.0156 8.52621 40.6134 10.9299 41.6945 13.5756C42.7755 16.2214 43.3182 19.0562 43.2908 21.9142C43.2634 24.7722 42.6665 27.596 41.5348 30.2206C40.4032 32.8451 38.7597 35.2177 36.7003 37.1996C34.709 39.2025 32.3403 40.7906 29.7313 41.8719C27.1222 42.9533 24.3246 43.5065 21.5003 43.4996ZM21.5003 4.08256C17.9566 4.08256 14.4926 5.13337 11.5461 7.10211C8.59969 9.07086 6.30322 11.8691 4.94713 15.143C3.59103 18.4169 3.23622 22.0194 3.92755 25.495C4.61888 28.9705 6.32531 32.163 8.83105 34.6688C11.3368 37.1745 14.5293 38.881 18.0048 39.5723C21.4804 40.2636 25.0829 39.9088 28.3568 38.5527C31.6307 37.1966 34.429 34.9001 36.3977 31.9537C38.3665 29.0073 39.4173 25.5432 39.4173 21.9996C39.412 17.2493 37.5226 12.6951 34.1637 9.33617C30.8047 5.97723 26.2505 4.08785 21.5003 4.08256ZM23.2913 32.7496H17.9173V21.9996H14.3333V18.4166H17.9163V15.3846C17.9163 12.6026 19.4373 11.2496 22.5673 11.2496H26.8743V15.7286H24.2913C23.4353 15.7286 23.2913 16.0976 23.2913 16.9236V18.4156H26.8743L26.5533 21.9996H23.2913V32.7496Z" fill="white"/>
</svg>
