<svg width="156" height="155" viewBox="0 0 156 155" fill="none" xmlns="http://www.w3.org/2000/svg">
<path d="M135.623 74.7003C144.881 65.4423 151.117 55.4283 153.384 46.7373C155.078 51.4738 155.751 56.5146 155.361 61.5296C154.97 66.5445 153.524 71.4203 151.117 75.8373H134.678C134.866 75.2703 135.245 75.0813 135.623 74.7043V74.7003ZM89.3304 45.0353C91.6369 47.1165 93.612 49.5377 95.1874 52.2153C97.7463 48.826 100.524 45.6072 103.501 42.5793C112.759 33.3213 122.773 27.0853 131.464 24.8183C127.644 23.4569 123.62 22.7543 119.564 22.7403C114.866 22.7072 110.208 23.609 105.861 25.393C101.515 27.1771 97.5666 29.8079 94.2464 33.1323C92.4502 35.015 90.8063 37.0374 89.3304 39.1803V45.0353ZM98.3994 61.0963C98.713 62.7772 98.8398 64.4876 98.7774 66.1963C98.7973 69.4231 98.221 72.6259 97.0774 75.6433H123.151C125.608 73.7533 127.875 71.6753 130.331 69.4083C145.257 54.4823 150.17 38.4223 145.068 33.3203C143.745 31.9973 141.668 31.4303 139.211 31.4303C131.842 31.4303 120.128 36.9093 108.98 48.0573C104.94 51.9603 101.387 56.3378 98.3984 61.0943L98.3994 61.0963ZM88.9524 75.6433C90.4756 72.7295 91.2544 69.4841 91.2194 66.1963C91.2226 63.0351 90.5103 59.9142 89.1359 57.0675C87.7616 54.2207 85.7607 51.7219 83.2834 49.7583C82.8231 49.398 82.4486 48.9398 82.1871 48.417C81.9256 47.8942 81.7836 47.3198 81.7714 46.7353V30.2983C81.7714 27.2915 80.5769 24.4079 78.4508 22.2818C76.3247 20.1557 73.4411 18.9613 70.4344 18.9613C67.4276 18.9613 64.544 20.1557 62.4179 22.2818C60.2918 24.4079 59.0974 27.2915 59.0974 30.2983V46.9253C59.085 47.5097 58.9429 48.0841 58.6814 48.6069C58.4199 49.1297 58.0456 49.5879 57.5854 49.9483C56.7836 50.5889 56.0262 51.2832 55.3184 52.0263C56.5424 55.4207 57.1815 58.9981 57.2084 62.6063C57.2562 67.1706 56.2881 71.6883 54.3744 75.8323H88.9504L88.9524 75.6433ZM45.6844 75.6433C48.2625 71.7131 49.6412 67.1176 49.6524 62.4173C49.6524 55.9028 47.0645 49.6551 42.458 45.0486C37.8516 40.4422 31.6039 37.8543 25.0894 37.8543C18.5749 37.8543 12.3272 40.4422 7.7207 45.0486C3.11425 49.6551 0.526367 55.9028 0.526367 62.4173C0.537472 67.1176 1.91619 71.7131 4.49436 75.6433H45.6844ZM151.684 83.2013H4.30836C3.30727 83.2042 2.34801 83.6032 1.64012 84.3111C0.932237 85.019 0.533267 85.9782 0.530365 86.9793V98.3163C0.533003 99.3176 0.931858 100.277 1.63977 100.985C2.34768 101.693 3.3071 102.092 4.30836 102.095H151.682C152.684 102.092 153.643 101.693 154.351 100.985C155.059 100.277 155.458 99.3176 155.46 98.3163V86.9813C155.457 85.98 155.058 85.0205 154.35 84.3127C153.641 83.6048 152.682 83.206 151.68 83.2033L151.684 83.2013ZM8.08437 109.652V128.546H147.903V109.653L8.08437 109.652ZM151.684 136.105H4.30836C3.30727 136.108 2.34801 136.507 1.64012 137.215C0.932237 137.923 0.533267 138.882 0.530365 139.883V151.22C0.533003 152.222 0.931858 153.181 1.63977 153.889C2.34768 154.597 3.3071 154.996 4.30836 154.999H151.682C152.684 154.996 153.643 154.597 154.351 153.889C155.059 153.181 155.458 152.222 155.46 151.22V139.884C155.457 138.883 155.058 137.924 154.35 137.216C153.641 136.508 152.682 136.109 151.68 136.106L151.684 136.105ZM13.7554 30.2983H21.3124C21.3034 27.2943 20.1061 24.4159 17.9819 22.2917C15.8578 20.1676 12.9794 18.9703 9.97536 18.9613H2.41837C2.42733 21.9653 3.62464 24.8437 5.7488 26.9679C7.87296 29.092 10.7514 30.2893 13.7554 30.2983ZM93.1104 0.0703125H85.5534C82.5494 0.0792813 79.671 1.27659 77.5468 3.40075C75.4226 5.52491 74.2253 8.40331 74.2164 11.4073H81.7734C84.7774 11.3983 87.6558 10.201 89.7799 8.07687C91.9041 5.95271 93.1014 3.07431 93.1104 0.0703125Z" fill="#06913D"/>
</svg>
