<svg width="151" height="198" viewBox="0 0 151 198" fill="none" xmlns="http://www.w3.org/2000/svg">
<path d="M79.9697 16.2091L105.605 1.12405L106.47 0.956055V31.1261L79.9697 16.2091Z" fill="white"/>
<path d="M79.7568 46.811L106.468 31.125L79.9678 16.208" fill="#999696"/>
<path d="M30.3701 58.4561L56.025 41.3831L82.6421 57.8611L55.9791 74.6281L30.3701 58.4561Z" fill="white"/>
<path d="M30.3701 58.7261V58.4561L55.9761 74.6281L30.3701 89.8571V58.7261Z" fill="#999696"/>
<path d="M30.3701 89.856L55.9761 74.627L57.416 106.575L30.3701 89.856Z" fill="white"/>
<path d="M30.3701 122.933L57.416 106.575L30.3701 89.856V123.293" fill="#999696"/>
<path d="M82.6405 57.8611L82.9346 90.0251L55.9766 74.6251L82.6405 57.8611Z" fill="#999696"/>
<path d="M82.6387 57.8611L110.119 74.6331L82.9326 90.0251L82.6387 57.8611Z" fill="white"/>
<path d="M82.6387 57.8601L109.639 42.0061L110.12 74.6311L82.6387 57.8601Z" fill="#999696"/>
<path d="M109.64 42.0068L134.622 57.9378L110.122 74.6328L109.64 42.0068Z" fill="white"/>
<path d="M134.621 57.9412L110.121 74.6362L135.631 90.8692L134.621 57.9412Z" fill="#999696"/>
<path d="M110.12 74.6321L110.48 108.232L135.63 90.8651L110.12 74.6321Z" fill="white"/>
<path d="M57.416 106.575L82.9341 90.0251L83.144 123.871L57.416 106.575Z" fill="#999696"/>
<path d="M30.3701 122.933L57.416 106.575L83.144 123.875L55.9761 140.449L30.3701 122.933Z" fill="white"/>
<path d="M82.9326 90.127L83.1426 123.87L110.479 108.232L82.9326 90.127Z" fill="white"/>
<path d="M110.481 108.232V140.444L83.1436 123.87L110.481 108.232Z" fill="#999696"/>
<path d="M110.48 108.232L135.26 124.666L110.48 140.444V108.232Z" fill="white"/>
<path d="M135.629 90.865L135.259 124.665L110.479 108.231L135.629 90.865Z" fill="#999696"/>
<path d="M7.8125 165.807H2.2017V147.625H8.06108C9.82481 147.625 11.334 147.989 12.5888 148.717C13.8435 149.439 14.8053 150.478 15.4741 151.833C16.1429 153.183 16.4773 154.799 16.4773 156.681C16.4773 158.575 16.1399 160.205 15.4652 161.572C14.7905 162.934 13.808 163.981 12.5178 164.715C11.2275 165.443 9.65909 165.807 7.8125 165.807ZM4.40341 163.854H7.67045C9.17377 163.854 10.4196 163.564 11.408 162.984C12.3964 162.404 13.1333 161.578 13.6186 160.507C14.1039 159.436 14.3466 158.16 14.3466 156.681C14.3466 155.213 14.1069 153.949 13.6275 152.89C13.1481 151.825 12.4319 151.008 11.479 150.44C10.5262 149.865 9.33949 149.578 7.91903 149.578H4.40341V163.854ZM19.8864 165.807V152.171H21.9105V154.23H22.0526C22.3011 153.556 22.7509 153.008 23.402 152.588C24.053 152.168 24.7869 151.958 25.6037 151.958C25.7576 151.958 25.9499 151.961 26.1808 151.967C26.4116 151.972 26.5862 151.981 26.7045 151.993V154.124C26.6335 154.106 26.4708 154.08 26.2163 154.044C25.9677 154.003 25.7043 153.982 25.4261 153.982C24.7633 153.982 24.1714 154.121 23.6506 154.399C23.1357 154.671 22.7273 155.05 22.4254 155.535C22.1295 156.015 21.9815 156.562 21.9815 157.178V165.807H19.8864ZM29.1526 165.949C28.7146 165.949 28.3388 165.792 28.0251 165.479C27.7114 165.165 27.5546 164.789 27.5546 164.351C27.5546 163.913 27.7114 163.537 28.0251 163.224C28.3388 162.91 28.7146 162.753 29.1526 162.753C29.5906 162.753 29.9664 162.91 30.2801 163.224C30.5938 163.537 30.7506 163.913 30.7506 164.351C30.7506 164.641 30.6766 164.908 30.5287 165.15C30.3866 165.393 30.1943 165.588 29.9516 165.736C29.7149 165.878 29.4485 165.949 29.1526 165.949ZM38.097 165.807L33.1254 147.625H35.3627L39.1624 162.434H39.3399L43.2107 147.625H45.6965L49.5672 162.434H49.7448L53.5445 147.625H55.7817L50.8101 165.807H48.5374L44.5246 151.318H44.3825L40.3698 165.807H38.097ZM62.6887 166.091C61.3747 166.091 60.2413 165.801 59.2884 165.221C58.3415 164.635 57.6105 163.818 57.0956 162.771C56.5866 161.717 56.3321 160.492 56.3321 159.095C56.3321 157.699 56.5866 156.468 57.0956 155.402C57.6105 154.331 58.3267 153.497 59.2441 152.899C60.1673 152.295 61.2445 151.993 62.4756 151.993C63.1858 151.993 63.8872 152.112 64.5796 152.348C65.2721 152.585 65.9024 152.97 66.4706 153.502C67.0388 154.029 67.4916 154.728 67.8289 155.598C68.1663 156.468 68.335 157.539 68.335 158.811V159.699H57.8236V157.888H66.2043C66.2043 157.119 66.0504 156.432 65.7426 155.828C65.4408 155.225 65.0087 154.748 64.4465 154.399C63.8901 154.05 63.2332 153.875 62.4756 153.875C61.6411 153.875 60.919 154.082 60.3094 154.497C59.7057 154.905 59.2411 155.438 58.9156 156.095C58.5901 156.752 58.4273 157.456 58.4273 158.208V159.415C58.4273 160.445 58.6048 161.318 58.96 162.034C59.321 162.744 59.8211 163.286 60.4603 163.659C61.0995 164.026 61.8423 164.209 62.6887 164.209C63.2391 164.209 63.7362 164.132 64.1801 163.978C64.6299 163.818 65.0176 163.582 65.3431 163.268C65.6686 162.948 65.9202 162.552 66.0977 162.078L68.1219 162.647C67.9088 163.333 67.5508 163.937 67.0477 164.458C66.5446 164.973 65.9231 165.375 65.1833 165.665C64.4435 165.949 63.6119 166.091 62.6887 166.091ZM75.5349 166.127C74.6708 166.127 73.8866 165.964 73.1823 165.638C72.478 165.307 71.9186 164.831 71.5044 164.209C71.0901 163.582 70.8829 162.824 70.8829 161.936C70.8829 161.155 71.0368 160.522 71.3445 160.037C71.6523 159.545 72.0637 159.161 72.5786 158.882C73.0935 158.604 73.6617 158.397 74.2831 158.261C74.9105 158.119 75.5408 158.006 76.1741 157.924C77.0027 157.817 77.6744 157.737 78.1894 157.684C78.7102 157.625 79.089 157.527 79.3257 157.391C79.5684 157.255 79.6897 157.018 79.6897 156.681V156.61C79.6897 155.734 79.45 155.053 78.9706 154.568C78.4971 154.082 77.778 153.84 76.8133 153.84C75.8131 153.84 75.0289 154.059 74.4607 154.497C73.8925 154.935 73.493 155.402 73.2622 155.899L71.2735 155.189C71.6286 154.361 72.1021 153.716 72.694 153.254C73.2918 152.786 73.9428 152.461 74.6471 152.277C75.3573 152.088 76.0557 151.993 76.7423 151.993C77.1802 151.993 77.6833 152.046 78.2515 152.153C78.8256 152.254 79.379 152.464 79.9117 152.783C80.4503 153.103 80.8971 153.585 81.2522 154.23C81.6073 154.876 81.7849 155.74 81.7849 156.823V165.807H79.6897V163.961H79.5832C79.4411 164.256 79.2044 164.573 78.873 164.91C78.5415 165.248 78.1006 165.535 77.5502 165.772C76.9997 166.008 76.328 166.127 75.5349 166.127ZM75.8545 164.245C76.6831 164.245 77.3815 164.082 77.9497 163.756C78.5238 163.431 78.9558 163.011 79.2458 162.496C79.5418 161.981 79.6897 161.439 79.6897 160.871V158.953C79.6009 159.06 79.4056 159.158 79.1038 159.246C78.8079 159.329 78.4646 159.403 78.074 159.468C77.6892 159.528 77.3134 159.581 76.9465 159.628C76.5854 159.67 76.2925 159.705 76.0676 159.735C75.5231 159.806 75.0141 159.921 74.5406 160.081C74.073 160.235 73.6942 160.469 73.4042 160.782C73.1201 161.09 72.9781 161.51 72.9781 162.043C72.9781 162.771 73.2474 163.321 73.786 163.694C74.3305 164.061 75.02 164.245 75.8545 164.245ZM87.7042 147.625V165.807H85.609V147.625H87.7042ZM97.472 152.171V153.946H90.4053V152.171H97.472ZM92.4649 148.904H94.5601V161.901C94.5601 162.493 94.6459 162.937 94.8176 163.233C94.9951 163.523 95.22 163.718 95.4923 163.818C95.7704 163.913 96.0634 163.961 96.3712 163.961C96.602 163.961 96.7914 163.949 96.9394 163.925C97.0873 163.895 97.2057 163.872 97.2945 163.854L97.7206 165.736C97.5786 165.789 97.3803 165.843 97.1258 165.896C96.8713 165.955 96.5487 165.985 96.1581 165.985C95.5663 165.985 94.9862 165.857 94.4181 165.603C93.8558 165.348 93.3882 164.961 93.0154 164.44C92.6484 163.919 92.4649 163.262 92.4649 162.469V148.904ZM103.012 157.604V165.807H100.917V147.625H103.012V154.301H103.189C103.509 153.597 103.988 153.038 104.628 152.624C105.273 152.203 106.131 151.993 107.202 151.993C108.131 151.993 108.945 152.18 109.644 152.553C110.342 152.919 110.883 153.485 111.268 154.248C111.659 155.006 111.854 155.97 111.854 157.142V165.807H109.759V157.284C109.759 156.201 109.478 155.364 108.916 154.772C108.359 154.174 107.587 153.875 106.598 153.875C105.912 153.875 105.296 154.02 104.752 154.31C104.213 154.6 103.787 155.024 103.473 155.58C103.166 156.136 103.012 156.811 103.012 157.604ZM115.687 165.807V152.171H117.782V165.807H115.687ZM116.752 149.898C116.344 149.898 115.992 149.759 115.696 149.481C115.406 149.203 115.261 148.868 115.261 148.478C115.261 148.087 115.406 147.753 115.696 147.474C115.992 147.196 116.344 147.057 116.752 147.057C117.161 147.057 117.51 147.196 117.8 147.474C118.096 147.753 118.244 148.087 118.244 148.478C118.244 148.868 118.096 149.203 117.8 149.481C117.51 149.759 117.161 149.898 116.752 149.898ZM127.692 152.171V153.946H120.341V152.171H127.692ZM122.543 165.807V150.289C122.543 149.507 122.727 148.856 123.093 148.336C123.46 147.815 123.937 147.424 124.523 147.164C125.109 146.903 125.727 146.773 126.378 146.773C126.893 146.773 127.313 146.814 127.639 146.897C127.964 146.98 128.207 147.057 128.367 147.128L127.763 148.939C127.657 148.904 127.509 148.859 127.319 148.806C127.136 148.753 126.893 148.726 126.591 148.726C125.899 148.726 125.399 148.901 125.091 149.25C124.789 149.599 124.638 150.111 124.638 150.786V165.807H122.543ZM131.978 170.921C131.623 170.921 131.306 170.891 131.028 170.832C130.75 170.779 130.558 170.725 130.451 170.672L130.984 168.826C131.493 168.956 131.942 169.003 132.333 168.968C132.724 168.932 133.07 168.758 133.372 168.444C133.68 168.136 133.961 167.636 134.215 166.943L134.606 165.878L129.563 152.171H131.836L135.6 163.037H135.742L139.506 152.171H141.779L135.991 167.796C135.73 168.5 135.408 169.083 135.023 169.545C134.638 170.012 134.192 170.359 133.683 170.583C133.179 170.808 132.611 170.921 131.978 170.921Z" fill="white"/>
<path d="M31.4347 189.258V188.555H36.3438V189.258H34.2855V195.1H33.4929V189.258H31.4347ZM36.955 195.1V190.191H37.6837V190.932H37.7348C37.8243 190.69 37.9862 190.492 38.2206 190.341C38.455 190.19 38.7192 190.114 39.0132 190.114C39.0686 190.114 39.1379 190.115 39.221 190.117C39.3041 190.12 39.3669 190.123 39.4095 190.127V190.894C39.384 190.888 39.3254 190.878 39.2338 190.865C39.1443 190.85 39.0494 190.843 38.9493 190.843C38.7107 190.843 38.4976 190.893 38.3101 190.993C38.1247 191.091 37.9777 191.228 37.8691 191.402C37.7625 191.575 37.7093 191.772 37.7093 191.994V195.1H36.955ZM43.3974 193.093V190.191H44.1516V195.1H43.3974V194.269H43.3462C43.2312 194.518 43.0522 194.73 42.8093 194.905C42.5664 195.078 42.2596 195.164 41.8888 195.164C41.582 195.164 41.3093 195.097 41.0707 194.963C40.832 194.826 40.6445 194.622 40.5082 194.349C40.3718 194.074 40.3036 193.728 40.3036 193.31V190.191H41.0579V193.259C41.0579 193.617 41.158 193.903 41.3583 194.116C41.5607 194.329 41.8185 194.435 42.1317 194.435C42.3192 194.435 42.5099 194.387 42.7038 194.292C42.8999 194.196 43.0639 194.049 43.196 193.85C43.3303 193.652 43.3974 193.4 43.3974 193.093ZM47.5914 195.202C47.1183 195.202 46.7103 195.098 46.3673 194.889C46.0264 194.678 45.7632 194.384 45.5779 194.007C45.3946 193.628 45.303 193.187 45.303 192.684C45.303 192.181 45.3946 191.738 45.5779 191.354C45.7632 190.969 46.021 190.668 46.3513 190.453C46.6837 190.236 47.0715 190.127 47.5146 190.127C47.7703 190.127 48.0228 190.17 48.2721 190.255C48.5214 190.34 48.7483 190.479 48.9529 190.67C49.1574 190.86 49.3204 191.111 49.4419 191.425C49.5633 191.738 49.624 192.124 49.624 192.582V192.901H45.8399V192.249H48.857C48.857 191.972 48.8016 191.725 48.6908 191.508C48.5821 191.29 48.4266 191.119 48.2242 190.993C48.0239 190.867 47.7874 190.805 47.5146 190.805C47.2142 190.805 46.9543 190.879 46.7348 191.028C46.5175 191.175 46.3502 191.367 46.233 191.604C46.1159 191.84 46.0573 192.094 46.0573 192.364V192.799C46.0573 193.17 46.1212 193.484 46.249 193.742C46.379 193.997 46.559 194.192 46.7892 194.327C47.0193 194.459 47.2867 194.525 47.5914 194.525C47.7895 194.525 47.9685 194.497 48.1283 194.442C48.2902 194.384 48.4298 194.299 48.547 194.186C48.6642 194.071 48.7547 193.928 48.8186 193.758L49.5473 193.962C49.4706 194.209 49.3417 194.427 49.1606 194.614C48.9795 194.8 48.7558 194.945 48.4894 195.049C48.2231 195.151 47.9237 195.202 47.5914 195.202ZM54.5938 195.1L52.8041 188.555H53.6095L54.9774 193.886H55.0413L56.4347 188.555H57.3296L58.7231 193.886H58.787L60.1549 188.555H60.9603L59.1705 195.1H58.3524L56.9078 189.884H56.8566L55.412 195.1H54.5938ZM63.4468 195.202C62.9738 195.202 62.5658 195.098 62.2227 194.889C61.8818 194.678 61.6187 194.384 61.4333 194.007C61.2501 193.628 61.1585 193.187 61.1585 192.684C61.1585 192.181 61.2501 191.738 61.4333 191.354C61.6187 190.969 61.8765 190.668 62.2068 190.453C62.5392 190.236 62.9269 190.127 63.3701 190.127C63.6258 190.127 63.8783 190.17 64.1276 190.255C64.3769 190.34 64.6038 190.479 64.8083 190.67C65.0129 190.86 65.1759 191.111 65.2973 191.425C65.4188 191.738 65.4795 192.124 65.4795 192.582V192.901H61.6954V192.249H64.7124C64.7124 191.972 64.657 191.725 64.5463 191.508C64.4376 191.29 64.282 191.119 64.0796 190.993C63.8794 190.867 63.6428 190.805 63.3701 190.805C63.0697 190.805 62.8097 190.879 62.5903 191.028C62.373 191.175 62.2057 191.367 62.0885 191.604C61.9713 191.84 61.9127 192.094 61.9127 192.364V192.799C61.9127 193.17 61.9767 193.484 62.1045 193.742C62.2345 193.997 62.4145 194.192 62.6446 194.327C62.8747 194.459 63.1421 194.525 63.4468 194.525C63.645 194.525 63.824 194.497 63.9838 194.442C64.1457 194.384 64.2852 194.299 64.4024 194.186C64.5196 194.071 64.6102 193.928 64.6741 193.758L65.4028 193.962C65.3261 194.209 65.1972 194.427 65.0161 194.614C64.835 194.8 64.6112 194.945 64.3449 195.049C64.0786 195.151 63.7792 195.202 63.4468 195.202ZM68.0715 195.215C67.7604 195.215 67.4781 195.157 67.2245 195.039C66.971 194.92 66.7696 194.749 66.6205 194.525C66.4713 194.299 66.3968 194.026 66.3968 193.707C66.3968 193.425 66.4521 193.197 66.5629 193.023C66.6737 192.846 66.8218 192.707 67.0072 192.607C67.1926 192.507 67.3971 192.432 67.6208 192.383C67.8467 192.332 68.0736 192.292 68.3016 192.262C68.5999 192.224 68.8417 192.195 69.0271 192.176C69.2146 192.154 69.3509 192.119 69.4362 192.07C69.5235 192.021 69.5672 191.936 69.5672 191.815V191.789C69.5672 191.474 69.4809 191.229 69.3083 191.054C69.1379 190.879 68.879 190.792 68.5317 190.792C68.1716 190.792 67.8893 190.871 67.6847 191.028C67.4802 191.186 67.3364 191.354 67.2533 191.533L66.5374 191.278C66.6652 190.979 66.8357 190.747 67.0487 190.581C67.2639 190.413 67.4983 190.295 67.7519 190.229C68.0075 190.161 68.259 190.127 68.5061 190.127C68.6638 190.127 68.8449 190.146 69.0494 190.185C69.2561 190.221 69.4553 190.296 69.6471 190.412C69.841 190.527 70.0019 190.7 70.1297 190.932C70.2575 191.165 70.3215 191.476 70.3215 191.866V195.1H69.5672V194.435H69.5289C69.4777 194.542 69.3925 194.656 69.2732 194.777C69.1539 194.899 68.9951 195.002 68.797 195.087C68.5988 195.173 68.357 195.215 68.0715 195.215ZM68.1865 194.538C68.4848 194.538 68.7362 194.479 68.9408 194.362C69.1475 194.245 69.303 194.093 69.4074 193.908C69.5139 193.723 69.5672 193.528 69.5672 193.323V192.633C69.5352 192.671 69.4649 192.706 69.3563 192.738C69.2497 192.768 69.1262 192.795 68.9855 192.818C68.847 192.839 68.7117 192.859 68.5796 192.876C68.4497 192.891 68.3442 192.903 68.2632 192.914C68.0672 192.94 67.884 192.981 67.7135 193.039C67.5452 193.094 67.4088 193.178 67.3044 193.291C67.2021 193.402 67.151 193.553 67.151 193.745C67.151 194.007 67.248 194.205 67.4419 194.339C67.6379 194.472 67.8861 194.538 68.1865 194.538ZM72.4524 188.555V195.1H71.6982V188.555H72.4524ZM75.9688 190.191V190.83H73.4248V190.191H75.9688ZM74.1663 189.015H74.9205V193.694C74.9205 193.907 74.9514 194.067 75.0132 194.173C75.0771 194.278 75.1581 194.348 75.2561 194.384C75.3563 194.418 75.4617 194.435 75.5725 194.435C75.6556 194.435 75.7238 194.431 75.7771 194.423C75.8303 194.412 75.873 194.403 75.9049 194.397L76.0583 195.075C76.0072 195.094 75.9358 195.113 75.8442 195.132C75.7526 195.153 75.6365 195.164 75.4958 195.164C75.2828 195.164 75.074 195.118 74.8694 195.027C74.667 194.935 74.4987 194.795 74.3644 194.608C74.2323 194.42 74.1663 194.184 74.1663 193.898V189.015ZM77.9632 192.147V195.1H77.2089V188.555H77.9632V190.958H78.0271C78.1421 190.705 78.3147 190.503 78.5448 190.354C78.7771 190.203 79.086 190.127 79.4717 190.127C79.8062 190.127 80.0992 190.194 80.3506 190.328C80.602 190.461 80.797 190.664 80.9355 190.939C81.0761 191.212 81.1464 191.559 81.1464 191.981V195.1H80.3921V192.032C80.3921 191.642 80.2909 191.341 80.0885 191.127C79.8882 190.912 79.6102 190.805 79.2544 190.805C79.0072 190.805 78.7856 190.857 78.5896 190.961C78.3957 191.066 78.2423 191.218 78.1294 191.418C78.0186 191.619 77.9632 191.861 77.9632 192.147ZM85.9524 188.555V195.1H85.1598V188.555H85.9524ZM90.9166 191.29L90.2391 191.482C90.1965 191.369 90.1336 191.26 90.0505 191.153C89.9695 191.044 89.8588 190.955 89.7181 190.885C89.5775 190.814 89.3975 190.779 89.178 190.779C88.8776 190.779 88.6272 190.848 88.4269 190.987C88.2288 191.123 88.1297 191.297 88.1297 191.508C88.1297 191.695 88.1979 191.843 88.3343 191.952C88.4706 192.061 88.6837 192.151 88.9735 192.224L89.7021 192.403C90.1411 192.509 90.4681 192.672 90.6833 192.892C90.8985 193.109 91.0061 193.389 91.0061 193.732C91.0061 194.013 90.9252 194.265 90.7632 194.486C90.6034 194.708 90.3797 194.883 90.0921 195.011C89.8044 195.138 89.4699 195.202 89.0885 195.202C88.5878 195.202 88.1734 195.094 87.8453 194.876C87.5171 194.659 87.3094 194.342 87.222 193.924L87.9379 193.745C88.0061 194.009 88.135 194.207 88.3247 194.339C88.5164 194.472 88.7668 194.538 89.0757 194.538C89.4273 194.538 89.7064 194.463 89.9131 194.314C90.1219 194.163 90.2263 193.981 90.2263 193.771C90.2263 193.6 90.1666 193.457 90.0473 193.342C89.928 193.225 89.7448 193.138 89.4976 193.08L88.6794 192.888C88.2298 192.782 87.8996 192.617 87.6887 192.393C87.4798 192.167 87.3754 191.885 87.3754 191.546C87.3754 191.269 87.4532 191.024 87.6088 190.811C87.7664 190.598 87.9806 190.431 88.2512 190.309C88.5239 190.188 88.8328 190.127 89.178 190.127C89.6638 190.127 90.0452 190.234 90.3222 190.447C90.6013 190.66 90.7994 190.941 90.9166 191.29ZM94.775 195.1V188.555H95.5676V191.469H99.0577V188.555H99.8503V195.1H99.0577V192.173H95.5676V195.1H94.775ZM103.393 195.202C102.92 195.202 102.512 195.098 102.169 194.889C101.828 194.678 101.565 194.384 101.38 194.007C101.196 193.628 101.105 193.187 101.105 192.684C101.105 192.181 101.196 191.738 101.38 191.354C101.565 190.969 101.823 190.668 102.153 190.453C102.485 190.236 102.873 190.127 103.316 190.127C103.572 190.127 103.825 190.17 104.074 190.255C104.323 190.34 104.55 190.479 104.755 190.67C104.959 190.86 105.122 191.111 105.244 191.425C105.365 191.738 105.426 192.124 105.426 192.582V192.901H101.642V192.249H104.659C104.659 191.972 104.603 191.725 104.493 191.508C104.384 191.29 104.228 191.119 104.026 190.993C103.826 190.867 103.589 190.805 103.316 190.805C103.016 190.805 102.756 190.879 102.537 191.028C102.319 191.175 102.152 191.367 102.035 191.604C101.918 191.84 101.859 192.094 101.859 192.364V192.799C101.859 193.17 101.923 193.484 102.051 193.742C102.181 193.997 102.361 194.192 102.591 194.327C102.821 194.459 103.088 194.525 103.393 194.525C103.591 194.525 103.77 194.497 103.93 194.442C104.092 194.384 104.232 194.299 104.349 194.186C104.466 194.071 104.556 193.928 104.62 193.758L105.349 193.962C105.272 194.209 105.143 194.427 104.962 194.614C104.781 194.8 104.558 194.945 104.291 195.049C104.025 195.151 103.725 195.202 103.393 195.202ZM108.018 195.215C107.707 195.215 107.424 195.157 107.171 195.039C106.917 194.92 106.716 194.749 106.567 194.525C106.418 194.299 106.343 194.026 106.343 193.707C106.343 193.425 106.398 193.197 106.509 193.023C106.62 192.846 106.768 192.707 106.953 192.607C107.139 192.507 107.343 192.432 107.567 192.383C107.793 192.332 108.02 192.292 108.248 192.262C108.546 192.224 108.788 192.195 108.973 192.176C109.161 192.154 109.297 192.119 109.382 192.07C109.47 192.021 109.513 191.936 109.513 191.815V191.789C109.513 191.474 109.427 191.229 109.255 191.054C109.084 190.879 108.825 190.792 108.478 190.792C108.118 190.792 107.836 190.871 107.631 191.028C107.426 191.186 107.283 191.354 107.2 191.533L106.484 191.278C106.612 190.979 106.782 190.747 106.995 190.581C107.21 190.413 107.445 190.295 107.698 190.229C107.954 190.161 108.205 190.127 108.452 190.127C108.61 190.127 108.791 190.146 108.996 190.185C109.202 190.221 109.402 190.296 109.593 190.412C109.787 190.527 109.948 190.7 110.076 190.932C110.204 191.165 110.268 191.476 110.268 191.866V195.1H109.513V194.435H109.475C109.424 194.542 109.339 194.656 109.219 194.777C109.1 194.899 108.941 195.002 108.743 195.087C108.545 195.173 108.303 195.215 108.018 195.215ZM108.133 194.538C108.431 194.538 108.683 194.479 108.887 194.362C109.094 194.245 109.249 194.093 109.354 193.908C109.46 193.723 109.513 193.528 109.513 193.323V192.633C109.482 192.671 109.411 192.706 109.303 192.738C109.196 192.768 109.072 192.795 108.932 192.818C108.793 192.839 108.658 192.859 108.526 192.876C108.396 192.891 108.29 192.903 108.21 192.914C108.013 192.94 107.83 192.981 107.66 193.039C107.491 193.094 107.355 193.178 107.251 193.291C107.148 193.402 107.097 193.553 107.097 193.745C107.097 194.007 107.194 194.205 107.388 194.339C107.584 194.472 107.832 194.538 108.133 194.538ZM112.399 188.555V195.1H111.644V188.555H112.399ZM115.915 190.191V190.83H113.371V190.191H115.915ZM114.113 189.015H114.867V193.694C114.867 193.907 114.898 194.067 114.96 194.173C115.023 194.278 115.104 194.348 115.202 194.384C115.303 194.418 115.408 194.435 115.519 194.435C115.602 194.435 115.67 194.431 115.723 194.423C115.777 194.412 115.819 194.403 115.851 194.397L116.005 195.075C115.953 195.094 115.882 195.113 115.79 195.132C115.699 195.153 115.583 195.164 115.442 195.164C115.229 195.164 115.02 195.118 114.816 195.027C114.613 194.935 114.445 194.795 114.311 194.608C114.179 194.42 114.113 194.184 114.113 193.898V189.015ZM117.909 192.147V195.1H117.155V188.555H117.909V190.958H117.973C118.088 190.705 118.261 190.503 118.491 190.354C118.723 190.203 119.032 190.127 119.418 190.127C119.752 190.127 120.045 190.194 120.297 190.328C120.548 190.461 120.743 190.664 120.882 190.939C121.022 191.212 121.093 191.559 121.093 191.981V195.1H120.338V192.032C120.338 191.642 120.237 191.341 120.035 191.127C119.835 190.912 119.556 190.805 119.201 190.805C118.953 190.805 118.732 190.857 118.536 190.961C118.342 191.066 118.189 191.218 118.076 191.418C117.965 191.619 117.909 191.861 117.909 192.147Z" fill="white"/>
<path d="M150.55 181.426H18V183.761H150.55V181.426Z" fill="white"/>
</svg>
