<svg width="70" height="60" viewBox="0 0 70 60" fill="none" xmlns="http://www.w3.org/2000/svg">
<path fill-rule="evenodd" clip-rule="evenodd" d="M64.6174 31.6997C63.751 31.7082 62.8971 31.9087 62.1174 32.2867L47.4394 39.3567C47.0751 38.5413 46.4767 37.8524 45.7202 37.3776C44.9637 36.9028 44.0832 36.6633 43.1904 36.6897L34.7754 36.9347C32.8663 36.8698 30.978 36.5151 29.1754 35.8827C26.7308 35.1033 24.1822 34.6987 21.6164 34.6827C18.4699 34.8297 15.3622 35.4395 12.3934 36.4927V34.6577C12.3925 34.4478 12.351 34.24 12.2714 34.0457C12.2068 33.852 12.0979 33.676 11.9535 33.5316C11.8091 33.3872 11.6331 33.2784 11.4394 33.2137C11.2452 33.1341 11.0374 33.0927 10.8274 33.0917H2.33844C2.13659 33.0928 1.93699 33.1343 1.75143 33.2137C1.56079 33.2848 1.3861 33.3928 1.23743 33.5317C1.09128 33.6793 0.975147 33.8539 0.895439 34.0457C0.815834 34.24 0.77441 34.4478 0.773438 34.6577V57.9447C0.774433 58.1466 0.81592 58.3462 0.895439 58.5317C0.974466 58.7239 1.0908 58.8985 1.23773 59.0454C1.38466 59.1924 1.55926 59.3087 1.75143 59.3877C1.93699 59.4672 2.13659 59.5087 2.33844 59.5097H10.8274C11.0374 59.5088 11.2452 59.4673 11.4394 59.3877C11.6313 59.308 11.8058 59.1919 11.9534 59.0457C12.0925 58.8972 12.2006 58.7225 12.2714 58.5317C12.3509 58.3462 12.3924 58.1466 12.3934 57.9447V55.9447C22.6934 54.1207 28.8494 57.2247 38.1284 57.2167C40.0504 57.2167 42.0664 56.2967 44.5864 54.9907C47.1064 53.6847 49.9864 51.9317 52.9034 50.0487C58.7344 46.2837 64.6964 41.9747 67.8034 39.8717C68.3041 39.5333 68.7267 39.092 69.0431 38.5773C69.3596 38.0625 69.5625 37.4862 69.6384 36.8867C69.7587 35.7797 69.4718 34.6667 68.8314 33.7557C68.3511 33.0957 67.7164 32.5633 66.9829 32.2051C66.2494 31.8469 65.4393 31.6737 64.6234 31.7007L64.6174 31.6997ZM3.90144 36.2257H5.34444V56.3827H3.90144V36.2247V36.2257Z" fill="#06913D"/>
<path fill-rule="evenodd" clip-rule="evenodd" d="M46.774 0.48584C48.8613 0.491908 50.8613 1.32376 52.3372 2.79967C53.8131 4.27558 54.645 6.27559 54.6511 8.36284V25.0708C54.6511 27.1631 53.8199 29.1697 52.3404 30.6492C50.8609 32.1287 48.8543 32.9598 46.7621 32.9598C44.6698 32.9598 42.6632 32.1287 41.1837 30.6492C39.7042 29.1697 38.873 27.1631 38.873 25.0708V8.36284C38.886 6.27356 39.7233 4.27388 41.2029 2.79875C42.6825 1.32363 44.6847 0.49239 46.774 0.48584ZM49.123 5.84284C49.0741 5.84011 49.025 5.84011 48.976 5.84284C48.924 5.84284 48.8561 5.85884 48.8051 5.86784C48.7049 5.88227 48.6064 5.90673 48.511 5.94084C48.4167 5.98074 48.3266 6.02998 48.2421 6.08784C48.019 6.22776 47.8341 6.42087 47.704 6.64984C47.5699 6.87199 47.4942 7.12452 47.4841 7.38384V12.0318C47.4889 12.1472 47.5053 12.2618 47.5331 12.3738C47.5451 12.4248 47.5651 12.4738 47.5821 12.5208C47.5991 12.5678 47.609 12.6208 47.631 12.6678C47.6533 12.7097 47.6776 12.7505 47.704 12.7898C47.7831 12.9262 47.8822 13.0499 47.998 13.1568C48.0369 13.1923 48.0777 13.2257 48.1201 13.2568C48.1621 13.2878 48.1981 13.3278 48.2421 13.3568C48.3796 13.4351 48.5278 13.4927 48.6821 13.5278C48.8338 13.5673 48.9905 13.5838 49.1471 13.5768C49.2544 13.5709 49.3609 13.5545 49.4651 13.5278C49.5662 13.5045 49.6647 13.471 49.7591 13.4278C49.801 13.4057 49.8417 13.3813 49.881 13.3548C50.018 13.267 50.1416 13.1599 50.248 13.0368C50.3492 12.9194 50.4319 12.7873 50.493 12.6448C50.5561 12.5053 50.5972 12.3569 50.6151 12.2048C50.6211 12.1528 50.6151 12.0858 50.6151 12.0338V7.38484C50.6186 7.3279 50.6186 7.27079 50.6151 7.21384C50.6095 7.16441 50.6011 7.11533 50.5901 7.06684C50.5781 7.01584 50.558 6.96684 50.541 6.91984C50.524 6.87284 50.5141 6.81984 50.4921 6.77284C50.3468 6.49057 50.1268 6.25361 49.856 6.08784C49.7715 6.02998 49.6814 5.98074 49.5871 5.94084C49.4918 5.90648 49.3933 5.88202 49.2931 5.86784C49.2421 5.85984 49.1741 5.84584 49.1211 5.84284H49.123ZM51.523 18.2938H42.006V25.0698C42.006 26.3317 42.5073 27.542 43.3996 28.4343C44.2919 29.3266 45.5022 29.8278 46.7641 29.8278C48.026 29.8278 49.2362 29.3266 50.1285 28.4343C51.0208 27.542 51.5221 26.3317 51.5221 25.0698L51.523 18.2938Z" fill="#06913D"/>
<path fill-rule="evenodd" clip-rule="evenodd" d="M28.0614 10.5399C30.3756 10.5489 32.6151 11.3598 34.3985 12.8346C36.182 14.3094 37.399 16.3568 37.8423 18.6282C38.2856 20.8995 37.9279 23.2544 36.8299 25.2915C35.732 27.3287 33.9618 28.9223 31.8208 29.8009C29.6798 30.6794 27.3005 30.7886 25.088 30.1098C22.8756 29.431 20.9669 28.0062 19.687 26.0782C18.4071 24.1501 17.8352 21.8379 18.0686 19.5355C18.3021 17.2331 19.3265 15.0828 20.9674 13.4509C21.8998 12.5223 23.0065 11.7871 24.2239 11.2875C25.4413 10.7879 26.7455 10.5339 28.0614 10.5399ZM28.0614 13.6469C26.7717 13.6485 25.5085 14.0131 24.4164 14.6989L33.9324 24.1899C34.5747 23.1429 34.9268 21.9438 34.9527 20.7158C34.9786 19.4877 34.6773 18.2749 34.0797 17.2017C33.4821 16.1285 32.6097 15.2337 31.5521 14.609C30.4945 13.9843 29.2897 13.6523 28.0614 13.6469ZM22.1904 16.8999C21.3693 18.2237 21.0203 19.7865 21.2003 21.3338C21.3802 22.8812 22.0785 24.3221 23.1815 25.4222C24.2844 26.5223 25.7272 27.2168 27.2751 27.3927C28.8229 27.5685 30.3847 27.2155 31.7064 26.3909L22.1904 16.8999Z" fill="#06913D"/>
</svg>
