<svg width="37" height="36" viewBox="0 0 37 36" fill="none" xmlns="http://www.w3.org/2000/svg">
<path d="M30.1496 0.279297H6.88763C5.2334 0.288229 3.64948 0.949398 2.47984 2.11922C1.31021 3.28905 0.649292 4.87307 0.640625 6.5273V29.7513C0.643006 31.4076 1.30204 32.9955 2.47325 34.1667C3.64446 35.3379 5.23228 35.9969 6.88863 35.9993H30.1126C31.769 35.9969 33.3568 35.3379 34.528 34.1667C35.6992 32.9955 36.3582 31.4076 36.3606 29.7513V6.5273C36.3637 5.70906 36.2053 4.89826 35.8947 4.14126C35.5841 3.38427 35.1273 2.69593 34.5505 2.11563C33.9736 1.53533 33.288 1.07445 32.5329 0.759358C31.7777 0.444262 30.9679 0.281132 30.1496 0.279297ZM21.9406 24.5573C22.151 24.3513 22.4342 24.2367 22.7286 24.2383C23.0231 24.2399 23.305 24.3575 23.5132 24.5657C23.7214 24.7739 23.8391 25.0558 23.8406 25.3503C23.8422 25.6447 23.7276 25.9279 23.5216 26.1383L19.3056 30.3543C19.2036 30.4613 19.081 30.5465 18.9451 30.6047C18.8092 30.6629 18.6629 30.6929 18.5151 30.6929C18.3673 30.6929 18.221 30.6629 18.0851 30.6047C17.9493 30.5465 17.8266 30.4613 17.7246 30.3543L13.5086 26.1013C13.403 25.9979 13.3189 25.8746 13.2612 25.7385C13.2036 25.6023 13.1735 25.4561 13.1727 25.3083C13.1719 25.1605 13.2004 25.014 13.2566 24.8773C13.3128 24.7405 13.3956 24.6163 13.5001 24.5118C13.6046 24.4073 13.7289 24.3245 13.8656 24.2683C14.0023 24.2121 14.1488 24.1835 14.2966 24.1843C14.4445 24.1851 14.5907 24.2152 14.7268 24.2729C14.8629 24.3306 14.9862 24.4147 15.0896 24.5203L17.4236 26.8543V9.4633L15.0896 11.7633C14.9867 11.8715 14.8631 11.958 14.7261 12.0177C14.5892 12.0774 14.4417 12.109 14.2923 12.1107C14.1429 12.1124 13.9947 12.0842 13.8565 12.0276C13.7182 11.9711 13.5926 11.8874 13.4872 11.7816C13.3818 11.6757 13.2987 11.5498 13.2428 11.4113C13.1869 11.2728 13.1593 11.1244 13.1617 10.9751C13.164 10.8257 13.1963 10.6783 13.2566 10.5417C13.3169 10.405 13.4039 10.2818 13.5126 10.1793L17.7286 5.9633C17.8306 5.85629 17.9533 5.7711 18.0891 5.71289C18.225 5.65468 18.3713 5.62467 18.5191 5.62467C18.667 5.62467 18.8132 5.65468 18.9491 5.71289C19.085 5.7711 19.2076 5.85629 19.3096 5.9633L23.5256 10.1793C23.6294 10.2834 23.7116 10.4069 23.7676 10.5427C23.8236 10.6786 23.8524 10.8241 23.8521 10.9711C23.8519 11.118 23.8227 11.2635 23.7663 11.3992C23.7098 11.5348 23.6272 11.6581 23.5231 11.7618C23.4191 11.8655 23.2956 11.9478 23.1597 12.0038C23.0239 12.0598 22.8783 12.0885 22.7314 12.0883C22.5844 12.0881 22.4389 12.0589 22.3033 12.0024C22.1676 11.946 22.0444 11.8634 21.9406 11.7593L19.6406 9.4593V26.8913L21.9406 24.5573Z" fill="black"/>
</svg>
