<svg width="44" height="44" viewBox="0 0 44 44" fill="none" xmlns="http://www.w3.org/2000/svg">
<path d="M21.5003 43.4996C17.2488 43.4984 13.0931 42.2369 9.55844 39.8744C6.02382 37.5118 3.26897 34.1544 1.64215 30.2265C0.0153223 26.2986 -0.41044 21.9765 0.41868 17.8067C1.2478 13.6368 3.29458 9.80636 6.30028 6.79956C8.28215 4.74018 10.6547 3.09662 13.2793 1.96499C15.9038 0.833373 18.7277 0.236403 21.5857 0.208996C24.4436 0.18159 27.2784 0.724296 29.9242 1.80538C32.57 2.88646 34.9736 4.48422 36.9946 6.50521C39.0156 8.52621 40.6134 10.9299 41.6945 13.5756C42.7755 16.2214 43.3182 19.0562 43.2908 21.9142C43.2634 24.7722 42.6665 27.596 41.5348 30.2206C40.4032 32.8451 38.7597 35.2177 36.7003 37.1996C34.709 39.2025 32.3403 40.7906 29.7313 41.8719C27.1222 42.9533 24.3246 43.5065 21.5003 43.4996ZM21.5003 4.08256C17.9566 4.08256 14.4926 5.13337 11.5461 7.10211C8.59969 9.07086 6.30322 11.8691 4.94713 15.143C3.59103 18.4169 3.23622 22.0194 3.92755 25.495C4.61888 28.9705 6.32531 32.163 8.83105 34.6688C11.3368 37.1745 14.5293 38.881 18.0048 39.5723C21.4804 40.2636 25.0829 39.9088 28.3568 38.5527C31.6307 37.1966 34.429 34.9001 36.3977 31.9537C38.3665 29.0073 39.4173 25.5432 39.4173 21.9996C39.412 17.2493 37.5226 12.6951 34.1637 9.33617C30.8047 5.97723 26.2505 4.08785 21.5003 4.08256ZM21.5003 32.7496C18.6193 32.7496 18.2343 32.7376 17.0683 32.6846C13.1563 32.5056 10.9943 30.3436 10.8143 26.4326C10.7623 25.2896 10.7503 24.9086 10.7503 22.0006C10.7503 19.0926 10.7623 18.7126 10.8143 17.5686C10.9933 13.6586 13.1563 11.4966 17.0683 11.3176C18.2263 11.2626 18.5683 11.2506 21.5003 11.2506C24.4323 11.2506 24.8003 11.2636 25.9343 11.3176C29.8483 11.4946 32.0093 13.6566 32.1853 17.5686C32.2383 18.7346 32.2503 19.1196 32.2503 22.0006C32.2503 24.8816 32.2383 25.2686 32.1853 26.4326C32.0093 30.3436 29.8483 32.5056 25.9343 32.6846C24.7683 32.7376 24.3833 32.7496 21.5003 32.7496ZM21.5003 13.1886C18.6603 13.1886 18.3083 13.1966 17.1573 13.2486C14.2423 13.3816 12.8833 14.7406 12.7493 17.6566C12.7013 18.7566 12.6863 19.0926 12.6863 21.9996C12.6863 24.9066 12.7013 25.2396 12.7493 26.3426C12.8853 29.2566 14.2493 30.6156 17.1573 30.7496C18.2873 30.8016 18.6263 30.8126 21.5003 30.8126C24.3423 30.8126 24.6863 30.8016 25.8443 30.7496C28.7573 30.6176 30.1173 29.2586 30.2523 26.3426C30.3023 25.2036 30.3123 24.8626 30.3123 21.9996C30.3123 19.1366 30.3013 18.7996 30.2523 17.6566C30.1173 14.7416 28.7573 13.3826 25.8443 13.2506C24.7133 13.1996 24.3733 13.1886 21.5003 13.1886ZM21.5003 27.5196C20.4085 27.5196 19.3413 27.1958 18.4335 26.5893C17.5258 25.9827 16.8183 25.1206 16.4005 24.112C15.9827 23.1033 15.8734 21.9934 16.0863 20.9227C16.2993 19.8519 16.8251 18.8683 17.597 18.0963C18.369 17.3243 19.3526 16.7986 20.4234 16.5856C21.4942 16.3726 22.604 16.4819 23.6127 16.8997C24.6213 17.3175 25.4834 18.025 26.09 18.9328C26.6965 19.8406 27.0203 20.9078 27.0203 21.9996C27.0187 23.4631 26.4366 24.8662 25.4018 25.901C24.3669 26.9359 22.9638 27.518 21.5003 27.5196ZM21.5003 18.4196C20.7916 18.42 20.0989 18.6305 19.5099 19.0246C18.9209 19.4187 18.462 19.9786 18.1912 20.6335C17.9204 21.2884 17.8499 22.0089 17.9886 22.7039C18.1273 23.3989 18.469 24.0371 18.9705 24.5379C19.472 25.0387 20.1107 25.3795 20.8058 25.5172C21.501 25.655 22.2214 25.5835 22.876 25.3118C23.5305 25.0401 24.0898 24.5803 24.483 23.9908C24.8763 23.4012 25.0859 22.7082 25.0853 21.9996C25.0842 21.0493 24.7061 20.1382 24.034 19.4665C23.3618 18.7947 22.4506 18.4171 21.5003 18.4166V18.4196ZM27.2363 17.5566C26.9813 17.556 26.7322 17.4798 26.5204 17.3377C26.3087 17.1956 26.1438 16.9939 26.0466 16.7581C25.9494 16.5224 25.9243 16.2631 25.9744 16.0131C26.0245 15.763 26.1476 15.5334 26.3282 15.3533C26.5087 15.1732 26.7386 15.0507 26.9887 15.0011C27.2389 14.9516 27.4981 14.9773 27.7336 15.075C27.9692 15.1728 28.1705 15.3381 28.3121 15.5502C28.4537 15.7623 28.5293 16.0115 28.5293 16.2666C28.528 16.6084 28.3911 16.9358 28.1487 17.1769C27.9063 17.418 27.5782 17.5531 27.2363 17.5526V17.5566Z" fill="white"/>
</svg>
