<svg width="108" height="88" viewBox="0 0 108 88" fill="none" xmlns="http://www.w3.org/2000/svg">
<path d="M50.2943 41.7754C51.3301 42.4908 52.559 42.874 53.8178 42.874C55.0766 42.874 56.3055 42.4908 57.3413 41.7754L104.274 9.28844C102.625 6.58244 100.31 4.34441 97.5491 2.78805C94.7886 1.23169 91.6753 0.408964 88.5063 0.398438H19.1343C15.9673 0.405251 12.8548 1.22336 10.0938 2.77473C7.33277 4.32611 5.01526 6.559 3.3623 9.26044L50.2943 41.7754Z" fill="black"/>
<path d="M0.545921 18.978V68.535C0.550423 73.4621 2.50972 78.1862 5.99373 81.6702C9.47774 85.1542 14.2018 87.1135 19.1289 87.118H88.5039C93.4311 87.1135 98.1551 85.1542 101.639 81.6702C105.123 78.1862 107.082 73.4621 107.087 68.535V18.978C107.062 18.1476 106.979 17.32 106.84 16.501L61.5719 47.835C59.29 49.4036 56.586 50.2433 53.8169 50.2433C51.0478 50.2433 48.3439 49.4036 46.0619 47.835L0.791924 16.526C0.654099 17.3368 0.571573 18.156 0.544922 18.978H0.545921Z" fill="black"/>
</svg>
