<svg width="40" height="39" viewBox="0 0 40 39" fill="none" xmlns="http://www.w3.org/2000/svg">
<path d="M20.3202 0.046875C16.4812 0.046875 12.7285 1.18525 9.53655 3.31805C6.34459 5.45085 3.85676 8.48228 2.38766 12.029C0.918564 15.5757 0.534184 19.4784 1.28312 23.2436C2.03206 27.0088 3.88068 30.4673 6.59522 33.1818C9.30976 35.8964 12.7683 37.745 16.5335 38.4939C20.2986 39.2429 24.2013 38.8585 27.748 37.3894C31.2948 35.9203 34.3262 33.4325 36.459 30.2405C38.5918 27.0485 39.7302 23.2958 39.7302 19.4569C39.7302 14.309 37.6852 9.37201 34.0451 5.73193C30.405 2.09185 25.468 0.046875 20.3202 0.046875ZM20.3202 8.36588C22.0324 8.36956 23.6737 9.05034 24.8858 10.2597C26.0979 11.469 26.7825 13.1087 26.7902 14.8209C26.7902 14.8259 26.7902 14.8299 26.7902 14.8359C26.8082 17.6119 25.1502 19.3359 23.7432 20.6709C23.0886 21.2435 22.4847 21.8715 21.9382 22.5479C21.4873 23.1141 21.2428 23.8171 21.2452 24.5409V25.0029C21.2452 25.2479 21.1478 25.483 20.9745 25.6562C20.8012 25.8295 20.5662 25.9269 20.3212 25.9269C20.0761 25.9269 19.8411 25.8295 19.6678 25.6562C19.4945 25.483 19.3972 25.2479 19.3972 25.0029V24.5409C19.4094 23.429 19.7789 22.3506 20.4512 21.4649C21.057 20.691 21.7339 19.9755 22.4732 19.3279C23.8462 18.0279 24.9612 16.9119 24.9432 14.8359C24.9432 13.6102 24.4563 12.4347 23.5896 11.568C22.7229 10.7013 21.5474 10.2144 20.3217 10.2144C19.096 10.2144 17.9205 10.7013 17.0538 11.568C16.1871 12.4347 15.7002 13.6102 15.7002 14.8359C15.7002 15.0809 15.6028 15.316 15.4295 15.4892C15.2562 15.6625 15.0212 15.7599 14.7762 15.7599C14.5311 15.7599 14.2961 15.6625 14.1228 15.4892C13.9495 15.316 13.8522 15.0809 13.8522 14.8359C13.8559 13.1211 14.5387 11.4775 15.7513 10.265C16.9638 9.05242 18.6074 8.36957 20.3222 8.36588H20.3202ZM20.3202 27.7759C20.5942 27.7761 20.862 27.8575 21.0898 28.0099C21.3176 28.1622 21.4951 28.3787 21.5998 28.6319C21.7046 28.8852 21.732 29.1637 21.6785 29.4325C21.625 29.7013 21.493 29.9482 21.2992 30.1419C21.1054 30.3357 20.8586 30.4677 20.5898 30.5212C20.321 30.5747 20.0424 30.5473 19.7892 30.4426C19.536 30.3378 19.3195 30.1603 19.1672 29.9325C19.0148 29.7047 18.9334 29.4369 18.9332 29.1629C18.9332 28.9808 18.9691 28.8005 19.0388 28.6322C19.1085 28.464 19.2107 28.3112 19.3395 28.1825C19.4683 28.0538 19.6212 27.9517 19.7895 27.8821C19.9577 27.8125 20.1381 27.7767 20.3202 27.7769V27.7759Z" fill="#06913D"/>
</svg>
