<svg width="43" height="42" viewBox="0 0 43 42" fill="none" xmlns="http://www.w3.org/2000/svg">
<path d="M21.3203 0C17.1669 0 13.1068 1.23163 9.65334 3.53914C6.19991 5.84665 3.50829 9.1264 1.91885 12.9636C0.329413 16.8009 -0.086459 21.0233 0.723831 25.0969C1.53412 29.1705 3.53417 32.9123 6.47108 35.8492C9.40798 38.7861 13.1498 40.7862 17.2234 41.5965C21.297 42.4068 25.5194 41.9909 29.3567 40.4015C33.1939 38.812 36.4737 36.1204 38.7812 32.667C41.0887 29.2135 42.3203 25.1534 42.3203 21C42.3203 15.4305 40.1078 10.089 36.1696 6.15076C32.2313 2.21249 26.8899 0 21.3203 0ZM21.3203 10.64C21.5727 10.6428 21.8204 10.7087 22.0408 10.8319C22.2612 10.955 22.4471 11.1314 22.5818 11.3449C22.7165 11.5584 22.7955 11.8023 22.8116 12.0542C22.8278 12.3061 22.7806 12.558 22.6743 12.787C22.2293 12.6918 21.7754 12.6449 21.3203 12.647C20.8657 12.6473 20.4124 12.6942 19.9673 12.787C19.8611 12.5581 19.8139 12.3062 19.83 12.0544C19.8461 11.8026 19.925 11.5588 20.0596 11.3453C20.1941 11.1318 20.38 10.9554 20.6002 10.8322C20.8204 10.709 21.068 10.6429 21.3203 10.64ZM21.3203 31.593C21.0527 31.593 20.7911 31.5136 20.5686 31.365C20.3461 31.2163 20.1727 31.005 20.0703 30.7578C19.9679 30.5105 19.9411 30.2385 19.9933 29.976C20.0455 29.7136 20.1744 29.4725 20.3636 29.2833C20.5528 29.0941 20.7939 28.9652 21.0564 28.913C21.3188 28.8608 21.5909 28.8876 21.8381 28.99C22.0853 29.0924 22.2966 29.2658 22.4453 29.4883C22.594 29.7108 22.6733 29.9724 22.6733 30.24C22.6731 30.5988 22.5304 30.9427 22.2767 31.1964C22.0231 31.4501 21.6791 31.5927 21.3203 31.593ZM28.1343 27.673C28.1343 27.72 28.0873 27.72 27.9943 27.72H14.6003C14.5533 27.72 14.5073 27.673 14.4603 27.673C14.4603 27.626 14.4133 27.626 14.4133 27.533L16.0003 18.06C16.2072 16.8604 16.8126 15.7657 17.7186 14.9527C18.6247 14.1397 19.7784 13.6561 20.9933 13.58H21.6463C22.8587 13.6489 24.0109 14.1311 24.911 14.9463C25.8112 15.7614 26.4049 16.8603 26.5933 18.06L28.1803 27.533C28.1834 27.5584 28.1808 27.5841 28.1727 27.6083C28.1646 27.6326 28.1511 27.6547 28.1333 27.673H28.1343Z" fill="#06913D"/>
</svg>
