<svg width="48" height="25" viewBox="0 0 48 25" fill="none" xmlns="http://www.w3.org/2000/svg">
<path opacity="0.3" d="M34.926 0.289062H12.231C8.99246 0.289062 5.88655 1.57558 3.59654 3.86559C1.30654 6.15559 0.0200195 9.2615 0.0200195 12.5001C0.0200195 15.7386 1.30654 18.8445 3.59654 21.1346C5.88655 23.4246 8.99246 24.7111 12.231 24.7111H34.925C38.1636 24.7111 41.2695 23.4246 43.5595 21.1346C45.8495 18.8445 47.136 15.7386 47.136 12.5001C47.136 9.2615 45.8495 6.15559 43.5595 3.86559C41.2695 1.57558 38.1636 0.289062 34.925 0.289062H34.926ZM13.074 22.4161C11.1128 22.4161 9.19567 21.8345 7.56499 20.7449C5.93431 19.6553 4.66335 18.1067 3.91283 16.2948C3.16232 14.4828 2.96595 12.4891 3.34856 10.5656C3.73117 8.64204 4.67557 6.87518 6.06235 5.4884C7.44912 4.10163 9.21599 3.15721 11.1395 2.7746C13.063 2.39199 15.0568 2.58836 16.8687 3.33888C18.6806 4.0894 20.2293 5.36035 21.3189 6.99103C22.4085 8.62171 22.99 10.5389 22.99 12.5001C22.9874 15.1293 21.9417 17.6501 20.0824 19.5092C18.2232 21.3682 15.7033 22.4137 13.074 22.4161Z" fill="black"/>
</svg>
