<svg width="132" height="118" viewBox="0 0 132 118" fill="none" xmlns="http://www.w3.org/2000/svg">
<path d="M118.231 67.1632C122.906 65.5012 126.444 65.6523 128.744 67.6012L128.737 67.6032C130.635 69.2113 131.415 71.8842 130.87 74.9412C130.339 77.9748 127.651 79.6986 125.872 80.8396L125.87 80.8412L125.598 81.0153C119.171 85.1647 113.763 88.7201 108.973 91.8693L108.225 92.3612C90.5667 103.977 83.4037 108.688 77.0817 108.688C73.1817 108.688 69.6057 106.898 64.0817 103.829L62.6567 103.038C61.3314 102.305 60.1897 101.657 59.1957 101.092L58.9257 100.938C56.0217 99.2862 54.4227 98.3792 53.3677 98.2542C52.4807 98.1462 51.4497 98.5792 48.9877 99.6462L48.8848 99.6909C47.867 100.132 46.6735 100.65 45.2227 101.23L45.6227 102.01C46.0785 102.91 46.1588 103.954 45.8459 104.913C45.533 105.872 44.8526 106.668 43.9537 107.126L23.9027 117.317C23.3717 117.588 22.784 117.73 22.1877 117.731C21.7842 117.731 21.3833 117.666 20.9997 117.541C20.5241 117.388 20.0836 117.142 19.7038 116.817C19.3239 116.493 19.0122 116.096 18.7867 115.65L1.36374 81.3692C0.908211 80.4688 0.828195 79.4245 1.14122 78.4652C1.45425 77.5058 2.1348 76.7097 3.03374 76.2512L23.0827 66.0552C23.9829 65.5993 25.0271 65.5188 25.9865 65.8315C26.9459 66.1442 27.7421 66.8245 28.2007 67.7232L28.6427 68.5902L47.9377 59.2262C48.5072 58.943 49.1292 58.7808 49.7644 58.7499C50.3996 58.7189 51.0344 58.8198 51.6287 59.0462L85.4778 71.5462C86.5798 71.9564 87.5855 72.5894 88.432 73.4056C89.2785 74.2219 89.9477 75.2038 90.3978 76.2902C90.4918 76.5069 90.5764 76.7269 90.6517 76.9502L118.231 67.1632Z" fill="#06913D"/>
<path d="M125.588 50.2552H38.9427H38.9387C38.3818 50.2552 37.8476 50.034 37.4538 49.6402C37.06 49.2463 36.8387 48.7122 36.8387 48.1552V2.17324C36.8387 1.61629 37.06 1.08214 37.4538 0.688316C37.8476 0.29449 38.3818 0.0732422 38.9387 0.0732422H125.588C126.145 0.0732422 126.679 0.29449 127.073 0.688316C127.467 1.08214 127.688 1.61629 127.688 2.17324V48.1552C127.688 48.7122 127.467 49.2463 127.073 49.6402C126.679 50.034 126.145 50.2552 125.588 50.2552Z" fill="#06913D"/>
</svg>
