<svg width="57" height="91" viewBox="0 0 57 91" fill="none" xmlns="http://www.w3.org/2000/svg">
<path fill-rule="evenodd" clip-rule="evenodd" d="M54.572 90.4722L54.823 90.5722L55.135 90.6362H55.461L55.622 90.6162C55.7793 90.5875 55.9317 90.537 56.075 90.4662L56.329 90.3082C56.4553 90.2121 56.568 90.0994 56.664 89.9732L56.835 89.6952L56.946 89.3872L56.997 89.0752V88.9682V1.79417C56.9965 1.34983 56.8197 0.923835 56.5055 0.609638C56.1913 0.295442 55.7653 0.118693 55.321 0.118164H1.67599C1.23165 0.118693 0.805667 0.295442 0.49147 0.609638C0.177274 0.923835 0.000529292 1.34983 0 1.79417V88.9722C0.000180737 89.2581 0.0734007 89.5392 0.212723 89.7888C0.352045 90.0385 0.552842 90.2484 0.796066 90.3987C1.03929 90.5489 1.31689 90.6345 1.60249 90.6474C1.8881 90.6603 2.17224 90.6 2.42799 90.4722L8.382 87.4942L14.336 90.4722C14.5687 90.5891 14.8256 90.6499 15.086 90.6499C15.3464 90.6499 15.6033 90.5891 15.836 90.4722L21.79 87.4942L27.748 90.4722C27.9807 90.5891 28.2376 90.6499 28.498 90.6499C28.7584 90.6499 29.0153 90.5891 29.248 90.4722L35.202 87.4942L41.156 90.4722C41.3887 90.5891 41.6456 90.6499 41.906 90.6499C42.1664 90.6499 42.4233 90.5891 42.656 90.4722L48.61 87.4942L54.564 90.4722H54.572ZM35.205 50.4132C32.2209 50.4132 29.3038 51.2981 26.8226 52.956C24.3413 54.6138 22.4075 56.9703 21.2655 59.7272C20.1235 62.4842 19.8247 65.5179 20.4069 68.4447C20.9891 71.3715 22.4261 74.0599 24.5362 76.17C26.6463 78.2801 29.3347 79.7171 32.2615 80.2993C35.1883 80.8814 38.222 80.5826 40.9789 79.4407C43.7359 78.2987 46.0923 76.3648 47.7502 73.8836C49.4081 71.4024 50.293 68.4853 50.293 65.5012C50.2914 61.5001 48.7013 57.6633 45.8721 54.8341C43.0429 52.0049 39.2061 50.4148 35.205 50.4132ZM35.205 53.7662C37.526 53.7662 39.7948 54.4544 41.7246 55.7439C43.6544 57.0333 45.1585 58.8661 46.0467 61.0104C46.9349 63.1547 47.1673 65.5142 46.7145 67.7906C46.2617 70.0669 45.1441 72.1579 43.5029 73.7991C41.8617 75.4402 39.7708 76.5579 37.4944 77.0107C35.218 77.4635 32.8585 77.2311 30.7142 76.3429C28.5699 75.4547 26.7372 73.9506 25.4477 72.0208C24.1582 70.091 23.47 67.8221 23.47 65.5012C23.4713 62.3893 24.7081 59.4052 26.9086 57.2047C29.109 55.0043 32.0931 53.7675 35.205 53.7662ZM36.881 63.8252V58.7962C36.881 58.3515 36.7044 57.9251 36.39 57.6107C36.0756 57.2963 35.6491 57.1197 35.2045 57.1197C34.7599 57.1197 34.3334 57.2963 34.019 57.6107C33.7046 57.9251 33.528 58.3515 33.528 58.7962V63.8252H28.499C28.0544 63.8252 27.6279 64.0018 27.3135 64.3162C26.9991 64.6306 26.8225 65.057 26.8225 65.5017C26.8225 65.9463 26.9991 66.3727 27.3135 66.6871C27.6279 67.0015 28.0544 67.1782 28.499 67.1782H33.528V72.2072C33.528 72.6518 33.7046 73.0782 34.019 73.3926C34.3334 73.707 34.7599 73.8837 35.2045 73.8837C35.6491 73.8837 36.0756 73.707 36.39 73.3926C36.7044 73.0782 36.881 72.6518 36.881 72.2072V67.1782H41.91C42.3546 67.1782 42.7811 67.0015 43.0955 66.6871C43.4099 66.3727 43.5865 65.9463 43.5865 65.5017C43.5865 65.057 43.4099 64.6306 43.0955 64.3162C42.7811 64.0018 42.3546 63.8252 41.91 63.8252H36.881ZM11.735 43.7072H45.264C45.7086 43.7072 46.1351 43.5305 46.4495 43.2161C46.7639 42.9017 46.9405 42.4753 46.9405 42.0307C46.9405 41.586 46.7639 41.1596 46.4495 40.8452C46.1351 40.5308 45.7086 40.3542 45.264 40.3542H11.735C11.2904 40.3542 10.8639 40.5308 10.5495 40.8452C10.2351 41.1596 10.0585 41.586 10.0585 42.0307C10.0585 42.4753 10.2351 42.9017 10.5495 43.2161C10.8639 43.5305 11.2904 43.7072 11.735 43.7072ZM11.735 30.2952H45.264C45.7086 30.2952 46.1351 30.1185 46.4495 29.8041C46.7639 29.4897 46.9405 29.0633 46.9405 28.6187C46.9405 28.174 46.7639 27.7476 46.4495 27.4332C46.1351 27.1188 45.7086 26.9422 45.264 26.9422H11.735C11.2904 26.9422 10.8639 27.1188 10.5495 27.4332C10.2351 27.7476 10.0585 28.174 10.0585 28.6187C10.0585 29.0633 10.2351 29.4897 10.5495 29.8041C10.8639 30.1185 11.2904 30.2952 11.735 30.2952ZM11.735 16.8832H45.264C45.7086 16.8832 46.1351 16.7065 46.4495 16.3921C46.7639 16.0777 46.9405 15.6513 46.9405 15.2067C46.9405 14.762 46.7639 14.3356 46.4495 14.0212C46.1351 13.7068 45.7086 13.5302 45.264 13.5302H11.735C11.2904 13.5302 10.8639 13.7068 10.5495 14.0212C10.2351 14.3356 10.0585 14.762 10.0585 15.2067C10.0585 15.6513 10.2351 16.0777 10.5495 16.3921C10.8639 16.7065 11.2904 16.8832 11.735 16.8832Z" fill="black"/>
</svg>
