<svg width="92" height="155" viewBox="0 0 92 155" fill="none" xmlns="http://www.w3.org/2000/svg">
<path d="M13.7769 0.0668945C10.1276 0.0774479 6.63073 1.53181 4.05026 4.11228C1.4698 6.69275 0.0154361 10.1896 0.00488281 13.8389V141.228C0.0154361 144.877 1.4698 148.374 4.05026 150.955C6.63073 153.535 10.1276 154.989 13.7769 155H77.8119C81.4612 154.989 84.958 153.535 87.5385 150.955C90.119 148.374 91.5733 144.877 91.5839 141.228V13.8389C91.5733 10.1896 90.119 6.69275 87.5385 4.11228C84.958 1.53181 81.4612 0.0774479 77.8119 0.0668945L13.7769 0.0668945ZM38.1209 13.3309H53.4759C54.4849 13.3309 55.3039 14.4879 55.3039 15.9139C55.3039 17.3399 54.4859 18.4969 53.4759 18.4969H38.1199C37.1109 18.4969 36.2919 17.3399 36.2919 15.9139C36.2919 14.4879 37.1119 13.3309 38.1199 13.3309H38.1209ZM7.56789 31.7429H84.0219V123.326H7.56789V31.7429ZM45.7949 130.643C47.4812 130.643 49.1296 131.143 50.5317 132.08C51.9338 133.017 53.0266 134.348 53.6719 135.906C54.3172 137.464 54.486 139.178 54.1571 140.832C53.8281 142.486 53.0161 144.005 51.8237 145.198C50.6313 146.39 49.1121 147.202 47.4582 147.531C45.8043 147.86 44.0901 147.691 42.5321 147.046C40.9742 146.401 39.6426 145.308 38.7058 143.906C37.7689 142.504 37.2689 140.855 37.2689 139.169C37.2684 138.049 37.4885 136.94 37.9167 135.905C38.345 134.87 38.9729 133.93 39.7647 133.138C40.5564 132.345 41.4965 131.717 42.5312 131.288C43.5659 130.86 44.6749 130.639 45.7949 130.639V130.643Z" fill="#06913D"/>
</svg>
