<svg width="129" height="145" viewBox="0 0 129 145" fill="none" xmlns="http://www.w3.org/2000/svg">
<path d="M42.6292 144.482H86.3762C109.833 144.482 128.848 144.541 128.848 121.082C128.848 112.748 126.396 104.599 121.797 97.6488C117.199 90.6988 110.656 85.2555 102.986 81.997C103.058 82.14 103.141 82.274 103.21 82.423C104.09 84.2961 104.683 86.2912 104.967 88.341C107.213 88.9761 109.149 90.4127 110.407 92.3788C111.665 94.345 112.159 96.7042 111.795 99.0099C111.431 101.316 110.234 103.408 108.431 104.89C106.627 106.373 104.343 107.143 102.011 107.054C99.6781 106.966 97.4589 106.026 95.773 104.411C94.0872 102.796 93.0519 100.62 92.8631 98.293C92.6742 95.9663 93.345 93.6511 94.7484 91.7858C96.1517 89.9205 98.1903 88.6344 100.478 88.1711C99.864 84.9693 98.3066 82.0242 96.0062 79.7141C94.123 79.2752 92.2118 78.9664 90.2862 78.79C90.1092 86.534 64.5002 105.54 64.5002 105.54C64.5002 105.54 38.8902 86.54 38.7212 78.793C37.3532 78.9177 36.0048 79.1067 34.6762 79.36C31.9623 81.4782 30.0148 84.425 29.1302 87.752C30.1997 88.3682 31.0211 89.3378 31.4532 90.494C35.4322 92.24 38.9642 96.157 41.6852 101.847C41.8819 102.258 41.9855 102.707 41.9888 103.163C41.9921 103.619 41.8949 104.069 41.7042 104.483C43.355 108.524 44.253 112.832 44.3542 117.196C44.3542 123.339 44.0862 127.187 38.9372 128.208C38.4467 128.691 37.7863 128.961 37.0982 128.962H33.1412C32.4385 128.961 31.7649 128.681 31.2682 128.184C30.7714 127.687 30.492 127.014 30.4912 126.311V126.251C30.5089 125.559 30.7956 124.902 31.2904 124.418C31.7852 123.934 32.4491 123.662 33.1412 123.66H37.0982C37.4811 123.66 37.8594 123.745 38.2062 123.907C39.1432 123.707 39.2992 123.441 39.3862 123.292C39.8862 122.439 39.9812 120.328 39.9812 117.192C39.8843 113.356 39.0813 109.57 37.6122 106.025C36.9357 105.727 36.3877 105.198 36.0672 104.532C33.4742 99.104 29.9612 95.732 26.9072 95.732C23.7872 95.732 20.1072 99.369 17.5212 105.002C17.346 105.381 17.0964 105.722 16.7872 106.003C16.478 106.284 16.1155 106.501 15.7212 106.639C14.3902 110.002 13.667 113.574 13.5852 117.19C13.5852 119.645 13.6342 122.342 14.2292 123.297C14.3202 123.444 14.5042 123.735 15.5612 123.932C15.9303 123.747 16.3375 123.652 16.7502 123.652H20.7102C21.3853 123.653 22.0345 123.912 22.5257 124.375C23.0168 124.838 23.3127 125.471 23.3532 126.145L23.3602 126.161V126.307C23.3597 127.01 23.0803 127.684 22.5835 128.181C22.0867 128.678 21.4129 128.957 20.7102 128.958H16.7502C16.0984 128.956 15.4704 128.713 14.9882 128.274C14.0927 128.186 13.2275 127.902 12.4541 127.442C11.6807 126.982 11.0181 126.358 10.5132 125.613C9.41318 123.84 9.21318 121.387 9.21318 117.193C9.30206 112.924 10.1675 108.707 11.7672 104.748C11.489 103.988 11.5232 103.148 11.8622 102.413C13.2925 99.1394 15.315 96.1581 17.8282 93.619C19.0655 92.4006 20.4949 91.3942 22.0592 90.64C22.516 89.3168 23.4746 88.2261 24.7282 87.603C25.0667 85.4792 25.82 83.4429 26.9452 81.61C19.0424 84.7524 12.2646 90.1944 7.48912 97.2316C2.71359 104.269 0.16012 112.577 0.15918 121.082C0.15918 144.541 19.1742 144.482 42.6292 144.482ZM75.6612 120.767C75.6769 120.486 75.8034 120.223 76.0128 120.036C76.2222 119.848 76.4975 119.752 76.7782 119.767H82.8382V113.709C82.8305 113.57 82.8502 113.431 82.8963 113.299C82.9424 113.168 83.0139 113.047 83.1068 112.943C83.1997 112.84 83.3121 112.755 83.4375 112.695C83.563 112.635 83.6992 112.6 83.8382 112.592H89.8182C90.0987 112.608 90.3615 112.735 90.5489 112.944C90.7364 113.153 90.8332 113.428 90.8182 113.709V119.767H96.8782C97.017 119.759 97.156 119.779 97.2871 119.826C97.4182 119.872 97.539 119.943 97.6424 120.036C97.7459 120.129 97.83 120.241 97.89 120.367C97.9501 120.492 97.9848 120.628 97.9922 120.767V126.745C97.9767 127.025 97.8507 127.288 97.6419 127.475C97.4331 127.663 97.1584 127.76 96.8782 127.745H90.8062V133.803C90.8215 134.084 90.7247 134.359 90.5372 134.568C90.3498 134.778 90.0868 134.904 89.8062 134.92H83.8262C83.6872 134.912 83.551 134.877 83.4255 134.817C83.3 134.757 83.1877 134.672 83.0948 134.569C83.0019 134.465 82.9304 134.344 82.8843 134.213C82.8382 134.081 82.8185 133.942 82.8262 133.803V127.74H76.7762C76.4956 127.755 76.2205 127.658 76.0111 127.471C75.8017 127.283 75.6752 127.021 75.6592 126.74L75.6612 120.767Z" fill="#06913D"/>
<path d="M32.3739 40.398C32.3959 40.704 32.423 41.009 32.452 41.313C34.502 64.5031 48.066 82.4221 64.502 82.4221C80.938 82.4221 94.5019 64.504 96.5519 41.316C96.5809 41.016 96.6039 40.707 96.6299 40.401C96.7769 39.395 96.872 38.376 96.93 37.343C96.97 36.637 96.999 35.927 96.999 35.21C96.9989 33.4731 96.8752 31.7384 96.6289 30.019C94.2569 13.59 80.7739 0.998047 64.4999 0.998047C48.2259 0.998047 34.747 13.588 32.373 30.019C32.125 31.7382 32.0013 33.4731 32.0029 35.21C32.0029 35.927 32.032 36.637 32.069 37.343C32.13 38.376 32.227 39.395 32.369 40.4L32.3739 40.398ZM44.457 21.955C50.7752 24.8135 57.5763 26.4535 64.503 26.789C71.4297 26.4542 78.2309 24.8141 84.549 21.955C91.3279 24.628 88.114 43.689 88.114 43.691C89.4754 42.718 91.0031 42.0019 92.6219 41.578C90.7579 61.834 78.882 77.454 64.503 77.454C50.124 77.454 38.244 61.835 36.379 41.578C37.9985 41.9999 39.5266 42.7161 40.8869 43.691C40.8869 43.691 37.678 24.628 44.457 21.955Z" fill="#06913D"/>
<path d="M107.165 97.5408C107.164 98.4865 106.884 99.4109 106.358 100.197C105.833 100.983 105.086 101.596 104.212 101.958C103.338 102.32 102.377 102.414 101.449 102.23C100.522 102.045 99.6699 101.59 99.0012 100.921C98.3325 100.252 97.8771 99.4005 97.6925 98.473C97.508 97.5455 97.6026 96.5841 97.9644 95.7103C98.3262 94.8365 98.939 94.0897 99.7252 93.5641C100.511 93.0386 101.436 92.758 102.382 92.7578C103.65 92.7578 104.867 93.2617 105.764 94.1587C106.661 95.0557 107.165 96.2723 107.165 97.5408Z" fill="#06913D"/>
</svg>
