<svg width="40" height="40" viewBox="0 0 40 40" fill="none" xmlns="http://www.w3.org/2000/svg">
<path d="M20.3601 0.637699C15.7468 0.634667 11.2839 2.2789 7.77528 5.27429C4.26662 8.26968 1.94273 12.4194 1.2221 16.9761C0.501479 21.5328 1.43147 26.1971 3.84462 30.129C6.25776 34.0609 9.99547 37.002 14.3846 38.4227C18.7738 39.8434 23.526 39.6503 27.7854 37.8781C32.0448 36.106 35.5315 32.8713 37.6176 28.7565C39.7038 24.6418 40.2522 19.9174 39.1642 15.4342C38.0763 10.951 35.4233 7.00351 31.6831 4.3027C28.3877 1.92165 24.4258 0.639286 20.3601 0.637699ZM20.3601 8.3827C21.7089 8.37824 23.0173 8.84187 24.0624 9.69449C25.1074 10.5471 25.8243 11.7359 26.0906 13.058C26.357 14.3802 26.1564 15.7538 25.523 16.9446C24.8897 18.1353 23.8628 19.0695 22.6175 19.5876C21.3723 20.1057 19.9859 20.1758 18.6948 19.7858C17.4037 19.3958 16.2879 18.57 15.5377 17.4491C14.7875 16.3282 14.4495 14.9818 14.5812 13.6396C14.713 12.2973 15.3064 11.0423 16.2602 10.0887C17.3469 8.99938 18.8214 8.38581 20.3601 8.3827ZM20.3601 35.4907C16.358 35.4866 12.5131 33.9317 9.63314 31.1527C10.4896 29.0075 11.9686 27.1678 13.8798 25.8704C15.7909 24.5731 18.0466 23.8776 20.3565 23.8734C22.6663 23.8692 24.9245 24.5565 26.8404 25.8469C28.7562 27.1373 30.2419 28.9716 31.1061 31.1137C28.2328 33.9194 24.3761 35.4899 20.3601 35.4897V35.4907Z" fill="#06913D"/>
</svg>
