<svg width="734" height="752" viewBox="0 0 734 752" fill="none" xmlns="http://www.w3.org/2000/svg">
<g filter="url(#filter0_d_180_474)">
<path d="M349 639.5C517.171 639.5 653.5 503.171 653.5 335C653.5 166.829 517.171 30.5 349 30.5C180.829 30.5 44.5 166.829 44.5 335C44.5 503.171 180.829 639.5 349 639.5Z" stroke="#165F35"/>
</g>
<g filter="url(#filter1_d_180_474)">
<path d="M371.5 673.5C536.081 673.5 669.5 540.305 669.5 376C669.5 211.695 536.081 78.5 371.5 78.5C206.919 78.5 73.5 211.695 73.5 376C73.5 540.305 206.919 673.5 371.5 673.5Z" stroke="#165F35"/>
</g>
<g filter="url(#filter2_d_180_474)">
<path d="M359.5 640C517.73 640 646 511.73 646 353.5C646 195.27 517.73 67 359.5 67C201.27 67 73 195.27 73 353.5C73 511.73 201.27 640 359.5 640Z" fill="#C4C4C4"/>
</g>
<defs>
<filter id="filter0_d_180_474" x="0" y="0" width="718" height="718" filterUnits="userSpaceOnUse" color-interpolation-filters="sRGB">
<feFlood flood-opacity="0" result="BackgroundImageFix"/>
<feColorMatrix in="SourceAlpha" type="matrix" values="0 0 0 0 0 0 0 0 0 0 0 0 0 0 0 0 0 0 127 0" result="hardAlpha"/>
<feOffset dx="10" dy="24"/>
<feGaussianBlur stdDeviation="27"/>
<feColorMatrix type="matrix" values="0 0 0 0 0 0 0 0 0 0 0 0 0 0 0 0 0 0 0.078 0"/>
<feBlend mode="normal" in2="BackgroundImageFix" result="effect1_dropShadow_180_474"/>
<feBlend mode="normal" in="SourceGraphic" in2="effect1_dropShadow_180_474" result="shape"/>
</filter>
<filter id="filter1_d_180_474" x="29" y="48" width="705" height="704" filterUnits="userSpaceOnUse" color-interpolation-filters="sRGB">
<feFlood flood-opacity="0" result="BackgroundImageFix"/>
<feColorMatrix in="SourceAlpha" type="matrix" values="0 0 0 0 0 0 0 0 0 0 0 0 0 0 0 0 0 0 127 0" result="hardAlpha"/>
<feOffset dx="10" dy="24"/>
<feGaussianBlur stdDeviation="27"/>
<feColorMatrix type="matrix" values="0 0 0 0 0 0 0 0 0 0 0 0 0 0 0 0 0 0 0.078 0"/>
<feBlend mode="normal" in2="BackgroundImageFix" result="effect1_dropShadow_180_474"/>
<feBlend mode="normal" in="SourceGraphic" in2="effect1_dropShadow_180_474" result="shape"/>
</filter>
<filter id="filter2_d_180_474" x="29" y="37" width="681" height="681" filterUnits="userSpaceOnUse" color-interpolation-filters="sRGB">
<feFlood flood-opacity="0" result="BackgroundImageFix"/>
<feColorMatrix in="SourceAlpha" type="matrix" values="0 0 0 0 0 0 0 0 0 0 0 0 0 0 0 0 0 0 127 0" result="hardAlpha"/>
<feOffset dx="10" dy="24"/>
<feGaussianBlur stdDeviation="27"/>
<feColorMatrix type="matrix" values="0 0 0 0 0 0 0 0 0 0 0 0 0 0 0 0 0 0 0.078 0"/>
<feBlend mode="normal" in2="BackgroundImageFix" result="effect1_dropShadow_180_474"/>
<feBlend mode="normal" in="SourceGraphic" in2="effect1_dropShadow_180_474" result="shape"/>
</filter>
</defs>
</svg>
