<svg width="51" height="51" viewBox="0 0 51 51" fill="none" xmlns="http://www.w3.org/2000/svg">
<path d="M38.532 17.086L33.775 12.331L25.431 20.674L17.086 12.331L12.33 17.086L20.675 25.43L12.33 33.775L17.086 38.531L25.431 30.187L33.775 38.531L38.532 33.775L30.187 25.431L38.532 17.086ZM25.432 50.862C20.4022 50.8622 15.4853 49.3709 11.3031 46.5767C7.12092 43.7824 3.86121 39.8108 1.93621 35.164C0.0112176 30.5171 -0.4926 25.4038 0.488466 20.4706C1.46953 15.5375 3.89142 11.006 7.44787 7.44929C11.0043 3.89256 15.5356 1.47031 20.4687 0.488856C25.4018 -0.492599 30.5151 0.010819 35.1621 1.93545C39.8091 3.86008 43.781 7.11948 46.5756 11.3015C49.3701 15.4835 50.8618 20.4002 50.862 25.43C50.862 32.1748 48.1827 38.6434 43.4135 43.4128C38.6443 48.1822 32.1758 50.8617 25.431 50.862H25.432Z" fill="#FF0000"/>
</svg>
