<svg width="39" height="40" viewBox="0 0 39 40" fill="none" xmlns="http://www.w3.org/2000/svg">
<path d="M19.3544 0.646484C14.6587 0.646639 10.1233 2.35383 6.59296 5.45C3.06267 8.54617 0.778348 12.8202 0.165565 17.4757C-0.447218 22.1312 0.653337 26.8507 3.2622 30.7549C5.87106 34.6592 9.8103 37.4818 14.346 38.6971C18.8817 39.9123 23.7045 39.4372 27.9158 37.3603C32.1272 35.2834 35.4399 31.7463 37.2368 27.4081C39.0337 23.0698 39.1922 18.2263 37.6828 13.7798C36.1734 9.33337 33.099 5.58729 29.0324 3.23949C26.0899 1.54063 22.7521 0.646326 19.3544 0.646484ZM25.8064 14.8405C26.1424 14.8498 26.4616 14.9899 26.696 15.2309C26.9304 15.4719 27.0615 15.7948 27.0615 16.131C27.0615 16.4672 26.9304 16.7901 26.696 17.0311C26.4616 17.2721 26.1424 17.4121 25.8064 17.4215H23.1224C22.9468 18.9401 22.1845 20.3298 20.9983 21.2941C19.812 22.2584 18.2958 22.7207 16.7734 22.5825L23.9994 28.0025C24.135 28.1042 24.2492 28.2316 24.3356 28.3775C24.4219 28.5233 24.4787 28.6848 24.5026 28.8526C24.5266 29.0203 24.5173 29.1912 24.4752 29.3554C24.4331 29.5196 24.3591 29.6739 24.2574 29.8095C24.1557 29.9451 24.0283 30.0593 23.8824 30.1456C23.7366 30.232 23.5751 30.2888 23.4073 30.3127C23.2395 30.3367 23.0687 30.3274 22.9045 30.2853C22.7403 30.2432 22.586 30.1692 22.4504 30.0675L12.1274 22.3255C11.9104 22.1632 11.75 21.9366 11.669 21.678C11.588 21.4194 11.5906 21.1418 11.6762 20.8847C11.7619 20.6276 11.9263 20.404 12.1463 20.2456C12.3662 20.0873 12.6304 20.0022 12.9014 20.0025H16.7724C19.2114 20.0025 20.1794 18.7765 20.5014 17.4215H12.9014C12.5654 17.4121 12.2462 17.2721 12.0118 17.0311C11.7775 16.7901 11.6463 16.4672 11.6463 16.131C11.6463 15.7948 11.7775 15.4719 12.0118 15.2309C12.2462 14.9899 12.5654 14.8498 12.9014 14.8405H20.5014C20.1784 13.4855 19.2104 12.2595 16.7594 12.2595H12.9014C12.5591 12.2595 12.2309 12.1235 11.9889 11.8815C11.7469 11.6395 11.6109 11.3112 11.6109 10.969C11.6109 10.6267 11.7469 10.2985 11.9889 10.0565C12.2309 9.81445 12.5591 9.67848 12.9014 9.67848H25.8014C26.1437 9.67848 26.4719 9.81445 26.7139 10.0565C26.9559 10.2985 27.0919 10.6267 27.0919 10.969C27.0919 11.3112 26.9559 11.6395 26.7139 11.8815C26.4719 12.1235 26.1437 12.2595 25.8014 12.2595H22.1234C22.6321 13.0406 22.9708 13.92 23.1174 14.8405H25.8064Z" fill="#06913D"/>
</svg>
