<svg width="40" height="40" viewBox="0 0 40 40" fill="none" xmlns="http://www.w3.org/2000/svg">
<path d="M25.8332 23.3332H24.5172L24.0502 22.8832C25.8777 20.7538 26.8092 17.9992 26.6491 15.1976C26.489 12.3961 25.2497 9.76556 23.1914 7.85829C21.1331 5.95101 18.4159 4.91536 15.6103 4.96876C12.8047 5.02217 10.1289 6.16047 8.14469 8.14469C6.16047 10.1289 5.02217 12.8047 4.96876 15.6103C4.91536 18.4159 5.95101 21.1331 7.85829 23.1914C9.76556 25.2497 12.3961 26.489 15.1976 26.6491C17.9992 26.8092 20.7538 25.8777 22.8832 24.0502L23.3332 24.5172V25.8342L31.6662 34.1512L34.1492 31.6682L25.8332 23.3332ZM15.8332 23.3332C14.3498 23.3332 12.8998 22.8933 11.6664 22.0692C10.433 21.2451 9.47175 20.0738 8.90409 18.7033C8.33643 17.3329 8.18791 15.8249 8.4773 14.37C8.76669 12.9152 9.48099 11.5788 10.5299 10.5299C11.5788 9.48099 12.9152 8.76669 14.37 8.4773C15.8249 8.18791 17.3329 8.33643 18.7033 8.90409C20.0738 9.47175 21.2451 10.433 22.0692 11.6664C22.8933 12.8998 23.3332 14.3498 23.3332 15.8332C23.3345 16.8185 23.1414 17.7943 22.765 18.7049C22.3885 19.6154 21.8361 20.4427 21.1394 21.1394C20.4427 21.8361 19.6154 22.3885 18.7049 22.765C17.7943 23.1414 16.8185 23.3345 15.8332 23.3332Z" fill="#787878"/>
</svg>
