<svg width="264" height="29" viewBox="0 0 264 29" fill="none" xmlns="http://www.w3.org/2000/svg">
<path opacity="0.1" d="M208 18H67C65.3431 18 64 19.3431 64 21C64 22.6569 65.3431 24 67 24H208C209.657 24 211 22.6569 211 21C211 19.3431 209.657 18 208 18Z" fill="#3B4C68"/>
<path d="M98 18H67C65.3431 18 64 19.3431 64 21C64 22.6569 65.3431 24 67 24H98C99.6569 24 101 22.6569 101 21C101 19.3431 99.6569 18 98 18Z" fill="#3B4C68"/>
<path d="M7.5 23.2386C6.21591 23.2386 5.12216 22.8892 4.21875 22.1903C3.31534 21.4858 2.625 20.4659 2.14773 19.1307C1.67045 17.7898 1.43182 16.1705 1.43182 14.2727C1.43182 12.3864 1.67045 10.7756 2.14773 9.44034C2.63068 8.09943 3.32386 7.0767 4.22727 6.37216C5.13636 5.66193 6.22727 5.30682 7.5 5.30682C8.77273 5.30682 9.8608 5.66193 10.7642 6.37216C11.6733 7.0767 12.3665 8.09943 12.8438 9.44034C13.3267 10.7756 13.5682 12.3864 13.5682 14.2727C13.5682 16.1705 13.3295 17.7898 12.8523 19.1307C12.375 20.4659 11.6847 21.4858 10.7812 22.1903C9.87784 22.8892 8.78409 23.2386 7.5 23.2386ZM7.5 21.3636C8.77273 21.3636 9.76136 20.75 10.4659 19.5227C11.1705 18.2955 11.5227 16.5455 11.5227 14.2727C11.5227 12.7614 11.3608 11.4744 11.0369 10.4119C10.7188 9.34943 10.2585 8.53977 9.65625 7.98295C9.05966 7.42614 8.34091 7.14773 7.5 7.14773C6.23864 7.14773 5.25284 7.76989 4.54261 9.0142C3.83239 10.2528 3.47727 12.0057 3.47727 14.2727C3.47727 15.7841 3.63636 17.0682 3.95455 18.125C4.27273 19.1818 4.73011 19.9858 5.3267 20.5369C5.92898 21.0881 6.65341 21.3636 7.5 21.3636Z" fill="black"/>
<path d="M259.943 5.54545V23H257.83V7.76136H257.727L253.466 10.5909V8.44318L257.83 5.54545H259.943Z" fill="black"/>
</svg>
