<svg width="55" height="75" viewBox="0 0 55 75" fill="none" xmlns="http://www.w3.org/2000/svg">
<path d="M20.1834 38.4492C13.423 38.2598 6.97603 35.5563 2.10244 30.8672C1.6854 30.498 1.3453 30.0501 1.10161 29.5492C0.857925 29.0483 0.715428 28.5043 0.682301 27.9483C0.649174 27.3923 0.726067 26.8352 0.908558 26.3089C1.09105 25.7827 1.37557 25.2976 1.74581 24.8814C2.11605 24.4653 2.56475 24.1262 3.06621 23.8838C3.56767 23.6413 4.11201 23.5001 4.66811 23.4683C5.22421 23.4365 5.78111 23.5148 6.30693 23.6985C6.83276 23.8823 7.31719 24.168 7.73244 24.5392C15.8994 31.8012 24.5014 31.8012 32.6104 24.5392L38.4434 30.8392C33.525 35.5721 27.0103 38.2883 20.1864 38.4512L20.1834 38.4492Z" fill="#06913D"/>
<path d="M14.1465 5.75609C14.1465 6.82312 13.8301 7.86618 13.2372 8.75339C12.6444 9.64059 11.8018 10.3321 10.816 10.7404C9.83023 11.1488 8.74547 11.2556 7.69894 11.0474C6.65241 10.8393 5.69112 10.3254 4.93661 9.57092C4.18211 8.81642 3.66828 7.85512 3.46011 6.80859C3.25194 5.76207 3.35878 4.67731 3.76712 3.6915C4.17545 2.70569 4.86694 1.86312 5.75415 1.27031C6.64135 0.677499 7.68443 0.361084 8.75146 0.361084C10.1823 0.361084 11.5545 0.92948 12.5663 1.94124C13.578 2.953 14.1465 4.32525 14.1465 5.75609Z" fill="#06913D"/>
<path d="M8.75033 0.332031C7.50153 0.332093 6.29135 0.764969 5.32583 1.55698C4.36032 2.34898 3.69915 3.45115 3.45489 4.67583C3.21064 5.90051 3.3984 7.172 3.9862 8.2738C4.57401 9.37561 5.52554 10.2396 6.67877 10.7188C7.832 11.1979 9.11564 11.2625 10.3112 10.9016C11.5067 10.5407 12.5401 9.77663 13.2356 8.73943C13.9311 7.70222 14.2456 6.45603 14.1256 5.21301C14.0056 3.97 13.4584 2.80699 12.5773 1.92203C11.5632 0.907019 10.1881 0.335284 8.75332 0.332031H8.75033Z" fill="#06913D"/>
<path d="M36.8947 5.75609C36.8957 6.82432 36.5799 7.86884 35.9871 8.75752C35.3943 9.64621 34.5513 10.3391 33.5647 10.7486C32.578 11.1581 31.4921 11.2657 30.4443 11.0579C29.3965 10.8501 28.4338 10.3362 27.6781 9.58122C26.9224 8.82622 26.4076 7.86404 26.1989 6.81641C25.9901 5.76877 26.0967 4.68275 26.5053 3.69574C26.9139 2.70873 27.606 1.86508 28.4941 1.2715C29.3823 0.677919 30.4265 0.361084 31.4947 0.361084C32.926 0.361083 34.2988 0.929318 35.3113 1.94093C36.3239 2.95255 36.8934 4.32479 36.8947 5.75609Z" fill="#06913D"/>
<path d="M31.4981 0.332063C30.2516 0.339146 29.046 0.777735 28.0864 1.57327C27.1267 2.36881 26.4721 3.47219 26.2341 4.69579C25.996 5.91938 26.1891 7.18766 26.7804 8.28499C27.3718 9.38232 28.325 10.2409 29.478 10.7149C30.6309 11.1888 31.9124 11.2488 33.1045 10.8847C34.2967 10.5205 35.3259 9.7547 36.0173 8.71742C36.7086 7.68015 37.0193 6.43545 36.8966 5.19496C36.7739 3.95448 36.2253 2.79478 35.3441 1.91306C34.8386 1.40946 34.2387 1.01059 33.5787 0.73929C32.9187 0.467991 32.2117 0.329603 31.4981 0.332063Z" fill="#06913D"/>
<path d="M30.9417 74.171C30.3491 74.1646 29.7641 74.0371 29.2226 73.7963C28.6811 73.5556 28.1945 73.2067 27.7927 72.771L20.7047 64.925C19.9428 64.0877 19.5424 62.9832 19.5908 61.8521C19.6393 60.721 20.1326 59.6548 20.9633 58.8856C21.7941 58.1165 22.895 57.7066 24.0265 57.7453C25.158 57.7839 26.2284 58.268 27.0047 59.092L30.5627 63.029L46.8947 40.429C47.2065 39.9389 47.6152 39.5177 48.0958 39.1913C48.5764 38.865 49.1187 38.6405 49.6893 38.5316C50.2599 38.4227 50.8467 38.4316 51.4137 38.558C51.9807 38.6843 52.5159 38.9253 52.9862 39.2662C53.4566 39.6071 53.8523 40.0406 54.1489 40.5401C54.4454 41.0396 54.6367 41.5945 54.7108 42.1706C54.785 42.7468 54.7404 43.332 54.58 43.8903C54.4195 44.4486 54.1465 44.9682 53.7777 45.417L34.3827 72.247C34.0159 72.7633 33.5362 73.1892 32.9802 73.4925C32.4242 73.7957 31.8064 73.9682 31.1737 73.997L30.9417 74.171Z" fill="#06913D"/>
<path d="M20.2122 38.4491C26.9733 38.2598 33.4209 35.5564 38.2952 30.8671C38.7628 30.5114 39.1517 30.0626 39.4375 29.5492C39.7233 29.0358 39.8997 28.4688 39.9556 27.8839C40.0116 27.299 39.9459 26.7089 39.7626 26.1506C39.5794 25.5923 39.2826 25.078 38.8909 24.6401C38.4993 24.2021 38.0212 23.8499 37.4868 23.6057C36.9523 23.3615 36.3732 23.2305 35.7857 23.221C35.1982 23.2115 34.6151 23.3237 34.0731 23.5506C33.531 23.7774 33.0418 24.114 32.6362 24.5391C24.4992 31.8011 15.8962 31.8011 7.75925 24.5391L2.07324 30.8391C6.95876 35.5503 13.4288 38.2653 20.2132 38.4511L20.2122 38.4491Z" fill="#06913D"/>
</svg>
