<svg width="140" height="140" viewBox="0 0 140 140" fill="none" xmlns="http://www.w3.org/2000/svg">
<path d="M70.0015 139.482C53.9753 139.495 38.4405 133.95 26.0449 123.792C13.6492 113.633 5.15991 99.491 2.02376 83.7746C-1.11239 68.0582 1.29875 51.7405 8.84624 37.6028C16.3937 23.4651 28.6104 12.3822 43.4142 6.24311C58.218 0.104021 74.6926 -0.711335 90.0302 3.93601C105.368 8.58336 118.619 18.4058 127.526 31.7292C136.432 45.0526 140.443 61.0524 138.874 77.0016C137.305 92.9509 130.254 107.862 118.922 119.195C105.95 132.175 88.3549 139.472 70.0046 139.482H70.0015ZM70.0015 14.676C57.1221 14.6633 44.6368 19.1177 34.6739 27.2798C24.7109 35.442 17.887 46.8067 15.3652 59.4369C12.8434 72.067 14.7798 85.1809 20.8444 96.5432C26.909 107.906 36.7263 116.813 48.6231 121.747C60.5199 126.682 73.7598 127.337 86.0859 123.603C98.4121 119.868 109.062 111.974 116.219 101.267C123.377 90.5595 126.6 77.7012 125.338 64.8836C124.077 52.066 118.409 40.0826 109.302 30.976C98.8804 20.5477 84.7444 14.6846 70.0015 14.676Z" fill="#06913D"/>
<path d="M102.93 97.472L71.9875 66.393L56.2434 50.432C50.9684 45.265 45.8574 39.854 40.4994 34.932C40.1209 34.5851 39.6269 34.3912 39.1134 34.388C38.6384 34.3801 38.1766 34.5445 37.8134 34.851C37.8098 34.8958 37.7921 34.9383 37.7628 34.9724C37.7335 35.0066 37.6942 35.0306 37.6504 35.041C28.4324 44.259 51.2505 68.758 51.2505 68.758C58.5105 76.589 63.4044 79.036 66.8034 79.036C67.8017 79.0425 68.7881 78.8194 69.6864 78.384C70.2127 78.1074 70.8176 78.0187 71.4011 78.1325C71.9846 78.2463 72.5117 78.5559 72.8954 79.01L95.3564 104.759C95.4135 104.853 95.4874 104.936 95.5744 105.004C96.0604 105.498 96.6403 105.89 97.2801 106.156C97.9199 106.422 98.6065 106.557 99.2994 106.554C100.336 106.561 101.35 106.258 102.214 105.685C103.077 105.113 103.75 104.296 104.147 103.339C104.544 102.382 104.647 101.328 104.443 100.312C104.238 99.2966 103.736 98.3648 102.999 97.636L102.93 97.472Z" fill="#06913D"/>
<path d="M49.9623 43.0909L50.9143 44.0149C56.1992 40.3696 62.4672 38.4166 68.8873 38.4149C72.6692 38.4204 76.4188 39.1112 79.9543 40.4539L86.3173 34.4999C79.7539 31.2348 72.411 29.8615 65.1112 30.5339C57.8113 31.2063 50.8429 33.8978 44.9863 38.3069L49.9623 43.0909Z" fill="#06913D"/>
<path d="M42.5388 88.009C39.8493 84.016 38.1039 79.4633 37.4348 74.6958C36.7657 69.9283 37.1904 65.071 38.6768 60.492C36.7325 57.7115 35.0229 54.774 33.5658 51.71C30.0979 58.2754 28.5399 65.6815 29.0686 73.0878C29.5973 80.494 32.1915 87.6037 36.5568 93.61L42.5388 88.009Z" fill="#06913D"/>
<path d="M55.916 79.1179L36.691 97.2539C36.6125 97.3198 36.5402 97.3928 36.475 97.4719C35.9512 98.0244 35.5545 98.6848 35.3128 99.4068C35.0712 100.129 34.9904 100.895 35.0762 101.651C35.1619 102.408 35.4122 103.137 35.8093 103.786C36.2064 104.436 36.7408 104.991 37.375 105.412C38.1774 105.956 39.1234 106.25 40.093 106.256C40.8653 106.247 41.6277 106.08 42.3336 105.767C43.0396 105.454 43.6743 105 44.199 104.433L64.755 82.6799C61.525 82.38 58.4532 81.1418 55.918 79.1179H55.916Z" fill="#06913D"/>
<path d="M110.19 43.6338C109.683 43.1403 109.002 42.8664 108.294 42.8714C107.587 42.8765 106.91 43.1601 106.41 43.6608L96.7576 53.4228C96.5743 53.6129 96.3545 53.764 96.1113 53.8671C95.8682 53.9702 95.6067 54.0232 95.3426 54.0228C95.0783 54.0266 94.8161 53.9752 94.5728 53.8719C94.3295 53.7685 94.1105 53.6156 93.9296 53.4228C93.5892 53.0517 93.4004 52.5664 93.4004 52.0628C93.4004 51.5592 93.5892 51.0739 93.9296 50.7028L103.963 40.6728C104.388 40.2473 104.627 39.6701 104.627 39.0683C104.627 38.4665 104.388 37.8893 103.963 37.4638C103.537 37.0383 102.96 36.7992 102.358 36.7992C101.756 36.7992 101.179 37.0383 100.754 37.4638L90.7206 47.4968C90.3495 47.8372 89.8642 48.026 89.3606 48.026C88.857 48.026 88.3717 47.8372 88.0006 47.4968C87.6483 47.1321 87.4514 46.6449 87.4514 46.1378C87.4514 45.6307 87.6483 45.1435 88.0006 44.7788L97.7366 34.9348C98.228 34.4371 98.5047 33.7667 98.5075 33.0674C98.5102 32.368 98.2388 31.6954 97.7514 31.1939C97.264 30.6924 96.5995 30.4018 95.9003 30.3846C95.2012 30.3674 94.5231 30.6249 94.0116 31.1018L78.4846 45.6178C76.8907 47.1304 75.8502 49.134 75.5296 51.308C75.2091 53.4819 75.6271 55.7005 76.7166 57.6088C76.909 57.963 76.9787 58.3709 76.9148 58.7689C76.851 59.1669 76.6571 59.5326 76.3636 59.8088L71.2236 64.6488L76.6616 70.0868L81.5016 64.9468C81.7673 64.6458 82.1274 64.4441 82.5228 64.3749C82.9183 64.3057 83.3255 64.373 83.6776 64.5658C85.5757 65.6776 87.7945 66.1135 89.9721 65.8024C92.1498 65.4914 94.1578 64.4516 95.6686 62.8528L110.298 47.4078C110.773 46.887 111.028 46.2018 111.007 45.497C110.987 44.7921 110.694 44.1226 110.19 43.6298V43.6338Z" fill="#06913D"/>
<path d="M99.6675 62.648C100.289 65.1473 100.608 67.7124 100.618 70.2879C100.616 76.763 98.6334 83.0827 94.9355 88.398L100.755 94.217C104.841 88.8118 107.473 82.4496 108.401 75.7377C109.329 69.0257 108.521 62.1879 106.055 55.877L99.6675 62.648Z" fill="#06913D"/>
<path d="M83.596 98.3699C79.0177 100.824 73.9037 102.108 68.709 102.108C63.5144 102.108 58.4003 100.824 53.822 98.3699L48.248 104.297C54.4798 108.157 61.6656 110.2 68.996 110.197C76.0932 110.213 83.0663 108.336 89.196 104.759L83.596 98.3699Z" fill="#06913D"/>
</svg>
