<svg width="56" height="68" viewBox="0 0 56 68" fill="none" xmlns="http://www.w3.org/2000/svg">
<path d="M54.4375 50.211H53.2565V14.384C53.2565 14.1922 53.1804 14.0084 53.0448 13.8728C52.9092 13.7372 52.7253 13.661 52.5335 13.661H49.9155V10.301C49.9155 10.2061 49.8968 10.112 49.8605 10.0243C49.8242 9.9366 49.7709 9.8569 49.7038 9.78976C49.6366 9.72263 49.5569 9.66937 49.4692 9.63304C49.3815 9.5967 49.2875 9.578 49.1925 9.578H48.2555V2.011C48.2555 1.72351 48.1413 1.44779 47.938 1.2445C47.7347 1.04121 47.459 0.927002 47.1715 0.927002C46.884 0.927002 46.6083 1.04121 46.405 1.2445C46.2017 1.44779 46.0875 1.72351 46.0875 2.011V9.578H45.1505C44.9588 9.578 44.7749 9.65417 44.6393 9.78976C44.5037 9.92535 44.4275 10.1092 44.4275 10.301V13.661H41.8095C41.6178 13.661 41.4339 13.7372 41.2983 13.8728C41.1627 14.0084 41.0865 14.1922 41.0865 14.384V50.212H39.9055C39.7138 50.212 39.5299 50.2882 39.3943 50.4238C39.2587 50.5594 39.1825 50.7433 39.1825 50.935V54.174C39.1825 54.3658 39.2587 54.5497 39.3943 54.6852C39.5299 54.8208 39.7138 54.897 39.9055 54.897H44.8415V62.624H42.7995C42.6078 62.624 42.4239 62.7002 42.2883 62.8358C42.1527 62.9714 42.0765 63.1552 42.0765 63.347V66.347C42.0765 66.5387 42.1527 66.7226 42.2883 66.8582C42.4239 66.9938 42.6078 67.07 42.7995 67.07H51.5465C51.6415 67.07 51.7355 67.0513 51.8232 67.015C51.9109 66.9786 51.9906 66.9254 52.0578 66.8582C52.1249 66.7911 52.1782 66.7114 52.2145 66.6237C52.2508 66.536 52.2695 66.4419 52.2695 66.347V63.347C52.2695 63.2521 52.2508 63.158 52.2145 63.0703C52.1782 62.9826 52.1249 62.9029 52.0578 62.8358C51.9906 62.7686 51.9109 62.7154 51.8232 62.679C51.7355 62.6427 51.6415 62.624 51.5465 62.624H49.5045V54.896H54.4405C54.6323 54.896 54.8162 54.8198 54.9518 54.6842C55.0874 54.5487 55.1635 54.3648 55.1635 54.173V50.932C55.1635 50.7403 55.0874 50.5564 54.9518 50.4208C54.8162 50.2852 54.6323 50.209 54.4405 50.209L54.4375 50.211ZM48.4805 43.986H45.8595C45.572 43.986 45.2963 43.8718 45.093 43.6685C44.8897 43.4652 44.7755 43.1895 44.7755 42.902C44.7755 42.6145 44.8897 42.3388 45.093 42.1355C45.2963 41.9322 45.572 41.818 45.8595 41.818H48.4805C48.768 41.818 49.0437 41.9322 49.247 42.1355C49.4503 42.3388 49.5645 42.6145 49.5645 42.902C49.5645 43.1895 49.4503 43.4652 49.247 43.6685C49.0437 43.8718 48.768 43.986 48.4805 43.986ZM48.4805 36.676H45.8595C45.572 36.676 45.2963 36.5618 45.093 36.3585C44.8897 36.1552 44.7755 35.8795 44.7755 35.592C44.7755 35.3045 44.8897 35.0288 45.093 34.8255C45.2963 34.6222 45.572 34.508 45.8595 34.508H48.4805C48.768 34.508 49.0437 34.6222 49.247 34.8255C49.4503 35.0288 49.5645 35.3045 49.5645 35.592C49.5645 35.8795 49.4503 36.1552 49.247 36.3585C49.0437 36.5618 48.768 36.676 48.4805 36.676ZM48.4805 29.366H45.8595C45.572 29.366 45.2963 29.2518 45.093 29.0485C44.8897 28.8452 44.7755 28.5695 44.7755 28.282C44.7755 27.9945 44.8897 27.7188 45.093 27.5155C45.2963 27.3122 45.572 27.198 45.8595 27.198H48.4805C48.768 27.198 49.0437 27.3122 49.247 27.5155C49.4503 27.7188 49.5645 27.9945 49.5645 28.282C49.5645 28.5695 49.4503 28.8452 49.247 29.0485C49.0437 29.2518 48.768 29.366 48.4805 29.366ZM48.4805 22.056H45.8595C45.572 22.056 45.2963 21.9418 45.093 21.7385C44.8897 21.5352 44.7755 21.2595 44.7755 20.972C44.7755 20.6845 44.8897 20.4088 45.093 20.2055C45.2963 20.0022 45.572 19.888 45.8595 19.888H48.4805C48.768 19.888 49.0437 20.0022 49.247 20.2055C49.4503 20.4088 49.5645 20.6845 49.5645 20.972C49.5645 21.2595 49.4503 21.5352 49.247 21.7385C49.0437 21.9418 48.768 22.056 48.4805 22.056ZM0.941528 22.263C0.50015 23.3405 0.272258 24.4936 0.270523 25.658V60.058H31.4925V25.658C31.4908 24.4936 31.2629 23.3405 30.8215 22.263H0.941528ZM15.8805 56.146C13.1551 56.1487 10.5399 55.07 8.60887 53.1466C6.67785 51.2233 5.58873 48.6124 5.58052 45.887C5.58052 40.368 15.1755 26.899 15.5805 26.328C15.6155 26.2835 15.6602 26.2475 15.7111 26.2228C15.762 26.198 15.8179 26.1852 15.8745 26.1852C15.9311 26.1852 15.987 26.198 16.0379 26.2228C16.0889 26.2475 16.1335 26.2835 16.1685 26.328C16.5765 26.899 26.1685 40.368 26.1685 45.887C26.1603 48.6104 25.0729 51.2194 23.1444 53.1424C21.216 55.0654 18.6039 56.1455 15.8805 56.146ZM2.88852 18.946C3.22446 18.4218 3.37352 17.7995 3.31152 17.18H28.4495C28.3875 17.7995 28.5366 18.4218 28.8725 18.946L29.6125 20.092H2.14853L2.88852 18.946ZM0.269531 62.232H31.4915V66.354C31.4915 66.449 31.4728 66.543 31.4365 66.6307C31.4002 66.7184 31.3469 66.7981 31.2798 66.8652C31.2126 66.9324 31.1329 66.9856 31.0452 67.022C30.9575 67.0583 30.8635 67.077 30.7685 67.077H0.992523C0.800772 67.077 0.616882 67.0008 0.481293 66.8652C0.345704 66.7297 0.269531 66.5458 0.269531 66.354V62.232ZM24.2695 10.791H21.7005V5.461H24.2685L24.2695 10.791ZM30.0895 10.791H26.4385V5.461H29.3675C29.5593 5.461 29.7432 5.53718 29.8788 5.67276C30.0144 5.80835 30.0905 5.99225 30.0905 6.184L30.0895 10.791ZM10.0595 10.791H7.49152V5.461H10.0595V10.791ZM5.32352 10.791H1.67152V6.18C1.67152 5.98825 1.7477 5.80435 1.88329 5.66876C2.01887 5.53318 2.20278 5.457 2.39453 5.457H5.32352V10.791ZM14.7965 10.791H12.2295V5.461H14.7965V10.791ZM19.5325 10.791H16.9645V5.461H19.5325V10.791ZM1.67152 14.291V12.956H30.0895V14.29C30.0895 14.3849 30.0708 14.479 30.0345 14.5667C29.9981 14.6544 29.9449 14.7341 29.8778 14.8012C29.8106 14.8684 29.7309 14.9216 29.6432 14.958C29.5555 14.9943 29.4615 15.013 29.3665 15.013H2.39352C2.20177 15.013 2.01787 14.9368 1.88228 14.8012C1.74669 14.6657 1.67052 14.4818 1.67052 14.29L1.67152 14.291ZM13.8135 39.115H17.9475C17.9951 39.115 18.0421 39.1244 18.0861 39.1426C18.13 39.1607 18.1699 39.1874 18.2035 39.221C18.2371 39.2546 18.2638 39.2946 18.282 39.3385C18.3002 39.3824 18.3095 39.4295 18.3095 39.477V42.645H21.4805C21.5765 42.645 21.6686 42.6831 21.7365 42.751C21.8044 42.8189 21.8425 42.911 21.8425 43.007V47.141C21.8425 47.237 21.8044 47.3291 21.7365 47.397C21.6686 47.4649 21.5765 47.503 21.4805 47.503H18.3115V50.672C18.3115 50.768 18.2734 50.8601 18.2055 50.928C18.1376 50.9959 18.0455 51.034 17.9495 51.034H13.8155C13.7195 51.034 13.6274 50.9959 13.5596 50.928C13.4917 50.8601 13.4535 50.768 13.4535 50.672V47.501H10.2805C10.1845 47.501 10.0924 47.4629 10.0246 47.395C9.95666 47.3271 9.91852 47.235 9.91852 47.139V43.006C9.91852 42.91 9.95666 42.8179 10.0246 42.75C10.0924 42.6821 10.1845 42.644 10.2805 42.644H13.4495V39.476C13.4494 39.4283 13.4587 39.3811 13.4769 39.3371C13.4951 39.293 13.5219 39.253 13.5556 39.2194C13.5894 39.1857 13.6294 39.1591 13.6735 39.141C13.7176 39.1229 13.7649 39.1137 13.8125 39.114L13.8135 39.115Z" fill="#06913D"/>
</svg>
