<svg width="108" height="130" viewBox="0 0 108 130" fill="none" xmlns="http://www.w3.org/2000/svg">
<path d="M48.4819 0.597168H58.9379C57.6958 3.01946 55.9044 5.11767 53.7069 6.72417C51.5023 5.12687 49.711 3.0263 48.4819 0.597168ZM27.9309 39.2632C33.1771 39.3023 38.3527 38.0523 43.0029 35.6232C46.2712 33.7847 49.9579 32.8189 53.7079 32.8189C57.4578 32.8189 61.1445 33.7847 64.4129 35.6232C69.063 38.0524 74.2386 39.3024 79.4849 39.2632C95.1439 39.2632 105.262 30.8312 105.262 17.7822C105.262 10.9102 100.924 2.15417 100.739 1.78217C100.56 1.42585 100.286 1.1263 99.9465 0.917015C99.6073 0.707735 99.2165 0.596989 98.8179 0.597168H63.7349C62.5589 3.20717 59.6049 8.69717 54.6539 11.1202C54.36 11.2635 54.0373 11.338 53.7104 11.338C53.3834 11.338 53.0607 11.2635 52.7669 11.1202C47.8149 8.69717 44.8579 3.20717 43.6849 0.597168H8.60086C8.20186 0.596989 7.8107 0.707948 7.47122 0.917605C7.13174 1.12726 6.85737 1.42733 6.67886 1.78417C6.49486 2.15317 2.15585 10.9102 2.15585 17.7842C2.15585 30.8332 12.2739 39.2652 27.9329 39.2652L27.9309 39.2632ZM2.15785 71.4842C2.40007 66.4454 3.49669 61.4845 5.40086 56.8132C7.65374 60.0536 10.7113 62.6518 14.2729 64.3522C14.573 64.5036 14.9037 64.5847 15.2399 64.5892C15.6364 64.588 16.0248 64.477 16.3622 64.2686C16.6995 64.0601 16.9725 63.7623 17.1509 63.4082C17.2995 63.107 17.3804 62.7769 17.3879 62.4412C17.3889 62.0413 17.2791 61.6489 17.0706 61.3077C16.8622 60.9665 16.5632 60.6897 16.2069 60.5082C9.63286 57.1992 6.45386 52.3662 6.45386 45.7082C6.6196 43.0779 7.22218 40.4935 8.23686 38.0612C14.0937 41.8501 20.9644 43.7683 27.9369 43.5612C33.8091 43.6074 39.604 42.2214 44.8199 39.5232C47.5189 37.9475 50.5881 37.1172 53.7134 37.1172C56.8387 37.1172 59.9078 37.9475 62.6069 39.5232C67.8227 42.2214 73.6176 43.6074 79.4899 43.5612C86.4623 43.7681 93.3329 41.85 99.1899 38.0612C100.205 40.4935 100.807 43.0779 100.973 45.7082C101.051 48.7691 100.214 51.7837 98.5669 54.3652C96.6976 57.0207 94.1643 59.1393 91.2199 60.5092C90.7888 60.7287 90.444 61.0866 90.2408 61.5256C90.0376 61.9646 89.9877 62.4591 90.0992 62.9298C90.2108 63.4005 90.4772 63.82 90.8558 64.1211C91.2344 64.4222 91.7031 64.5874 92.1869 64.5902C92.523 64.5857 92.8537 64.5046 93.1539 64.3532C96.7154 62.6528 99.773 60.0546 102.026 56.8142C103.926 61.4858 105.019 66.4464 105.258 71.4842C105.258 101.213 73.6379 112.298 53.7039 112.298C42.5715 112.154 31.6429 109.293 21.8679 103.964C8.97886 96.5742 2.14886 85.3642 2.14886 71.4852L2.15785 71.4842ZM51.5579 92.9652C51.5579 93.5354 51.7844 94.0822 52.1876 94.4855C52.5908 94.8887 53.1376 95.1152 53.7079 95.1152C54.2781 95.1152 54.8249 94.8887 55.2281 94.4855C55.6313 94.0822 55.8579 93.5354 55.8579 92.9652V88.6652C55.8579 88.095 55.6313 87.5481 55.2281 87.1449C54.8249 86.7417 54.2781 86.5152 53.7079 86.5152C53.1376 86.5152 52.5908 86.7417 52.1876 87.1449C51.7844 87.5481 51.5579 88.095 51.5579 88.6652V92.9652ZM103.168 93.4512C92.2379 109.976 69.5649 116.597 53.7079 116.597C41.8333 116.445 30.1763 113.389 19.7539 107.697C13.53 104.276 8.20786 99.4258 4.22586 93.5452C1.54671 104.615 0.131 115.952 0.00585938 127.34C0.00585938 127.91 0.232166 128.456 0.634995 128.859C1.03782 129.262 1.58417 129.488 2.15385 129.488H53.7079C52.7429 129.491 51.787 129.301 50.8958 128.931C50.0045 128.561 49.1955 128.018 48.5159 127.333L45.7449 124.562C45.5454 124.363 45.3871 124.126 45.2792 123.865C45.1712 123.605 45.1157 123.325 45.1157 123.043C45.1157 122.761 45.1712 122.482 45.2792 122.221C45.3871 121.96 45.5454 121.724 45.7449 121.524C45.9443 121.325 46.1812 121.166 46.4418 121.059C46.7024 120.951 46.9818 120.895 47.2639 120.895C47.546 120.895 47.8253 120.951 48.0859 121.059C48.3466 121.166 48.5834 121.325 48.7829 121.524L51.5539 124.295C52.1332 124.851 52.9052 125.162 53.7084 125.162C54.5115 125.162 55.2835 124.851 55.8629 124.295L58.6339 121.524C59.0367 121.121 59.5831 120.895 60.1529 120.895C60.7226 120.895 61.269 121.121 61.6719 121.524C62.0747 121.927 62.3011 122.473 62.3011 123.043C62.3011 123.613 62.0747 124.159 61.6719 124.562L58.9009 127.333C58.2212 128.018 57.4122 128.561 56.521 128.931C55.6297 129.301 54.6739 129.491 53.7089 129.488H105.258C105.828 129.488 106.374 129.262 106.777 128.859C107.18 128.456 107.406 127.91 107.406 127.34C107.279 115.922 105.857 104.555 103.166 93.4572L103.168 93.4512Z" fill="#06913D"/>
</svg>
