<svg width="44" height="44" viewBox="0 0 44 44" fill="none" xmlns="http://www.w3.org/2000/svg">
<path d="M21.5003 43.4996C17.2488 43.4984 13.0931 42.2369 9.55844 39.8744C6.02382 37.5118 3.26897 34.1544 1.64215 30.2265C0.0153223 26.2986 -0.41044 21.9765 0.41868 17.8067C1.2478 13.6368 3.29458 9.80636 6.30028 6.79956C8.28215 4.74018 10.6547 3.09662 13.2793 1.96499C15.9038 0.833373 18.7277 0.236403 21.5857 0.208996C24.4436 0.18159 27.2784 0.724296 29.9242 1.80538C32.57 2.88646 34.9736 4.48422 36.9946 6.50521C39.0156 8.52621 40.6134 10.9299 41.6945 13.5756C42.7755 16.2214 43.3182 19.0562 43.2908 21.9142C43.2634 24.7722 42.6665 27.596 41.5348 30.2206C40.4032 32.8451 38.7597 35.2177 36.7003 37.1996C34.709 39.2025 32.3403 40.7906 29.7313 41.8719C27.1222 42.9533 24.3246 43.5065 21.5003 43.4996ZM21.5003 4.08256C17.9566 4.08256 14.4926 5.13337 11.5461 7.10211C8.59969 9.07086 6.30322 11.8691 4.94713 15.143C3.59103 18.4169 3.23622 22.0194 3.92755 25.495C4.61888 28.9705 6.32531 32.163 8.83105 34.6688C11.3368 37.1745 14.5293 38.881 18.0048 39.5723C21.4804 40.2636 25.0829 39.9088 28.3568 38.5527C31.6307 37.1966 34.429 34.9001 36.3977 31.9537C38.3665 29.0073 39.4173 25.5432 39.4173 21.9996C39.412 17.2493 37.5226 12.6951 34.1637 9.33617C30.8047 5.97723 26.2505 4.08785 21.5003 4.08256ZM18.4053 31.6306C16.009 31.6317 13.6628 30.9441 11.6463 29.6496C11.9961 29.6907 12.348 29.7114 12.7003 29.7116C14.6881 29.717 16.6193 29.0503 18.1803 27.8196C17.2598 27.8029 16.3675 27.4988 15.6285 26.9497C14.8895 26.4006 14.3408 25.6341 14.0593 24.7576C14.7206 24.8847 15.4023 24.8591 16.0523 24.6826C15.0461 24.4758 14.1431 23.926 13.4975 23.127C12.852 22.3281 12.5041 21.3297 12.5133 20.3026C13.127 20.6418 13.8124 20.8306 14.5133 20.8536C13.5805 20.2286 12.9204 19.2721 12.6669 18.1783C12.4134 17.0845 12.5855 15.9352 13.1483 14.9636C14.2578 16.324 15.6399 17.4369 17.2057 18.2308C18.7715 19.0246 20.4861 19.4817 22.2393 19.5726C22.0186 18.6268 22.1161 17.6346 22.5167 16.7498C22.9172 15.8651 23.5984 15.1372 24.4547 14.679C25.311 14.2207 26.2946 14.0578 27.2529 14.2154C28.2112 14.3729 29.0908 14.8423 29.7553 15.5506C30.7429 15.3565 31.69 14.9946 32.5553 14.4806C32.2259 15.5022 31.5364 16.3694 30.6153 16.9206C31.4895 16.8151 32.343 16.5791 33.1473 16.2206C32.5577 17.108 31.8123 17.8815 30.9473 18.5036C31.0087 20.2267 30.7267 21.9448 30.1178 23.5579C29.5088 25.171 28.5851 26.6469 27.4003 27.8996C26.2415 29.111 24.8434 30.0682 23.2949 30.7105C21.7464 31.3528 20.0813 31.6661 18.4053 31.6306Z" fill="white"/>
</svg>
